M48
;Layer_Color=9474304
;FILE_FORMAT=4:4
METRIC,LZ
;TYPE=PLATED
T1F00S00C0.3000
T2F00S00C0.7000
T3F00S00C0.8000
T4F00S00C1.0000
T5F00S00C1.3000
T6F00S00C2.0000
T7F00S00C3.0000
%
T01
X00769Y000617
X0078
X00769Y00077
Y00087
Y00099
X00778
X00787
X00797Y00099
Y0009
Y0008
Y00071
X00685Y00087
Y00101
X00669
X00655Y00096
Y00086
X00643Y00084
Y00094
X00633
Y00084
X0060605Y00082865
X00595
Y000935
X0060655
X00591Y0014
Y0015
X0058375Y0014525
Y001555
X00561Y0014275
X00520297Y0018625
Y00196
Y00207062
X00526547Y0020175
X00508999Y00199
X00503Y00192
X00509Y00184
X0050375Y00207062
X005015Y002475
X00489
X004765
Y0026
X00489
Y002725
X004765
X005015
X005015Y0026
X0054Y00256
X00539999Y00242999
X00546547Y00249
Y00236
X00546546Y002235
X0054025Y0022975
X00572Y0022725
X00582
Y00217
X00572
X00547Y0026425
X005725Y0031
Y00319
X005825
Y0031
X00589Y00328
X0057975Y0033475
X0063575Y00325
X0064575
X006558
X0066575
X0067575
X00686Y00329
X00696
Y00319
X00686
Y00309
X00696
X004925Y0031025
X004925Y0032275
X00472799Y00324104
X00482999Y00306999
X00485Y00291686
X004725Y00294
X00423297Y00299589
X003635Y00328
X00353081Y00335915
Y00319
X00381Y00217
X00365Y00175
X00366Y00154
Y00135
X00367Y00115
X004115Y00118965
Y00107965
Y00129965
Y00140965
X00431365Y00164183
X00468Y00166155
X0048Y00126
X00268Y00128155
X0026515Y001365
Y00146125
X0026725Y0017129
Y00181078
Y0018975
X0027675Y00181078
Y00170707
X0027375Y00220231
X0026515
Y0023
X0027375
X002735Y002395
X0026515
Y0031
Y0031825
Y00326569
X002735Y00333
Y00312753
X0027575Y00103
Y00093951
X0026515Y0009423
Y0010325
X0027075Y0008575
X002645Y003535
Y0036275
Y00371195
Y0037975
X0027375Y0039475
Y00405336
X0026515
Y00415
X002735
X0026515Y00424049
Y00451
X0027375
Y00461
X0026515
Y004695
X002735
X00356Y00425
Y00413
X00365Y00417
Y00405
X0036225Y0038
X00353081Y003885
Y0037075
Y003535
X003625Y00362
X00363Y00345
X00463316Y00341604
X00488889Y00342
X00495Y003705
X005115Y00399571
X00463
X00455797Y0036025
X00414Y00399571
X00476977Y00472192
X00477087Y004825
X00489
X00488889Y00472192
X005005Y00471605
Y004825
X0051275
Y00471605
X00515Y0052
X00525
Y0053
Y0054
X00534626
X00535Y0055
X00545
X00555
X00565
Y0054
X00575
Y0055
Y0053
X00585
X00595
X00605
Y0052
X00575
X00504796
X00495
X00485Y0053
Y0054
Y0055
X00495
X00505
X00515
X00525
X00474707
Y0054
Y0053
X0055875Y004565
Y0041375
X00559Y0039425
X0057975Y00392508
X00559Y0035275
T02
X0038Y0041
T03
X0073671Y00320746
X0075671
X0071671
X0064855Y00147
X0062855
X0060855
Y00126
X0062855
X0064855
X0067005Y000867
Y000617
X00249Y0004
X00229
X00209
X00189
X001695
X001495
X001295
X001095
X0011Y0001647
X0013
X0015
X0017
X001895
X002095
X002295
X002495
X0071671Y00341604
X0073671Y00341746
X0075671
X007945Y00439
X008195
T04
X00405Y00235
Y0026
Y00285
Y0031
T05
X0026375Y0051
X0028875
X0031375
X0033875
X00364
X00389
T06
X00113Y00104
Y00146
Y00188
Y0023
X00168
Y00188
Y00146
Y00104
Y0033
X00113
Y00372
Y00414
Y00456
X00168
Y00414
Y00372
X00658Y003915
X007
Y004465
X00658
T07
X00679Y0052
M30
