G04*
G04 #@! TF.GenerationSoftware,Altium Limited,Altium Designer,19.1.5 (86)*
G04*
G04 Layer_Physical_Order=2*
G04 Layer_Color=16711680*
%FSLAX44Y44*%
%MOMM*%
G71*
G01*
G75*
%ADD10C,0.3000*%
%ADD12C,0.2500*%
%ADD71C,0.7000*%
%ADD74C,0.5000*%
%ADD76C,1.2000*%
%ADD78C,0.6000*%
%ADD82P,1.5154X8X22.5*%
%ADD83C,1.4000*%
%ADD84C,1.5000*%
%ADD85P,1.6236X8X292.5*%
%ADD86C,3.0000*%
%ADD87C,2.0000*%
%ADD88P,2.1648X8X22.5*%
%ADD89P,1.5154X8X112.5*%
%ADD90C,0.7000*%
%ADD91C,1.2000*%
G36*
X785000Y495000D02*
X845000D01*
Y374000D01*
Y65000D01*
X785000D01*
Y5000D01*
X275000D01*
Y78000D01*
X212000D01*
Y480000D01*
X343000Y480000D01*
X343000Y92000D01*
X597000D01*
Y114778D01*
X597146Y114836D01*
X598270Y114989D01*
X598558Y114558D01*
X599220Y114116D01*
X600000Y113961D01*
X659211Y113961D01*
X659992Y114116D01*
X660653Y114558D01*
X661095Y115220D01*
X661251Y116000D01*
X661251Y162961D01*
X764000D01*
X764780Y163116D01*
X765442Y163558D01*
X765884Y164220D01*
X766039Y165000D01*
X766039Y349717D01*
X765884Y350497D01*
X765442Y351159D01*
X764780Y351601D01*
X764000Y351756D01*
X707000Y351756D01*
X706220Y351601D01*
X705558Y351159D01*
X705116Y350497D01*
X704961Y349717D01*
X704961Y212039D01*
X600000D01*
X599220Y211884D01*
X598558Y211442D01*
X598270Y211011D01*
X597146Y211164D01*
X597000Y211222D01*
Y374465D01*
X653870D01*
X654569Y374253D01*
X658000Y373915D01*
X661431Y374253D01*
X662130Y374465D01*
X695870D01*
X696569Y374253D01*
X700000Y373915D01*
X703431Y374253D01*
X704130Y374465D01*
X720000D01*
Y469000D01*
X675000D01*
X625000Y469000D01*
D01*
X675000D01*
Y453397D01*
X673782Y453037D01*
X672203Y455990D01*
X670079Y458579D01*
X667490Y460703D01*
X664537Y462282D01*
X661333Y463254D01*
X660500Y463336D01*
Y446500D01*
X658000D01*
D01*
X660500D01*
Y429664D01*
X661333Y429746D01*
X664537Y430718D01*
X667490Y432297D01*
X670079Y434421D01*
X672203Y437010D01*
X673782Y439963D01*
X675000Y439603D01*
Y421608D01*
X625000D01*
Y421504D01*
X603138D01*
X600992Y421077D01*
X599173Y419861D01*
X575785Y396473D01*
X574569Y394654D01*
X574142Y392508D01*
Y334750D01*
X574469Y333108D01*
X573670Y331838D01*
X569300D01*
X567545Y331489D01*
X566056Y330494D01*
X564262Y328700D01*
X563088Y329186D01*
Y335475D01*
X563239Y335700D01*
X563588Y337456D01*
Y349717D01*
X564181Y350604D01*
X564608Y352750D01*
X564181Y354896D01*
X562965Y356715D01*
X561146Y357931D01*
X559000Y358358D01*
X556854Y357931D01*
X555035Y356715D01*
X553819Y354896D01*
X553392Y352750D01*
X553819Y350604D01*
X554412Y349717D01*
Y338938D01*
X554261Y338712D01*
X553912Y336956D01*
Y324104D01*
X543372Y313564D01*
X531500D01*
X531084Y313481D01*
X529814Y314443D01*
Y315067D01*
X529561Y316335D01*
X529116Y317002D01*
X529466Y318221D01*
X529598Y318393D01*
X529959Y318465D01*
X531448Y319459D01*
X547494Y335506D01*
X548489Y336994D01*
X548838Y338750D01*
Y397671D01*
X549777Y398609D01*
X550744Y399256D01*
X559850Y408361D01*
X560896Y408569D01*
X562422Y409589D01*
X563693Y409135D01*
Y406873D01*
X555035Y398215D01*
X553819Y396396D01*
X553392Y394250D01*
X553819Y392104D01*
X555035Y390285D01*
X556854Y389069D01*
X559000Y388642D01*
X561146Y389069D01*
X562965Y390285D01*
X573266Y400585D01*
X574481Y402404D01*
X574908Y404550D01*
Y445700D01*
X574481Y447846D01*
X573266Y449665D01*
X563219Y459712D01*
X562715Y460465D01*
X560896Y461681D01*
X558750Y462108D01*
X556604Y461681D01*
X554785Y460465D01*
X553569Y458646D01*
X553142Y456500D01*
Y456250D01*
X553569Y454104D01*
X554785Y452285D01*
X563693Y443377D01*
Y418365D01*
X562422Y417911D01*
X560896Y418931D01*
X558750Y419358D01*
X556604Y418931D01*
X554785Y417715D01*
X553569Y415896D01*
X553361Y414850D01*
X544902Y406391D01*
X543935Y405744D01*
X541006Y402815D01*
X540011Y401327D01*
X539662Y399571D01*
Y340650D01*
X526303Y327292D01*
X495603D01*
X494646Y327931D01*
X492500Y328358D01*
X490354Y327931D01*
X488535Y326715D01*
X487319Y324896D01*
X486892Y322750D01*
X487319Y320604D01*
X488535Y318785D01*
X490354Y317569D01*
X492500Y317142D01*
X494646Y317569D01*
X495463Y318115D01*
X498101D01*
X498780Y316845D01*
X498439Y316335D01*
X498186Y315067D01*
Y313564D01*
X496901D01*
X496465Y314215D01*
X494646Y315431D01*
X492500Y315858D01*
X490354Y315431D01*
X488535Y314215D01*
X487319Y312396D01*
X487294Y312271D01*
X485883Y311687D01*
X485145Y312180D01*
X484099Y312388D01*
X477770Y318717D01*
Y321644D01*
X477980Y321958D01*
X478407Y324104D01*
X477980Y326250D01*
X476764Y328069D01*
X474945Y329285D01*
X472799Y329712D01*
X470653Y329285D01*
X468834Y328069D01*
X467618Y326250D01*
X467191Y324104D01*
X467618Y321958D01*
X468593Y320498D01*
Y316817D01*
X468943Y315061D01*
X469937Y313573D01*
X477610Y305900D01*
X477818Y304853D01*
X477954Y304650D01*
X477540Y302984D01*
X476877Y302541D01*
X473705Y299368D01*
X472500Y299608D01*
X470354Y299181D01*
X468535Y297965D01*
X467319Y296146D01*
X466892Y294000D01*
X467319Y291854D01*
X468535Y290035D01*
X470354Y288819D01*
X472500Y288392D01*
X474646Y288819D01*
X475833Y289612D01*
X476581Y289761D01*
X478069Y290756D01*
X478247Y290933D01*
X479625Y290515D01*
X479819Y289540D01*
X481035Y287721D01*
X482854Y286506D01*
X485000Y286079D01*
X487146Y286506D01*
X487775Y286926D01*
X499079D01*
X499399Y286862D01*
X525256Y261006D01*
X526744Y260011D01*
X528500Y259662D01*
X534485D01*
X535084Y258542D01*
X534819Y258146D01*
X534392Y256000D01*
X534819Y253854D01*
X536035Y252035D01*
X537854Y250819D01*
X539246Y250542D01*
X540213Y249269D01*
X540085Y248685D01*
X539733Y248554D01*
X537853Y248180D01*
X536966Y247588D01*
X516499D01*
X514744Y247238D01*
X513255Y246244D01*
X509599Y242588D01*
X470830D01*
X455588Y257829D01*
Y334750D01*
X455239Y336506D01*
X454244Y337994D01*
X408994Y383244D01*
X407506Y384239D01*
X405750Y384588D01*
X365283D01*
X364396Y385181D01*
X362250Y385608D01*
X360104Y385181D01*
X358285Y383965D01*
X357069Y382146D01*
X356642Y380000D01*
X357069Y377854D01*
X358285Y376035D01*
X360104Y374819D01*
X362250Y374392D01*
X364396Y374819D01*
X365283Y375412D01*
X403849D01*
X411500Y367761D01*
X411014Y366588D01*
X365533D01*
X364646Y367181D01*
X362500Y367608D01*
X360354Y367181D01*
X358535Y365965D01*
X357319Y364146D01*
X356892Y362000D01*
X357319Y359854D01*
X358535Y358035D01*
X360354Y356819D01*
X362500Y356392D01*
X364646Y356819D01*
X365533Y357412D01*
X412657D01*
X419308Y350761D01*
X418821Y349588D01*
X366033D01*
X365146Y350181D01*
X363000Y350608D01*
X360854Y350181D01*
X359035Y348965D01*
X357819Y347146D01*
X357392Y345000D01*
X357819Y342854D01*
X359035Y341035D01*
X360854Y339819D01*
X363000Y339392D01*
X365146Y339819D01*
X366033Y340412D01*
X420465D01*
X427115Y333761D01*
X426629Y332588D01*
X366533D01*
X365646Y333181D01*
X363500Y333608D01*
X361354Y333181D01*
X359535Y331965D01*
X358319Y330146D01*
X357892Y328000D01*
X358319Y325854D01*
X359535Y324035D01*
X361354Y322819D01*
X363500Y322392D01*
X365646Y322819D01*
X366533Y323412D01*
X426671D01*
X426912Y323171D01*
Y305135D01*
X425792Y304536D01*
X425443Y304770D01*
X423297Y305197D01*
X421151Y304770D01*
X419331Y303554D01*
X418116Y301735D01*
X417689Y299589D01*
X418116Y297443D01*
X418708Y296556D01*
Y230139D01*
X410157Y221588D01*
X384033D01*
X383146Y222181D01*
X381000Y222608D01*
X378854Y222181D01*
X377035Y220965D01*
X375819Y219146D01*
X375392Y217000D01*
X375819Y214854D01*
X377035Y213035D01*
X378854Y211819D01*
X381000Y211392D01*
X383146Y211819D01*
X384033Y212412D01*
X412058D01*
X413813Y212761D01*
X415302Y213756D01*
X426541Y224995D01*
X427535Y226483D01*
X427885Y228239D01*
Y243183D01*
X429155Y243709D01*
X457608Y215256D01*
X459096Y214261D01*
X460852Y213912D01*
X503488D01*
X503613Y212642D01*
X501604Y212242D01*
X499785Y211027D01*
X499492Y210588D01*
X396000D01*
X394244Y210239D01*
X392756Y209244D01*
X363900Y180389D01*
X362854Y180181D01*
X361035Y178965D01*
X359819Y177146D01*
X359392Y175000D01*
X359819Y172854D01*
X361035Y171035D01*
X362854Y169819D01*
X365000Y169392D01*
X367146Y169819D01*
X368965Y171035D01*
X370181Y172854D01*
X370389Y173900D01*
X397901Y201412D01*
X405264D01*
X405750Y200238D01*
X364900Y159389D01*
X363854Y159181D01*
X362035Y157965D01*
X360819Y156146D01*
X360392Y154000D01*
X360819Y151854D01*
X362035Y150035D01*
X363854Y148819D01*
X366000Y148392D01*
X368146Y148819D01*
X369965Y150035D01*
X371181Y151854D01*
X371389Y152900D01*
X413400Y194912D01*
X417764D01*
X418250Y193738D01*
X364900Y140389D01*
X363854Y140181D01*
X362035Y138965D01*
X360819Y137146D01*
X360392Y135000D01*
X360819Y132854D01*
X362035Y131035D01*
X363854Y129819D01*
X366000Y129392D01*
X368146Y129819D01*
X369965Y131035D01*
X371181Y132854D01*
X371389Y133900D01*
X424901Y187412D01*
X431127D01*
X431653Y186142D01*
X365900Y120389D01*
X364854Y120181D01*
X363035Y118965D01*
X361819Y117146D01*
X361392Y115000D01*
X361819Y112854D01*
X363035Y111035D01*
X364854Y109819D01*
X367000Y109392D01*
X369146Y109819D01*
X370965Y111035D01*
X372181Y112854D01*
X372389Y113900D01*
X437901Y179412D01*
X505967D01*
X506854Y178819D01*
X509000Y178392D01*
X511146Y178819D01*
X512965Y180035D01*
X514181Y181854D01*
X514608Y184000D01*
X514181Y186146D01*
X512965Y187965D01*
X511146Y189181D01*
X509316Y189545D01*
X508985Y189635D01*
X508364Y190776D01*
X508608Y192000D01*
X508442Y192835D01*
X508999Y193392D01*
X511145Y193819D01*
X512964Y195034D01*
X514180Y196854D01*
X514607Y199000D01*
X514180Y201146D01*
X512964Y202965D01*
X511145Y204181D01*
X510025Y204403D01*
X509023Y204873D01*
X509104Y205783D01*
X509358Y207062D01*
X508931Y209207D01*
X507715Y211027D01*
X505896Y212242D01*
X503887Y212642D01*
X504012Y213912D01*
X521750D01*
X523506Y214261D01*
X524994Y215256D01*
X527400Y217662D01*
X543357D01*
X545112Y218011D01*
X545304Y218139D01*
X546546Y217892D01*
X548178Y218217D01*
X549449Y217413D01*
Y187408D01*
X521388Y159348D01*
X482017D01*
X473210Y168155D01*
X473181Y168301D01*
X471965Y170120D01*
X470146Y171336D01*
X468000Y171763D01*
X465854Y171336D01*
X464035Y170120D01*
X462819Y168301D01*
X462392Y166155D01*
X462819Y164009D01*
X464035Y162190D01*
X465854Y160974D01*
X466000Y160945D01*
X476300Y150645D01*
X477954Y149540D01*
X479905Y149152D01*
X523500D01*
X525451Y149540D01*
X527105Y150645D01*
X557132Y180672D01*
X558402Y180146D01*
Y147629D01*
X557035Y146715D01*
X555819Y144896D01*
X555392Y142750D01*
X555819Y140604D01*
X557035Y138785D01*
X558854Y137569D01*
X561000Y137142D01*
X563146Y137569D01*
X564965Y138785D01*
X566181Y140604D01*
X566210Y140750D01*
X567105Y141645D01*
X568210Y143299D01*
X568598Y145250D01*
Y244750D01*
X568210Y246701D01*
X567105Y248355D01*
X565451Y249460D01*
X563500Y249848D01*
X563157Y249780D01*
X554593Y258343D01*
X553518Y259061D01*
X552250Y259314D01*
X551624D01*
X551165Y260584D01*
X552181Y262104D01*
X552608Y264250D01*
X552181Y266396D01*
X550965Y268215D01*
X549146Y269431D01*
X547000Y269858D01*
X544854Y269431D01*
X543967Y268838D01*
X530401D01*
X505704Y293535D01*
X506190Y294708D01*
X544785D01*
X546541Y295058D01*
X548030Y296052D01*
X568244Y316267D01*
X569239Y317755D01*
X569588Y319511D01*
Y321049D01*
X571201Y322662D01*
X582857D01*
X584612Y323011D01*
X584640Y323029D01*
X586540D01*
X586854Y322819D01*
X589000Y322392D01*
X590730Y322736D01*
X592000Y321979D01*
Y105000D01*
X582000D01*
X582000Y98000D01*
X348000Y98000D01*
Y485000D01*
X235000D01*
Y555000D01*
X785000D01*
Y495000D01*
D02*
G37*
G36*
X764000Y349717D02*
X764000Y165000D01*
X659211D01*
X659211Y116000D01*
X600000Y116000D01*
Y210000D01*
X707000D01*
X707000Y349717D01*
X764000Y349717D01*
D02*
G37*
G36*
X140000Y68000D02*
X265000Y68000D01*
X265000Y5000D01*
X65000D01*
Y66000D01*
X10000D01*
X9002Y491101D01*
X9899Y492000D01*
X140000D01*
X140000Y68000D01*
D02*
G37*
%LPC*%
G36*
X364000Y522608D02*
X360737Y522178D01*
X357696Y520919D01*
X355085Y518915D01*
X353081Y516304D01*
X352062Y513844D01*
X350688D01*
X349669Y516304D01*
X347665Y518915D01*
X345054Y520919D01*
X342013Y522178D01*
X338750Y522608D01*
X335487Y522178D01*
X332446Y520919D01*
X329835Y518915D01*
X327831Y516304D01*
X326937Y514146D01*
X325563D01*
X324669Y516304D01*
X322665Y518915D01*
X320054Y520919D01*
X317013Y522178D01*
X313750Y522608D01*
X310487Y522178D01*
X307446Y520919D01*
X304835Y518915D01*
X302831Y516304D01*
X301937Y514146D01*
X300563D01*
X299669Y516304D01*
X297665Y518915D01*
X295054Y520919D01*
X292013Y522178D01*
X288750Y522608D01*
X285487Y522178D01*
X282446Y520919D01*
X279835Y518915D01*
X277831Y516304D01*
X277520Y515552D01*
X276250Y515805D01*
Y516250D01*
X270000Y522500D01*
X257500D01*
X251250Y516250D01*
Y503750D01*
X257500Y497500D01*
X270000D01*
X276250Y503750D01*
Y504195D01*
X277520Y504448D01*
X277831Y503696D01*
X279835Y501085D01*
X282446Y499081D01*
X285487Y497822D01*
X288750Y497392D01*
X292013Y497822D01*
X295054Y499081D01*
X297665Y501085D01*
X299669Y503696D01*
X300563Y505854D01*
X301937D01*
X302831Y503696D01*
X304835Y501085D01*
X307446Y499081D01*
X310487Y497822D01*
X313750Y497392D01*
X317013Y497822D01*
X320054Y499081D01*
X322665Y501085D01*
X324669Y503696D01*
X325563Y505854D01*
X326937D01*
X327831Y503696D01*
X329835Y501085D01*
X332446Y499081D01*
X335487Y497822D01*
X338750Y497392D01*
X342013Y497822D01*
X345054Y499081D01*
X347665Y501085D01*
X349669Y503696D01*
X350688Y506156D01*
X352062D01*
X353081Y503696D01*
X355085Y501085D01*
X357696Y499081D01*
X360737Y497822D01*
X364000Y497392D01*
X367263Y497822D01*
X370304Y499081D01*
X372915Y501085D01*
X374919Y503696D01*
X376116Y506587D01*
X376467Y506669D01*
X376582Y506682D01*
X377434Y506565D01*
X378518Y503948D01*
X380442Y501441D01*
X382948Y499518D01*
X385867Y498309D01*
X386500Y498226D01*
Y510000D01*
Y521774D01*
X385867Y521691D01*
X382948Y520482D01*
X380442Y518559D01*
X378518Y516052D01*
X377434Y513435D01*
X376582Y513318D01*
X376467Y513331D01*
X376116Y513413D01*
X374919Y516304D01*
X372915Y518915D01*
X370304Y520919D01*
X367263Y522178D01*
X364000Y522608D01*
D02*
G37*
G36*
X391500Y521774D02*
Y512500D01*
X400774D01*
X400691Y513133D01*
X399482Y516052D01*
X397559Y518559D01*
X395052Y520482D01*
X392133Y521691D01*
X391500Y521774D01*
D02*
G37*
G36*
X679000Y537585D02*
X675569Y537247D01*
X672271Y536246D01*
X669230Y534621D01*
X666566Y532434D01*
X664379Y529770D01*
X662754Y526729D01*
X661753Y523431D01*
X661415Y520000D01*
X661753Y516569D01*
X662754Y513271D01*
X664379Y510230D01*
X666566Y507566D01*
X669230Y505379D01*
X672271Y503754D01*
X675569Y502753D01*
X679000Y502415D01*
X682431Y502753D01*
X685729Y503754D01*
X688770Y505379D01*
X691434Y507566D01*
X693621Y510230D01*
X695246Y513271D01*
X696247Y516569D01*
X696585Y520000D01*
X696247Y523431D01*
X695246Y526729D01*
X693621Y529770D01*
X691434Y532434D01*
X688770Y534621D01*
X685729Y536246D01*
X682431Y537247D01*
X679000Y537585D01*
D02*
G37*
G36*
X400774Y507500D02*
X391500D01*
Y498226D01*
X392133Y498309D01*
X395052Y499518D01*
X397559Y501441D01*
X399482Y503948D01*
X400691Y506867D01*
X400774Y507500D01*
D02*
G37*
G36*
X540000Y511039D02*
X471000D01*
X470220Y510884D01*
X469558Y510442D01*
X469116Y509780D01*
X468961Y509000D01*
Y485069D01*
X447000D01*
X444912Y484794D01*
X442966Y483988D01*
X441294Y482706D01*
X374294Y415706D01*
X373012Y414035D01*
X372206Y412088D01*
X371931Y410000D01*
X372206Y407912D01*
X373012Y405965D01*
X374294Y404294D01*
X375965Y403012D01*
X377912Y402206D01*
X380000Y401931D01*
X382088Y402206D01*
X384035Y403012D01*
X385706Y404294D01*
X450342Y468931D01*
X468961D01*
Y467000D01*
X469116Y466220D01*
X469558Y465558D01*
X470220Y465116D01*
X471000Y464961D01*
X539897D01*
X540677Y465116D01*
X541338Y465558D01*
X541780Y466220D01*
X541884Y466470D01*
X542039Y467250D01*
Y509000D01*
X541884Y509780D01*
X541442Y510442D01*
X540780Y510884D01*
X540000Y511039D01*
D02*
G37*
G36*
X655500Y463336D02*
X654667Y463254D01*
X651463Y462282D01*
X648510Y460703D01*
X645921Y458579D01*
X643797Y455990D01*
X642218Y453037D01*
X641246Y449833D01*
X641164Y449000D01*
X655500D01*
Y463336D01*
D02*
G37*
G36*
X822000Y447706D02*
Y441500D01*
X828206D01*
X827362Y443539D01*
X825919Y445419D01*
X824039Y446861D01*
X822000Y447706D01*
D02*
G37*
G36*
X817000D02*
X814961Y446861D01*
X813081Y445419D01*
X811639Y443539D01*
X810794Y441500D01*
X817000D01*
Y447706D01*
D02*
G37*
G36*
X828206Y436500D02*
X822000D01*
Y430294D01*
X824039Y431139D01*
X825919Y432581D01*
X827362Y434461D01*
X828206Y436500D01*
D02*
G37*
G36*
X817000D02*
X810794D01*
X811639Y434461D01*
X813081Y432581D01*
X814961Y431139D01*
X817000Y430294D01*
Y436500D01*
D02*
G37*
G36*
X655500Y444000D02*
X641164D01*
X641246Y443167D01*
X642218Y439963D01*
X643797Y437010D01*
X645921Y434421D01*
X648510Y432297D01*
X651463Y430718D01*
X654667Y429746D01*
X655500Y429664D01*
Y444000D01*
D02*
G37*
G36*
X799250Y448500D02*
X789750D01*
X785000Y443750D01*
Y434250D01*
X789750Y429500D01*
X799250D01*
X804000Y434250D01*
Y443750D01*
X799250Y448500D01*
D02*
G37*
G36*
X495000Y376108D02*
X492854Y375681D01*
X491035Y374465D01*
X489819Y372646D01*
X489392Y370500D01*
Y350433D01*
X484924Y345965D01*
X483709Y344146D01*
X483282Y342000D01*
X483709Y339854D01*
X484924Y338035D01*
X486744Y336819D01*
X488889Y336392D01*
X491035Y336819D01*
X492855Y338035D01*
X498965Y344145D01*
X500181Y345965D01*
X500608Y348111D01*
Y370500D01*
X500181Y372646D01*
X498965Y374465D01*
X497146Y375681D01*
X495000Y376108D01*
D02*
G37*
G36*
X455797Y365858D02*
X453651Y365431D01*
X451831Y364215D01*
X450616Y362396D01*
X450189Y360250D01*
Y351454D01*
X450616Y349308D01*
X451831Y347488D01*
X457709Y341611D01*
Y341604D01*
X458136Y339458D01*
X459351Y337639D01*
X461171Y336423D01*
X463316Y335996D01*
X465462Y336423D01*
X467282Y337639D01*
X468497Y339458D01*
X468924Y341604D01*
Y343934D01*
X468497Y346079D01*
X467282Y347899D01*
X461404Y353776D01*
Y360250D01*
X460977Y362396D01*
X459762Y364215D01*
X457943Y365431D01*
X455797Y365858D01*
D02*
G37*
G36*
X410000Y320000D02*
X400000D01*
X395000Y315000D01*
Y305000D01*
X400000Y300000D01*
X410000D01*
X415000Y305000D01*
Y315000D01*
X410000Y320000D01*
D02*
G37*
G36*
X405000Y295086D02*
X402389Y294743D01*
X399957Y293735D01*
X397868Y292132D01*
X396265Y290043D01*
X395257Y287610D01*
X394914Y285000D01*
X395257Y282390D01*
X396265Y279957D01*
X397868Y277868D01*
X399957Y276265D01*
X402389Y275257D01*
X405000Y274914D01*
X407611Y275257D01*
X410043Y276265D01*
X412132Y277868D01*
X413735Y279957D01*
X414743Y282390D01*
X415086Y285000D01*
X414743Y287610D01*
X413735Y290043D01*
X412132Y292132D01*
X410043Y293735D01*
X407611Y294743D01*
X405000Y295086D01*
D02*
G37*
G36*
Y270086D02*
X402389Y269743D01*
X399957Y268735D01*
X397868Y267132D01*
X396265Y265043D01*
X395257Y262610D01*
X394914Y260000D01*
X395257Y257390D01*
X396265Y254957D01*
X397868Y252868D01*
X399957Y251265D01*
X402389Y250257D01*
X405000Y249914D01*
X407611Y250257D01*
X410043Y251265D01*
X412132Y252868D01*
X413735Y254957D01*
X414743Y257390D01*
X415086Y260000D01*
X414743Y262610D01*
X413735Y265043D01*
X412132Y267132D01*
X410043Y268735D01*
X407611Y269743D01*
X405000Y270086D01*
D02*
G37*
G36*
X407500Y244247D02*
Y237500D01*
X414247D01*
X413298Y239791D01*
X411775Y241775D01*
X409791Y243298D01*
X407500Y244247D01*
D02*
G37*
G36*
X402500D02*
X400209Y243298D01*
X398224Y241775D01*
X396702Y239791D01*
X395753Y237500D01*
X402500D01*
Y244247D01*
D02*
G37*
G36*
X414247Y232500D02*
X407500D01*
Y225753D01*
X409791Y226702D01*
X411775Y228225D01*
X413298Y230209D01*
X414247Y232500D01*
D02*
G37*
G36*
X402500D02*
X395753D01*
X396702Y230209D01*
X398224Y228225D01*
X400209Y226702D01*
X402500Y225753D01*
Y232500D01*
D02*
G37*
G36*
X672550Y95406D02*
Y89200D01*
X678756D01*
X677912Y91239D01*
X676469Y93119D01*
X674589Y94562D01*
X672550Y95406D01*
D02*
G37*
G36*
X667550D02*
X665511Y94562D01*
X663631Y93119D01*
X662189Y91239D01*
X661344Y89200D01*
X667550D01*
Y95406D01*
D02*
G37*
G36*
X678756Y84200D02*
X672550D01*
Y77994D01*
X674589Y78839D01*
X676469Y80281D01*
X677912Y82161D01*
X678756Y84200D01*
D02*
G37*
G36*
X667550D02*
X661344D01*
X662189Y82161D01*
X663631Y80281D01*
X665511Y78839D01*
X667550Y77994D01*
Y84200D01*
D02*
G37*
G36*
X674800Y71200D02*
X665300D01*
X660550Y66450D01*
Y56950D01*
X665300Y52200D01*
X674800D01*
X679550Y56950D01*
Y66450D01*
X674800Y71200D01*
D02*
G37*
%LPD*%
G36*
X540000Y467250D02*
X539897Y467000D01*
X471000D01*
Y470882D01*
X481000D01*
X483341Y471348D01*
X485326Y472674D01*
X486652Y474659D01*
X487118Y477000D01*
X486652Y479341D01*
X485326Y481326D01*
X483341Y482652D01*
X481000Y483118D01*
X471000D01*
Y509000D01*
X540000D01*
Y467250D01*
D02*
G37*
%LPC*%
G36*
X117500Y473445D02*
Y460500D01*
X130445D01*
X129710Y462922D01*
X128039Y466049D01*
X125789Y468789D01*
X123049Y471039D01*
X119922Y472710D01*
X117500Y473445D01*
D02*
G37*
G36*
X108500D02*
X106078Y472710D01*
X102951Y471039D01*
X100211Y468789D01*
X97961Y466049D01*
X96290Y462922D01*
X95555Y460500D01*
X108500D01*
Y473445D01*
D02*
G37*
G36*
X130445Y451500D02*
X117500D01*
Y438555D01*
X119922Y439290D01*
X123049Y440961D01*
X125789Y443210D01*
X128039Y445951D01*
X129710Y449078D01*
X130445Y451500D01*
D02*
G37*
G36*
X108500D02*
X95555D01*
X96290Y449078D01*
X97961Y445951D01*
X100211Y443210D01*
X102951Y440961D01*
X106078Y439290D01*
X108500Y438555D01*
Y451500D01*
D02*
G37*
G36*
X40000Y473585D02*
X36569Y473247D01*
X33271Y472246D01*
X30231Y470621D01*
X27566Y468434D01*
X25379Y465770D01*
X23754Y462729D01*
X22753Y459431D01*
X22415Y456000D01*
X22753Y452569D01*
X23754Y449271D01*
X25379Y446231D01*
X27566Y443566D01*
X30231Y441379D01*
X33271Y439754D01*
X36569Y438753D01*
X40000Y438415D01*
X43431Y438753D01*
X46729Y439754D01*
X49770Y441379D01*
X52434Y443566D01*
X54621Y446231D01*
X56246Y449271D01*
X57247Y452569D01*
X57585Y456000D01*
X57247Y459431D01*
X56246Y462729D01*
X54621Y465770D01*
X52434Y468434D01*
X49770Y470621D01*
X46729Y472246D01*
X43431Y473247D01*
X40000Y473585D01*
D02*
G37*
G36*
X117500Y431445D02*
Y418500D01*
X130445D01*
X129710Y420922D01*
X128039Y424049D01*
X125789Y426790D01*
X123049Y429039D01*
X119922Y430710D01*
X117500Y431445D01*
D02*
G37*
G36*
X108500Y431445D02*
X106078Y430710D01*
X102951Y429039D01*
X100211Y426790D01*
X97961Y424049D01*
X96290Y420922D01*
X95555Y418500D01*
X108500D01*
Y431445D01*
D02*
G37*
G36*
Y409500D02*
X95555D01*
X96290Y407078D01*
X97961Y403951D01*
X100211Y401211D01*
X102951Y398961D01*
X106078Y397290D01*
X108500Y396555D01*
Y409500D01*
D02*
G37*
G36*
X130445D02*
X117500D01*
Y396555D01*
X119922Y397290D01*
X123049Y398961D01*
X125789Y401211D01*
X128039Y403951D01*
X129710Y407078D01*
X130445Y409500D01*
D02*
G37*
G36*
X117500Y389445D02*
Y376500D01*
X130445D01*
X129710Y378922D01*
X128039Y382049D01*
X125789Y384790D01*
X123049Y387039D01*
X119922Y388710D01*
X117500Y389445D01*
D02*
G37*
G36*
X108500Y389445D02*
X106078Y388710D01*
X102951Y387039D01*
X100211Y384790D01*
X97961Y382049D01*
X96290Y378922D01*
X95555Y376500D01*
X108500D01*
Y389445D01*
D02*
G37*
G36*
Y367500D02*
X95555D01*
X96290Y365078D01*
X97961Y361951D01*
X100211Y359211D01*
X102951Y356961D01*
X106078Y355290D01*
X108500Y354555D01*
Y367500D01*
D02*
G37*
G36*
X130445D02*
X117500D01*
Y354555D01*
X119922Y355290D01*
X123049Y356961D01*
X125789Y359211D01*
X128039Y361951D01*
X129710Y365078D01*
X130445Y367500D01*
D02*
G37*
G36*
X117500Y347445D02*
Y334500D01*
X130445D01*
X129710Y336922D01*
X128039Y340049D01*
X125789Y342789D01*
X123049Y345039D01*
X119922Y346710D01*
X117500Y347445D01*
D02*
G37*
G36*
X108500D02*
X106078Y346710D01*
X102951Y345039D01*
X100211Y342789D01*
X97961Y340049D01*
X96290Y336922D01*
X95555Y334500D01*
X108500D01*
Y347445D01*
D02*
G37*
G36*
Y325500D02*
X95555D01*
X96290Y323078D01*
X97961Y319951D01*
X100211Y317211D01*
X102951Y314961D01*
X106078Y313290D01*
X108500Y312555D01*
Y325500D01*
D02*
G37*
G36*
X130445D02*
X117500D01*
Y312555D01*
X119922Y313290D01*
X123049Y314961D01*
X125789Y317211D01*
X128039Y319951D01*
X129710Y323078D01*
X130445Y325500D01*
D02*
G37*
G36*
X40000Y347585D02*
X36569Y347247D01*
X33271Y346246D01*
X30231Y344621D01*
X27566Y342434D01*
X25379Y339770D01*
X23754Y336729D01*
X22753Y333431D01*
X22415Y330000D01*
X22753Y326569D01*
X23754Y323271D01*
X25379Y320230D01*
X27566Y317566D01*
X30231Y315379D01*
X33271Y313754D01*
X36569Y312753D01*
X40000Y312415D01*
X43431Y312753D01*
X46729Y313754D01*
X49770Y315379D01*
X52434Y317566D01*
X54621Y320230D01*
X56246Y323271D01*
X57247Y326569D01*
X57585Y330000D01*
X57247Y333431D01*
X56246Y336729D01*
X54621Y339770D01*
X52434Y342434D01*
X49770Y344621D01*
X46729Y346246D01*
X43431Y347247D01*
X40000Y347585D01*
D02*
G37*
G36*
X117500Y247445D02*
Y234500D01*
X130445D01*
X129710Y236922D01*
X128039Y240049D01*
X125789Y242789D01*
X123049Y245039D01*
X119922Y246710D01*
X117500Y247445D01*
D02*
G37*
G36*
X108500D02*
X106078Y246710D01*
X102951Y245039D01*
X100211Y242789D01*
X97961Y240049D01*
X96290Y236922D01*
X95555Y234500D01*
X108500D01*
Y247445D01*
D02*
G37*
G36*
Y225500D02*
X95555D01*
X96290Y223078D01*
X97961Y219951D01*
X100211Y217211D01*
X102951Y214961D01*
X106078Y213290D01*
X108500Y212555D01*
Y225500D01*
D02*
G37*
G36*
X130445D02*
X117500D01*
Y212555D01*
X119922Y213290D01*
X123049Y214961D01*
X125789Y217211D01*
X128039Y219951D01*
X129710Y223078D01*
X130445Y225500D01*
D02*
G37*
G36*
X40000Y247585D02*
X36569Y247247D01*
X33271Y246246D01*
X30231Y244621D01*
X27566Y242434D01*
X25379Y239769D01*
X23754Y236729D01*
X22753Y233431D01*
X22415Y230000D01*
X22753Y226569D01*
X23754Y223271D01*
X25379Y220231D01*
X27566Y217566D01*
X30231Y215379D01*
X33271Y213754D01*
X36569Y212753D01*
X40000Y212415D01*
X43431Y212753D01*
X46729Y213754D01*
X49770Y215379D01*
X52434Y217566D01*
X54621Y220231D01*
X56246Y223271D01*
X57247Y226569D01*
X57585Y230000D01*
X57247Y233431D01*
X56246Y236729D01*
X54621Y239769D01*
X52434Y242434D01*
X49770Y244621D01*
X46729Y246246D01*
X43431Y247247D01*
X40000Y247585D01*
D02*
G37*
G36*
X117500Y205445D02*
Y192500D01*
X130445D01*
X129710Y194922D01*
X128039Y198049D01*
X125789Y200790D01*
X123049Y203039D01*
X119922Y204710D01*
X117500Y205445D01*
D02*
G37*
G36*
X108500D02*
X106078Y204710D01*
X102951Y203039D01*
X100211Y200790D01*
X97961Y198049D01*
X96290Y194922D01*
X95555Y192500D01*
X108500D01*
Y205445D01*
D02*
G37*
G36*
X130445Y183500D02*
X117500D01*
Y170555D01*
X119922Y171290D01*
X123049Y172961D01*
X125789Y175210D01*
X128039Y177951D01*
X129710Y181078D01*
X130445Y183500D01*
D02*
G37*
G36*
X108500D02*
X95555D01*
X96290Y181078D01*
X97961Y177951D01*
X100211Y175210D01*
X102951Y172961D01*
X106078Y171290D01*
X108500Y170555D01*
Y183500D01*
D02*
G37*
G36*
X117500Y163445D02*
Y150500D01*
X130445D01*
X129710Y152922D01*
X128039Y156049D01*
X125789Y158790D01*
X123049Y161039D01*
X119922Y162710D01*
X117500Y163445D01*
D02*
G37*
G36*
X108500D02*
X106078Y162710D01*
X102951Y161039D01*
X100211Y158790D01*
X97961Y156049D01*
X96290Y152922D01*
X95555Y150500D01*
X108500D01*
Y163445D01*
D02*
G37*
G36*
X130445Y141500D02*
X117500D01*
Y128555D01*
X119922Y129290D01*
X123049Y130961D01*
X125789Y133210D01*
X128039Y135951D01*
X129710Y139078D01*
X130445Y141500D01*
D02*
G37*
G36*
X108500D02*
X95555D01*
X96290Y139078D01*
X97961Y135951D01*
X100211Y133210D01*
X102951Y130961D01*
X106078Y129290D01*
X108500Y128555D01*
Y141500D01*
D02*
G37*
G36*
X117500Y121445D02*
Y108500D01*
X130445D01*
X129710Y110922D01*
X128039Y114049D01*
X125789Y116790D01*
X123049Y119039D01*
X119922Y120710D01*
X117500Y121445D01*
D02*
G37*
G36*
X108500Y121445D02*
X106078Y120710D01*
X102951Y119039D01*
X100211Y116790D01*
X97961Y114049D01*
X96290Y110922D01*
X95555Y108500D01*
X108500D01*
Y121445D01*
D02*
G37*
G36*
Y99500D02*
X95555D01*
X96290Y97078D01*
X97961Y93951D01*
X100211Y91210D01*
X102951Y88961D01*
X106078Y87290D01*
X108500Y86555D01*
Y99500D01*
D02*
G37*
G36*
X130445D02*
X117500D01*
Y86555D01*
X119922Y87290D01*
X123049Y88961D01*
X125789Y91210D01*
X128039Y93951D01*
X129710Y97078D01*
X130445Y99500D01*
D02*
G37*
G36*
X40000Y121585D02*
X36569Y121247D01*
X33271Y120246D01*
X30231Y118621D01*
X27566Y116434D01*
X25379Y113770D01*
X23754Y110729D01*
X22753Y107431D01*
X22415Y104000D01*
X22753Y100569D01*
X23754Y97271D01*
X25379Y94230D01*
X27566Y91566D01*
X30231Y89379D01*
X33271Y87754D01*
X36569Y86753D01*
X40000Y86415D01*
X43431Y86753D01*
X46729Y87754D01*
X49770Y89379D01*
X52434Y91566D01*
X54621Y94230D01*
X56246Y97271D01*
X57247Y100569D01*
X57585Y104000D01*
X57247Y107431D01*
X56246Y110729D01*
X54621Y113770D01*
X52434Y116434D01*
X49770Y118621D01*
X46729Y120246D01*
X43431Y121247D01*
X40000Y121585D01*
D02*
G37*
%LPD*%
D10*
X546296Y236250D02*
X546547Y236000D01*
X519250Y236250D02*
X546296D01*
X519000Y236000D02*
X519250Y236250D01*
D12*
X552250Y256000D02*
X563500Y244750D01*
X540000Y256000D02*
X552250D01*
X537250Y310250D02*
X546546D01*
X492500D02*
X499000D01*
X531500D02*
X537250D01*
X531500Y305433D02*
Y310250D01*
X526500Y305433D02*
X531500D01*
X526500D02*
Y310250D01*
Y315067D01*
X521500D02*
X526500D01*
X521500Y310250D02*
Y315067D01*
Y305433D02*
Y310250D01*
X516500Y305433D02*
X521500D01*
X516500D02*
Y310250D01*
Y315067D01*
X511500D02*
X516500D01*
X511500Y310250D02*
Y315067D01*
Y305433D02*
Y310250D01*
X506500Y305433D02*
X511500D01*
X506500D02*
Y310250D01*
Y315067D01*
X501500D02*
X506500D01*
X501500Y310250D02*
Y315067D01*
X499000Y310250D02*
X501500D01*
D71*
X495000Y348111D02*
Y370500D01*
X488889Y342000D02*
X495000Y348111D01*
X463316Y341604D02*
Y343934D01*
X455797Y351454D02*
X463316Y343934D01*
X680288Y415896D02*
X700000Y435608D01*
X603138Y415896D02*
X680288D01*
X579750Y392508D02*
X603138Y415896D01*
X700000Y435608D02*
Y446500D01*
X455797Y351454D02*
Y360250D01*
X558750Y456250D02*
Y456500D01*
Y456250D02*
X569300Y445700D01*
Y404550D02*
Y445700D01*
X559000Y394250D02*
X569300Y404550D01*
X579750Y334750D02*
Y392508D01*
D74*
X492500Y322704D02*
X528204D01*
X362250Y380000D02*
X405750D01*
X362500Y362000D02*
X414558D01*
X363000Y345000D02*
X422365D01*
X363500Y328000D02*
X428571D01*
X423000Y192000D02*
X503000D01*
X366000Y135000D02*
X423000Y192000D01*
X411500Y199500D02*
X508499D01*
X366000Y154000D02*
X411500Y199500D01*
X436000Y184000D02*
X509000D01*
X367000Y115000D02*
X436000Y184000D01*
X396000Y206000D02*
X502689D01*
X365000Y175000D02*
X396000Y206000D01*
X405750Y380000D02*
X451000Y334750D01*
X414558Y362000D02*
X444500Y332058D01*
X428571Y328000D02*
X431500Y325071D01*
Y247852D02*
Y325071D01*
X474825Y294000D02*
X480122Y299296D01*
X472500Y294000D02*
X474825D01*
X472799Y324104D02*
X473182Y323721D01*
Y316817D02*
Y323721D01*
Y316817D02*
X482999Y306999D01*
X485274Y291514D02*
X500143D01*
X500407Y291250D01*
X500953Y291796D01*
X565000Y319511D02*
Y322950D01*
X544785Y299296D02*
X565000Y319511D01*
X480122Y299296D02*
X544785D01*
X500953Y291796D02*
X528500Y264250D01*
X381000Y217000D02*
X412058D01*
X423297Y228239D01*
Y299589D01*
X508499Y199500D02*
X508999Y199000D01*
X502689Y206000D02*
X503750Y207062D01*
X565000Y322950D02*
X569300Y327250D01*
X582857D01*
X583224Y327617D01*
X588617D01*
X589000Y328000D01*
X558500Y322203D02*
Y336956D01*
X559000Y337456D01*
Y352750D01*
X546546Y310250D02*
X558500Y322203D01*
X543357Y222250D02*
X544224Y223117D01*
X546164D01*
X546546Y223500D01*
X521750Y218500D02*
X525500Y222250D01*
X543357D01*
X460852Y218500D02*
X521750D01*
X431500Y247852D02*
X460852Y218500D01*
X422365Y345000D02*
X438000Y329365D01*
Y250544D02*
Y329365D01*
Y250544D02*
X463544Y225000D01*
X517192D01*
X521942Y229750D01*
X540250D01*
X511500Y238000D02*
X516499Y242999D01*
X539999D01*
X514500Y231500D02*
X519000Y236000D01*
X466237Y231500D02*
X514500D01*
X444500Y253237D02*
X466237Y231500D01*
X444500Y253237D02*
Y332058D01*
X451000Y255929D02*
Y334750D01*
Y255929D02*
X468929Y238000D01*
X511500D01*
X528500Y264250D02*
X547000D01*
X528204Y322704D02*
X544250Y338750D01*
Y399571D01*
X547179Y402500D02*
X547500D01*
X544250Y399571D02*
X547179Y402500D01*
X547500D02*
X558750Y413750D01*
D76*
X447000Y477000D02*
X481000D01*
X380000Y410000D02*
X447000Y477000D01*
D78*
X523500Y154250D02*
X554547Y185296D01*
X479905Y154250D02*
X523500D01*
X554547Y185296D02*
Y240729D01*
X468000Y166155D02*
X479905Y154250D01*
X546547Y248729D02*
X554547Y240729D01*
X546547Y248729D02*
Y249000D01*
X563500Y145250D02*
Y244750D01*
X561000Y142750D02*
X563500Y145250D01*
D82*
X794500Y439000D02*
D03*
D83*
X819500D02*
D03*
X670050Y86700D02*
D03*
D84*
X405000Y260000D02*
D03*
Y285000D02*
D03*
Y235000D02*
D03*
D85*
Y310000D02*
D03*
D86*
X40000Y104000D02*
D03*
Y230000D02*
D03*
X168000D02*
D03*
Y188000D02*
D03*
Y146000D02*
D03*
Y104000D02*
D03*
X113000D02*
D03*
Y146000D02*
D03*
Y188000D02*
D03*
Y230000D02*
D03*
X40000Y330000D02*
D03*
Y456000D02*
D03*
X168000D02*
D03*
Y414000D02*
D03*
Y372000D02*
D03*
Y330000D02*
D03*
X113000D02*
D03*
Y372000D02*
D03*
Y414000D02*
D03*
Y456000D02*
D03*
X679000Y520000D02*
D03*
X700000Y391500D02*
D03*
X658000D02*
D03*
Y446500D02*
D03*
X700000D02*
D03*
D87*
X389000Y510000D02*
D03*
X338750D02*
D03*
X288750D02*
D03*
X313750D02*
D03*
X364000D02*
D03*
D88*
X263750D02*
D03*
D89*
X670050Y61700D02*
D03*
D90*
X492500Y322750D02*
D03*
X501500Y272500D02*
D03*
X489000D02*
D03*
X476500D02*
D03*
X476500Y260000D02*
D03*
Y247500D02*
D03*
X489000D02*
D03*
X501500D02*
D03*
Y260000D02*
D03*
X489000D02*
D03*
X488889Y342000D02*
D03*
X463316Y341604D02*
D03*
X769000Y87000D02*
D03*
X353081Y319000D02*
D03*
Y335915D02*
D03*
Y388500D02*
D03*
Y370750D02*
D03*
Y353500D02*
D03*
X362250Y380000D02*
D03*
X362500Y362000D02*
D03*
X363000Y345000D02*
D03*
X363500Y328000D02*
D03*
X367000Y115000D02*
D03*
X366000Y135000D02*
D03*
Y154000D02*
D03*
X365000Y175000D02*
D03*
X411500Y107965D02*
D03*
Y118965D02*
D03*
Y140965D02*
D03*
Y129965D02*
D03*
X356000Y413000D02*
D03*
X365000Y405000D02*
D03*
Y417000D02*
D03*
X356000Y425000D02*
D03*
X685000Y101000D02*
D03*
Y87000D02*
D03*
X669000Y101000D02*
D03*
X655000Y96000D02*
D03*
Y86000D02*
D03*
X643000Y84000D02*
D03*
Y94000D02*
D03*
X633000D02*
D03*
Y84000D02*
D03*
X472500Y294000D02*
D03*
X485000Y291686D02*
D03*
X482999Y306999D02*
D03*
X472799Y324104D02*
D03*
X769000Y61700D02*
D03*
Y77000D02*
D03*
Y99000D02*
D03*
X778000D02*
D03*
X780000Y61700D02*
D03*
X797000Y71000D02*
D03*
X787000Y99000D02*
D03*
X797000Y99000D02*
D03*
Y90000D02*
D03*
Y80000D02*
D03*
X595000Y93500D02*
D03*
X606550D02*
D03*
X606050Y82865D02*
D03*
X595000D02*
D03*
X495000Y370500D02*
D03*
X455797Y360250D02*
D03*
X583750Y155500D02*
D03*
X591000Y140000D02*
D03*
X583750Y145250D02*
D03*
X591000Y150000D02*
D03*
X480000Y126000D02*
D03*
X520297Y186250D02*
D03*
Y196000D02*
D03*
X526547Y201750D02*
D03*
X520297Y207062D02*
D03*
X509000Y184000D02*
D03*
X503000Y192000D02*
D03*
X503750Y207062D02*
D03*
X508999Y199000D02*
D03*
X468000Y166155D02*
D03*
X381000Y217000D02*
D03*
X477087Y482500D02*
D03*
X476977Y472192D02*
D03*
X488889D02*
D03*
X474707Y530000D02*
D03*
Y540000D02*
D03*
Y550000D02*
D03*
X605000Y520000D02*
D03*
Y530000D02*
D03*
X595000D02*
D03*
X585000D02*
D03*
X575000Y520000D02*
D03*
Y530000D02*
D03*
Y550000D02*
D03*
Y540000D02*
D03*
X565000D02*
D03*
Y550000D02*
D03*
X555000D02*
D03*
X545000D02*
D03*
X515000D02*
D03*
X505000D02*
D03*
X495000D02*
D03*
X485000D02*
D03*
Y540000D02*
D03*
Y530000D02*
D03*
X534626Y540000D02*
D03*
X535000Y550000D02*
D03*
X525000D02*
D03*
Y540000D02*
D03*
Y530000D02*
D03*
Y520000D02*
D03*
X515000D02*
D03*
X504796D02*
D03*
X495000D02*
D03*
X558750Y456500D02*
D03*
X559000Y394250D02*
D03*
X579750Y392508D02*
D03*
X512750Y471605D02*
D03*
X500500D02*
D03*
X489000Y482500D02*
D03*
X500500D02*
D03*
X512750D02*
D03*
X273750Y451000D02*
D03*
X265150D02*
D03*
X273750Y461000D02*
D03*
X265150D02*
D03*
X273500Y469500D02*
D03*
X265150D02*
D03*
X273750Y394750D02*
D03*
X273500Y415000D02*
D03*
X273750Y405336D02*
D03*
X265150D02*
D03*
Y415000D02*
D03*
Y424049D02*
D03*
X264500Y353500D02*
D03*
Y362750D02*
D03*
Y371195D02*
D03*
Y379750D02*
D03*
X273500Y312753D02*
D03*
Y333000D02*
D03*
X265150Y326569D02*
D03*
Y318250D02*
D03*
Y310000D02*
D03*
X273750Y220231D02*
D03*
X265150D02*
D03*
X273750Y230000D02*
D03*
X265150D02*
D03*
X273500Y239500D02*
D03*
X265150D02*
D03*
X270750Y85750D02*
D03*
X275750Y93951D02*
D03*
X265150Y94230D02*
D03*
X275750Y103000D02*
D03*
X265150Y103250D02*
D03*
X268000Y128155D02*
D03*
X265150Y136500D02*
D03*
Y146125D02*
D03*
X267250Y189750D02*
D03*
X276750Y181078D02*
D03*
Y170707D02*
D03*
X267250Y171290D02*
D03*
Y181078D02*
D03*
X431365Y164183D02*
D03*
X423297Y299589D02*
D03*
X582500Y310000D02*
D03*
X572500D02*
D03*
Y319000D02*
D03*
X582500D02*
D03*
X579750Y334750D02*
D03*
X589000Y328000D02*
D03*
X546547Y236000D02*
D03*
X539999Y242999D02*
D03*
X540250Y229750D02*
D03*
X414000Y399571D02*
D03*
X463000D02*
D03*
X511500D02*
D03*
X547000Y264250D02*
D03*
X582000Y217000D02*
D03*
X572000D02*
D03*
X561000Y142750D02*
D03*
X665750Y325000D02*
D03*
X645750D02*
D03*
X655800D02*
D03*
X635750D02*
D03*
X686000Y319000D02*
D03*
Y309000D02*
D03*
Y329000D02*
D03*
X675750Y325000D02*
D03*
X696000Y329000D02*
D03*
X559000Y352750D02*
D03*
X558750Y413750D02*
D03*
X492500Y310250D02*
D03*
X546546Y223500D02*
D03*
X540000Y256000D02*
D03*
X546547Y249000D02*
D03*
X696000Y319000D02*
D03*
Y309000D02*
D03*
X572000Y227250D02*
D03*
X582000D02*
D03*
D91*
X736710Y341746D02*
D03*
X756710D02*
D03*
Y320746D02*
D03*
X736710D02*
D03*
X716710D02*
D03*
Y341604D02*
D03*
X380000Y410000D02*
D03*
X170000Y16470D02*
D03*
X169500Y40000D02*
D03*
X149500D02*
D03*
X150000Y16470D02*
D03*
X130000D02*
D03*
X129500Y40000D02*
D03*
X109500D02*
D03*
X110000Y16470D02*
D03*
X189500D02*
D03*
X189000Y40000D02*
D03*
X209000D02*
D03*
X209500Y16470D02*
D03*
X229500D02*
D03*
X229000Y40000D02*
D03*
X249000D02*
D03*
X249500Y16470D02*
D03*
X608550Y147000D02*
D03*
X628550D02*
D03*
X648550D02*
D03*
Y126000D02*
D03*
X628550D02*
D03*
X608550D02*
D03*
M02*
