G04*
G04 #@! TF.GenerationSoftware,Altium Limited,Altium Designer,19.1.5 (86)*
G04*
G04 Layer_Color=16711935*
%FSLAX44Y44*%
%MOMM*%
G71*
G01*
G75*
%ADD17C,2.0000*%
%ADD40P,1.6777X8X22.5*%
%ADD41C,1.5500*%
%ADD42C,1.6500*%
%ADD43P,1.7860X8X292.5*%
%ADD44C,3.1500*%
%ADD45C,2.1500*%
%ADD46P,2.3272X8X22.5*%
%ADD47P,1.6777X8X112.5*%
%ADD48C,0.1500*%
%ADD50C,1.3500*%
G36*
X60000Y500000D02*
X0D01*
X0Y500000D01*
Y530000D01*
X30000D01*
Y560000D01*
X60000Y560000D01*
Y500000D01*
D02*
G37*
G36*
X113000Y40000D02*
X249500D01*
Y16470D01*
X75000D01*
Y72000D01*
X75000Y456000D01*
X113000Y456000D01*
Y40000D01*
D02*
G37*
G36*
X60000Y0D02*
X60000Y-0D01*
X30000D01*
Y30000D01*
X0D01*
X0Y60000D01*
X60000D01*
Y0D01*
D02*
G37*
G36*
X790000D02*
Y60000D01*
X850000D01*
X850000Y60000D01*
Y30000D01*
X820000D01*
Y0D01*
X790000Y0D01*
D02*
G37*
G36*
X756710Y341746D02*
X756710Y171000D01*
X648550Y171000D01*
X648550Y126000D01*
X609000D01*
X609000Y203000D01*
X716710Y203000D01*
X716710Y341746D01*
X756710Y341746D01*
D02*
G37*
G36*
X850000Y500000D02*
X790000D01*
Y560000D01*
X790000Y560000D01*
X820000D01*
Y530000D01*
X850000D01*
X850000Y500000D01*
D02*
G37*
D17*
X840000Y530000D02*
G03*
X840000Y530000I-20000J0D01*
G01*
X840000Y30000D02*
G03*
X840000Y30000I-20000J0D01*
G01*
X50000D02*
G03*
X50000Y30000I-20000J0D01*
G01*
X50000Y530000D02*
G03*
X50000Y530000I-20000J0D01*
G01*
D40*
X794500Y439000D02*
D03*
D41*
X819500D02*
D03*
X670050Y86700D02*
D03*
D42*
X405000Y260000D02*
D03*
Y285000D02*
D03*
Y235000D02*
D03*
D43*
Y310000D02*
D03*
D44*
X40000Y104000D02*
D03*
Y230000D02*
D03*
X168000D02*
D03*
Y188000D02*
D03*
Y146000D02*
D03*
Y104000D02*
D03*
X113000D02*
D03*
Y146000D02*
D03*
Y188000D02*
D03*
Y230000D02*
D03*
X40000Y330000D02*
D03*
Y456000D02*
D03*
X168000D02*
D03*
Y414000D02*
D03*
Y372000D02*
D03*
Y330000D02*
D03*
X113000D02*
D03*
Y372000D02*
D03*
Y414000D02*
D03*
Y456000D02*
D03*
X679000Y520000D02*
D03*
X700000Y391500D02*
D03*
X658000D02*
D03*
Y446500D02*
D03*
X700000D02*
D03*
D45*
X389000Y510000D02*
D03*
X338750D02*
D03*
X288750D02*
D03*
X313750D02*
D03*
X364000D02*
D03*
D46*
X263750D02*
D03*
D47*
X670050Y61700D02*
D03*
D48*
X820000Y530000D02*
D03*
X820000Y30000D02*
D03*
X30000D02*
D03*
X30000Y530000D02*
D03*
D50*
X736710Y341746D02*
D03*
X756710D02*
D03*
Y320746D02*
D03*
X736710D02*
D03*
X716710D02*
D03*
Y341604D02*
D03*
X170000Y16470D02*
D03*
X169500Y40000D02*
D03*
X149500D02*
D03*
X150000Y16470D02*
D03*
X130000D02*
D03*
X129500Y40000D02*
D03*
X109500D02*
D03*
X110000Y16470D02*
D03*
X189500D02*
D03*
X189000Y40000D02*
D03*
X209000D02*
D03*
X209500Y16470D02*
D03*
X229500D02*
D03*
X229000Y40000D02*
D03*
X249000D02*
D03*
X249500Y16470D02*
D03*
X608550Y147000D02*
D03*
X628550D02*
D03*
X648550D02*
D03*
Y126000D02*
D03*
X628550D02*
D03*
X608550D02*
D03*
M02*
