G04*
G04 #@! TF.GenerationSoftware,Altium Limited,Altium Designer,19.1.5 (86)*
G04*
G04 Layer_Physical_Order=1*
G04 Layer_Color=255*
%FSLAX44Y44*%
%MOMM*%
G71*
G01*
G75*
%ADD10C,0.3000*%
%ADD12C,0.2500*%
%ADD14C,1.0000*%
%ADD17C,2.0000*%
%ADD51R,3.4500X3.4500*%
%ADD52R,0.6000X0.3000*%
%ADD53R,0.3000X0.6000*%
%ADD54R,0.8500X0.8500*%
%ADD55R,0.8500X0.4500*%
%ADD56R,1.0000X1.6000*%
%ADD57R,0.8500X0.8500*%
%ADD58R,0.6000X1.4000*%
%ADD59R,0.6500X1.2000*%
%ADD60R,2.4000X1.4000*%
%ADD61R,0.6000X1.0000*%
%ADD62R,1.0000X0.6000*%
%ADD63R,0.5900X0.8500*%
%ADD64R,0.6000X0.8000*%
%ADD65R,5.0000X4.0000*%
%ADD66R,0.5400X0.4200*%
%ADD67R,0.7000X0.4200*%
%ADD68R,0.8000X0.5000*%
%ADD69R,1.1000X4.0000*%
%ADD70R,0.4500X0.8500*%
%ADD71C,0.7000*%
%ADD72C,0.8000*%
%ADD73C,0.4000*%
%ADD74C,0.5000*%
%ADD75C,0.4500*%
%ADD76C,1.2000*%
%ADD77C,0.5500*%
%ADD78C,0.6000*%
%ADD79C,0.8500*%
%ADD80R,1.7100X2.3700*%
%ADD81R,1.0000X1.5500*%
%ADD82P,1.5154X8X22.5*%
%ADD83C,1.4000*%
%ADD84C,1.5000*%
%ADD85P,1.6236X8X292.5*%
%ADD86C,3.0000*%
%ADD87C,2.0000*%
%ADD88P,2.1648X8X22.5*%
%ADD89P,1.5154X8X112.5*%
%ADD90C,0.7000*%
%ADD91C,1.2000*%
G36*
X785000Y555000D02*
X785000Y495000D01*
X845000D01*
Y295000D01*
Y65000D01*
X785000D01*
X785000Y5000D01*
X763000D01*
X763000Y295000D01*
Y306918D01*
X801000D01*
Y406000D01*
X806000Y411000D01*
Y479000D01*
X713039D01*
Y488000D01*
X712884Y488780D01*
X712442Y489442D01*
X711780Y489884D01*
X711000Y490039D01*
X672845D01*
X652442Y510442D01*
X651780Y510884D01*
X651000Y511039D01*
X596433D01*
X595250Y511250D01*
X595250Y512309D01*
Y513000D01*
Y515000D01*
X582750D01*
Y513000D01*
X582750D01*
Y511250D01*
X581567Y511039D01*
X561000D01*
X560803Y511000D01*
X560000D01*
Y510737D01*
X559558Y510442D01*
X559116Y509780D01*
X558961Y509000D01*
Y492000D01*
X559116Y491220D01*
X559558Y490558D01*
X560220Y490116D01*
X561000Y489961D01*
X596961D01*
Y474000D01*
X597116Y473220D01*
X597558Y472558D01*
X598220Y472116D01*
X599000Y471961D01*
X675000D01*
Y455574D01*
X673730Y455256D01*
X673039Y456549D01*
X670789Y459290D01*
X668049Y461539D01*
X668000Y461565D01*
Y446500D01*
Y431435D01*
X668049Y431461D01*
X670789Y433711D01*
X673039Y436451D01*
X673730Y437744D01*
X675000Y437426D01*
Y425000D01*
X625000D01*
Y397108D01*
X608273D01*
X599700Y405681D01*
Y410250D01*
X598038D01*
Y418500D01*
X597689Y420256D01*
X596694Y421744D01*
X589694Y428744D01*
X589347Y428977D01*
X589058Y430697D01*
X589229Y430922D01*
X594000D01*
Y430000D01*
X608000D01*
Y440000D01*
X594000D01*
Y439078D01*
X585095D01*
X584000Y439500D01*
Y449500D01*
X570000D01*
Y449088D01*
X569046D01*
X567291Y448739D01*
X566470Y448191D01*
X565200Y448250D01*
X564358Y449171D01*
Y456500D01*
Y463000D01*
X563931Y465146D01*
X562715Y466965D01*
X554110Y475570D01*
X552291Y476786D01*
X550145Y477213D01*
X542038D01*
X542038Y508999D01*
X541883Y509779D01*
X541883Y509779D01*
X541883Y509779D01*
X541661Y510112D01*
X541441Y510441D01*
X541441Y510441D01*
X541441Y510441D01*
X541112Y510661D01*
X540779Y510883D01*
X540779Y510883D01*
X540779Y510883D01*
X539999Y511038D01*
X523000Y511039D01*
X482750D01*
Y513000D01*
Y514500D01*
X470250D01*
Y512980D01*
X469077Y512494D01*
X467854Y513717D01*
Y530951D01*
X467441Y534084D01*
X466232Y537003D01*
X464309Y539510D01*
X451260Y552559D01*
X450396Y553222D01*
X450827Y554492D01*
X469796D01*
Y555000D01*
X580000D01*
Y554492D01*
X625000D01*
Y555000D01*
X785000Y555000D01*
D02*
G37*
G36*
X443647Y525938D02*
Y522270D01*
X443155Y521203D01*
X440655D01*
Y514204D01*
X435655D01*
Y521203D01*
X433155D01*
Y519811D01*
X407000D01*
X404854Y519384D01*
X403035Y518169D01*
X400839Y515973D01*
X399930Y516026D01*
X399421Y516132D01*
X397559Y518559D01*
X395052Y520482D01*
X392133Y521691D01*
X391500Y521774D01*
Y510000D01*
Y498226D01*
X392133Y498309D01*
X395052Y499518D01*
X397559Y501441D01*
X399482Y503948D01*
X399666Y504392D01*
X402797D01*
X404943Y504819D01*
X406762Y506035D01*
X409323Y508596D01*
X415374D01*
X415760Y507326D01*
X415380Y507072D01*
X403100Y494792D01*
X385697D01*
X381329Y499160D01*
X382168Y500117D01*
X382948Y499518D01*
X385867Y498309D01*
X386500Y498226D01*
Y510000D01*
Y521774D01*
X385867Y521691D01*
X382948Y520482D01*
X380442Y518559D01*
X378518Y516052D01*
X377434Y513435D01*
X376582Y513318D01*
X376467Y513331D01*
X376116Y513413D01*
X374919Y516304D01*
X372915Y518915D01*
X370304Y520919D01*
X367263Y522178D01*
X364000Y522608D01*
X360737Y522178D01*
X357696Y520919D01*
X355085Y518915D01*
X353081Y516304D01*
X352062Y513844D01*
X350688D01*
X349669Y516304D01*
X347665Y518915D01*
X345054Y520919D01*
X342013Y522178D01*
X338750Y522608D01*
X335487Y522178D01*
X332446Y520919D01*
X329835Y518915D01*
X327831Y516304D01*
X326937Y514146D01*
X325563D01*
X324669Y516304D01*
X322665Y518915D01*
X320054Y520919D01*
X317013Y522178D01*
X313750Y522608D01*
X310487Y522178D01*
X307446Y520919D01*
X304835Y518915D01*
X302831Y516304D01*
X301937Y514146D01*
X300563D01*
X299669Y516304D01*
X297665Y518915D01*
X295054Y520919D01*
X292013Y522178D01*
X288750Y522608D01*
X285487Y522178D01*
X282446Y520919D01*
X279835Y518915D01*
X277831Y516304D01*
X277520Y515552D01*
X276250Y515805D01*
Y516250D01*
X275854Y516646D01*
Y518237D01*
X289513Y531896D01*
X437688D01*
X443647Y525938D01*
D02*
G37*
G36*
X442655Y495511D02*
Y483204D01*
X452655D01*
Y493023D01*
X453828Y493509D01*
X464240Y483097D01*
X466747Y481173D01*
X468965Y480254D01*
Y467297D01*
X469120Y466516D01*
X469562Y465855D01*
X470224Y465413D01*
X471004Y465257D01*
X538202D01*
X538366Y465290D01*
X538534Y465285D01*
X538753Y465367D01*
X538982Y465413D01*
X539121Y465506D01*
X539278Y465565D01*
X539449Y465725D01*
X539644Y465855D01*
X539737Y465994D01*
X539829Y466081D01*
X540250Y465997D01*
X547822D01*
X553142Y460677D01*
Y448250D01*
X552700D01*
Y435750D01*
X565200D01*
Y437412D01*
X566546D01*
X568302Y437761D01*
X569645Y438658D01*
X570454Y437672D01*
X567111Y434328D01*
X561200D01*
X560806Y434250D01*
X552700D01*
Y421750D01*
X554262D01*
Y416933D01*
X553569Y415896D01*
X553142Y413750D01*
X553569Y411604D01*
X554785Y409785D01*
X556604Y408569D01*
X558750Y408142D01*
X560896Y408569D01*
X562715Y409785D01*
X563931Y411604D01*
X564358Y413750D01*
X563931Y415896D01*
X563438Y416633D01*
Y421750D01*
X565200D01*
Y426172D01*
X568800D01*
X568800Y426172D01*
X569018Y426215D01*
X570000Y425409D01*
Y420500D01*
X584000D01*
Y420500D01*
X585180Y420282D01*
X588862Y416600D01*
Y410250D01*
X587200D01*
Y397750D01*
X591769D01*
X601985Y387535D01*
X603804Y386319D01*
X605950Y385892D01*
X625000D01*
Y379288D01*
X596393D01*
Y379000D01*
X594200D01*
Y378078D01*
X585295D01*
X584200Y378500D01*
X584200Y379348D01*
Y388500D01*
X584200Y388500D01*
X584200D01*
X584200Y388500D01*
X584463Y389661D01*
X584931Y390362D01*
X585358Y392508D01*
Y397750D01*
X585700D01*
Y410250D01*
X573200D01*
Y397750D01*
X574142D01*
Y392508D01*
X574569Y390362D01*
X574965Y389770D01*
X574286Y388500D01*
X570200D01*
Y388088D01*
X569046D01*
X567291Y387739D01*
X566470Y387191D01*
X565200Y387250D01*
X565200D01*
X564098Y387655D01*
Y391980D01*
X564181Y392104D01*
X564608Y394250D01*
X564181Y396396D01*
X562965Y398215D01*
X561146Y399431D01*
X559000Y399858D01*
X556854Y399431D01*
X555035Y398215D01*
X553819Y396396D01*
X553392Y394250D01*
X553819Y392104D01*
X553902Y391980D01*
Y387250D01*
X552700D01*
Y374750D01*
X565200D01*
Y376412D01*
X566546D01*
X568302Y376761D01*
X569791Y377756D01*
X569873Y377838D01*
X570017Y377802D01*
X570383Y376401D01*
X567311Y373328D01*
X561200D01*
X560806Y373250D01*
X552700D01*
Y360750D01*
X554412D01*
Y355783D01*
X553819Y354896D01*
X553392Y352750D01*
X553819Y350604D01*
X555035Y348785D01*
X556854Y347569D01*
X559000Y347142D01*
X561146Y347569D01*
X562965Y348785D01*
X564181Y350604D01*
X564608Y352750D01*
X564181Y354896D01*
X563588Y355783D01*
Y360750D01*
X565200D01*
Y365172D01*
X569000D01*
X569000Y365172D01*
X569218Y365215D01*
X570200Y364409D01*
Y359500D01*
X584200D01*
X584200Y359500D01*
Y359500D01*
X584200Y359500D01*
X585321Y359140D01*
X588862Y355600D01*
Y351750D01*
X587200D01*
Y339250D01*
X596393D01*
Y334547D01*
X594000D01*
Y332588D01*
X592033D01*
X591146Y333181D01*
X589000Y333608D01*
X586854Y333181D01*
X586262Y332785D01*
X585119Y333549D01*
X585358Y334750D01*
Y339250D01*
X585700D01*
Y351750D01*
X573200D01*
Y339250D01*
X574142D01*
Y334750D01*
X574569Y332604D01*
X575785Y330785D01*
X577604Y329569D01*
X579750Y329142D01*
X581896Y329569D01*
X582488Y329965D01*
X583631Y329201D01*
X583392Y328000D01*
X583819Y325854D01*
X585035Y324035D01*
X586854Y322819D01*
X589000Y322392D01*
X591146Y322819D01*
X592033Y323412D01*
X594000D01*
Y322047D01*
X596393D01*
Y320546D01*
X594000D01*
Y316796D01*
X600250D01*
Y311796D01*
X594000D01*
Y308046D01*
X596393D01*
Y303056D01*
X595250Y302750D01*
Y302750D01*
X582750D01*
Y290250D01*
X583392D01*
Y284250D01*
X582750D01*
Y271750D01*
X595250D01*
Y271750D01*
X596393Y271444D01*
Y266556D01*
X595250Y266250D01*
Y266250D01*
X582750D01*
Y253750D01*
X583392D01*
Y248250D01*
X582750D01*
Y235750D01*
X595250D01*
Y235750D01*
X596393Y235444D01*
Y104492D01*
X582000D01*
X581250Y105451D01*
Y106500D01*
X577500D01*
Y102750D01*
X580730D01*
X582000Y101791D01*
X582000Y97492D01*
X566098D01*
Y102750D01*
X567250D01*
Y115250D01*
X566098D01*
Y122750D01*
X567250D01*
Y135250D01*
X566098D01*
Y140480D01*
X566181Y140604D01*
X566608Y142750D01*
X566187Y144864D01*
X566183Y144900D01*
X566810Y146241D01*
X567177Y146295D01*
X570157Y143315D01*
Y135250D01*
X568750D01*
Y131500D01*
X575000D01*
X581250D01*
Y135250D01*
X579843D01*
Y145321D01*
X579474Y147174D01*
X578425Y148745D01*
X571746Y155424D01*
X570174Y156474D01*
X568321Y156843D01*
X555450D01*
X555450Y156843D01*
X553597Y156474D01*
X552025Y155424D01*
X552025Y155424D01*
X551173Y154572D01*
X550000Y155058D01*
Y160500D01*
X549118D01*
Y162349D01*
X550220Y163452D01*
X556931D01*
X557522Y163569D01*
X563431D01*
Y176069D01*
X563048D01*
Y179253D01*
X562583Y181594D01*
X561257Y183579D01*
X556570Y188265D01*
X554586Y189591D01*
X552245Y190057D01*
X542716D01*
Y209749D01*
X542716Y209750D01*
X542231Y212188D01*
X540849Y214256D01*
X536092Y219013D01*
X536578Y220186D01*
X542146D01*
X542581Y219535D01*
X544400Y218319D01*
X546546Y217892D01*
X548692Y218319D01*
X550512Y219535D01*
X551727Y221354D01*
X552154Y223500D01*
X551727Y225646D01*
X550512Y227465D01*
X548692Y228681D01*
X547007Y229016D01*
X546800Y229148D01*
X547054Y230493D01*
X548693Y230819D01*
X550512Y232035D01*
X551727Y233854D01*
X552154Y236000D01*
X551727Y238146D01*
X550512Y239965D01*
X548693Y241181D01*
X546622Y241593D01*
X546566Y241612D01*
X546344Y242151D01*
X546580Y242801D01*
X547087Y243500D01*
X548693Y243819D01*
X550512Y245035D01*
X551727Y246854D01*
X552154Y249000D01*
X551727Y251146D01*
X550512Y252965D01*
X548693Y254181D01*
X546547Y254608D01*
X546402Y254579D01*
X545504Y255477D01*
X545608Y256000D01*
X545271Y257691D01*
X546026Y258657D01*
X546249Y258792D01*
X547000Y258642D01*
X549146Y259069D01*
X550965Y260285D01*
X551204Y260642D01*
X568421D01*
X568750Y260312D01*
Y253750D01*
X581250D01*
Y266250D01*
X575790D01*
X573565Y268474D01*
X572077Y269469D01*
X570321Y269818D01*
X554454D01*
X553521Y271088D01*
X553616Y271567D01*
Y274186D01*
X568750D01*
Y271750D01*
X581250D01*
Y284250D01*
X568750D01*
Y280814D01*
X550303D01*
X549886Y280731D01*
X548616Y281693D01*
Y286340D01*
X548364Y287608D01*
X547646Y288683D01*
X546571Y289401D01*
X545303Y289653D01*
X540303D01*
X539035Y289401D01*
X537960Y288683D01*
X536807Y289244D01*
X536571Y289401D01*
X535303Y289653D01*
X530303D01*
X529035Y289401D01*
X527960Y288683D01*
X527241Y287608D01*
X526989Y286340D01*
Y281693D01*
X525719Y280731D01*
X525303Y280814D01*
X517500D01*
Y281000D01*
X510000D01*
Y288500D01*
X510000D01*
X510047Y289751D01*
X526140Y305843D01*
X526858Y306918D01*
X527110Y308186D01*
Y310000D01*
X536046D01*
Y322500D01*
X535126D01*
X535093Y322662D01*
X534320Y323820D01*
X531813Y326327D01*
X532299Y327500D01*
X536046D01*
Y340000D01*
X535875D01*
Y355090D01*
X544791Y364006D01*
X545785Y365494D01*
X546135Y367250D01*
Y425500D01*
X545785Y427256D01*
X544791Y428744D01*
X528291Y445244D01*
X526802Y446239D01*
X525047Y446588D01*
X510697D01*
X507041Y450244D01*
X505552Y451239D01*
X503797Y451588D01*
X468093D01*
X459937Y459744D01*
X458448Y460739D01*
X456693Y461088D01*
X456547D01*
X456547Y461088D01*
X443602D01*
X439007Y465683D01*
X439533Y466953D01*
X441655D01*
Y470704D01*
X437905D01*
Y469860D01*
X436635Y469181D01*
X436405Y469335D01*
Y479453D01*
X433743D01*
Y489703D01*
X433655Y490147D01*
Y497203D01*
X423655D01*
Y493557D01*
X423558Y493411D01*
X423208Y491655D01*
X423558Y489899D01*
X423655Y489753D01*
Y483204D01*
X424567D01*
Y479453D01*
X423905D01*
Y466953D01*
X426385D01*
X426666Y465541D01*
X427661Y464052D01*
X435951Y455761D01*
X435465Y454588D01*
X400650D01*
X357416Y497823D01*
X358135Y498899D01*
X360737Y497822D01*
X364000Y497392D01*
X367263Y497822D01*
X368979Y498532D01*
X380552Y486959D01*
X382041Y485965D01*
X383797Y485615D01*
X405000D01*
X406756Y485965D01*
X408244Y486959D01*
X420524Y499239D01*
X438155D01*
X438799Y499367D01*
X442655Y495511D01*
D02*
G37*
G36*
X539999Y508999D02*
X539999Y475096D01*
X539792Y475082D01*
X539342Y474993D01*
X538908Y474845D01*
X538496Y474642D01*
X538115Y474388D01*
X537770Y474085D01*
X537467Y473740D01*
X537212Y473359D01*
X537010Y472947D01*
X536862Y472513D01*
X536772Y472063D01*
X536743Y471605D01*
X536772Y471147D01*
X536862Y470697D01*
X537010Y470263D01*
X537212Y469851D01*
X537467Y469470D01*
X537770Y469125D01*
X538115Y468822D01*
X538496Y468567D01*
X538498Y468567D01*
X538202Y467297D01*
X471004D01*
Y480524D01*
X471506Y481154D01*
X472274Y481668D01*
X472799Y481646D01*
X486500D01*
X487372Y481684D01*
X488238Y481798D01*
X489091Y481987D01*
X489924Y482249D01*
X490730Y482583D01*
X491505Y482986D01*
X492241Y483456D01*
X492934Y483987D01*
X493578Y484577D01*
X494168Y485221D01*
X494699Y485914D01*
X495169Y486650D01*
X495572Y487425D01*
X495906Y488232D01*
X496169Y489064D01*
X496357Y489917D01*
X496471Y490783D01*
X496510Y491655D01*
X496471Y492527D01*
X496357Y493393D01*
X496169Y494246D01*
X495906Y495079D01*
X495572Y495885D01*
X495169Y496660D01*
X494699Y497396D01*
X494168Y498089D01*
X493578Y498733D01*
X492934Y499323D01*
X492241Y499854D01*
X491505Y500323D01*
X490730Y500727D01*
X489924Y501061D01*
X489091Y501324D01*
X488238Y501512D01*
X487372Y501627D01*
X486500Y501665D01*
X476945D01*
X471004Y507605D01*
Y509000D01*
X523000D01*
X539999Y508999D01*
D02*
G37*
G36*
X672000Y488000D02*
X711000D01*
Y474000D01*
X801000D01*
Y449159D01*
X799827Y448673D01*
X799500Y449000D01*
X799000D01*
Y439000D01*
Y429000D01*
X799500D01*
X799827Y429327D01*
X801000Y428841D01*
Y411000D01*
X796000Y406000D01*
Y312000D01*
X707000D01*
Y346192D01*
X710146D01*
Y342561D01*
X710573Y340415D01*
X711788Y338595D01*
X712745Y337639D01*
X714564Y336423D01*
X716710Y335996D01*
X718856Y336423D01*
X720676Y337639D01*
X721891Y339458D01*
X722318Y341604D01*
X721891Y343750D01*
X721361Y344543D01*
Y349246D01*
X720934Y351392D01*
X719719Y353212D01*
X717165Y355765D01*
X715346Y356981D01*
X713200Y357408D01*
X707000D01*
Y372000D01*
X735000D01*
Y411000D01*
X680000D01*
Y474000D01*
X599000D01*
Y492000D01*
X561000D01*
Y509000D01*
X651000D01*
X672000Y488000D01*
D02*
G37*
G36*
X230125Y454100D02*
X219500D01*
Y453800D01*
X213000D01*
Y439290D01*
X150000D01*
Y473000D01*
X230125D01*
Y454100D01*
D02*
G37*
G36*
X528046Y432511D02*
X527560Y431338D01*
X525047D01*
Y433000D01*
X512547D01*
Y420500D01*
X525047D01*
Y422162D01*
X528896D01*
X530037Y421021D01*
Y414250D01*
X526297D01*
Y409250D01*
X521297D01*
Y414250D01*
X516797D01*
Y413838D01*
X515797D01*
X514041Y413489D01*
X512552Y412494D01*
X508638Y408580D01*
X508066Y407725D01*
X506796Y408110D01*
Y414250D01*
X506796Y414250D01*
X506797D01*
X507643Y415107D01*
X508041Y415506D01*
X509035Y416994D01*
X509385Y418750D01*
Y420500D01*
X511047D01*
Y433000D01*
X509385D01*
Y436454D01*
X510171Y437412D01*
X523146D01*
X528046Y432511D01*
D02*
G37*
G36*
X285000Y426564D02*
X283730Y426038D01*
X269384Y440384D01*
X268061Y441268D01*
X266500Y441578D01*
X266500Y441578D01*
X234689D01*
X234650Y441618D01*
Y480000D01*
X285000D01*
X285000Y426564D01*
D02*
G37*
G36*
X310487Y497822D02*
X313750Y497392D01*
X317013Y497822D01*
X318729Y498532D01*
X380006Y437256D01*
X381494Y436261D01*
X383250Y435912D01*
X450099D01*
X450412Y435600D01*
Y433000D01*
X449547D01*
Y420500D01*
X449547Y420500D01*
X449546D01*
X448855Y419548D01*
X447552Y418244D01*
X446558Y416756D01*
X446208Y415000D01*
Y414250D01*
X443797D01*
Y404250D01*
X457797D01*
X458501Y403272D01*
Y401838D01*
X458290Y401522D01*
X457902Y399571D01*
Y396476D01*
X457797Y395250D01*
X443797D01*
Y385250D01*
X446208D01*
Y383500D01*
X446558Y381744D01*
X447552Y380256D01*
X449916Y377892D01*
X449547Y377000D01*
X449547D01*
Y364500D01*
X450918D01*
X451173Y363230D01*
X450616Y362396D01*
X450418Y361401D01*
X449040Y360983D01*
X442338Y367685D01*
Y390250D01*
Y420000D01*
X441989Y421756D01*
X440994Y423244D01*
X434244Y429994D01*
X432756Y430989D01*
X431000Y431338D01*
X427047D01*
Y433000D01*
X414547D01*
Y420500D01*
X427047D01*
Y422162D01*
X429100D01*
X433162Y418100D01*
Y415369D01*
X432797Y414250D01*
X428297D01*
Y409250D01*
X423297D01*
Y414250D01*
X418797D01*
Y413838D01*
X418003D01*
X416248Y413489D01*
X414759Y412494D01*
X410845Y408580D01*
X410066Y407415D01*
X408797Y407800D01*
Y414250D01*
X408797D01*
X408427Y415142D01*
X410041Y416756D01*
X411035Y418244D01*
X411385Y420000D01*
Y420500D01*
X413046D01*
Y433000D01*
X400546D01*
Y431338D01*
X373900D01*
X307593Y497646D01*
X308312Y498722D01*
X310487Y497822D01*
D02*
G37*
G36*
X368756Y423506D02*
X370244Y422511D01*
X372000Y422162D01*
X400546D01*
Y420500D01*
X400546Y420500D01*
X400546D01*
X399855Y419548D01*
X398552Y418244D01*
X397558Y416756D01*
X397208Y415000D01*
Y414250D01*
X394796D01*
Y404250D01*
X408797D01*
X409501Y403272D01*
Y401838D01*
X409290Y401522D01*
X408902Y399571D01*
Y396476D01*
X408797Y395250D01*
X394796D01*
Y385250D01*
X397208D01*
Y383500D01*
X397558Y381744D01*
X398552Y380256D01*
X400916Y377892D01*
X400546Y377000D01*
X400546D01*
Y364500D01*
X401189D01*
Y359084D01*
X400008Y357903D01*
X398885Y356441D01*
X398180Y354738D01*
X397940Y352910D01*
Y330131D01*
X396766Y329645D01*
X388069Y338342D01*
Y410000D01*
X387794Y412088D01*
X386988Y414035D01*
X385706Y415706D01*
X384035Y416988D01*
X382088Y417794D01*
X380000Y418069D01*
X377912Y417794D01*
X375965Y416988D01*
X374294Y415706D01*
X373012Y414035D01*
X372206Y412088D01*
X371931Y410000D01*
Y335000D01*
X372206Y332912D01*
X373012Y330965D01*
X374294Y329294D01*
X386079Y317510D01*
X385831Y316264D01*
X385470Y316115D01*
X384008Y314993D01*
X373008Y303993D01*
X371885Y302530D01*
X371180Y300827D01*
X370940Y299000D01*
Y234142D01*
X371180Y232315D01*
X371885Y230612D01*
X373008Y229150D01*
X378792Y223365D01*
X378450Y221911D01*
X377035Y220965D01*
X375819Y219146D01*
X375392Y217000D01*
X375819Y214854D01*
X376412Y213967D01*
Y212000D01*
X376761Y210244D01*
X377756Y208756D01*
X413006Y173506D01*
X417777Y168734D01*
Y115732D01*
X418126Y113976D01*
X419121Y112487D01*
X422657Y108952D01*
X423129Y108636D01*
X425250Y106515D01*
Y100504D01*
X437750D01*
Y113004D01*
X432651D01*
X432497Y113234D01*
X433176Y114504D01*
X437750D01*
Y127004D01*
X436531D01*
Y131750D01*
X437615D01*
Y144250D01*
X426954D01*
Y145750D01*
X428865D01*
Y152000D01*
X431365D01*
Y154500D01*
X437615D01*
Y158250D01*
X436463D01*
Y162752D01*
X437733Y163278D01*
X441693Y159319D01*
X441250Y158250D01*
X441250D01*
Y145750D01*
X452392D01*
Y144250D01*
X441250D01*
Y131750D01*
X442402D01*
Y127004D01*
X441250D01*
Y114504D01*
X452392D01*
Y113077D01*
X452319Y113004D01*
X441250D01*
Y100504D01*
X453750D01*
Y101146D01*
X454000D01*
X456146Y101573D01*
X457965Y102788D01*
X461965Y106789D01*
X463181Y108608D01*
X463608Y110754D01*
Y117387D01*
X464878Y117913D01*
X472902Y109888D01*
Y108000D01*
X471000D01*
Y98762D01*
X469940Y97492D01*
X330000Y97492D01*
Y99000D01*
X331500D01*
Y104820D01*
X331730Y104973D01*
X333000Y104295D01*
Y99000D01*
X336750D01*
Y105250D01*
X339250D01*
Y107750D01*
X345500D01*
Y110922D01*
X363204D01*
X364854Y109819D01*
X367000Y109392D01*
X369146Y109819D01*
X370965Y111035D01*
X372181Y112854D01*
X372608Y115000D01*
X372181Y117146D01*
X370965Y118965D01*
X369146Y120181D01*
X367000Y120608D01*
X364854Y120181D01*
X363204Y119078D01*
X345500D01*
Y122750D01*
X339250D01*
Y127750D01*
X345500D01*
Y130922D01*
X362204D01*
X363854Y129819D01*
X366000Y129392D01*
X368146Y129819D01*
X369965Y131035D01*
X371181Y132854D01*
X371608Y135000D01*
X371181Y137146D01*
X369965Y138965D01*
X368146Y140181D01*
X366000Y140608D01*
X363854Y140181D01*
X362204Y139078D01*
X345500D01*
Y142750D01*
X339250D01*
Y147750D01*
X345500D01*
Y149922D01*
X362204D01*
X363854Y148819D01*
X366000Y148392D01*
X368146Y148819D01*
X369965Y150035D01*
X371181Y151854D01*
X371608Y154000D01*
X371181Y156146D01*
X369965Y157965D01*
X368146Y159181D01*
X366000Y159608D01*
X363854Y159181D01*
X362204Y158078D01*
X346341D01*
X345500Y159000D01*
Y162750D01*
X339250D01*
Y167750D01*
X345500D01*
Y170922D01*
X361204D01*
X362854Y169819D01*
X365000Y169392D01*
X367146Y169819D01*
X368965Y171035D01*
X370181Y172854D01*
X370608Y175000D01*
X370181Y177146D01*
X368965Y178965D01*
X367146Y180181D01*
X365000Y180608D01*
X362854Y180181D01*
X361204Y179078D01*
X334500D01*
X332939Y178768D01*
X331616Y177884D01*
X331270Y177366D01*
X330000Y177751D01*
Y323672D01*
X360078D01*
X361354Y322819D01*
X363500Y322392D01*
X365646Y322819D01*
X367465Y324035D01*
X368681Y325854D01*
X369108Y328000D01*
X368681Y330146D01*
X367465Y331965D01*
X365646Y333181D01*
X363500Y333608D01*
X361354Y333181D01*
X359535Y331965D01*
X359443Y331828D01*
X341500D01*
Y333000D01*
X335250D01*
Y338000D01*
X341500D01*
Y340922D01*
X359204D01*
X360854Y339819D01*
X363000Y339392D01*
X365146Y339819D01*
X366965Y341035D01*
X368181Y342854D01*
X368608Y345000D01*
X368181Y347146D01*
X366965Y348965D01*
X365146Y350181D01*
X363000Y350608D01*
X360854Y350181D01*
X359204Y349078D01*
X341500D01*
Y350500D01*
X335250D01*
Y355500D01*
X341500D01*
Y357922D01*
X358704D01*
X360354Y356819D01*
X362500Y356392D01*
X364646Y356819D01*
X366465Y358035D01*
X367681Y359854D01*
X368108Y362000D01*
X367681Y364146D01*
X366465Y365965D01*
X364646Y367181D01*
X362500Y367608D01*
X360354Y367181D01*
X358704Y366078D01*
X341500D01*
Y368000D01*
X335250D01*
Y373000D01*
X341500D01*
Y375922D01*
X358454D01*
X360104Y374819D01*
X362250Y374392D01*
X364396Y374819D01*
X366215Y376035D01*
X367431Y377854D01*
X367858Y380000D01*
X367431Y382146D01*
X366215Y383965D01*
X364396Y385181D01*
X362250Y385608D01*
X360104Y385181D01*
X358454Y384078D01*
X341500D01*
Y385500D01*
X335250D01*
Y388000D01*
X332750D01*
Y394250D01*
X330000D01*
Y460602D01*
X331173Y461088D01*
X368756Y423506D01*
D02*
G37*
G36*
X461744Y436261D02*
X463500Y435912D01*
X498850D01*
X500208Y434553D01*
Y433000D01*
X498547D01*
Y420500D01*
X498546D01*
X498989Y419431D01*
X496552Y416994D01*
X495558Y415506D01*
X495308Y414250D01*
X492797D01*
Y404250D01*
X506796D01*
X507295Y403186D01*
Y402277D01*
X506790Y401522D01*
X506402Y399571D01*
Y395250D01*
X492797D01*
Y385250D01*
X495208D01*
Y384796D01*
X495558Y383041D01*
X496552Y381552D01*
X499834Y378270D01*
X499308Y377000D01*
X498546D01*
Y376273D01*
X497276Y375594D01*
X497146Y375681D01*
X495000Y376108D01*
X492854Y375681D01*
X491858Y375015D01*
X490588Y375694D01*
Y390204D01*
Y422250D01*
X490239Y424006D01*
X489244Y425494D01*
X484744Y429994D01*
X483256Y430989D01*
X481500Y431338D01*
X476046D01*
Y433000D01*
X463546D01*
Y420500D01*
X476046D01*
Y422162D01*
X479600D01*
X481412Y420350D01*
Y414250D01*
X477296D01*
Y409250D01*
X472296D01*
Y414250D01*
X467797D01*
Y413838D01*
X467003D01*
X465248Y413489D01*
X463759Y412494D01*
X459845Y408580D01*
X459067Y407415D01*
X457797Y407800D01*
Y414250D01*
X457797D01*
X457427Y415142D01*
X459041Y416756D01*
X460035Y418244D01*
X460385Y420000D01*
Y420500D01*
X462047D01*
Y433000D01*
X459588D01*
Y436174D01*
X460858Y436853D01*
X461744Y436261D01*
D02*
G37*
G36*
X219500Y427000D02*
X230125D01*
Y408350D01*
X219500D01*
Y407800D01*
X213000D01*
Y397290D01*
X150000D01*
Y430710D01*
X219500D01*
Y427000D01*
D02*
G37*
G36*
X277922Y420311D02*
Y383618D01*
X276652Y383233D01*
X276384Y383634D01*
X276384Y383634D01*
X266134Y393884D01*
X264811Y394768D01*
X263250Y395078D01*
X263250Y395078D01*
X259328D01*
Y396565D01*
X259018Y398126D01*
X258134Y399449D01*
X256811Y400333D01*
X255250Y400644D01*
X247250D01*
X245689Y400333D01*
X244366Y399449D01*
X244014Y398922D01*
X242486D01*
X242134Y399449D01*
X240811Y400333D01*
X239250Y400644D01*
X234650D01*
Y433422D01*
X264811D01*
X277922Y420311D01*
D02*
G37*
G36*
X481412Y373250D02*
X481761Y371494D01*
X481922Y371254D01*
Y362111D01*
X481922Y362111D01*
X482232Y360550D01*
X483116Y359227D01*
X484341Y358002D01*
X483855Y356828D01*
X474996D01*
X474756Y356989D01*
X473000Y357338D01*
X461877D01*
X461078Y358608D01*
X461404Y360250D01*
X460977Y362396D01*
X460420Y363230D01*
X460675Y364500D01*
X462047D01*
Y375722D01*
X463316Y376507D01*
X463546Y376391D01*
Y373250D01*
X469797D01*
X476046D01*
Y377000D01*
X474894D01*
Y378093D01*
X474506Y380044D01*
X473401Y381698D01*
X471022Y384077D01*
X471508Y385250D01*
X481412D01*
Y373250D01*
D02*
G37*
G36*
X432797Y385250D02*
X433162Y384131D01*
Y365784D01*
X433511Y364028D01*
X434506Y362540D01*
X447111Y349934D01*
X446585Y348664D01*
X422824D01*
X412404Y359084D01*
Y364500D01*
X413046D01*
Y377000D01*
X411385D01*
Y378500D01*
X411035Y380256D01*
X410041Y381744D01*
X408399Y383386D01*
X408519Y385011D01*
X408715Y385180D01*
X409896Y384825D01*
X410395Y384078D01*
X415699Y378774D01*
Y377000D01*
X414547D01*
Y373250D01*
X420797D01*
X427047D01*
Y377000D01*
X425895D01*
Y380886D01*
X425506Y382837D01*
X424743Y383980D01*
X425377Y385250D01*
X432797D01*
D02*
G37*
G36*
X512144Y378146D02*
X512547Y377000D01*
X512547D01*
X512547Y377000D01*
Y373250D01*
X518796D01*
Y368250D01*
X512547D01*
Y364500D01*
X520620D01*
X521106Y363327D01*
X520913Y363134D01*
X520029Y361811D01*
X519718Y360250D01*
X519718Y360250D01*
Y346805D01*
X519355Y346554D01*
X518448Y346320D01*
X503134Y361634D01*
X501811Y362518D01*
X500250Y362828D01*
X500250Y362828D01*
X491050D01*
X490078Y363800D01*
Y365854D01*
X491348Y366325D01*
X492854Y365319D01*
X495000Y364892D01*
X497146Y365319D01*
X497276Y365406D01*
X498546Y364728D01*
Y364500D01*
X511046D01*
Y377000D01*
X509385D01*
Y379110D01*
X510655Y379636D01*
X512144Y378146D01*
D02*
G37*
G36*
X253689Y387232D02*
X255250Y386922D01*
X261561D01*
X269422Y379061D01*
Y372250D01*
X269422Y372250D01*
X269732Y370689D01*
X270616Y369366D01*
X273366Y366616D01*
X273366Y366616D01*
X273894Y366264D01*
Y364736D01*
X273366Y364384D01*
X273366Y364384D01*
X270616Y361634D01*
X269732Y360311D01*
X269422Y358750D01*
X269422Y358750D01*
Y349439D01*
X269061Y349078D01*
X265150D01*
X263589Y348768D01*
X262498Y348039D01*
X261654Y348307D01*
X261228Y348602D01*
Y350317D01*
X260918Y351878D01*
X260034Y353201D01*
X258711Y354085D01*
X257150Y354395D01*
X249150D01*
X247589Y354085D01*
X246266Y353201D01*
X245382Y351878D01*
X245072Y350317D01*
Y348602D01*
X244646Y348307D01*
X243802Y348039D01*
X242711Y348768D01*
X241150Y349078D01*
X234650D01*
Y382480D01*
X235854Y382941D01*
X236000Y381855D01*
X236000D01*
Y358155D01*
X253100D01*
Y381855D01*
X250474D01*
X250089Y383125D01*
X250134Y383155D01*
X251018Y384478D01*
X251328Y386039D01*
Y387398D01*
X251754Y387692D01*
X252598Y387961D01*
X253689Y387232D01*
D02*
G37*
G36*
X219500Y382750D02*
X230125D01*
Y364350D01*
X219500D01*
Y363550D01*
X213000D01*
Y354707D01*
X150000D01*
Y387683D01*
X219500D01*
Y382750D01*
D02*
G37*
G36*
X277922Y344882D02*
Y330328D01*
X277898D01*
X276337Y330018D01*
X275014Y329134D01*
X274130Y327811D01*
X273820Y326250D01*
Y318250D01*
X274130Y316689D01*
X275014Y315366D01*
X276337Y314482D01*
X277898Y314172D01*
X277922D01*
Y311939D01*
X272061Y306078D01*
X236339D01*
X235202Y307215D01*
X236047Y308142D01*
X237093Y308155D01*
X237246Y308155D01*
X253100D01*
Y331855D01*
X236000D01*
Y309424D01*
X234730Y308666D01*
X234650Y308701D01*
Y340922D01*
X237072D01*
Y339683D01*
X237382Y338122D01*
X238266Y336799D01*
X239589Y335915D01*
X241150Y335605D01*
X249150D01*
X250711Y335915D01*
X252034Y336799D01*
X252386Y337327D01*
X253914D01*
X254266Y336799D01*
X255589Y335915D01*
X257150Y335605D01*
X265150D01*
X266711Y335915D01*
X268034Y336799D01*
X268918Y338122D01*
X269228Y339683D01*
Y340922D01*
X270750D01*
X270750Y340922D01*
X272311Y341232D01*
X273634Y342116D01*
X276384Y344866D01*
X276384Y344866D01*
X276652Y345267D01*
X277922Y344882D01*
D02*
G37*
G36*
X502780Y340952D02*
X503547Y340000D01*
Y328273D01*
X502482Y328061D01*
X501407Y327343D01*
X498973Y324909D01*
X498598Y324905D01*
X497474Y325206D01*
X496465Y326715D01*
X494646Y327931D01*
X492500Y328358D01*
X490354Y327931D01*
X488535Y326715D01*
X487319Y324896D01*
X486892Y322750D01*
X487045Y321981D01*
X485627Y320563D01*
X478395D01*
X477796Y321683D01*
X477980Y321958D01*
X478407Y324104D01*
X477980Y326250D01*
X476764Y328069D01*
X474945Y329285D01*
X472799Y329712D01*
X470653Y329285D01*
X469766Y328692D01*
X447812D01*
X446056Y328343D01*
X444567Y327348D01*
X422197Y304978D01*
X421151Y304770D01*
X419331Y303554D01*
X418116Y301735D01*
X417689Y299589D01*
X418116Y297443D01*
X419331Y295624D01*
X421151Y294408D01*
X423297Y293981D01*
X425443Y294408D01*
X427262Y295624D01*
X428477Y297443D01*
X428685Y298489D01*
X449712Y319516D01*
X467675D01*
X468161Y318342D01*
X453407Y303589D01*
X452689Y302514D01*
X452436Y301246D01*
Y278861D01*
X452689Y277593D01*
X453407Y276518D01*
X459518Y270407D01*
X460500Y269751D01*
Y264000D01*
Y254000D01*
Y245814D01*
X451641D01*
X450256Y246739D01*
X449624Y246865D01*
X414554Y281935D01*
X414743Y282390D01*
X415086Y285000D01*
X414743Y287610D01*
X413735Y290043D01*
X412132Y292132D01*
X410043Y293735D01*
X407611Y294743D01*
X405000Y295086D01*
X402389Y294743D01*
X399957Y293735D01*
X397868Y292132D01*
X396265Y290043D01*
X395257Y287610D01*
X394914Y285000D01*
X395257Y282390D01*
X396265Y279957D01*
X397868Y277868D01*
X399957Y276265D01*
X402389Y275257D01*
X405000Y274914D01*
X407611Y275257D01*
X408065Y275446D01*
X444256Y239256D01*
X445744Y238261D01*
X447500Y237912D01*
X448500D01*
X450256Y238261D01*
X451641Y239186D01*
X460500D01*
Y239000D01*
X468000D01*
Y231500D01*
X468186D01*
Y222000D01*
X466750D01*
Y221358D01*
X460250D01*
Y222000D01*
X449180D01*
X414464Y256717D01*
X414743Y257390D01*
X415086Y260000D01*
X414743Y262610D01*
X413735Y265043D01*
X412132Y267132D01*
X410043Y268735D01*
X407611Y269743D01*
X405000Y270086D01*
X402389Y269743D01*
X399957Y268735D01*
X397868Y267132D01*
X396265Y265043D01*
X395257Y262610D01*
X394914Y260000D01*
X395257Y257390D01*
X396265Y254957D01*
X397868Y252868D01*
X399957Y251265D01*
X402389Y250257D01*
X405000Y249914D01*
X405359Y249961D01*
X412496Y242823D01*
X411657Y241866D01*
X410934Y242421D01*
X409791Y243298D01*
X407500Y244247D01*
Y237500D01*
X414247D01*
X413298Y239791D01*
X412421Y240934D01*
X411866Y241657D01*
X412823Y242496D01*
X443535Y211785D01*
X445354Y210569D01*
X447500Y210142D01*
X447750D01*
Y209500D01*
X460250D01*
Y210142D01*
X466750D01*
Y209500D01*
X478186D01*
Y208000D01*
X475500D01*
Y201750D01*
Y195500D01*
X479250D01*
Y200565D01*
X480423Y201052D01*
X499818Y181657D01*
X500893Y180939D01*
X502161Y180686D01*
X504599D01*
X505035Y180035D01*
X506854Y178819D01*
X509000Y178392D01*
X511146Y178819D01*
X512965Y180035D01*
X514181Y181854D01*
X514608Y184000D01*
X514181Y186146D01*
X512965Y187965D01*
X511146Y189181D01*
X509316Y189545D01*
X508985Y189635D01*
X508364Y190776D01*
X508608Y192000D01*
X508442Y192835D01*
X508999Y193392D01*
X511145Y193819D01*
X512964Y195034D01*
X514180Y196854D01*
X514607Y199000D01*
X514283Y200625D01*
X515124Y201652D01*
X515261Y201725D01*
X516627Y201454D01*
X520297D01*
X522443Y201881D01*
X524262Y203096D01*
X525477Y204916D01*
X525904Y207062D01*
X525477Y209207D01*
X525410Y209309D01*
X526019Y210683D01*
X526349Y210732D01*
X529971Y207110D01*
Y189375D01*
X529524Y188295D01*
X529343Y186924D01*
X515480Y173060D01*
X490724D01*
X475392Y188392D01*
X473930Y189514D01*
X472227Y190220D01*
X470400Y190460D01*
X463317D01*
X463181Y191146D01*
X461965Y192965D01*
X460569Y194362D01*
X460250Y195500D01*
X460250D01*
Y208000D01*
X447750D01*
Y195500D01*
X448392D01*
Y193000D01*
X448819Y190854D01*
X449174Y190323D01*
X448188Y189513D01*
X442958Y194742D01*
X441496Y195865D01*
X439793Y196570D01*
X437966Y196810D01*
X425317D01*
X385060Y237067D01*
Y296075D01*
X391925Y302940D01*
X397060D01*
X400000Y300000D01*
X410000D01*
X415000Y305000D01*
Y315000D01*
X412060Y317940D01*
Y337799D01*
X413234Y338285D01*
X414907Y336612D01*
X416369Y335490D01*
X418072Y334784D01*
X419899Y334544D01*
X488493D01*
X490321Y334784D01*
X492024Y335490D01*
X493486Y336612D01*
X493882Y337007D01*
X495004Y338470D01*
X495709Y340173D01*
X495950Y342000D01*
X495709Y343827D01*
X495004Y345530D01*
X493882Y346992D01*
X493349Y347402D01*
X493780Y348672D01*
X495061D01*
X502780Y340952D01*
D02*
G37*
G36*
X219500Y333000D02*
X230125D01*
Y314350D01*
X219500D01*
Y313800D01*
X213000D01*
Y311290D01*
X150000D01*
Y344710D01*
X219500D01*
Y333000D01*
D02*
G37*
G36*
X702000Y303000D02*
X633000D01*
Y317000D01*
X630900D01*
Y317750D01*
X630000D01*
Y330000D01*
X660000D01*
Y345000D01*
X702000D01*
Y303000D01*
D02*
G37*
G36*
X217790Y254000D02*
X218500Y253706D01*
Y243000D01*
X229125D01*
Y224100D01*
X219500D01*
Y223800D01*
X212000D01*
Y213754D01*
X149000D01*
Y254000D01*
X217790D01*
D02*
G37*
G36*
X755000Y211000D02*
X702175D01*
X701907Y211111D01*
Y215000D01*
X618000D01*
Y290500D01*
X617550D01*
Y293500D01*
Y293500D01*
X622550D01*
Y295750D01*
X755000D01*
Y211000D01*
D02*
G37*
G36*
X659000Y116000D02*
X601200Y116000D01*
X601200Y202500D01*
X601050D01*
Y205500D01*
Y205500D01*
X606050D01*
Y207750D01*
X651050D01*
Y205500D01*
Y207750D01*
X652216Y208000D01*
X659000D01*
Y116000D01*
D02*
G37*
G36*
X285000Y192236D02*
X283152Y191471D01*
X267561Y207062D01*
X264500Y208330D01*
X234793D01*
X234000Y209123D01*
Y246710D01*
X285000D01*
X285000Y192236D01*
D02*
G37*
G36*
X218790Y204000D02*
X219500Y203706D01*
Y193000D01*
X230125D01*
Y174350D01*
X219500D01*
Y173800D01*
X213000D01*
Y171290D01*
X150000D01*
Y204000D01*
X218790D01*
D02*
G37*
G36*
X281670Y180707D02*
Y157800D01*
X280333Y157268D01*
X279671Y157203D01*
X273811Y163062D01*
X270750Y164330D01*
X264000D01*
X262330Y163638D01*
X260389Y164167D01*
X260071Y164807D01*
X259061Y167245D01*
X256000Y168513D01*
X253100D01*
Y191855D01*
X236000D01*
Y168155D01*
X243236D01*
X244487Y166155D01*
X243929Y164807D01*
X243611Y164167D01*
X241670Y163638D01*
X240000Y164330D01*
X234000D01*
Y199670D01*
X262707D01*
X281670Y180707D01*
D02*
G37*
G36*
X272420Y152207D02*
Y139000D01*
X273689Y135939D01*
X275938Y133689D01*
X276165Y133595D01*
X276265Y131388D01*
X273189Y128312D01*
X271921Y125250D01*
Y123830D01*
X268000D01*
X266329Y123138D01*
X264415Y123562D01*
X264041Y124277D01*
X263061Y126642D01*
X260000Y127910D01*
X254999D01*
X253100Y128155D01*
X253100Y129423D01*
Y150523D01*
X255098Y151861D01*
X256000Y151487D01*
X264000D01*
X267061Y152755D01*
X267642Y154157D01*
X270001Y154626D01*
X272420Y152207D01*
D02*
G37*
G36*
X220000Y152000D02*
X220145Y151855D01*
X230125D01*
Y134750D01*
X216250D01*
Y130250D01*
X150000D01*
Y162000D01*
X220000D01*
Y152000D01*
D02*
G37*
G36*
X487800Y158940D02*
X490750D01*
Y146750D01*
X503250D01*
Y148412D01*
X506500D01*
X508256Y148761D01*
X509744Y149756D01*
X510730Y150741D01*
X512000Y150500D01*
Y148500D01*
X519000D01*
Y143500D01*
X512000D01*
Y141000D01*
Y131500D01*
X513902D01*
Y124000D01*
X514290Y122049D01*
X515395Y120395D01*
X516902Y118888D01*
Y116474D01*
X515632Y116271D01*
X514568Y116463D01*
X513451Y117210D01*
X511500Y117598D01*
X502000D01*
X501507Y117500D01*
X495588D01*
Y122100D01*
X500244Y126756D01*
X501239Y128244D01*
X501588Y130000D01*
Y132750D01*
X503250D01*
Y145250D01*
X490750D01*
Y132750D01*
X491465D01*
X491991Y131480D01*
X487756Y127244D01*
X486761Y125756D01*
X486412Y124000D01*
Y98731D01*
X486270Y98642D01*
X485000Y99343D01*
Y108000D01*
X483098D01*
Y112000D01*
X482710Y113951D01*
X481605Y115605D01*
X476234Y120975D01*
X477044Y121962D01*
X478049Y121290D01*
X480000Y120902D01*
X481951Y121290D01*
X483605Y122395D01*
X484710Y124049D01*
X485098Y126000D01*
Y132750D01*
X486250D01*
Y136500D01*
X480000D01*
Y139000D01*
X477500D01*
Y145250D01*
X475526D01*
X474841Y146520D01*
X474993Y146750D01*
X486250D01*
Y158181D01*
X487205Y159018D01*
X487800Y158940D01*
D02*
G37*
G36*
X281670Y116308D02*
Y111250D01*
X282837Y108434D01*
X282934Y107250D01*
X282837Y106066D01*
X281670Y103250D01*
Y91250D01*
Y87543D01*
X274127Y80000D01*
X253933D01*
X253100Y81655D01*
X253100Y82000D01*
Y105355D01*
X236000D01*
Y83711D01*
X234000Y82130D01*
Y115170D01*
X236000D01*
X237670Y115862D01*
X239670Y114526D01*
Y114320D01*
X240938Y111258D01*
X244000Y109990D01*
X252000D01*
X254816Y111157D01*
X256000Y111254D01*
X257184Y111157D01*
X260000Y109990D01*
X268000D01*
X271061Y111258D01*
X272330Y114320D01*
Y115170D01*
X276250D01*
X278000Y115896D01*
X279750Y116500D01*
X281670Y116308D01*
D02*
G37*
G36*
X763000Y160500D02*
X696000D01*
Y106000D01*
D01*
X696000Y77000D01*
X673469D01*
X673216Y78270D01*
X674589Y78839D01*
X676469Y80281D01*
X677912Y82161D01*
X678756Y84200D01*
X670050D01*
X661344D01*
X662189Y82161D01*
X663631Y80281D01*
X665511Y78839D01*
X666884Y78270D01*
X666631Y77000D01*
X618000D01*
X618000Y51000D01*
X587000Y51000D01*
X587000Y99000D01*
X603550Y99000D01*
Y109888D01*
X664050D01*
Y205500D01*
X763000D01*
Y160500D01*
D02*
G37*
G36*
X219000Y105355D02*
X229500D01*
Y87850D01*
X219500D01*
Y87754D01*
X150000D01*
Y120246D01*
X219000D01*
Y105355D01*
D02*
G37*
G36*
X758000Y5000D02*
X552000Y5000D01*
Y8000D01*
X561500D01*
Y23500D01*
X561500D01*
Y26075D01*
X562761Y26244D01*
X563756Y24756D01*
X565244Y23761D01*
X567000Y23412D01*
X568756Y23761D01*
X570244Y24756D01*
X571239Y26244D01*
X571588Y28000D01*
Y36000D01*
Y45298D01*
X574290Y48000D01*
X624000Y48000D01*
X648000Y72000D01*
X701000Y72000D01*
Y156000D01*
X758000D01*
X758000Y5000D01*
D02*
G37*
G36*
X140000Y67500D02*
X510500D01*
Y49270D01*
X510500Y48000D01*
X500500D01*
Y32500D01*
X500500D01*
Y23500D01*
X500500D01*
Y8000D01*
X510500D01*
X510500Y6730D01*
Y5000D01*
X65000Y5000D01*
Y65000D01*
X10000D01*
Y495000D01*
X140000D01*
X140000Y67500D01*
D02*
G37*
%LPC*%
G36*
X517750Y544750D02*
X506250D01*
Y538250D01*
X517750D01*
Y544750D01*
D02*
G37*
G36*
X501250D02*
X489750D01*
Y538250D01*
X501250D01*
Y544750D01*
D02*
G37*
G36*
X517750Y533250D02*
X506250D01*
Y526750D01*
X517750D01*
Y533250D01*
D02*
G37*
G36*
X501250D02*
X489750D01*
Y526750D01*
X501250D01*
Y533250D01*
D02*
G37*
G36*
X595250Y523750D02*
X591500D01*
Y520000D01*
X595250D01*
Y523750D01*
D02*
G37*
G36*
X586500D02*
X582750D01*
Y520000D01*
X586500D01*
Y523750D01*
D02*
G37*
G36*
X482750Y523250D02*
X479000D01*
Y519500D01*
X482750D01*
Y523250D01*
D02*
G37*
G36*
X474000D02*
X470250D01*
Y519500D01*
X474000D01*
Y523250D01*
D02*
G37*
G36*
X556112Y510112D02*
X553000Y507000D01*
X547000D01*
X544054Y509946D01*
X544750Y509000D01*
X544750D01*
X544750Y509000D01*
Y503500D01*
X550000D01*
X555250D01*
Y509000D01*
X555250Y509000D01*
X555250D01*
X555948Y509948D01*
X556112Y510112D01*
D02*
G37*
G36*
X679000Y537585D02*
X675569Y537247D01*
X672271Y536246D01*
X669230Y534621D01*
X666566Y532434D01*
X664379Y529770D01*
X662754Y526729D01*
X661753Y523431D01*
X661415Y520000D01*
X661753Y516569D01*
X662754Y513271D01*
X664379Y510230D01*
X666566Y507566D01*
X669230Y505379D01*
X672271Y503754D01*
X675569Y502753D01*
X679000Y502415D01*
X682431Y502753D01*
X685729Y503754D01*
X688770Y505379D01*
X691434Y507566D01*
X693621Y510230D01*
X695246Y513271D01*
X696247Y516569D01*
X696585Y520000D01*
X696247Y523431D01*
X695246Y526729D01*
X693621Y529770D01*
X691434Y532434D01*
X688770Y534621D01*
X685729Y536246D01*
X682431Y537247D01*
X679000Y537585D01*
D02*
G37*
G36*
X555250Y498500D02*
X552500D01*
Y493000D01*
X555250D01*
Y498500D01*
D02*
G37*
G36*
X547500D02*
X544750D01*
Y493000D01*
X547500D01*
Y498500D01*
D02*
G37*
G36*
X648000Y461565D02*
X647951Y461539D01*
X645210Y459290D01*
X642961Y456549D01*
X642935Y456500D01*
X648000D01*
Y461565D01*
D02*
G37*
G36*
Y436500D02*
X642935D01*
X642961Y436451D01*
X645210Y433711D01*
X647951Y431461D01*
X648000Y431435D01*
Y436500D01*
D02*
G37*
G36*
X826000Y396000D02*
X822500D01*
Y389500D01*
X826000D01*
Y396000D01*
D02*
G37*
G36*
X813500D02*
X810000D01*
Y389500D01*
X813500D01*
Y396000D01*
D02*
G37*
G36*
X826000Y380500D02*
X822500D01*
Y374000D01*
X826000D01*
Y380500D01*
D02*
G37*
G36*
X813500D02*
X810000D01*
Y374000D01*
X813500D01*
Y380500D01*
D02*
G37*
G36*
X789000Y91000D02*
X784500D01*
Y83500D01*
X789000D01*
Y91000D01*
D02*
G37*
G36*
X779500D02*
X775000D01*
Y83500D01*
X779500D01*
Y91000D01*
D02*
G37*
G36*
X789000Y78500D02*
X784500D01*
Y71000D01*
X789000D01*
Y78500D01*
D02*
G37*
G36*
X779500D02*
X775000D01*
Y71000D01*
X779500D01*
Y78500D01*
D02*
G37*
G36*
X450405Y479453D02*
X446655D01*
Y475704D01*
X450405D01*
Y479453D01*
D02*
G37*
G36*
X441655D02*
X437905D01*
Y475704D01*
X441655D01*
Y479453D01*
D02*
G37*
G36*
X450405Y470704D02*
X446655D01*
Y466953D01*
X450405D01*
Y470704D01*
D02*
G37*
G36*
X581250Y302750D02*
X577500D01*
Y299000D01*
X581250D01*
Y302750D01*
D02*
G37*
G36*
X572500D02*
X568750D01*
Y299000D01*
X572500D01*
Y302750D01*
D02*
G37*
G36*
X581250Y294000D02*
X577500D01*
Y290250D01*
X581250D01*
Y294000D01*
D02*
G37*
G36*
X572500D02*
X568750D01*
Y290250D01*
X572500D01*
Y294000D01*
D02*
G37*
G36*
X581250Y248250D02*
X577500D01*
Y244500D01*
X581250D01*
Y248250D01*
D02*
G37*
G36*
X572500D02*
X568750D01*
Y244500D01*
X572500D01*
Y248250D01*
D02*
G37*
G36*
X581250Y239500D02*
X577500D01*
Y235750D01*
X581250D01*
Y239500D01*
D02*
G37*
G36*
X572500D02*
X568750D01*
Y235750D01*
X572500D01*
Y239500D01*
D02*
G37*
G36*
X577431Y176069D02*
X573681D01*
Y172319D01*
X577431D01*
Y176069D01*
D02*
G37*
G36*
X568681D02*
X564931D01*
Y172319D01*
X568681D01*
Y176069D01*
D02*
G37*
G36*
X577431Y167319D02*
X573681D01*
Y163569D01*
X577431D01*
Y167319D01*
D02*
G37*
G36*
X568681D02*
X564931D01*
Y163569D01*
X568681D01*
Y167319D01*
D02*
G37*
G36*
X581250Y126500D02*
X575000D01*
X568750D01*
Y122750D01*
X568882D01*
Y115250D01*
X568750D01*
Y111500D01*
X575000D01*
X581250D01*
Y115250D01*
X581118D01*
Y122750D01*
X581250D01*
Y126500D01*
D02*
G37*
G36*
X572500Y106500D02*
X568750D01*
Y102750D01*
X572500D01*
Y106500D01*
D02*
G37*
G36*
X704500Y463945D02*
Y451000D01*
X717445D01*
X716710Y453422D01*
X715039Y456549D01*
X712790Y459290D01*
X710049Y461539D01*
X706922Y463210D01*
X704500Y463945D01*
D02*
G37*
G36*
X695500Y463945D02*
X693078Y463210D01*
X689951Y461539D01*
X687210Y459290D01*
X684961Y456549D01*
X683290Y453422D01*
X682555Y451000D01*
X695500D01*
Y463945D01*
D02*
G37*
G36*
X790000Y449000D02*
X789500D01*
X784500Y444000D01*
Y443500D01*
X790000D01*
Y449000D01*
D02*
G37*
G36*
X717445Y442000D02*
X704500D01*
Y429055D01*
X706922Y429790D01*
X710049Y431461D01*
X712790Y433711D01*
X715039Y436451D01*
X716710Y439578D01*
X717445Y442000D01*
D02*
G37*
G36*
X695500D02*
X682555D01*
X683290Y439578D01*
X684961Y436451D01*
X687210Y433711D01*
X689951Y431461D01*
X693078Y429790D01*
X695500Y429055D01*
Y442000D01*
D02*
G37*
G36*
X790000Y434500D02*
X784500D01*
Y434000D01*
X789500Y429000D01*
X790000D01*
Y434500D01*
D02*
G37*
G36*
X253100Y471605D02*
X236000D01*
Y447905D01*
X253100D01*
Y471605D01*
D02*
G37*
G36*
X341500Y394250D02*
X337750D01*
Y390500D01*
X341500D01*
Y394250D01*
D02*
G37*
G36*
X437615Y149500D02*
X433865D01*
Y145750D01*
X437615D01*
Y149500D01*
D02*
G37*
G36*
X345500Y102750D02*
X341750D01*
Y99000D01*
X345500D01*
Y102750D01*
D02*
G37*
G36*
X340539Y99000D02*
X339461D01*
X340000Y98892D01*
X340539Y99000D01*
D02*
G37*
G36*
X253100Y425855D02*
X236000D01*
Y402155D01*
X253100D01*
Y425855D01*
D02*
G37*
G36*
X476046Y368250D02*
X472297D01*
Y364500D01*
X476046D01*
Y368250D01*
D02*
G37*
G36*
X467297D02*
X463546D01*
Y364500D01*
X467297D01*
Y368250D01*
D02*
G37*
G36*
X427047Y368250D02*
X423297D01*
Y364500D01*
X427047D01*
Y368250D01*
D02*
G37*
G36*
X418297D02*
X414547D01*
Y364500D01*
X418297D01*
Y368250D01*
D02*
G37*
G36*
X402500Y244247D02*
X400209Y243298D01*
X398224Y241775D01*
X396702Y239791D01*
X395753Y237500D01*
X402500D01*
Y244247D01*
D02*
G37*
G36*
X414247Y232500D02*
X407500D01*
Y225753D01*
X409791Y226702D01*
X411775Y228225D01*
X413298Y230209D01*
X414247Y232500D01*
D02*
G37*
G36*
X402500D02*
X395753D01*
X396702Y230209D01*
X398224Y228225D01*
X400209Y226702D01*
X402500Y225753D01*
Y232500D01*
D02*
G37*
G36*
X470500Y208000D02*
X466750D01*
Y204250D01*
X470500D01*
Y208000D01*
D02*
G37*
G36*
Y199250D02*
X466750D01*
Y195500D01*
X470500D01*
Y199250D01*
D02*
G37*
G36*
X253100Y241605D02*
X236000D01*
Y217905D01*
X253100D01*
Y241605D01*
D02*
G37*
G36*
X482500Y145250D02*
Y141500D01*
X486250D01*
Y145250D01*
X482500D01*
D02*
G37*
G36*
X672550Y95406D02*
Y89200D01*
X678756D01*
X677912Y91239D01*
X676469Y93119D01*
X674589Y94562D01*
X672550Y95406D01*
D02*
G37*
G36*
X667550D02*
X665511Y94562D01*
X663631Y93119D01*
X662189Y91239D01*
X661344Y89200D01*
X667550D01*
Y95406D01*
D02*
G37*
G36*
X609000Y73358D02*
X604500D01*
Y65858D01*
X609000D01*
Y73358D01*
D02*
G37*
G36*
X599500D02*
X595000D01*
Y65858D01*
X599500D01*
Y73358D01*
D02*
G37*
G36*
X609000Y60858D02*
X604500D01*
Y53358D01*
X609000D01*
Y60858D01*
D02*
G37*
G36*
X599500D02*
X595000D01*
Y53358D01*
X599500D01*
Y60858D01*
D02*
G37*
G36*
X117500Y473445D02*
Y460500D01*
X130445D01*
X129710Y462922D01*
X128039Y466049D01*
X125789Y468789D01*
X123049Y471039D01*
X119922Y472710D01*
X117500Y473445D01*
D02*
G37*
G36*
X108500D02*
X106078Y472710D01*
X102951Y471039D01*
X100211Y468789D01*
X97961Y466049D01*
X96290Y462922D01*
X95555Y460500D01*
X108500D01*
Y473445D01*
D02*
G37*
G36*
X130445Y451500D02*
X117500D01*
Y438555D01*
X119922Y439290D01*
X123049Y440961D01*
X125789Y443210D01*
X128039Y445951D01*
X129710Y449078D01*
X130445Y451500D01*
D02*
G37*
G36*
X108500D02*
X95555D01*
X96290Y449078D01*
X97961Y445951D01*
X100211Y443210D01*
X102951Y440961D01*
X106078Y439290D01*
X108500Y438555D01*
Y451500D01*
D02*
G37*
G36*
X40000Y473585D02*
X36569Y473247D01*
X33271Y472246D01*
X30231Y470621D01*
X27566Y468434D01*
X25379Y465770D01*
X23754Y462729D01*
X22753Y459431D01*
X22415Y456000D01*
X22753Y452569D01*
X23754Y449271D01*
X25379Y446231D01*
X27566Y443566D01*
X30231Y441379D01*
X33271Y439754D01*
X36569Y438753D01*
X40000Y438415D01*
X43431Y438753D01*
X46729Y439754D01*
X49770Y441379D01*
X52434Y443566D01*
X54621Y446231D01*
X56246Y449271D01*
X57247Y452569D01*
X57585Y456000D01*
X57247Y459431D01*
X56246Y462729D01*
X54621Y465770D01*
X52434Y468434D01*
X49770Y470621D01*
X46729Y472246D01*
X43431Y473247D01*
X40000Y473585D01*
D02*
G37*
G36*
X117500Y431445D02*
Y418500D01*
X130445D01*
X129710Y420922D01*
X128039Y424049D01*
X125789Y426790D01*
X123049Y429039D01*
X119922Y430710D01*
X117500Y431445D01*
D02*
G37*
G36*
X108500Y431445D02*
X106078Y430710D01*
X102951Y429039D01*
X100211Y426790D01*
X97961Y424049D01*
X96290Y420922D01*
X95555Y418500D01*
X108500D01*
Y431445D01*
D02*
G37*
G36*
Y409500D02*
X95555D01*
X96290Y407078D01*
X97961Y403951D01*
X100211Y401211D01*
X102951Y398961D01*
X106078Y397290D01*
X108500Y396555D01*
Y409500D01*
D02*
G37*
G36*
X130445D02*
X117500D01*
Y396555D01*
X119922Y397290D01*
X123049Y398961D01*
X125789Y401211D01*
X128039Y403951D01*
X129710Y407078D01*
X130445Y409500D01*
D02*
G37*
G36*
X117500Y389445D02*
Y376500D01*
X130445D01*
X129710Y378922D01*
X128039Y382049D01*
X125789Y384790D01*
X123049Y387039D01*
X119922Y388710D01*
X117500Y389445D01*
D02*
G37*
G36*
X108500Y389445D02*
X106078Y388710D01*
X102951Y387039D01*
X100211Y384790D01*
X97961Y382049D01*
X96290Y378922D01*
X95555Y376500D01*
X108500D01*
Y389445D01*
D02*
G37*
G36*
Y367500D02*
X95555D01*
X96290Y365078D01*
X97961Y361951D01*
X100211Y359211D01*
X102951Y356961D01*
X106078Y355290D01*
X108500Y354555D01*
Y367500D01*
D02*
G37*
G36*
X130445D02*
X117500D01*
Y354555D01*
X119922Y355290D01*
X123049Y356961D01*
X125789Y359211D01*
X128039Y361951D01*
X129710Y365078D01*
X130445Y367500D01*
D02*
G37*
G36*
X117500Y347445D02*
Y334500D01*
X130445D01*
X129710Y336922D01*
X128039Y340049D01*
X125789Y342789D01*
X123049Y345039D01*
X119922Y346710D01*
X117500Y347445D01*
D02*
G37*
G36*
X108500D02*
X106078Y346710D01*
X102951Y345039D01*
X100211Y342789D01*
X97961Y340049D01*
X96290Y336922D01*
X95555Y334500D01*
X108500D01*
Y347445D01*
D02*
G37*
G36*
Y325500D02*
X95555D01*
X96290Y323078D01*
X97961Y319951D01*
X100211Y317211D01*
X102951Y314961D01*
X106078Y313290D01*
X108500Y312555D01*
Y325500D01*
D02*
G37*
G36*
X130445D02*
X117500D01*
Y312555D01*
X119922Y313290D01*
X123049Y314961D01*
X125789Y317211D01*
X128039Y319951D01*
X129710Y323078D01*
X130445Y325500D01*
D02*
G37*
G36*
X40000Y347585D02*
X36569Y347247D01*
X33271Y346246D01*
X30231Y344621D01*
X27566Y342434D01*
X25379Y339770D01*
X23754Y336729D01*
X22753Y333431D01*
X22415Y330000D01*
X22753Y326569D01*
X23754Y323271D01*
X25379Y320230D01*
X27566Y317566D01*
X30231Y315379D01*
X33271Y313754D01*
X36569Y312753D01*
X40000Y312415D01*
X43431Y312753D01*
X46729Y313754D01*
X49770Y315379D01*
X52434Y317566D01*
X54621Y320230D01*
X56246Y323271D01*
X57247Y326569D01*
X57585Y330000D01*
X57247Y333431D01*
X56246Y336729D01*
X54621Y339770D01*
X52434Y342434D01*
X49770Y344621D01*
X46729Y346246D01*
X43431Y347247D01*
X40000Y347585D01*
D02*
G37*
G36*
X117500Y247445D02*
Y234500D01*
X130445D01*
X129710Y236922D01*
X128039Y240049D01*
X125789Y242789D01*
X123049Y245039D01*
X119922Y246710D01*
X117500Y247445D01*
D02*
G37*
G36*
X108500D02*
X106078Y246710D01*
X102951Y245039D01*
X100211Y242789D01*
X97961Y240049D01*
X96290Y236922D01*
X95555Y234500D01*
X108500D01*
Y247445D01*
D02*
G37*
G36*
Y225500D02*
X95555D01*
X96290Y223078D01*
X97961Y219951D01*
X100211Y217211D01*
X102951Y214961D01*
X106078Y213290D01*
X108500Y212555D01*
Y225500D01*
D02*
G37*
G36*
X130445D02*
X117500D01*
Y212555D01*
X119922Y213290D01*
X123049Y214961D01*
X125789Y217211D01*
X128039Y219951D01*
X129710Y223078D01*
X130445Y225500D01*
D02*
G37*
G36*
X40000Y247585D02*
X36569Y247247D01*
X33271Y246246D01*
X30231Y244621D01*
X27566Y242434D01*
X25379Y239769D01*
X23754Y236729D01*
X22753Y233431D01*
X22415Y230000D01*
X22753Y226569D01*
X23754Y223271D01*
X25379Y220231D01*
X27566Y217566D01*
X30231Y215379D01*
X33271Y213754D01*
X36569Y212753D01*
X40000Y212415D01*
X43431Y212753D01*
X46729Y213754D01*
X49770Y215379D01*
X52434Y217566D01*
X54621Y220231D01*
X56246Y223271D01*
X57247Y226569D01*
X57585Y230000D01*
X57247Y233431D01*
X56246Y236729D01*
X54621Y239769D01*
X52434Y242434D01*
X49770Y244621D01*
X46729Y246246D01*
X43431Y247247D01*
X40000Y247585D01*
D02*
G37*
G36*
X117500Y205445D02*
Y192500D01*
X130445D01*
X129710Y194922D01*
X128039Y198049D01*
X125789Y200790D01*
X123049Y203039D01*
X119922Y204710D01*
X117500Y205445D01*
D02*
G37*
G36*
X108500D02*
X106078Y204710D01*
X102951Y203039D01*
X100211Y200790D01*
X97961Y198049D01*
X96290Y194922D01*
X95555Y192500D01*
X108500D01*
Y205445D01*
D02*
G37*
G36*
X130445Y183500D02*
X117500D01*
Y170555D01*
X119922Y171290D01*
X123049Y172961D01*
X125789Y175210D01*
X128039Y177951D01*
X129710Y181078D01*
X130445Y183500D01*
D02*
G37*
G36*
X108500D02*
X95555D01*
X96290Y181078D01*
X97961Y177951D01*
X100211Y175210D01*
X102951Y172961D01*
X106078Y171290D01*
X108500Y170555D01*
Y183500D01*
D02*
G37*
G36*
X117500Y163445D02*
Y150500D01*
X130445D01*
X129710Y152922D01*
X128039Y156049D01*
X125789Y158790D01*
X123049Y161039D01*
X119922Y162710D01*
X117500Y163445D01*
D02*
G37*
G36*
X108500D02*
X106078Y162710D01*
X102951Y161039D01*
X100211Y158790D01*
X97961Y156049D01*
X96290Y152922D01*
X95555Y150500D01*
X108500D01*
Y163445D01*
D02*
G37*
G36*
X130445Y141500D02*
X117500D01*
Y128555D01*
X119922Y129290D01*
X123049Y130961D01*
X125789Y133210D01*
X128039Y135951D01*
X129710Y139078D01*
X130445Y141500D01*
D02*
G37*
G36*
X108500D02*
X95555D01*
X96290Y139078D01*
X97961Y135951D01*
X100211Y133210D01*
X102951Y130961D01*
X106078Y129290D01*
X108500Y128555D01*
Y141500D01*
D02*
G37*
G36*
X117500Y121445D02*
Y108500D01*
X130445D01*
X129710Y110922D01*
X128039Y114049D01*
X125789Y116790D01*
X123049Y119039D01*
X119922Y120710D01*
X117500Y121445D01*
D02*
G37*
G36*
X108500Y121445D02*
X106078Y120710D01*
X102951Y119039D01*
X100211Y116790D01*
X97961Y114049D01*
X96290Y110922D01*
X95555Y108500D01*
X108500D01*
Y121445D01*
D02*
G37*
G36*
Y99500D02*
X95555D01*
X96290Y97078D01*
X97961Y93951D01*
X100211Y91210D01*
X102951Y88961D01*
X106078Y87290D01*
X108500Y86555D01*
Y99500D01*
D02*
G37*
G36*
X130445D02*
X117500D01*
Y86555D01*
X119922Y87290D01*
X123049Y88961D01*
X125789Y91210D01*
X128039Y93951D01*
X129710Y97078D01*
X130445Y99500D01*
D02*
G37*
G36*
X40000Y121585D02*
X36569Y121247D01*
X33271Y120246D01*
X30231Y118621D01*
X27566Y116434D01*
X25379Y113770D01*
X23754Y110729D01*
X22753Y107431D01*
X22415Y104000D01*
X22753Y100569D01*
X23754Y97271D01*
X25379Y94230D01*
X27566Y91566D01*
X30231Y89379D01*
X33271Y87754D01*
X36569Y86753D01*
X40000Y86415D01*
X43431Y86753D01*
X46729Y87754D01*
X49770Y89379D01*
X52434Y91566D01*
X54621Y94230D01*
X56246Y97271D01*
X57247Y100569D01*
X57585Y104000D01*
X57247Y107431D01*
X56246Y110729D01*
X54621Y113770D01*
X52434Y116434D01*
X49770Y118621D01*
X46729Y120246D01*
X43431Y121247D01*
X40000Y121585D01*
D02*
G37*
%LPD*%
D10*
X527203Y325000D02*
X528093D01*
X531796Y321297D01*
Y316250D02*
Y321297D01*
D12*
X471754Y317249D02*
X486999D01*
X492500Y322750D01*
X455750Y301246D02*
X471754Y317249D01*
X455750Y278861D02*
Y301246D01*
Y278861D02*
X461861Y272750D01*
X465250D01*
X465500Y272500D01*
X459750Y281750D02*
Y299589D01*
Y281750D02*
X464000Y277500D01*
X518250Y247500D02*
X535139Y230611D01*
X512500Y247500D02*
X518250D01*
X518093Y267500D02*
X536343Y249249D01*
X512500Y267500D02*
X518093D01*
X448500Y242500D02*
X465500D01*
X515875Y242250D02*
X534626Y223500D01*
X512750Y242250D02*
X515875D01*
X512500Y242500D02*
X512750Y242250D01*
X509035Y218239D02*
Y225646D01*
X508797Y218000D02*
X509035Y218239D01*
X506001Y228681D02*
X509035Y225646D01*
X502965Y228681D02*
X506001D01*
X501500Y230145D02*
X502965Y228681D01*
X501500Y230145D02*
Y236500D01*
X558750Y277500D02*
X572000D01*
X552250D02*
X558750D01*
X550303D02*
X552250D01*
X550303Y271567D02*
Y277500D01*
X545303Y271567D02*
X550303D01*
X545303D02*
Y277500D01*
Y286340D01*
X540303D02*
X545303D01*
X540303Y277500D02*
Y286340D01*
Y268660D02*
Y277500D01*
X535303Y268660D02*
X540303D01*
X535303D02*
Y277500D01*
Y286340D01*
X530303D02*
X535303D01*
X530303Y277500D02*
Y286340D01*
Y272217D02*
Y277500D01*
X525303Y272217D02*
X530303D01*
X525303D02*
Y277500D01*
X520303D02*
X525303D01*
X517803D02*
X520303D01*
X512500D02*
X517803D01*
X471500Y283500D02*
Y293000D01*
X472500Y294000D01*
X478750Y302750D02*
X482999Y306999D01*
X478750Y291411D02*
Y302750D01*
X476500Y289161D02*
X478750Y291411D01*
X476500Y283500D02*
Y289161D01*
X485000Y290469D02*
X486500Y288969D01*
Y283500D02*
Y288969D01*
X485000Y290469D02*
Y291686D01*
X491524Y293024D02*
X500500Y302000D01*
X491524Y283524D02*
Y293024D01*
X491500Y283500D02*
X491524Y283524D01*
X459750Y299589D02*
X473411Y313249D01*
X489501D01*
X492500Y310250D01*
X496500Y292343D02*
X507547Y303390D01*
X496500Y283500D02*
Y292343D01*
X502161Y184000D02*
X509000D01*
X481500Y204661D02*
X502161Y184000D01*
X481500Y204661D02*
Y236500D01*
X486500Y208500D02*
X503000Y192000D01*
X496500Y214312D02*
X503750Y207062D01*
X502973Y199000D02*
X508999D01*
X491500Y210473D02*
X502973Y199000D01*
X486500Y208500D02*
Y236500D01*
X491500Y210473D02*
Y236500D01*
X496500Y214312D02*
Y236500D01*
X464000Y277500D02*
X465500D01*
X546546Y236000D02*
X546547Y236000D01*
X536796Y236000D02*
X546546D01*
X536343Y249249D02*
X546297D01*
X546547Y249000D01*
X521796Y257500D02*
X535436Y243860D01*
X539138D01*
X539999Y242999D01*
X539389Y230611D02*
X540250Y229750D01*
X534626Y223500D02*
X546546D01*
X535139Y230611D02*
X539389D01*
X546546Y223500D02*
X546546Y223500D01*
X520297Y252500D02*
X536796Y236000D01*
X535297Y256000D02*
X540000D01*
X512500Y252500D02*
X520297D01*
X512500Y257500D02*
X521796D01*
X572000Y277500D02*
X573250Y276250D01*
Y276250D02*
Y276250D01*
X533046Y258250D02*
X535297Y256000D01*
X518797Y272500D02*
X533046Y258250D01*
X512500Y272500D02*
X518797D01*
X489000Y260000D02*
X501500Y247500D01*
Y236500D02*
Y247500D01*
X471500Y217250D02*
X473000Y215750D01*
X471500Y217250D02*
Y236500D01*
X500500Y302000D02*
Y321750D01*
X503750Y325000D01*
X527203D01*
X506500Y290890D02*
X523797Y308186D01*
Y316250D01*
X506500Y283500D02*
Y290890D01*
X515797Y305983D02*
Y316250D01*
X501500Y291686D02*
X515797Y305983D01*
X501500Y283500D02*
Y291686D01*
X507547Y303390D02*
Y316250D01*
D14*
X536343Y183939D02*
Y186468D01*
X518404Y166000D02*
X536343Y183939D01*
X487800Y166000D02*
X518404D01*
X488493Y341604D02*
X488889Y342000D01*
X463316Y341604D02*
X488493D01*
X406796Y354707D02*
X419899Y341604D01*
X463316D01*
X378000Y299000D02*
X389000Y310000D01*
X378000Y234142D02*
Y299000D01*
Y234142D02*
X422392Y189750D01*
X389000Y310000D02*
X405000D01*
X422392Y189750D02*
X437966D01*
X405000Y352910D02*
X406796Y354707D01*
X405000Y310000D02*
Y352910D01*
X470400Y183400D02*
X487800Y166000D01*
X459718Y183400D02*
X470400D01*
X437966Y189750D02*
X446034Y181682D01*
X458000D01*
D17*
X476500Y491655D02*
X486500D01*
X455750Y508704D02*
X472799Y491655D01*
X476500D01*
X263750Y510000D02*
Y523250D01*
X284500Y544000D01*
X442702D01*
X455750Y530951D01*
Y508704D02*
Y530951D01*
D51*
X489000Y260000D02*
D03*
D52*
X465500Y242500D02*
D03*
Y247500D02*
D03*
Y252500D02*
D03*
Y257500D02*
D03*
Y262500D02*
D03*
Y267500D02*
D03*
Y272500D02*
D03*
Y277500D02*
D03*
X512500D02*
D03*
Y272500D02*
D03*
Y267500D02*
D03*
Y262500D02*
D03*
Y257500D02*
D03*
Y252500D02*
D03*
Y247500D02*
D03*
Y242500D02*
D03*
D53*
X471500Y283500D02*
D03*
X476500D02*
D03*
X481500D02*
D03*
X486500D02*
D03*
X491500D02*
D03*
X496500D02*
D03*
X501500D02*
D03*
X506500D02*
D03*
X506500Y236500D02*
D03*
X501500D02*
D03*
X496500D02*
D03*
X491500D02*
D03*
X486500D02*
D03*
X481500D02*
D03*
X476500D02*
D03*
X471500D02*
D03*
D54*
X557181Y169819D02*
D03*
X571181D02*
D03*
X325250Y105250D02*
D03*
X339250D02*
D03*
X325250Y125250D02*
D03*
X339250D02*
D03*
X325250Y145250D02*
D03*
X339250D02*
D03*
X325250Y165250D02*
D03*
X339250D02*
D03*
X430155Y473203D02*
D03*
X444155D02*
D03*
X518797Y426750D02*
D03*
X504797D02*
D03*
X518797Y370750D02*
D03*
X504796D02*
D03*
X469796Y370750D02*
D03*
X455797D02*
D03*
X469796Y426750D02*
D03*
X455797D02*
D03*
X420797D02*
D03*
X406796D02*
D03*
X420797Y370750D02*
D03*
X406796D02*
D03*
X579450Y404000D02*
D03*
X593450D02*
D03*
X579450Y345500D02*
D03*
X593450D02*
D03*
X589000Y296500D02*
D03*
X575000D02*
D03*
X589000Y278000D02*
D03*
X575000D02*
D03*
X589000Y260000D02*
D03*
X575000D02*
D03*
X589000Y242000D02*
D03*
X575000D02*
D03*
X321250Y353000D02*
D03*
X335250D02*
D03*
X321250Y335500D02*
D03*
X335250D02*
D03*
X321250Y370500D02*
D03*
X335250D02*
D03*
X321250Y388000D02*
D03*
X335250D02*
D03*
X561000Y129000D02*
D03*
X575000D02*
D03*
X561000Y109000D02*
D03*
X575000D02*
D03*
Y90000D02*
D03*
X561000D02*
D03*
X522797Y218000D02*
D03*
X508797D02*
D03*
D55*
X303500Y128750D02*
D03*
Y120750D02*
D03*
Y136750D02*
D03*
Y144750D02*
D03*
X286000Y145000D02*
D03*
Y136750D02*
D03*
Y128750D02*
D03*
Y120750D02*
D03*
X299500Y361500D02*
D03*
Y353500D02*
D03*
Y369500D02*
D03*
Y377500D02*
D03*
X282000Y377750D02*
D03*
Y369500D02*
D03*
Y361500D02*
D03*
Y353500D02*
D03*
D56*
X788000Y385000D02*
D03*
X818000D02*
D03*
X752000Y81000D02*
D03*
X782000D02*
D03*
X572000Y63358D02*
D03*
X602000D02*
D03*
D57*
X589000Y517500D02*
D03*
Y503500D02*
D03*
X476500Y517000D02*
D03*
Y503000D02*
D03*
X558950Y442000D02*
D03*
Y428000D02*
D03*
Y381000D02*
D03*
Y367000D02*
D03*
X632050Y351800D02*
D03*
Y337800D02*
D03*
X600250Y328297D02*
D03*
Y314296D02*
D03*
X480000Y153000D02*
D03*
Y139000D02*
D03*
X497000Y153000D02*
D03*
Y139000D02*
D03*
X540000Y96000D02*
D03*
Y110000D02*
D03*
X522000Y96000D02*
D03*
Y110000D02*
D03*
X447500Y152000D02*
D03*
Y138000D02*
D03*
X431365Y152000D02*
D03*
Y138000D02*
D03*
X431500Y120754D02*
D03*
Y106754D02*
D03*
X447500D02*
D03*
Y120754D02*
D03*
X454000Y201750D02*
D03*
Y215750D02*
D03*
X473000Y201750D02*
D03*
Y215750D02*
D03*
X650648Y337800D02*
D03*
Y351800D02*
D03*
D58*
X535000Y502000D02*
D03*
X565000D02*
D03*
D59*
X550000Y501000D02*
D03*
D60*
X503750Y500750D02*
D03*
Y535750D02*
D03*
D61*
X428655Y490204D02*
D03*
X447655D02*
D03*
X438155Y514203D02*
D03*
D62*
X523797Y390250D02*
D03*
Y399750D02*
D03*
Y409250D02*
D03*
X499796D02*
D03*
Y390250D02*
D03*
X474797D02*
D03*
Y399750D02*
D03*
Y409250D02*
D03*
X450797D02*
D03*
Y390250D02*
D03*
X425797D02*
D03*
Y399750D02*
D03*
Y409250D02*
D03*
X401796D02*
D03*
Y390250D02*
D03*
X577000Y444500D02*
D03*
Y425500D02*
D03*
X601000Y435000D02*
D03*
X577200Y383500D02*
D03*
Y364500D02*
D03*
X601200Y374000D02*
D03*
X519000Y155500D02*
D03*
Y146000D02*
D03*
Y136500D02*
D03*
X543000D02*
D03*
Y155500D02*
D03*
X502000Y93500D02*
D03*
Y112500D02*
D03*
X478000Y103000D02*
D03*
D63*
X638650Y311500D02*
D03*
X664050D02*
D03*
X651350D02*
D03*
X625950D02*
D03*
X622150Y223500D02*
D03*
X647550D02*
D03*
X634850D02*
D03*
X609450D02*
D03*
D64*
X626000Y254000D02*
D03*
X638700D02*
D03*
X651400D02*
D03*
X664100D02*
D03*
X609500Y166000D02*
D03*
X622200D02*
D03*
X634900D02*
D03*
X647600D02*
D03*
D65*
X729000Y134000D02*
D03*
Y234000D02*
D03*
D66*
X255800Y469500D02*
D03*
Y463000D02*
D03*
Y456500D02*
D03*
Y450000D02*
D03*
Y423750D02*
D03*
Y417250D02*
D03*
Y410750D02*
D03*
Y404250D02*
D03*
Y379750D02*
D03*
Y373250D02*
D03*
Y366750D02*
D03*
Y360250D02*
D03*
Y329750D02*
D03*
Y323250D02*
D03*
Y316750D02*
D03*
Y310250D02*
D03*
Y239500D02*
D03*
Y233000D02*
D03*
Y226500D02*
D03*
Y220000D02*
D03*
Y189750D02*
D03*
Y183250D02*
D03*
Y176750D02*
D03*
Y170250D02*
D03*
Y149750D02*
D03*
Y143250D02*
D03*
Y136750D02*
D03*
Y130250D02*
D03*
X255800Y103250D02*
D03*
Y96750D02*
D03*
Y90250D02*
D03*
Y83750D02*
D03*
D67*
X225000Y450000D02*
D03*
Y456500D02*
D03*
Y463000D02*
D03*
Y469500D02*
D03*
Y404250D02*
D03*
Y410750D02*
D03*
Y417250D02*
D03*
Y423750D02*
D03*
Y360250D02*
D03*
Y366750D02*
D03*
Y373250D02*
D03*
Y379750D02*
D03*
Y310250D02*
D03*
Y316750D02*
D03*
Y323250D02*
D03*
Y329750D02*
D03*
Y220000D02*
D03*
Y226500D02*
D03*
Y233000D02*
D03*
Y239500D02*
D03*
Y170250D02*
D03*
Y176750D02*
D03*
Y183250D02*
D03*
Y189750D02*
D03*
Y130250D02*
D03*
Y136750D02*
D03*
Y143250D02*
D03*
Y149750D02*
D03*
X225000Y83750D02*
D03*
Y90250D02*
D03*
Y96750D02*
D03*
Y103250D02*
D03*
D68*
X506500Y28000D02*
D03*
X555500D02*
D03*
D69*
X495000D02*
D03*
X567000D02*
D03*
D70*
X531796Y316250D02*
D03*
X523797D02*
D03*
X515797D02*
D03*
X507547D02*
D03*
X507797Y333750D02*
D03*
X515797D02*
D03*
X531796D02*
D03*
X523797D02*
D03*
D71*
X540250Y471605D02*
X550145D01*
X558750Y463000D01*
X713200Y351800D02*
X715754Y349246D01*
Y342561D02*
Y349246D01*
Y342561D02*
X716710Y341604D01*
X650648Y351800D02*
X713200D01*
X579250Y345300D02*
X579750Y344800D01*
X339250Y105250D02*
X340000Y104500D01*
X599953Y314000D02*
X600250Y314296D01*
X509547Y214142D02*
X516627Y207062D01*
X509547Y214142D02*
Y217250D01*
X508797Y218000D02*
X509547Y217250D01*
X516627Y207062D02*
X520297D01*
X600250Y314296D02*
X608418D01*
X620300Y326179D01*
Y332949D01*
X624400Y337050D01*
X631300D01*
X632050Y337800D01*
X407000Y514203D02*
X438155D01*
X402797Y510000D02*
X407000Y514203D01*
X389000Y510000D02*
X402797D01*
X406796Y354707D02*
Y370750D01*
X458000Y181682D02*
Y189000D01*
X454000Y193000D02*
X458000Y189000D01*
X454000Y193000D02*
Y201750D01*
X458000Y181682D02*
X459718Y183400D01*
X458000Y110754D02*
Y181682D01*
X454000Y106754D02*
X458000Y110754D01*
X447500Y106754D02*
X454000D01*
X558750Y456500D02*
Y463000D01*
Y442200D02*
Y456500D01*
Y442200D02*
X558950Y442000D01*
X579750Y392508D02*
Y403700D01*
X579450Y404000D02*
X579750Y403700D01*
Y334750D02*
Y344800D01*
X579250Y345300D02*
X579450Y345500D01*
X622950Y367250D02*
X675750D01*
X601200Y345500D02*
X622950Y367250D01*
X593450Y345500D02*
X601200D01*
X675750Y367250D02*
X700000Y391500D01*
X593450Y404000D02*
X605950Y391500D01*
X658000D01*
X405000Y258250D02*
X447500Y215750D01*
X405000Y258250D02*
Y260000D01*
X447500Y215750D02*
X454000D01*
X473000D01*
X589000Y242000D02*
Y260000D01*
Y278000D02*
Y296500D01*
Y260000D02*
X589000Y260000D01*
D72*
X543000Y164883D02*
X547686Y169569D01*
X543000Y157000D02*
Y164883D01*
X547686Y169569D02*
X556931D01*
X557181Y169819D01*
X536343Y183939D02*
X552245D01*
X556931Y179253D01*
Y170069D02*
Y179253D01*
Y170069D02*
X557181Y169819D01*
X575000Y109000D02*
Y129000D01*
D73*
X329250Y380000D02*
X362250D01*
X329750Y362000D02*
X362500D01*
X329250Y345000D02*
X363000D01*
X363250Y327750D02*
X363500Y328000D01*
X329000Y327750D02*
X363250D01*
X324500Y166000D02*
X326000D01*
X334500Y174500D02*
Y175000D01*
X326000Y166000D02*
X334500Y174500D01*
X315000Y155000D02*
X317343Y157343D01*
X317343D01*
X325250Y165250D01*
X315000Y149500D02*
Y155000D01*
X335000Y115000D02*
X367000D01*
X325250Y105250D02*
X335000Y115000D01*
X325250Y125250D02*
X335000Y135000D01*
X366000D01*
X334000Y154000D02*
X366000D01*
X325250Y145250D02*
X334000Y154000D01*
X334500Y175000D02*
X365000D01*
X321250Y388000D02*
X329250Y380000D01*
X321250Y370500D02*
X329750Y362000D01*
X321250Y335500D02*
X329000Y327750D01*
X486000Y362111D02*
X489361Y358750D01*
X500250D01*
X496750Y352750D02*
X507797Y341703D01*
X473000Y352750D02*
X496750D01*
X486000Y362111D02*
Y373250D01*
X500250Y358750D02*
X515797Y343204D01*
Y333750D02*
Y343204D01*
X523797Y390250D02*
X532375D01*
X286000Y145000D02*
Y182500D01*
X264500Y204000D02*
X286000Y182500D01*
X233000Y204000D02*
X264500D01*
X313000Y343750D02*
X321250Y335500D01*
Y353000D02*
X329250Y345000D01*
X307000Y353500D02*
X313000Y347500D01*
Y343750D02*
Y347500D01*
X299500Y353500D02*
X307000D01*
X312750Y361500D02*
X321250Y353000D01*
X299500Y361500D02*
X312750D01*
X320250Y369500D02*
X321250Y370500D01*
X299500Y369500D02*
X320250D01*
X310750Y377500D02*
X321250Y388000D01*
X299500Y377500D02*
X310750D01*
X273500Y372250D02*
Y380750D01*
X263250Y391000D02*
X273500Y380750D01*
X262000Y391000D02*
X263250D01*
X255250D02*
X262000D01*
X255250D02*
Y396565D01*
X247250D02*
X255250D01*
X247250Y391000D02*
Y396565D01*
Y386039D02*
Y391000D01*
X239250Y386039D02*
X247250D01*
X239250D02*
Y391000D01*
Y396565D01*
X231250D02*
X239250D01*
X231250Y391000D02*
Y396565D01*
X227250Y391000D02*
X231250D01*
X225000Y393250D02*
X227250Y391000D01*
X265150Y345000D02*
X270750D01*
X265150Y339683D02*
Y345000D01*
X257150Y339683D02*
X265150D01*
X257150D02*
Y345000D01*
Y350317D01*
X249150D02*
X257150D01*
X249150Y345000D02*
Y350317D01*
Y339683D02*
Y345000D01*
X241150Y339683D02*
X249150D01*
X241150D02*
Y345000D01*
X233150D02*
X241150D01*
X229150D02*
X233150D01*
X225000Y349150D02*
X229150Y345000D01*
X225000Y349150D02*
Y360250D01*
X282000Y331875D02*
Y353500D01*
Y310250D02*
Y314250D01*
Y326250D02*
Y331875D01*
X277898Y326250D02*
X282000D01*
X277898Y318250D02*
Y326250D01*
Y318250D02*
X282000D01*
Y314250D02*
Y318250D01*
X273750Y302000D02*
X282000Y310250D01*
X234650Y302000D02*
X273750D01*
X226400Y310250D02*
X234650Y302000D01*
X225000Y310250D02*
X226400D01*
X276250Y361500D02*
X282000D01*
X273500Y358750D02*
X276250Y361500D01*
X273500Y347750D02*
Y358750D01*
X270750Y345000D02*
X273500Y347750D01*
X276250Y369500D02*
X282000D01*
X273500Y372250D02*
X276250Y369500D01*
X225000Y393250D02*
Y404250D01*
X282000Y377750D02*
Y422000D01*
X266500Y437500D02*
X282000Y422000D01*
X233000Y437500D02*
X266500D01*
X225000Y445500D02*
X233000Y437500D01*
X225000Y445500D02*
Y450000D01*
X276250Y125250D02*
X279750Y128750D01*
X276250Y119500D02*
Y125250D01*
X230125Y119500D02*
X232000D01*
X268000D02*
X276250D01*
X268000Y114320D02*
Y119500D01*
X260000Y114320D02*
X268000D01*
X260000D02*
Y119500D01*
Y123581D01*
X252000D02*
X260000D01*
X252000Y119500D02*
Y123581D01*
Y114320D02*
Y119500D01*
X244000Y114320D02*
X252000D01*
X244000D02*
Y119500D01*
Y123586D01*
X236000D02*
X244000D01*
X236000Y119500D02*
Y123586D01*
X232000Y119500D02*
X236000D01*
X225000Y124625D02*
X230125Y119500D01*
X225000Y124625D02*
Y130250D01*
X286000Y115250D02*
Y120750D01*
Y85750D02*
Y91250D01*
Y103250D01*
X289131D01*
Y111250D01*
X286000D02*
X289131D01*
X286000D02*
Y115250D01*
X275750Y75500D02*
X286000Y85750D01*
X228000Y75500D02*
X275750D01*
X225000Y78500D02*
X228000Y75500D01*
X225000Y78500D02*
Y83750D01*
X225000Y83750D02*
X225000D01*
X225000D02*
X225000Y83750D01*
X276750Y139000D02*
Y154000D01*
X270750Y160000D02*
X276750Y154000D01*
X267250Y160000D02*
X270750D01*
X264000D02*
X267250D01*
X264000Y155817D02*
Y160000D01*
X256000Y155817D02*
X264000D01*
X256000D02*
Y160000D01*
Y164183D01*
X248000D02*
X256000D01*
X248000Y160000D02*
Y164183D01*
Y155822D02*
Y160000D01*
X240000Y155822D02*
X248000D01*
X240000D02*
Y160000D01*
X232000D02*
X240000D01*
X228000D02*
X232000D01*
X225000Y163000D02*
X228000Y160000D01*
X225000Y163000D02*
Y170250D01*
X279000Y136750D02*
X286000D01*
X276750Y139000D02*
X279000Y136750D01*
X279750Y128750D02*
X286000D01*
X225000Y212000D02*
Y220000D01*
Y212000D02*
X233000Y204000D01*
X568800Y430250D02*
X573550Y435000D01*
X561200Y430250D02*
X568800D01*
X558950Y428000D02*
X561200Y430250D01*
X573550Y435000D02*
X601000D01*
X573750Y374000D02*
X601200D01*
X569000Y369250D02*
X573750Y374000D01*
X561200Y369250D02*
X569000D01*
X558950Y367000D02*
X561200Y369250D01*
X318000Y105250D02*
X325250D01*
X315000Y108250D02*
X318000Y105250D01*
X315000Y108250D02*
Y116000D01*
X310250Y120750D02*
X315000Y116000D01*
X303500Y120750D02*
X310250D01*
X319000Y126000D02*
X324500D01*
X325250Y125250D01*
X316250Y128750D02*
X319000Y126000D01*
X303500Y128750D02*
X316250D01*
X316750Y136750D02*
X325250Y145250D01*
X303500Y136750D02*
X316750D01*
X310250Y144750D02*
X315000Y149500D01*
X303500Y144750D02*
X310250D01*
X507797Y333750D02*
Y341703D01*
X523750Y390204D02*
X523797Y390250D01*
X530797Y367250D02*
Y377750D01*
X523797Y360250D02*
X530797Y367250D01*
X523797Y333750D02*
Y360250D01*
X531796Y333750D02*
Y357500D01*
X406796Y370750D02*
X406796Y370750D01*
D74*
X567000Y36000D02*
Y47199D01*
X556000Y39000D02*
X564000D01*
X567000Y36000D01*
Y28000D02*
Y36000D01*
X447812Y324104D02*
X472799D01*
X423297Y299589D02*
X447812Y324104D01*
X567000Y47199D02*
X572000Y52199D01*
Y63358D01*
X572500Y80365D02*
X575000Y82865D01*
X562665Y80365D02*
X572500D01*
X556500Y74200D02*
X562665Y80365D01*
X556500Y40546D02*
Y74200D01*
X575000Y82865D02*
Y90000D01*
X556500Y40546D02*
X556546Y40500D01*
X372000Y426750D02*
X406796D01*
X383250Y440500D02*
X452000D01*
X313750Y510000D02*
X383250Y440500D01*
X398750Y450000D02*
X454000D01*
X338750Y510000D02*
X398750Y450000D01*
X288750Y510000D02*
X372000Y426750D01*
X406796Y420000D02*
Y426750D01*
X401796Y415000D02*
X406796Y420000D01*
X401796Y409250D02*
Y415000D01*
X450784Y352750D02*
X473000D01*
X437750Y365784D02*
X450784Y352750D01*
X437750Y365784D02*
Y390250D01*
X455797Y360250D02*
Y370750D01*
X495000Y370500D02*
X495125Y370625D01*
X504672D01*
X504796Y370750D01*
X534626Y388000D02*
Y422921D01*
Y381579D02*
Y388000D01*
X530797Y377750D02*
X534626Y381579D01*
X486000Y390204D02*
Y422250D01*
Y373250D02*
Y390204D01*
X474843D02*
X486000D01*
X474797Y390250D02*
X474843Y390204D01*
X437750Y390250D02*
Y420000D01*
X425797Y390250D02*
X437750D01*
X522797Y218000D02*
Y227703D01*
X514000Y236500D02*
X522797Y227703D01*
X381000Y212000D02*
Y217000D01*
Y212000D02*
X416250Y176750D01*
X422365Y115732D02*
Y170635D01*
X416250Y176750D02*
X422365Y170635D01*
X430750Y176750D02*
X447500Y160000D01*
X416250Y176750D02*
X430750D01*
X440827Y503828D02*
X447655Y497000D01*
Y490204D02*
Y497000D01*
X503797Y447000D02*
X508797Y442000D01*
X441702Y456500D02*
X456547D01*
X466192Y447000D02*
X503797D01*
X456693Y456500D02*
X466192Y447000D01*
X456547Y456500D02*
X456693D01*
X456547Y456500D02*
X456547Y456500D01*
X500750Y440500D02*
X504796Y436454D01*
X463500Y440500D02*
X500750D01*
X454000Y450000D02*
X463500Y440500D01*
X383797Y490204D02*
X405000D01*
X418624Y503828D01*
X364000Y510000D02*
X383797Y490204D01*
X418624Y503828D02*
X438155D01*
X430155Y473203D02*
X430905Y472453D01*
X429155Y474203D02*
X430155Y473203D01*
X430905Y467297D02*
Y472453D01*
Y467297D02*
X441702Y456500D01*
X429155Y474203D02*
Y489703D01*
X428655Y490204D02*
X429155Y489703D01*
X427797Y491655D02*
X428297Y492155D01*
X422365Y115732D02*
X425901Y112196D01*
X426058D01*
X431500Y106754D01*
X447500Y152000D02*
Y160000D01*
X589000Y328000D02*
X599953D01*
X600250Y328297D01*
X608418D02*
X612050Y331929D01*
X600250Y328297D02*
X608418D01*
X612050Y331929D02*
Y340800D01*
X623050Y351800D01*
X632050D01*
X638071D02*
X641550Y348321D01*
Y341300D02*
Y348321D01*
Y341300D02*
X645050Y337800D01*
X650648D01*
X632050Y351800D02*
X638071D01*
X463089Y399660D02*
Y405336D01*
X467003Y409250D01*
X474797D01*
X463089Y399660D02*
X474707D01*
X474797Y399750D01*
X414090Y399660D02*
Y405336D01*
X414000Y399571D02*
X414090Y399660D01*
Y405336D02*
X418003Y409250D01*
X425797D01*
X414090Y399660D02*
X425707D01*
X425797Y399750D01*
X511590Y399660D02*
X511883Y399954D01*
X511500Y399571D02*
X511590Y399660D01*
X511883Y405336D02*
X515797Y409250D01*
X511883Y399954D02*
Y405336D01*
X515797Y409250D02*
X523797D01*
X511590Y399660D02*
X523707D01*
X523797Y399750D01*
X569046Y444500D02*
X577000D01*
X566546Y442000D02*
X569046Y444500D01*
X558950Y442000D02*
X566546D01*
X558950Y381000D02*
X566546D01*
X569046Y383500D01*
X577200D01*
X586450Y425500D02*
X593450Y418500D01*
Y404000D02*
Y418500D01*
X577000Y425500D02*
X586450D01*
X593450Y345500D02*
Y357500D01*
X586450Y364500D02*
X593450Y357500D01*
X577200Y364500D02*
X586450D01*
X577200Y364500D02*
X577200Y364500D01*
X547000Y264250D02*
Y264750D01*
X547480Y265230D02*
X570321D01*
X547000Y264750D02*
X547480Y265230D01*
X499796Y384796D02*
Y390250D01*
Y384796D02*
X504797Y379796D01*
Y370750D02*
Y379796D01*
X504796Y370750D02*
X504797Y370750D01*
X450797Y383500D02*
Y390250D01*
Y383500D02*
X455797Y378500D01*
Y370750D02*
Y378500D01*
X401796Y383500D02*
Y390250D01*
Y383500D02*
X406796Y378500D01*
Y370750D02*
Y378500D01*
X531796Y357500D02*
X541547Y367250D01*
Y425500D01*
X525047Y442000D02*
X541547Y425500D01*
X508797Y442000D02*
X525047D01*
X530797Y426750D02*
X534626Y422921D01*
X518797Y426750D02*
X530797D01*
X481500Y426750D02*
X486000Y422250D01*
X469796Y426750D02*
X481500D01*
X469796Y426750D02*
X469796Y426750D01*
X504797Y418750D02*
Y426750D01*
X499796Y413750D02*
X504797Y418750D01*
X499796Y409250D02*
Y413750D01*
X455797Y420000D02*
Y426750D01*
X450797Y415000D02*
X455797Y420000D01*
X450797Y409250D02*
Y415000D01*
X425797Y390250D02*
X425797Y390250D01*
X431000Y426750D02*
X437750Y420000D01*
X420797Y426750D02*
X431000D01*
X420797Y426750D02*
X420797Y426750D01*
X504796Y426750D02*
Y436454D01*
Y426750D02*
X504797Y426750D01*
X455000Y427547D02*
Y437500D01*
Y427547D02*
X455797Y426750D01*
X452000Y440500D02*
X455000Y437500D01*
X559000Y352750D02*
Y366950D01*
X558950Y367000D02*
X559000Y366950D01*
X558750Y413750D02*
X558850Y413850D01*
Y427900D01*
X558950Y428000D01*
X508000Y236500D02*
X514000D01*
X447500Y242500D02*
X448500D01*
X405000Y285000D02*
X447500Y242500D01*
X609450Y223500D02*
Y255100D01*
X604550Y260000D02*
X609450Y255100D01*
X589000Y260000D02*
X604550D01*
X622393Y304000D02*
X625800Y307407D01*
X617050Y304000D02*
X622393D01*
X606550Y293500D02*
X617050Y304000D01*
X606550Y288157D02*
Y293500D01*
X596393Y278000D02*
X606550Y288157D01*
X509000Y155500D02*
X519000D01*
X506500Y153000D02*
X509000Y155500D01*
X497000Y153000D02*
X506500D01*
X491000Y96429D02*
X493929Y93500D01*
X502000D01*
X491000Y96429D02*
Y124000D01*
X497000Y130000D01*
Y139000D01*
X573250Y261750D02*
Y262301D01*
X570321Y265230D02*
X573250Y262301D01*
Y261750D02*
X575000Y260000D01*
X625800Y307407D02*
Y311350D01*
X589000Y278000D02*
X596393D01*
X625800Y311350D02*
X625950Y311500D01*
X609300Y223650D02*
X609450Y223500D01*
D75*
X540000Y38696D02*
X550447Y28250D01*
X555250D01*
X555500Y28000D01*
X512750Y28250D02*
X522000Y37500D01*
X506750Y28250D02*
X512750D01*
X506500Y28000D02*
X506750Y28250D01*
X540000Y38696D02*
Y96000D01*
X522000Y37500D02*
Y96000D01*
D76*
X380000Y335000D02*
Y410000D01*
Y335000D02*
X405000Y310000D01*
D77*
X568321Y152000D02*
X575000Y145321D01*
X555450Y152000D02*
X568321D01*
X549200Y145750D02*
X555450Y152000D01*
X575000Y129000D02*
Y145321D01*
X519250Y145750D02*
X549200D01*
X519000Y146000D02*
X519250Y145750D01*
D78*
X480000Y126000D02*
Y139000D01*
X468000Y166155D02*
X476839Y157316D01*
Y156161D02*
Y157316D01*
Y156161D02*
X480000Y153000D01*
X468000Y148000D02*
X473000Y153000D01*
X468000Y122000D02*
Y148000D01*
Y122000D02*
X478000Y112000D01*
X559000Y381050D02*
Y394250D01*
X558950Y381000D02*
X559000Y381050D01*
X431365Y152000D02*
Y164183D01*
X447500Y120754D02*
Y138000D01*
X431433Y120821D02*
X431500Y120754D01*
X431433Y120821D02*
Y137933D01*
X431365Y138000D02*
X431433Y137933D01*
X463000Y399571D02*
X463089Y399660D01*
X420797Y370750D02*
Y380886D01*
X414000Y387683D02*
X420797Y380886D01*
X414000Y387683D02*
Y399571D01*
X463000Y384889D02*
Y399571D01*
Y384889D02*
X469796Y378093D01*
Y370750D02*
Y378093D01*
X511500Y386000D02*
Y399571D01*
Y386000D02*
X518797Y378703D01*
Y370750D02*
Y378703D01*
X518797Y370750D02*
X518797Y370750D01*
X561000Y129000D02*
Y142750D01*
Y129000D02*
X561000Y129000D01*
Y109000D02*
Y129000D01*
Y90000D02*
Y109000D01*
X473000Y153000D02*
X480000D01*
X478000Y103000D02*
Y112000D01*
X511500Y112500D02*
X514000Y110000D01*
X502000Y112500D02*
X511500D01*
X514000Y110000D02*
X522000D01*
X540000Y124000D02*
X543000Y127000D01*
X540000Y110000D02*
Y124000D01*
X519000D02*
X522000Y121000D01*
X519000Y124000D02*
Y136500D01*
X522000Y110000D02*
Y121000D01*
X543000Y127000D02*
Y136500D01*
D79*
X522797Y218000D02*
X528093D01*
X536343Y209750D01*
Y186468D02*
Y209750D01*
D80*
X244550Y459755D02*
D03*
X244550Y414005D02*
D03*
X244550Y370005D02*
D03*
X244550Y320005D02*
D03*
X244550Y229755D02*
D03*
Y180005D02*
D03*
Y140005D02*
D03*
X244550Y93505D02*
D03*
D81*
X505500Y15750D02*
D03*
X505500Y40250D02*
D03*
X556500Y15750D02*
D03*
X556500Y40250D02*
D03*
D82*
X794500Y439000D02*
D03*
D83*
X819500D02*
D03*
X670050Y86700D02*
D03*
D84*
X405000Y260000D02*
D03*
Y285000D02*
D03*
Y235000D02*
D03*
D85*
Y310000D02*
D03*
D86*
X40000Y104000D02*
D03*
Y230000D02*
D03*
X168000D02*
D03*
Y188000D02*
D03*
Y146000D02*
D03*
Y104000D02*
D03*
X113000D02*
D03*
Y146000D02*
D03*
Y188000D02*
D03*
Y230000D02*
D03*
X40000Y330000D02*
D03*
Y456000D02*
D03*
X168000D02*
D03*
Y414000D02*
D03*
Y372000D02*
D03*
Y330000D02*
D03*
X113000D02*
D03*
Y372000D02*
D03*
Y414000D02*
D03*
Y456000D02*
D03*
X679000Y520000D02*
D03*
X700000Y391500D02*
D03*
X658000D02*
D03*
Y446500D02*
D03*
X700000D02*
D03*
D87*
X389000Y510000D02*
D03*
X338750D02*
D03*
X288750D02*
D03*
X313750D02*
D03*
X364000D02*
D03*
D88*
X263750D02*
D03*
D89*
X670050Y61700D02*
D03*
D90*
X492500Y322750D02*
D03*
X501500Y272500D02*
D03*
X489000D02*
D03*
X476500D02*
D03*
X476500Y260000D02*
D03*
Y247500D02*
D03*
X489000D02*
D03*
X501500D02*
D03*
Y260000D02*
D03*
X489000D02*
D03*
X488889Y342000D02*
D03*
X463316Y341604D02*
D03*
X769000Y87000D02*
D03*
X353081Y319000D02*
D03*
Y335915D02*
D03*
Y388500D02*
D03*
Y370750D02*
D03*
Y353500D02*
D03*
X362250Y380000D02*
D03*
X362500Y362000D02*
D03*
X363000Y345000D02*
D03*
X363500Y328000D02*
D03*
X367000Y115000D02*
D03*
X366000Y135000D02*
D03*
Y154000D02*
D03*
X365000Y175000D02*
D03*
X411500Y107965D02*
D03*
Y118965D02*
D03*
Y140965D02*
D03*
Y129965D02*
D03*
X356000Y413000D02*
D03*
X365000Y405000D02*
D03*
Y417000D02*
D03*
X356000Y425000D02*
D03*
X685000Y101000D02*
D03*
Y87000D02*
D03*
X669000Y101000D02*
D03*
X655000Y96000D02*
D03*
Y86000D02*
D03*
X643000Y84000D02*
D03*
Y94000D02*
D03*
X633000D02*
D03*
Y84000D02*
D03*
X472500Y294000D02*
D03*
X485000Y291686D02*
D03*
X482999Y306999D02*
D03*
X472799Y324104D02*
D03*
X769000Y61700D02*
D03*
Y77000D02*
D03*
Y99000D02*
D03*
X778000D02*
D03*
X780000Y61700D02*
D03*
X797000Y71000D02*
D03*
X787000Y99000D02*
D03*
X797000Y99000D02*
D03*
Y90000D02*
D03*
Y80000D02*
D03*
X595000Y93500D02*
D03*
X606550D02*
D03*
X606050Y82865D02*
D03*
X595000D02*
D03*
X495000Y370500D02*
D03*
X455797Y360250D02*
D03*
X583750Y155500D02*
D03*
X591000Y140000D02*
D03*
X583750Y145250D02*
D03*
X591000Y150000D02*
D03*
X480000Y126000D02*
D03*
X520297Y186250D02*
D03*
Y196000D02*
D03*
X526547Y201750D02*
D03*
X520297Y207062D02*
D03*
X509000Y184000D02*
D03*
X503000Y192000D02*
D03*
X503750Y207062D02*
D03*
X508999Y199000D02*
D03*
X468000Y166155D02*
D03*
X381000Y217000D02*
D03*
X477087Y482500D02*
D03*
X476977Y472192D02*
D03*
X488889D02*
D03*
X474707Y530000D02*
D03*
Y540000D02*
D03*
Y550000D02*
D03*
X605000Y520000D02*
D03*
Y530000D02*
D03*
X595000D02*
D03*
X585000D02*
D03*
X575000Y520000D02*
D03*
Y530000D02*
D03*
Y550000D02*
D03*
Y540000D02*
D03*
X565000D02*
D03*
Y550000D02*
D03*
X555000D02*
D03*
X545000D02*
D03*
X515000D02*
D03*
X505000D02*
D03*
X495000D02*
D03*
X485000D02*
D03*
Y540000D02*
D03*
Y530000D02*
D03*
X534626Y540000D02*
D03*
X535000Y550000D02*
D03*
X525000D02*
D03*
Y540000D02*
D03*
Y530000D02*
D03*
Y520000D02*
D03*
X515000D02*
D03*
X504796D02*
D03*
X495000D02*
D03*
X558750Y456500D02*
D03*
X559000Y394250D02*
D03*
X579750Y392508D02*
D03*
X512750Y471605D02*
D03*
X500500D02*
D03*
X489000Y482500D02*
D03*
X500500D02*
D03*
X512750D02*
D03*
X273750Y451000D02*
D03*
X265150D02*
D03*
X273750Y461000D02*
D03*
X265150D02*
D03*
X273500Y469500D02*
D03*
X265150D02*
D03*
X273750Y394750D02*
D03*
X273500Y415000D02*
D03*
X273750Y405336D02*
D03*
X265150D02*
D03*
Y415000D02*
D03*
Y424049D02*
D03*
X264500Y353500D02*
D03*
Y362750D02*
D03*
Y371195D02*
D03*
Y379750D02*
D03*
X273500Y312753D02*
D03*
Y333000D02*
D03*
X265150Y326569D02*
D03*
Y318250D02*
D03*
Y310000D02*
D03*
X273750Y220231D02*
D03*
X265150D02*
D03*
X273750Y230000D02*
D03*
X265150D02*
D03*
X273500Y239500D02*
D03*
X265150D02*
D03*
X270750Y85750D02*
D03*
X275750Y93951D02*
D03*
X265150Y94230D02*
D03*
X275750Y103000D02*
D03*
X265150Y103250D02*
D03*
X268000Y128155D02*
D03*
X265150Y136500D02*
D03*
Y146125D02*
D03*
X267250Y189750D02*
D03*
X276750Y181078D02*
D03*
Y170707D02*
D03*
X267250Y171290D02*
D03*
Y181078D02*
D03*
X431365Y164183D02*
D03*
X423297Y299589D02*
D03*
X582500Y310000D02*
D03*
X572500D02*
D03*
Y319000D02*
D03*
X582500D02*
D03*
X579750Y334750D02*
D03*
X589000Y328000D02*
D03*
X546547Y236000D02*
D03*
X539999Y242999D02*
D03*
X540250Y229750D02*
D03*
X414000Y399571D02*
D03*
X463000D02*
D03*
X511500D02*
D03*
X547000Y264250D02*
D03*
X582000Y217000D02*
D03*
X572000D02*
D03*
X561000Y142750D02*
D03*
X665750Y325000D02*
D03*
X645750D02*
D03*
X655800D02*
D03*
X635750D02*
D03*
X686000Y319000D02*
D03*
Y309000D02*
D03*
Y329000D02*
D03*
X675750Y325000D02*
D03*
X696000Y329000D02*
D03*
X559000Y352750D02*
D03*
X558750Y413750D02*
D03*
X492500Y310250D02*
D03*
X546546Y223500D02*
D03*
X540000Y256000D02*
D03*
X546547Y249000D02*
D03*
X696000Y319000D02*
D03*
Y309000D02*
D03*
X572000Y227250D02*
D03*
X582000D02*
D03*
D91*
X736710Y341746D02*
D03*
X756710D02*
D03*
Y320746D02*
D03*
X736710D02*
D03*
X716710D02*
D03*
Y341604D02*
D03*
X380000Y410000D02*
D03*
X170000Y16470D02*
D03*
X169500Y40000D02*
D03*
X149500D02*
D03*
X150000Y16470D02*
D03*
X130000D02*
D03*
X129500Y40000D02*
D03*
X109500D02*
D03*
X110000Y16470D02*
D03*
X189500D02*
D03*
X189000Y40000D02*
D03*
X209000D02*
D03*
X209500Y16470D02*
D03*
X229500D02*
D03*
X229000Y40000D02*
D03*
X249000D02*
D03*
X249500Y16470D02*
D03*
X608550Y147000D02*
D03*
X628550D02*
D03*
X648550D02*
D03*
Y126000D02*
D03*
X628550D02*
D03*
X608550D02*
D03*
M02*
