G04*
G04 #@! TF.GenerationSoftware,Altium Limited,Altium Designer,20.1.11 (218)*
G04*
G04 Layer_Color=16777215*
%FSLAX44Y44*%
%MOMM*%
G71*
G04*
G04 #@! TF.SameCoordinates,7590A8BC-6F61-42B1-8E90-CD4C0DD3AB11*
G04*
G04*
G04 #@! TF.FilePolarity,Positive*
G04*
G01*
G75*
%ADD10C,0.2500*%
%ADD11C,0.2000*%
%ADD12C,0.3000*%
%ADD13C,0.2540*%
%ADD14C,0.0254*%
%ADD15C,0.1000*%
G36*
X281912Y45981D02*
X282004Y45944D01*
X282097Y45870D01*
X282190Y45778D01*
X282245Y45648D01*
X282282Y45482D01*
Y45444D01*
X282264Y45352D01*
X281356Y41260D01*
X281838D01*
X281912Y41241D01*
X282023Y41186D01*
X282115Y41130D01*
X282208Y41038D01*
X282264Y40908D01*
X282282Y40723D01*
Y40704D01*
Y40649D01*
X282264Y40556D01*
X282208Y40464D01*
X282153Y40371D01*
X282060Y40278D01*
X281930Y40223D01*
X281745Y40204D01*
X281097D01*
X280153Y35872D01*
Y35853D01*
X280134Y35816D01*
X280097Y35742D01*
X280042Y35668D01*
X279986Y35594D01*
X279893Y35520D01*
X279782Y35483D01*
X279634Y35464D01*
X279560D01*
X279468Y35501D01*
X279375Y35538D01*
X279282Y35594D01*
X279190Y35686D01*
X279134Y35816D01*
X279116Y35983D01*
Y36001D01*
Y36020D01*
Y36094D01*
X280023Y40204D01*
X279560D01*
X279468Y40241D01*
X279375Y40278D01*
X279282Y40334D01*
X279190Y40427D01*
X279134Y40556D01*
X279116Y40723D01*
Y40741D01*
Y40815D01*
X279153Y40890D01*
X279190Y41001D01*
X279245Y41093D01*
X279338Y41186D01*
X279468Y41241D01*
X279634Y41260D01*
X280264D01*
X281079Y44945D01*
X277449D01*
X277357Y44982D01*
X277264Y45019D01*
X277172Y45074D01*
X277079Y45167D01*
X277023Y45296D01*
X277005Y45463D01*
Y45482D01*
Y45556D01*
X277042Y45630D01*
X277079Y45741D01*
X277134Y45833D01*
X277227Y45926D01*
X277357Y45981D01*
X277523Y46000D01*
X281819D01*
X281912Y45981D01*
D02*
G37*
G36*
X274542D02*
X274653Y45926D01*
X274746Y45870D01*
X274839Y45778D01*
X274894Y45648D01*
X274912Y45463D01*
Y45444D01*
Y45389D01*
X274894Y45296D01*
X274839Y45204D01*
X274783Y45111D01*
X274690Y45019D01*
X274561Y44963D01*
X274375Y44945D01*
X272172D01*
X272043Y44926D01*
X271894Y44889D01*
X271709Y44833D01*
X271524Y44741D01*
X271339Y44630D01*
X271154Y44482D01*
X271135Y44463D01*
X271080Y44408D01*
X271005Y44296D01*
X270931Y44167D01*
X270857Y44000D01*
X270783Y43815D01*
X270728Y43593D01*
X270709Y43352D01*
Y38093D01*
Y38056D01*
Y37982D01*
X270728Y37853D01*
X270765Y37705D01*
X270820Y37519D01*
X270894Y37334D01*
X271005Y37149D01*
X271154Y36964D01*
X271172Y36945D01*
X271246Y36890D01*
X271339Y36816D01*
X271468Y36742D01*
X271635Y36668D01*
X271820Y36594D01*
X272043Y36538D01*
X272283Y36519D01*
X274468D01*
X274542Y36501D01*
X274653Y36446D01*
X274746Y36390D01*
X274839Y36297D01*
X274894Y36168D01*
X274912Y35983D01*
Y35964D01*
Y35909D01*
X274894Y35816D01*
X274839Y35723D01*
X274783Y35631D01*
X274690Y35538D01*
X274561Y35483D01*
X274375Y35464D01*
X272172D01*
X272098Y35483D01*
X271894Y35501D01*
X271635Y35557D01*
X271339Y35649D01*
X271043Y35779D01*
X270709Y35964D01*
X270413Y36223D01*
X270376Y36260D01*
X270302Y36371D01*
X270172Y36519D01*
X270043Y36742D01*
X269895Y37020D01*
X269765Y37334D01*
X269691Y37705D01*
X269654Y38093D01*
Y43352D01*
Y43371D01*
Y43408D01*
Y43463D01*
X269672Y43537D01*
X269691Y43741D01*
X269746Y44000D01*
X269839Y44296D01*
X269969Y44611D01*
X270154Y44926D01*
X270413Y45222D01*
X270450Y45259D01*
X270561Y45352D01*
X270709Y45463D01*
X270931Y45611D01*
X271209Y45759D01*
X271524Y45870D01*
X271894Y45963D01*
X272283Y46000D01*
X274468D01*
X274542Y45981D01*
D02*
G37*
G36*
X286696Y136681D02*
X286900Y136662D01*
X287140Y136607D01*
X287437Y136514D01*
X287751Y136366D01*
X288066Y136181D01*
X288362Y135922D01*
X288400Y135885D01*
X288492Y135792D01*
X288603Y135625D01*
X288751Y135403D01*
X288899Y135126D01*
X289011Y134811D01*
X289103Y134459D01*
X289140Y134070D01*
Y134052D01*
Y134015D01*
Y133940D01*
X289122Y133848D01*
X289103Y133737D01*
X289085Y133607D01*
X289011Y133311D01*
X288881Y132978D01*
X288807Y132811D01*
X288696Y132626D01*
X288566Y132459D01*
X288437Y132274D01*
X288270Y132107D01*
X288085Y131959D01*
X288122Y131941D01*
X288214Y131848D01*
X288344Y131737D01*
X288492Y131570D01*
X288659Y131367D01*
X288807Y131126D01*
X288955Y130848D01*
X289048Y130552D01*
Y130533D01*
X289066Y130459D01*
X289085Y130348D01*
X289103Y130182D01*
Y129941D01*
X289122Y129645D01*
X289140Y129459D01*
Y129256D01*
Y129052D01*
Y128811D01*
Y128793D01*
Y128756D01*
Y128700D01*
X289122Y128626D01*
X289103Y128423D01*
X289048Y128163D01*
X288955Y127867D01*
X288807Y127571D01*
X288622Y127238D01*
X288362Y126941D01*
X288325Y126904D01*
X288233Y126830D01*
X288066Y126700D01*
X287844Y126571D01*
X287566Y126423D01*
X287251Y126293D01*
X286900Y126219D01*
X286511Y126182D01*
X286400D01*
X286326Y126201D01*
X286122Y126219D01*
X285863Y126275D01*
X285566Y126367D01*
X285270Y126497D01*
X284937Y126682D01*
X284641Y126941D01*
X284604Y126978D01*
X284529Y127089D01*
X284400Y127238D01*
X284270Y127460D01*
X284122Y127737D01*
X283993Y128052D01*
X283918Y128423D01*
X283881Y128811D01*
Y129848D01*
Y129867D01*
Y129904D01*
Y129978D01*
X283900Y130070D01*
X283918Y130182D01*
X283937Y130311D01*
X284011Y130608D01*
X284141Y130941D01*
X284233Y131126D01*
X284326Y131293D01*
X284455Y131478D01*
X284585Y131644D01*
X284752Y131811D01*
X284937Y131959D01*
X284918Y131978D01*
X284900Y131996D01*
X284844Y132033D01*
X284770Y132107D01*
X284604Y132274D01*
X284418Y132515D01*
X284215Y132830D01*
X284048Y133181D01*
X283974Y133385D01*
X283918Y133607D01*
X283900Y133829D01*
X283881Y134070D01*
Y134089D01*
Y134126D01*
Y134181D01*
X283900Y134255D01*
X283918Y134459D01*
X283974Y134700D01*
X284067Y134996D01*
X284196Y135311D01*
X284381Y135625D01*
X284641Y135922D01*
X284678Y135959D01*
X284789Y136051D01*
X284937Y136163D01*
X285159Y136311D01*
X285437Y136459D01*
X285752Y136570D01*
X286122Y136662D01*
X286511Y136699D01*
X286622D01*
X286696Y136681D01*
D02*
G37*
G36*
X281400Y136699D02*
X281511Y136644D01*
X281604Y136588D01*
X281696Y136496D01*
X281752Y136366D01*
X281770Y136181D01*
Y136163D01*
Y136107D01*
X281752Y136014D01*
X281696Y135922D01*
X281641Y135829D01*
X281548Y135737D01*
X281419Y135681D01*
X281234Y135662D01*
X279030D01*
X278901Y135644D01*
X278752Y135607D01*
X278567Y135551D01*
X278382Y135459D01*
X278197Y135348D01*
X278012Y135200D01*
X277993Y135181D01*
X277938Y135126D01*
X277864Y135014D01*
X277789Y134885D01*
X277715Y134718D01*
X277641Y134533D01*
X277586Y134311D01*
X277567Y134070D01*
Y128811D01*
Y128774D01*
Y128700D01*
X277586Y128571D01*
X277623Y128423D01*
X277678Y128237D01*
X277752Y128052D01*
X277864Y127867D01*
X278012Y127682D01*
X278030Y127663D01*
X278104Y127608D01*
X278197Y127534D01*
X278326Y127460D01*
X278493Y127386D01*
X278678Y127312D01*
X278901Y127256D01*
X279141Y127238D01*
X281326D01*
X281400Y127219D01*
X281511Y127163D01*
X281604Y127108D01*
X281696Y127015D01*
X281752Y126886D01*
X281770Y126700D01*
Y126682D01*
Y126626D01*
X281752Y126534D01*
X281696Y126441D01*
X281641Y126349D01*
X281548Y126256D01*
X281419Y126201D01*
X281234Y126182D01*
X279030D01*
X278956Y126201D01*
X278752Y126219D01*
X278493Y126275D01*
X278197Y126367D01*
X277901Y126497D01*
X277567Y126682D01*
X277271Y126941D01*
X277234Y126978D01*
X277160Y127089D01*
X277030Y127238D01*
X276901Y127460D01*
X276752Y127737D01*
X276623Y128052D01*
X276549Y128423D01*
X276512Y128811D01*
Y134070D01*
Y134089D01*
Y134126D01*
Y134181D01*
X276530Y134255D01*
X276549Y134459D01*
X276604Y134718D01*
X276697Y135014D01*
X276827Y135329D01*
X277012Y135644D01*
X277271Y135940D01*
X277308Y135977D01*
X277419Y136070D01*
X277567Y136181D01*
X277789Y136329D01*
X278067Y136477D01*
X278382Y136588D01*
X278752Y136681D01*
X279141Y136718D01*
X281326D01*
X281400Y136699D01*
D02*
G37*
G36*
X265349Y135956D02*
X265441Y135900D01*
X265534Y135845D01*
X265627Y135752D01*
X265682Y135623D01*
X265701Y135437D01*
Y135419D01*
Y135400D01*
X265682Y135289D01*
X263756Y128623D01*
X266238D01*
Y130197D01*
Y130216D01*
Y130271D01*
X266275Y130364D01*
X266312Y130456D01*
X266367Y130549D01*
X266460Y130642D01*
X266589Y130697D01*
X266756Y130716D01*
X266849D01*
X266923Y130697D01*
X267034Y130660D01*
X267126Y130586D01*
X267219Y130493D01*
X267274Y130364D01*
X267293Y130197D01*
Y128623D01*
X268423D01*
X268497Y128605D01*
X268608Y128549D01*
X268700Y128494D01*
X268793Y128401D01*
X268848Y128272D01*
X268867Y128086D01*
Y128068D01*
Y128012D01*
X268848Y127920D01*
X268793Y127827D01*
X268737Y127734D01*
X268645Y127642D01*
X268515Y127586D01*
X268330Y127568D01*
X267293D01*
Y125976D01*
Y125957D01*
Y125901D01*
X267274Y125809D01*
X267219Y125716D01*
X267163Y125624D01*
X267071Y125531D01*
X266941Y125476D01*
X266756Y125457D01*
X266682D01*
X266589Y125494D01*
X266497Y125531D01*
X266404Y125587D01*
X266312Y125679D01*
X266256Y125809D01*
X266238Y125976D01*
Y127568D01*
X262997D01*
X262905Y127605D01*
X262812Y127642D01*
X262719Y127697D01*
X262627Y127790D01*
X262571Y127920D01*
X262553Y128086D01*
Y128105D01*
Y128142D01*
Y128235D01*
X264664Y135586D01*
Y135604D01*
X264682Y135641D01*
X264719Y135715D01*
X264775Y135789D01*
X264849Y135845D01*
X264923Y135919D01*
X265053Y135956D01*
X265182Y135974D01*
X265256D01*
X265349Y135956D01*
D02*
G37*
G36*
X260072Y135974D02*
X260183Y135919D01*
X260275Y135863D01*
X260368Y135771D01*
X260423Y135641D01*
X260442Y135456D01*
Y135437D01*
Y135382D01*
X260423Y135289D01*
X260368Y135197D01*
X260312Y135104D01*
X260220Y135012D01*
X260090Y134956D01*
X259905Y134937D01*
X257701D01*
X257572Y134919D01*
X257424Y134882D01*
X257239Y134826D01*
X257053Y134734D01*
X256868Y134623D01*
X256683Y134475D01*
X256665Y134456D01*
X256609Y134401D01*
X256535Y134289D01*
X256461Y134160D01*
X256387Y133993D01*
X256313Y133808D01*
X256257Y133586D01*
X256239Y133345D01*
Y128086D01*
Y128049D01*
Y127975D01*
X256257Y127846D01*
X256294Y127697D01*
X256350Y127512D01*
X256424Y127327D01*
X256535Y127142D01*
X256683Y126957D01*
X256702Y126938D01*
X256776Y126883D01*
X256868Y126809D01*
X256998Y126735D01*
X257164Y126661D01*
X257350Y126587D01*
X257572Y126531D01*
X257813Y126512D01*
X259998D01*
X260072Y126494D01*
X260183Y126438D01*
X260275Y126383D01*
X260368Y126290D01*
X260423Y126161D01*
X260442Y125976D01*
Y125957D01*
Y125901D01*
X260423Y125809D01*
X260368Y125716D01*
X260312Y125624D01*
X260220Y125531D01*
X260090Y125476D01*
X259905Y125457D01*
X257701D01*
X257627Y125476D01*
X257424Y125494D01*
X257164Y125550D01*
X256868Y125642D01*
X256572Y125772D01*
X256239Y125957D01*
X255942Y126216D01*
X255905Y126253D01*
X255831Y126364D01*
X255702Y126512D01*
X255572Y126735D01*
X255424Y127012D01*
X255294Y127327D01*
X255220Y127697D01*
X255183Y128086D01*
Y133345D01*
Y133364D01*
Y133401D01*
Y133456D01*
X255202Y133530D01*
X255220Y133734D01*
X255276Y133993D01*
X255368Y134289D01*
X255498Y134604D01*
X255683Y134919D01*
X255942Y135215D01*
X255979Y135252D01*
X256091Y135345D01*
X256239Y135456D01*
X256461Y135604D01*
X256739Y135752D01*
X257053Y135863D01*
X257424Y135956D01*
X257813Y135993D01*
X259998D01*
X260072Y135974D01*
D02*
G37*
G36*
X45420Y362360D02*
X45513Y362305D01*
X45605Y362249D01*
X45698Y362157D01*
X45753Y362027D01*
X45772Y361842D01*
Y357565D01*
X45735Y357472D01*
X45698Y357379D01*
X45642Y357268D01*
X45550Y357194D01*
X45420Y357120D01*
X45253Y357102D01*
X45216D01*
X45161Y357120D01*
X45050Y357139D01*
X44957Y357194D01*
X38754Y361064D01*
X38735Y361083D01*
X38680Y361101D01*
X38587Y361138D01*
X38476Y361194D01*
X38347Y361249D01*
X38198Y361286D01*
X38050Y361305D01*
X37884Y361323D01*
X37847D01*
X37773D01*
X37643Y361305D01*
X37495Y361268D01*
X37310Y361212D01*
X37125Y361120D01*
X36939Y361009D01*
X36754Y360860D01*
X36736Y360842D01*
X36680Y360787D01*
X36606Y360675D01*
X36514Y360546D01*
X36439Y360379D01*
X36365Y360194D01*
X36310Y359972D01*
X36291Y359731D01*
Y359694D01*
X36310Y359583D01*
X36365Y359416D01*
X36458Y359194D01*
X36532Y359064D01*
X36625Y358935D01*
X36717Y358805D01*
X36847Y358657D01*
X37013Y358509D01*
X37180Y358379D01*
X37384Y358231D01*
X37624Y358083D01*
X37643D01*
X37661Y358064D01*
X37754Y357972D01*
X37847Y357842D01*
X37865Y357750D01*
X37884Y357639D01*
Y357565D01*
X37847Y357472D01*
X37810Y357379D01*
X37754Y357268D01*
X37661Y357194D01*
X37532Y357120D01*
X37347Y357102D01*
X37328D01*
X37273D01*
X37217Y357120D01*
X37143Y357157D01*
X37125Y357176D01*
X37069Y357194D01*
X36958Y357250D01*
X36847Y357342D01*
X36699Y357435D01*
X36532Y357546D01*
X36365Y357694D01*
X36180Y357842D01*
X36014Y358027D01*
X35847Y358213D01*
X35680Y358435D01*
X35532Y358657D01*
X35403Y358898D01*
X35310Y359157D01*
X35254Y359435D01*
X35236Y359731D01*
Y359842D01*
X35254Y359916D01*
X35273Y360120D01*
X35329Y360379D01*
X35421Y360675D01*
X35569Y360990D01*
X35754Y361305D01*
X36014Y361601D01*
X36051Y361638D01*
X36143Y361731D01*
X36310Y361842D01*
X36532Y361990D01*
X36810Y362138D01*
X37125Y362249D01*
X37495Y362342D01*
X37884Y362379D01*
X37921D01*
X38013D01*
X38161Y362360D01*
X38347Y362323D01*
X38587Y362268D01*
X38828Y362175D01*
X39106Y362064D01*
X39402Y361897D01*
X44716Y358583D01*
Y361935D01*
X44735Y362009D01*
X44790Y362120D01*
X44846Y362212D01*
X44939Y362305D01*
X45068Y362360D01*
X45253Y362379D01*
X45272D01*
X45327D01*
X45420Y362360D01*
D02*
G37*
G36*
Y354972D02*
X45513Y354935D01*
X45605Y354861D01*
X45698Y354769D01*
X45753Y354639D01*
X45772Y354472D01*
Y354417D01*
X45735Y354306D01*
X45679Y354157D01*
X45624Y354083D01*
X45550Y354028D01*
X41476Y351306D01*
X45550Y348584D01*
X45587Y348565D01*
X45661Y348473D01*
X45735Y348343D01*
X45753Y348251D01*
X45772Y348158D01*
Y348084D01*
X45735Y347991D01*
X45698Y347899D01*
X45642Y347788D01*
X45550Y347714D01*
X45420Y347640D01*
X45253Y347621D01*
X45216D01*
X45161Y347640D01*
X45050Y347658D01*
X44957Y347714D01*
X40513Y350676D01*
X36088Y347714D01*
X36069Y347695D01*
X35995Y347677D01*
X35903Y347640D01*
X35791Y347621D01*
X35773D01*
X35699D01*
X35625Y347658D01*
X35514Y347695D01*
X35421Y347751D01*
X35329Y347843D01*
X35273Y347973D01*
X35254Y348158D01*
Y348214D01*
X35291Y348325D01*
X35347Y348454D01*
X35421Y348529D01*
X35495Y348584D01*
X39569Y351306D01*
X35495Y354028D01*
X35477D01*
X35458Y354065D01*
X35366Y354139D01*
X35291Y354287D01*
X35273Y354361D01*
X35254Y354472D01*
Y354546D01*
X35273Y354639D01*
X35329Y354731D01*
X35384Y354824D01*
X35477Y354917D01*
X35606Y354972D01*
X35791Y354991D01*
X35810D01*
X35884D01*
X35977Y354954D01*
X36088Y354917D01*
X40513Y351954D01*
X44957Y354917D01*
X44976Y354935D01*
X45050Y354954D01*
X45142Y354972D01*
X45253Y354991D01*
X45272D01*
X45327D01*
X45420Y354972D01*
D02*
G37*
G36*
X30257Y24305D02*
X30350Y24249D01*
X30442Y24194D01*
X30535Y24101D01*
X30590Y23972D01*
X30609Y23786D01*
Y23712D01*
X30572Y23620D01*
X30535Y23527D01*
X30479Y23435D01*
X30387Y23342D01*
X30257Y23286D01*
X30090Y23268D01*
X21887D01*
X23110Y22046D01*
X23128Y22027D01*
X23184Y21953D01*
X23239Y21824D01*
X23258Y21676D01*
Y21602D01*
X23221Y21509D01*
X23184Y21416D01*
X23128Y21324D01*
X23035Y21231D01*
X22906Y21176D01*
X22739Y21157D01*
X22721D01*
X22702D01*
X22610Y21176D01*
X22480Y21213D01*
X22369Y21305D01*
X20313Y23361D01*
X20295Y23379D01*
X20276Y23398D01*
X20202Y23490D01*
X20128Y23620D01*
X20091Y23712D01*
Y23879D01*
X20110Y23953D01*
X20165Y24064D01*
X20221Y24157D01*
X20313Y24249D01*
X20443Y24305D01*
X20628Y24323D01*
X30090D01*
X30109D01*
X30164D01*
X30257Y24305D01*
D02*
G37*
G36*
Y19028D02*
X30350Y18991D01*
X30442Y18917D01*
X30535Y18824D01*
X30590Y18694D01*
X30609Y18528D01*
Y18472D01*
X30572Y18361D01*
X30516Y18213D01*
X30461Y18139D01*
X30387Y18083D01*
X26313Y15361D01*
X30387Y12639D01*
X30424Y12621D01*
X30498Y12528D01*
X30572Y12399D01*
X30590Y12306D01*
X30609Y12214D01*
Y12140D01*
X30572Y12047D01*
X30535Y11954D01*
X30479Y11843D01*
X30387Y11769D01*
X30257Y11695D01*
X30090Y11677D01*
X30053D01*
X29998Y11695D01*
X29887Y11714D01*
X29794Y11769D01*
X25350Y14732D01*
X20924Y11769D01*
X20906Y11751D01*
X20832Y11732D01*
X20739Y11695D01*
X20628Y11677D01*
X20610D01*
X20536D01*
X20462Y11714D01*
X20350Y11751D01*
X20258Y11806D01*
X20165Y11899D01*
X20110Y12028D01*
X20091Y12214D01*
Y12269D01*
X20128Y12380D01*
X20184Y12510D01*
X20258Y12584D01*
X20332Y12639D01*
X24406Y15361D01*
X20332Y18083D01*
X20313D01*
X20295Y18120D01*
X20202Y18194D01*
X20128Y18343D01*
X20110Y18417D01*
X20091Y18528D01*
Y18602D01*
X20110Y18694D01*
X20165Y18787D01*
X20221Y18879D01*
X20313Y18972D01*
X20443Y19028D01*
X20628Y19046D01*
X20647D01*
X20721D01*
X20813Y19009D01*
X20924Y18972D01*
X25350Y16010D01*
X29794Y18972D01*
X29813Y18991D01*
X29887Y19009D01*
X29979Y19028D01*
X30090Y19046D01*
X30109D01*
X30164D01*
X30257Y19028D01*
D02*
G37*
G36*
X254822Y45963D02*
X254915Y45908D01*
X255007Y45852D01*
X255100Y45759D01*
X255155Y45630D01*
X255174Y45444D01*
Y45426D01*
Y45352D01*
X255137Y45259D01*
X255100Y45148D01*
X252137Y40723D01*
X255100Y36279D01*
X255118Y36260D01*
X255137Y36186D01*
X255155Y36094D01*
X255174Y35983D01*
Y35964D01*
Y35909D01*
X255155Y35816D01*
X255118Y35723D01*
X255044Y35631D01*
X254952Y35538D01*
X254822Y35483D01*
X254655Y35464D01*
X254600D01*
X254489Y35501D01*
X254341Y35557D01*
X254267Y35612D01*
X254211Y35686D01*
X251489Y39760D01*
X248767Y35686D01*
X248749Y35649D01*
X248656Y35575D01*
X248526Y35501D01*
X248434Y35483D01*
X248341Y35464D01*
X248267D01*
X248175Y35501D01*
X248082Y35538D01*
X247971Y35594D01*
X247897Y35686D01*
X247823Y35816D01*
X247804Y35983D01*
Y36020D01*
X247823Y36075D01*
X247841Y36186D01*
X247897Y36279D01*
X250860Y40723D01*
X247897Y45148D01*
X247878Y45167D01*
X247860Y45241D01*
X247823Y45333D01*
X247804Y45444D01*
Y45463D01*
Y45537D01*
X247841Y45611D01*
X247878Y45722D01*
X247934Y45815D01*
X248027Y45908D01*
X248156Y45963D01*
X248341Y45981D01*
X248397D01*
X248508Y45944D01*
X248638Y45889D01*
X248712Y45815D01*
X248767Y45741D01*
X251489Y41667D01*
X254211Y45741D01*
Y45759D01*
X254248Y45778D01*
X254322Y45870D01*
X254470Y45944D01*
X254544Y45963D01*
X254655Y45981D01*
X254730D01*
X254822Y45963D01*
D02*
G37*
G36*
X261673Y45981D02*
X261766Y45926D01*
X261859Y45870D01*
X261951Y45778D01*
X262007Y45648D01*
X262025Y45463D01*
Y45444D01*
Y45389D01*
X262007Y45296D01*
X261970Y45204D01*
X261896Y45111D01*
X261803Y45019D01*
X261673Y44963D01*
X261507Y44945D01*
X258359D01*
Y41778D01*
X260044D01*
X260118Y41760D01*
X260322Y41741D01*
X260581Y41686D01*
X260859Y41593D01*
X261173Y41445D01*
X261488Y41260D01*
X261784Y41001D01*
X261821Y40964D01*
X261914Y40871D01*
X262025Y40704D01*
X262173Y40482D01*
X262321Y40204D01*
X262432Y39890D01*
X262525Y39519D01*
X262562Y39130D01*
Y38093D01*
Y38075D01*
Y38038D01*
Y37982D01*
X262544Y37908D01*
X262525Y37705D01*
X262470Y37445D01*
X262377Y37149D01*
X262229Y36853D01*
X262044Y36519D01*
X261784Y36223D01*
X261747Y36186D01*
X261655Y36112D01*
X261488Y35983D01*
X261266Y35853D01*
X260988Y35705D01*
X260673Y35575D01*
X260322Y35501D01*
X259933Y35464D01*
X257748D01*
X257655Y35501D01*
X257563Y35538D01*
X257470Y35594D01*
X257377Y35686D01*
X257322Y35816D01*
X257303Y35983D01*
Y36001D01*
Y36075D01*
X257340Y36149D01*
X257377Y36260D01*
X257433Y36353D01*
X257526Y36446D01*
X257655Y36501D01*
X257822Y36519D01*
X260025D01*
X260155Y36538D01*
X260303Y36575D01*
X260488Y36631D01*
X260673Y36705D01*
X260859Y36816D01*
X261044Y36964D01*
X261062Y36983D01*
X261118Y37057D01*
X261192Y37149D01*
X261284Y37279D01*
X261359Y37445D01*
X261433Y37631D01*
X261488Y37853D01*
X261507Y38093D01*
Y39130D01*
Y39167D01*
Y39241D01*
X261488Y39371D01*
X261451Y39519D01*
X261395Y39704D01*
X261303Y39890D01*
X261192Y40075D01*
X261044Y40260D01*
X261025Y40278D01*
X260970Y40334D01*
X260859Y40408D01*
X260729Y40501D01*
X260562Y40575D01*
X260377Y40649D01*
X260155Y40704D01*
X259914Y40723D01*
X257748D01*
X257655Y40760D01*
X257563Y40797D01*
X257470Y40852D01*
X257377Y40945D01*
X257322Y41075D01*
X257303Y41241D01*
Y45463D01*
Y45482D01*
Y45556D01*
X257340Y45630D01*
X257377Y45741D01*
X257433Y45833D01*
X257526Y45926D01*
X257655Y45981D01*
X257822Y46000D01*
X261581D01*
X261673Y45981D01*
D02*
G37*
G36*
X104555Y94573D02*
X104741Y94554D01*
X104963Y94517D01*
X105222Y94462D01*
X105518Y94388D01*
X105815Y94277D01*
X106148Y94147D01*
X106500Y93980D01*
X106852Y93777D01*
X107203Y93536D01*
X107555Y93258D01*
X107888Y92925D01*
X108222Y92536D01*
X108518Y92092D01*
X108537Y92055D01*
X108592Y91962D01*
X108685Y91814D01*
X108759Y91647D01*
X108851Y91462D01*
X108944Y91258D01*
X108999Y91073D01*
X109018Y90907D01*
Y90870D01*
X108999Y90777D01*
X108962Y90666D01*
X108870Y90536D01*
X108833Y90518D01*
X108759Y90462D01*
X108648Y90407D01*
X108499Y90388D01*
X108481D01*
X108444D01*
X108370Y90407D01*
X108296Y90425D01*
X108148Y90499D01*
X108092Y90555D01*
X108055Y90647D01*
X108036Y90666D01*
X108018Y90740D01*
X107981Y90851D01*
X107925Y90981D01*
X107777Y91295D01*
X107703Y91444D01*
X107611Y91592D01*
X107592Y91610D01*
X107555Y91666D01*
X107500Y91758D01*
X107407Y91869D01*
X107296Y91999D01*
X107166Y92147D01*
X107018Y92295D01*
X106852Y92462D01*
X106666Y92647D01*
X106444Y92814D01*
X106222Y92962D01*
X105963Y93110D01*
X105703Y93240D01*
X105426Y93351D01*
X105129Y93443D01*
X104815Y93499D01*
Y91833D01*
X104796Y91758D01*
X104778Y91555D01*
X104722Y91314D01*
X104629Y91018D01*
X104500Y90703D01*
X104315Y90388D01*
X104056Y90092D01*
X104018Y90055D01*
X103907Y89981D01*
X103759Y89851D01*
X103537Y89722D01*
X103259Y89573D01*
X102944Y89444D01*
X102574Y89370D01*
X102185Y89333D01*
X101148D01*
X101130D01*
X101093D01*
X101037D01*
X100963Y89351D01*
X100759Y89370D01*
X100500Y89425D01*
X100204Y89518D01*
X99889Y89648D01*
X99574Y89833D01*
X99278Y90092D01*
X99241Y90129D01*
X99149Y90240D01*
X99038Y90388D01*
X98889Y90610D01*
X98741Y90888D01*
X98630Y91203D01*
X98538Y91573D01*
X98500Y91962D01*
Y92073D01*
X98519Y92147D01*
X98538Y92351D01*
X98593Y92610D01*
X98686Y92888D01*
X98834Y93203D01*
X99019Y93518D01*
X99278Y93814D01*
X99315Y93851D01*
X99408Y93943D01*
X99574Y94054D01*
X99797Y94203D01*
X100056Y94351D01*
X100371Y94462D01*
X100741Y94554D01*
X101130Y94591D01*
X104296D01*
X104333D01*
X104407D01*
X104555Y94573D01*
D02*
G37*
G36*
X99186Y87203D02*
X99278Y87148D01*
X99371Y87092D01*
X99463Y87000D01*
X99519Y86870D01*
X99537Y86685D01*
Y84593D01*
X108499D01*
X108518D01*
X108574D01*
X108666Y84574D01*
X108759Y84518D01*
X108851Y84463D01*
X108944Y84370D01*
X108999Y84241D01*
X109018Y84056D01*
Y83981D01*
X108981Y83889D01*
X108944Y83796D01*
X108888Y83704D01*
X108796Y83611D01*
X108666Y83555D01*
X108499Y83537D01*
X99537D01*
Y81352D01*
X99500Y81259D01*
X99463Y81167D01*
X99408Y81056D01*
X99315Y80982D01*
X99186Y80908D01*
X99019Y80889D01*
X99000D01*
X98926D01*
X98852Y80926D01*
X98741Y80963D01*
X98649Y81019D01*
X98556Y81111D01*
X98500Y81241D01*
X98482Y81426D01*
Y86777D01*
X98500Y86852D01*
X98556Y86963D01*
X98612Y87055D01*
X98704Y87148D01*
X98834Y87203D01*
X99019Y87222D01*
X99038D01*
X99093D01*
X99186Y87203D01*
D02*
G37*
G36*
X99204Y78760D02*
X108629Y75612D01*
X108648D01*
X108685Y75593D01*
X108814Y75501D01*
X108888Y75427D01*
X108962Y75334D01*
X108999Y75223D01*
X109018Y75093D01*
Y75038D01*
X108999Y74964D01*
X108962Y74890D01*
X108925Y74797D01*
X108851Y74723D01*
X108759Y74649D01*
X108629Y74575D01*
X99204Y71446D01*
X99186D01*
X99149Y71427D01*
X99038Y71409D01*
X99019D01*
X98945D01*
X98871Y71446D01*
X98760Y71483D01*
X98667Y71538D01*
X98575Y71631D01*
X98519Y71761D01*
X98500Y71946D01*
Y72001D01*
X98519Y72075D01*
X98538Y72149D01*
X98593Y72223D01*
X98649Y72316D01*
X98741Y72390D01*
X98871Y72446D01*
X106833Y75093D01*
X98871Y77760D01*
X98852D01*
X98815Y77778D01*
X98686Y77871D01*
X98612Y77927D01*
X98556Y78019D01*
X98519Y78130D01*
X98500Y78260D01*
Y78334D01*
X98519Y78426D01*
X98575Y78519D01*
X98630Y78612D01*
X98723Y78704D01*
X98852Y78760D01*
X99038Y78778D01*
X99056D01*
X99093D01*
X99204Y78760D01*
D02*
G37*
G36*
X41502Y103702D02*
X41688D01*
X41910Y103684D01*
X42132Y103665D01*
X42650Y103610D01*
X43187Y103517D01*
X43743Y103406D01*
X44280Y103258D01*
X44299D01*
X44373Y103221D01*
X44465Y103184D01*
X44595Y103128D01*
X44743Y103054D01*
X44910Y102962D01*
X45280Y102739D01*
X45650Y102425D01*
X45817Y102258D01*
X45965Y102054D01*
X46095Y101851D01*
X46187Y101610D01*
X46261Y101369D01*
X46280Y101091D01*
Y101017D01*
X46261Y100943D01*
X46243Y100851D01*
X46224Y100721D01*
X46169Y100573D01*
X46113Y100425D01*
X46021Y100258D01*
X45928Y100073D01*
X45798Y99906D01*
X45632Y99721D01*
X45428Y99536D01*
X45206Y99369D01*
X44947Y99203D01*
X44632Y99036D01*
X44280Y98906D01*
X44261D01*
X44224Y98888D01*
X44132Y98869D01*
X44039Y98832D01*
X43910Y98795D01*
X43743Y98758D01*
X43558Y98721D01*
X43354Y98684D01*
X43132Y98647D01*
X42873Y98610D01*
X42614Y98573D01*
X42317Y98536D01*
X41706Y98481D01*
X41021Y98462D01*
X41003D01*
X40929D01*
X40836D01*
X40706D01*
X40540Y98481D01*
X40354D01*
X40132Y98499D01*
X39910Y98518D01*
X39392Y98573D01*
X38855Y98647D01*
X38299Y98758D01*
X37762Y98906D01*
X37744D01*
X37670Y98944D01*
X37577Y98981D01*
X37447Y99036D01*
X37299Y99110D01*
X37114Y99203D01*
X36744Y99443D01*
X36373Y99740D01*
X36207Y99925D01*
X36059Y100110D01*
X35929Y100332D01*
X35836Y100573D01*
X35762Y100814D01*
X35744Y101091D01*
Y101166D01*
X35762Y101240D01*
X35781Y101332D01*
X35799Y101462D01*
X35855Y101591D01*
X35910Y101758D01*
X36003Y101925D01*
X36096Y102091D01*
X36244Y102276D01*
X36392Y102443D01*
X36596Y102628D01*
X36818Y102795D01*
X37096Y102962D01*
X37410Y103128D01*
X37762Y103258D01*
X37781D01*
X37818Y103276D01*
X37892Y103295D01*
X38003Y103332D01*
X38133Y103369D01*
X38299Y103406D01*
X38484Y103443D01*
X38688Y103499D01*
X38910Y103536D01*
X39151Y103573D01*
X39429Y103610D01*
X39706Y103647D01*
X40336Y103702D01*
X41021Y103721D01*
X41040D01*
X41095D01*
X41206D01*
X41336D01*
X41502Y103702D01*
D02*
G37*
G36*
X45928Y96333D02*
X46021Y96277D01*
X46113Y96222D01*
X46206Y96129D01*
X46261Y95999D01*
X46280Y95814D01*
Y95740D01*
X46243Y95647D01*
X46206Y95555D01*
X46150Y95462D01*
X46058Y95370D01*
X45928Y95314D01*
X45761Y95296D01*
X37559D01*
X38781Y94074D01*
X38799Y94055D01*
X38855Y93981D01*
X38910Y93851D01*
X38929Y93703D01*
Y93629D01*
X38892Y93537D01*
X38855Y93444D01*
X38799Y93351D01*
X38707Y93259D01*
X38577Y93203D01*
X38410Y93185D01*
X38392D01*
X38373D01*
X38281Y93203D01*
X38151Y93240D01*
X38040Y93333D01*
X35985Y95388D01*
X35966Y95407D01*
X35947Y95425D01*
X35873Y95518D01*
X35799Y95647D01*
X35762Y95740D01*
Y95907D01*
X35781Y95981D01*
X35836Y96092D01*
X35892Y96185D01*
X35985Y96277D01*
X36114Y96333D01*
X36299Y96351D01*
X45761D01*
X45780D01*
X45835D01*
X45928Y96333D01*
D02*
G37*
G36*
X36448Y91074D02*
X36540Y91018D01*
X36633Y90963D01*
X36725Y90870D01*
X36781Y90741D01*
X36799Y90555D01*
Y88463D01*
X45761D01*
X45780D01*
X45835D01*
X45928Y88445D01*
X46021Y88389D01*
X46113Y88334D01*
X46206Y88241D01*
X46261Y88111D01*
X46280Y87926D01*
Y87852D01*
X46243Y87760D01*
X46206Y87667D01*
X46150Y87574D01*
X46058Y87482D01*
X45928Y87426D01*
X45761Y87408D01*
X36799D01*
Y85223D01*
X36762Y85130D01*
X36725Y85037D01*
X36670Y84926D01*
X36577Y84852D01*
X36448Y84778D01*
X36281Y84760D01*
X36262D01*
X36188D01*
X36114Y84797D01*
X36003Y84834D01*
X35910Y84889D01*
X35818Y84982D01*
X35762Y85112D01*
X35744Y85297D01*
Y90648D01*
X35762Y90722D01*
X35818Y90833D01*
X35873Y90926D01*
X35966Y91018D01*
X36096Y91074D01*
X36281Y91093D01*
X36299D01*
X36355D01*
X36448Y91074D01*
D02*
G37*
G36*
X36466Y82630D02*
X45891Y79482D01*
X45910D01*
X45946Y79464D01*
X46076Y79371D01*
X46150Y79297D01*
X46224Y79205D01*
X46261Y79094D01*
X46280Y78964D01*
Y78909D01*
X46261Y78835D01*
X46224Y78760D01*
X46187Y78668D01*
X46113Y78594D01*
X46021Y78520D01*
X45891Y78446D01*
X36466Y75316D01*
X36448D01*
X36410Y75298D01*
X36299Y75279D01*
X36281D01*
X36207D01*
X36133Y75316D01*
X36022Y75353D01*
X35929Y75409D01*
X35836Y75501D01*
X35781Y75631D01*
X35762Y75816D01*
Y75872D01*
X35781Y75946D01*
X35799Y76020D01*
X35855Y76094D01*
X35910Y76187D01*
X36003Y76261D01*
X36133Y76316D01*
X44095Y78964D01*
X36133Y81630D01*
X36114D01*
X36077Y81649D01*
X35947Y81742D01*
X35873Y81797D01*
X35818Y81890D01*
X35781Y82001D01*
X35762Y82130D01*
Y82205D01*
X35781Y82297D01*
X35836Y82390D01*
X35892Y82482D01*
X35985Y82575D01*
X36114Y82630D01*
X36299Y82649D01*
X36318D01*
X36355D01*
X36466Y82630D01*
D02*
G37*
G36*
X68555Y62249D02*
X68647Y62194D01*
X68740Y62138D01*
X68833Y62046D01*
X68888Y61916D01*
X68907Y61731D01*
Y61712D01*
Y61657D01*
X68888Y61564D01*
X68851Y61472D01*
X68777Y61379D01*
X68685Y61287D01*
X68555Y61231D01*
X68388Y61213D01*
X65241D01*
Y58046D01*
X66926D01*
X67000Y58028D01*
X67203Y58009D01*
X67463Y57954D01*
X67740Y57861D01*
X68055Y57713D01*
X68370Y57528D01*
X68666Y57269D01*
X68703Y57231D01*
X68796Y57139D01*
X68907Y56972D01*
X69055Y56750D01*
X69203Y56472D01*
X69314Y56157D01*
X69407Y55787D01*
X69444Y55398D01*
Y54361D01*
Y54343D01*
Y54306D01*
Y54250D01*
X69425Y54176D01*
X69407Y53973D01*
X69351Y53713D01*
X69259Y53417D01*
X69110Y53121D01*
X68925Y52787D01*
X68666Y52491D01*
X68629Y52454D01*
X68536Y52380D01*
X68370Y52250D01*
X68148Y52121D01*
X67870Y51973D01*
X67555Y51843D01*
X67203Y51769D01*
X66814Y51732D01*
X64629D01*
X64537Y51769D01*
X64444Y51806D01*
X64352Y51862D01*
X64259Y51954D01*
X64204Y52084D01*
X64185Y52250D01*
Y52269D01*
Y52343D01*
X64222Y52417D01*
X64259Y52528D01*
X64315Y52621D01*
X64407Y52713D01*
X64537Y52769D01*
X64703Y52787D01*
X66907D01*
X67037Y52806D01*
X67185Y52843D01*
X67370Y52899D01*
X67555Y52973D01*
X67740Y53084D01*
X67925Y53232D01*
X67944Y53250D01*
X68000Y53324D01*
X68074Y53417D01*
X68166Y53547D01*
X68240Y53713D01*
X68314Y53899D01*
X68370Y54121D01*
X68388Y54361D01*
Y55398D01*
Y55435D01*
Y55509D01*
X68370Y55639D01*
X68333Y55787D01*
X68277Y55972D01*
X68185Y56157D01*
X68074Y56343D01*
X67925Y56528D01*
X67907Y56546D01*
X67851Y56602D01*
X67740Y56676D01*
X67611Y56768D01*
X67444Y56843D01*
X67259Y56917D01*
X67037Y56972D01*
X66796Y56991D01*
X64629D01*
X64537Y57028D01*
X64444Y57065D01*
X64352Y57120D01*
X64259Y57213D01*
X64204Y57343D01*
X64185Y57509D01*
Y61731D01*
Y61750D01*
Y61824D01*
X64222Y61898D01*
X64259Y62009D01*
X64315Y62101D01*
X64407Y62194D01*
X64537Y62249D01*
X64703Y62268D01*
X68462D01*
X68555Y62249D01*
D02*
G37*
G36*
X59130D02*
X59241D01*
X59371Y62212D01*
X59686Y62157D01*
X60037Y62046D01*
X60408Y61879D01*
X60593Y61768D01*
X60778Y61657D01*
X60963Y61509D01*
X61148Y61342D01*
X61167Y61324D01*
X61185Y61305D01*
X61241Y61250D01*
X61296Y61175D01*
X61371Y61083D01*
X61445Y60972D01*
X61611Y60713D01*
X61778Y60398D01*
X61926Y60009D01*
X62037Y59583D01*
X62056Y59342D01*
X62074Y59102D01*
Y59083D01*
Y59009D01*
X62056Y58898D01*
X62037Y58750D01*
X62019Y58565D01*
X61982Y58380D01*
X61908Y58157D01*
X61833Y57917D01*
X61741Y57676D01*
X61611Y57417D01*
X61463Y57176D01*
X61278Y56935D01*
X61056Y56713D01*
X60796Y56509D01*
X60500Y56324D01*
X60167Y56157D01*
X62019Y52491D01*
X62037Y52473D01*
X62056Y52417D01*
X62074Y52343D01*
Y52250D01*
Y52214D01*
X62056Y52121D01*
X62000Y52010D01*
X61908Y51880D01*
X61870Y51862D01*
X61796Y51806D01*
X61685Y51750D01*
X61537Y51732D01*
X61482D01*
X61426Y51750D01*
X61352Y51769D01*
X61278Y51806D01*
X61204Y51843D01*
X61130Y51917D01*
X61074Y52010D01*
X59111Y55935D01*
X56815D01*
Y52250D01*
Y52232D01*
Y52176D01*
X56797Y52084D01*
X56741Y51991D01*
X56686Y51899D01*
X56593Y51806D01*
X56464Y51750D01*
X56278Y51732D01*
X56204D01*
X56112Y51769D01*
X56019Y51806D01*
X55927Y51862D01*
X55834Y51954D01*
X55778Y52084D01*
X55760Y52250D01*
Y61731D01*
Y61750D01*
Y61824D01*
X55797Y61898D01*
X55834Y62009D01*
X55890Y62101D01*
X55982Y62194D01*
X56112Y62249D01*
X56278Y62268D01*
X59037D01*
X59130Y62249D01*
D02*
G37*
G36*
X89992Y62231D02*
X90084Y62175D01*
X90177Y62120D01*
X90269Y62027D01*
X90325Y61898D01*
X90343Y61712D01*
Y61694D01*
Y61675D01*
X90325Y61564D01*
X88399Y54898D01*
X90880D01*
Y56472D01*
Y56491D01*
Y56546D01*
X90917Y56639D01*
X90954Y56732D01*
X91010Y56824D01*
X91103Y56917D01*
X91232Y56972D01*
X91399Y56991D01*
X91491D01*
X91565Y56972D01*
X91677Y56935D01*
X91769Y56861D01*
X91862Y56768D01*
X91917Y56639D01*
X91936Y56472D01*
Y54898D01*
X93065D01*
X93139Y54880D01*
X93250Y54824D01*
X93343Y54769D01*
X93436Y54676D01*
X93491Y54547D01*
X93510Y54361D01*
Y54343D01*
Y54287D01*
X93491Y54195D01*
X93436Y54102D01*
X93380Y54010D01*
X93287Y53917D01*
X93158Y53861D01*
X92973Y53843D01*
X91936D01*
Y52250D01*
Y52232D01*
Y52176D01*
X91917Y52084D01*
X91862Y51991D01*
X91806Y51899D01*
X91713Y51806D01*
X91584Y51750D01*
X91399Y51732D01*
X91325D01*
X91232Y51769D01*
X91139Y51806D01*
X91047Y51862D01*
X90954Y51954D01*
X90899Y52084D01*
X90880Y52250D01*
Y53843D01*
X87640D01*
X87547Y53880D01*
X87455Y53917D01*
X87362Y53973D01*
X87269Y54065D01*
X87214Y54195D01*
X87196Y54361D01*
Y54380D01*
Y54417D01*
Y54510D01*
X89306Y61861D01*
Y61879D01*
X89325Y61916D01*
X89362Y61990D01*
X89417Y62064D01*
X89492Y62120D01*
X89566Y62194D01*
X89695Y62231D01*
X89825Y62249D01*
X89899D01*
X89992Y62231D01*
D02*
G37*
G36*
X82140Y62249D02*
X82252D01*
X82381Y62212D01*
X82696Y62157D01*
X83048Y62046D01*
X83418Y61879D01*
X83603Y61768D01*
X83788Y61657D01*
X83974Y61509D01*
X84159Y61342D01*
X84177Y61324D01*
X84196Y61305D01*
X84251Y61250D01*
X84307Y61175D01*
X84381Y61083D01*
X84455Y60972D01*
X84622Y60713D01*
X84788Y60398D01*
X84936Y60009D01*
X85048Y59583D01*
X85066Y59342D01*
X85085Y59102D01*
Y59083D01*
Y59009D01*
X85066Y58898D01*
X85048Y58750D01*
X85029Y58565D01*
X84992Y58380D01*
X84918Y58157D01*
X84844Y57917D01*
X84751Y57676D01*
X84622Y57417D01*
X84473Y57176D01*
X84288Y56935D01*
X84066Y56713D01*
X83807Y56509D01*
X83511Y56324D01*
X83177Y56157D01*
X85029Y52491D01*
X85048Y52473D01*
X85066Y52417D01*
X85085Y52343D01*
Y52250D01*
Y52214D01*
X85066Y52121D01*
X85010Y52010D01*
X84918Y51880D01*
X84881Y51862D01*
X84807Y51806D01*
X84696Y51750D01*
X84548Y51732D01*
X84492D01*
X84437Y51750D01*
X84362Y51769D01*
X84288Y51806D01*
X84214Y51843D01*
X84140Y51917D01*
X84085Y52010D01*
X82122Y55935D01*
X79826D01*
Y52250D01*
Y52232D01*
Y52176D01*
X79807Y52084D01*
X79752Y51991D01*
X79696Y51899D01*
X79604Y51806D01*
X79474Y51750D01*
X79289Y51732D01*
X79215D01*
X79122Y51769D01*
X79030Y51806D01*
X78937Y51862D01*
X78844Y51954D01*
X78789Y52084D01*
X78770Y52250D01*
Y61731D01*
Y61750D01*
Y61824D01*
X78807Y61898D01*
X78844Y62009D01*
X78900Y62101D01*
X78993Y62194D01*
X79122Y62249D01*
X79289Y62268D01*
X82048D01*
X82140Y62249D01*
D02*
G37*
G36*
X125092Y71768D02*
X125185Y71712D01*
X125277Y71657D01*
X125370Y71564D01*
X125426Y71435D01*
X125444Y71249D01*
Y71175D01*
X125407Y71083D01*
X125370Y70990D01*
X125314Y70898D01*
X125222Y70805D01*
X125092Y70750D01*
X124925Y70731D01*
X116723D01*
X117945Y69509D01*
X117963Y69490D01*
X118019Y69416D01*
X118074Y69287D01*
X118093Y69139D01*
Y69064D01*
X118056Y68972D01*
X118019Y68879D01*
X117963Y68787D01*
X117871Y68694D01*
X117741Y68639D01*
X117574Y68620D01*
X117556D01*
X117537D01*
X117445Y68639D01*
X117315Y68676D01*
X117204Y68768D01*
X115149Y70824D01*
X115130Y70842D01*
X115112Y70861D01*
X115038Y70953D01*
X114964Y71083D01*
X114927Y71175D01*
Y71342D01*
X114945Y71416D01*
X115001Y71527D01*
X115056Y71620D01*
X115149Y71712D01*
X115278Y71768D01*
X115463Y71786D01*
X124925D01*
X124944D01*
X125000D01*
X125092Y71768D01*
D02*
G37*
G36*
X125055Y66509D02*
X125166Y66454D01*
X125296Y66361D01*
X125314Y66324D01*
X125370Y66250D01*
X125426Y66139D01*
X125444Y65991D01*
Y65935D01*
X125426Y65880D01*
X125407Y65806D01*
X125370Y65732D01*
X125333Y65658D01*
X125259Y65583D01*
X125166Y65528D01*
X121241Y63565D01*
Y61269D01*
X124925D01*
X124944D01*
X125000D01*
X125092Y61251D01*
X125185Y61195D01*
X125277Y61139D01*
X125370Y61047D01*
X125426Y60917D01*
X125444Y60732D01*
Y60658D01*
X125407Y60565D01*
X125370Y60473D01*
X125314Y60380D01*
X125222Y60288D01*
X125092Y60232D01*
X124925Y60214D01*
X115445D01*
X115427D01*
X115352D01*
X115278Y60251D01*
X115167Y60288D01*
X115075Y60343D01*
X114982Y60436D01*
X114927Y60565D01*
X114908Y60732D01*
Y63491D01*
X114927Y63584D01*
Y63695D01*
X114964Y63824D01*
X115019Y64139D01*
X115130Y64491D01*
X115297Y64861D01*
X115408Y65046D01*
X115519Y65232D01*
X115667Y65417D01*
X115834Y65602D01*
X115852Y65620D01*
X115871Y65639D01*
X115927Y65694D01*
X116000Y65750D01*
X116093Y65824D01*
X116204Y65898D01*
X116463Y66065D01*
X116778Y66231D01*
X117167Y66380D01*
X117593Y66491D01*
X117834Y66509D01*
X118074Y66528D01*
X118093D01*
X118167D01*
X118278Y66509D01*
X118426Y66491D01*
X118611Y66472D01*
X118797Y66435D01*
X119019Y66361D01*
X119260Y66287D01*
X119500Y66194D01*
X119759Y66065D01*
X120000Y65917D01*
X120241Y65732D01*
X120463Y65509D01*
X120667Y65250D01*
X120852Y64954D01*
X121018Y64620D01*
X124685Y66472D01*
X124703Y66491D01*
X124759Y66509D01*
X124833Y66528D01*
X124925D01*
X124963D01*
X125055Y66509D01*
D02*
G37*
G36*
X194066Y89296D02*
X194159Y89240D01*
X194251Y89185D01*
X194344Y89092D01*
X194399Y88962D01*
X194418Y88777D01*
Y84500D01*
X194381Y84407D01*
X194344Y84315D01*
X194288Y84204D01*
X194196Y84129D01*
X194066Y84056D01*
X193899Y84037D01*
X193862D01*
X193807Y84056D01*
X193696Y84074D01*
X193603Y84129D01*
X187400Y87999D01*
X187382Y88018D01*
X187326Y88037D01*
X187234Y88074D01*
X187122Y88129D01*
X186993Y88185D01*
X186845Y88222D01*
X186696Y88240D01*
X186530Y88259D01*
X186493D01*
X186419D01*
X186289Y88240D01*
X186141Y88203D01*
X185956Y88148D01*
X185771Y88055D01*
X185585Y87944D01*
X185400Y87796D01*
X185382Y87777D01*
X185326Y87722D01*
X185252Y87611D01*
X185160Y87481D01*
X185086Y87314D01*
X185012Y87129D01*
X184956Y86907D01*
X184937Y86666D01*
Y86629D01*
X184956Y86518D01*
X185012Y86351D01*
X185104Y86129D01*
X185178Y86000D01*
X185271Y85870D01*
X185363Y85740D01*
X185493Y85592D01*
X185660Y85444D01*
X185826Y85315D01*
X186030Y85167D01*
X186271Y85018D01*
X186289D01*
X186308Y85000D01*
X186400Y84907D01*
X186493Y84778D01*
X186511Y84685D01*
X186530Y84574D01*
Y84500D01*
X186493Y84407D01*
X186456Y84315D01*
X186400Y84204D01*
X186308Y84129D01*
X186178Y84056D01*
X185993Y84037D01*
X185974D01*
X185919D01*
X185863Y84056D01*
X185789Y84093D01*
X185771Y84111D01*
X185715Y84129D01*
X185604Y84185D01*
X185493Y84278D01*
X185345Y84370D01*
X185178Y84481D01*
X185012Y84629D01*
X184826Y84778D01*
X184660Y84963D01*
X184493Y85148D01*
X184326Y85370D01*
X184178Y85592D01*
X184049Y85833D01*
X183956Y86092D01*
X183901Y86370D01*
X183882Y86666D01*
Y86777D01*
X183901Y86852D01*
X183919Y87055D01*
X183975Y87314D01*
X184067Y87611D01*
X184215Y87926D01*
X184400Y88240D01*
X184660Y88537D01*
X184697Y88574D01*
X184789Y88666D01*
X184956Y88777D01*
X185178Y88925D01*
X185456Y89073D01*
X185771Y89185D01*
X186141Y89277D01*
X186530Y89314D01*
X186567D01*
X186660D01*
X186808Y89296D01*
X186993Y89259D01*
X187234Y89203D01*
X187474Y89110D01*
X187752Y88999D01*
X188048Y88833D01*
X193363Y85518D01*
Y88870D01*
X193381Y88944D01*
X193437Y89055D01*
X193492Y89148D01*
X193585Y89240D01*
X193714Y89296D01*
X193899Y89314D01*
X193918D01*
X193974D01*
X194066Y89296D01*
D02*
G37*
G36*
Y81926D02*
X194159Y81870D01*
X194251Y81815D01*
X194344Y81722D01*
X194399Y81593D01*
X194418Y81408D01*
Y79204D01*
X194399Y79130D01*
X194381Y78926D01*
X194325Y78667D01*
X194233Y78371D01*
X194103Y78075D01*
X193918Y77741D01*
X193659Y77445D01*
X193622Y77408D01*
X193511Y77334D01*
X193363Y77204D01*
X193140Y77075D01*
X192862Y76927D01*
X192548Y76797D01*
X192177Y76723D01*
X191789Y76686D01*
X186530D01*
X186511D01*
X186474D01*
X186419D01*
X186345Y76704D01*
X186141Y76723D01*
X185882Y76778D01*
X185585Y76871D01*
X185271Y77001D01*
X184956Y77186D01*
X184660Y77445D01*
X184623Y77482D01*
X184530Y77593D01*
X184419Y77741D01*
X184271Y77964D01*
X184123Y78241D01*
X184012Y78556D01*
X183919Y78926D01*
X183882Y79315D01*
Y81500D01*
X183901Y81574D01*
X183956Y81685D01*
X184012Y81778D01*
X184104Y81870D01*
X184234Y81926D01*
X184419Y81945D01*
X184438D01*
X184493D01*
X184586Y81926D01*
X184678Y81870D01*
X184771Y81815D01*
X184863Y81722D01*
X184919Y81593D01*
X184937Y81408D01*
Y79204D01*
X184956Y79075D01*
X184993Y78926D01*
X185049Y78741D01*
X185141Y78556D01*
X185252Y78371D01*
X185400Y78186D01*
X185419Y78167D01*
X185474Y78112D01*
X185585Y78038D01*
X185715Y77964D01*
X185882Y77889D01*
X186067Y77815D01*
X186289Y77760D01*
X186530Y77741D01*
X191789D01*
X191826D01*
X191900D01*
X192029Y77760D01*
X192177Y77797D01*
X192363Y77852D01*
X192548Y77927D01*
X192733Y78038D01*
X192918Y78186D01*
X192937Y78204D01*
X192992Y78278D01*
X193066Y78371D01*
X193140Y78500D01*
X193214Y78667D01*
X193288Y78852D01*
X193344Y79075D01*
X193363Y79315D01*
Y81500D01*
X193381Y81574D01*
X193437Y81685D01*
X193492Y81778D01*
X193585Y81870D01*
X193714Y81926D01*
X193899Y81945D01*
X193918D01*
X193974D01*
X194066Y81926D01*
D02*
G37*
G36*
X125092Y49202D02*
X125185Y49147D01*
X125277Y49091D01*
X125370Y48998D01*
X125426Y48869D01*
X125444Y48684D01*
Y48610D01*
X125407Y48517D01*
X125370Y48425D01*
X125314Y48332D01*
X125222Y48239D01*
X125092Y48184D01*
X124925Y48165D01*
X116723D01*
X117945Y46943D01*
X117963Y46925D01*
X118019Y46851D01*
X118074Y46721D01*
X118093Y46573D01*
Y46499D01*
X118056Y46406D01*
X118019Y46314D01*
X117963Y46221D01*
X117871Y46128D01*
X117741Y46073D01*
X117574Y46054D01*
X117556D01*
X117537D01*
X117445Y46073D01*
X117315Y46110D01*
X117204Y46203D01*
X115149Y48258D01*
X115130Y48276D01*
X115112Y48295D01*
X115038Y48387D01*
X114964Y48517D01*
X114927Y48610D01*
Y48776D01*
X114945Y48850D01*
X115001Y48962D01*
X115056Y49054D01*
X115149Y49147D01*
X115278Y49202D01*
X115463Y49221D01*
X124925D01*
X124944D01*
X125000D01*
X125092Y49202D01*
D02*
G37*
G36*
Y43944D02*
X125185Y43888D01*
X125277Y43832D01*
X125370Y43740D01*
X125426Y43610D01*
X125444Y43425D01*
Y41221D01*
X125426Y41147D01*
X125407Y40944D01*
X125351Y40685D01*
X125259Y40388D01*
X125129Y40092D01*
X124944Y39759D01*
X124685Y39462D01*
X124648Y39425D01*
X124537Y39351D01*
X124389Y39222D01*
X124166Y39092D01*
X123889Y38944D01*
X123574Y38814D01*
X123203Y38740D01*
X122815Y38703D01*
X117556D01*
X117537D01*
X117500D01*
X117445D01*
X117371Y38722D01*
X117167Y38740D01*
X116908Y38796D01*
X116612Y38888D01*
X116297Y39018D01*
X115982Y39203D01*
X115686Y39462D01*
X115649Y39499D01*
X115556Y39611D01*
X115445Y39759D01*
X115297Y39981D01*
X115149Y40259D01*
X115038Y40574D01*
X114945Y40944D01*
X114908Y41333D01*
Y43518D01*
X114927Y43592D01*
X114982Y43703D01*
X115038Y43795D01*
X115130Y43888D01*
X115260Y43944D01*
X115445Y43962D01*
X115463D01*
X115519D01*
X115612Y43944D01*
X115704Y43888D01*
X115797Y43832D01*
X115889Y43740D01*
X115945Y43610D01*
X115963Y43425D01*
Y41221D01*
X115982Y41092D01*
X116019Y40944D01*
X116075Y40759D01*
X116167Y40574D01*
X116278Y40388D01*
X116426Y40203D01*
X116445Y40185D01*
X116501Y40129D01*
X116612Y40055D01*
X116741Y39981D01*
X116908Y39907D01*
X117093Y39833D01*
X117315Y39777D01*
X117556Y39759D01*
X122815D01*
X122852D01*
X122926D01*
X123055Y39777D01*
X123203Y39814D01*
X123389Y39870D01*
X123574Y39944D01*
X123759Y40055D01*
X123944Y40203D01*
X123963Y40222D01*
X124018Y40296D01*
X124092Y40388D01*
X124166Y40518D01*
X124240Y40685D01*
X124314Y40870D01*
X124370Y41092D01*
X124389Y41333D01*
Y43518D01*
X124407Y43592D01*
X124463Y43703D01*
X124518Y43795D01*
X124611Y43888D01*
X124740Y43944D01*
X124925Y43962D01*
X124944D01*
X125000D01*
X125092Y43944D01*
D02*
G37*
G36*
X154974Y52823D02*
X155177Y52805D01*
X155437Y52749D01*
X155733Y52657D01*
X156029Y52509D01*
X156362Y52323D01*
X156659Y52064D01*
X156696Y52027D01*
X156770Y51935D01*
X156899Y51768D01*
X157029Y51546D01*
X157177Y51268D01*
X157307Y50953D01*
X157381Y50601D01*
X157418Y50212D01*
Y50101D01*
X157399Y50027D01*
X157381Y49824D01*
X157325Y49564D01*
X157233Y49268D01*
X157103Y48972D01*
X156918Y48639D01*
X156659Y48342D01*
X156622Y48305D01*
X156511Y48231D01*
X156362Y48102D01*
X156140Y47972D01*
X155863Y47824D01*
X155548Y47694D01*
X155177Y47620D01*
X154789Y47583D01*
X153752D01*
X153733D01*
X153696D01*
X153622D01*
X153530Y47602D01*
X153418Y47620D01*
X153289Y47639D01*
X152992Y47713D01*
X152659Y47842D01*
X152474Y47935D01*
X152307Y48028D01*
X152122Y48157D01*
X151956Y48287D01*
X151789Y48453D01*
X151641Y48639D01*
X151622Y48620D01*
X151604Y48602D01*
X151567Y48546D01*
X151493Y48472D01*
X151326Y48305D01*
X151085Y48120D01*
X150771Y47916D01*
X150419Y47750D01*
X150215Y47676D01*
X149993Y47620D01*
X149771Y47602D01*
X149530Y47583D01*
X149511D01*
X149474D01*
X149419D01*
X149345Y47602D01*
X149141Y47620D01*
X148900Y47676D01*
X148604Y47768D01*
X148289Y47898D01*
X147975Y48083D01*
X147678Y48342D01*
X147641Y48379D01*
X147549Y48491D01*
X147437Y48639D01*
X147289Y48861D01*
X147141Y49139D01*
X147030Y49453D01*
X146938Y49824D01*
X146901Y50212D01*
Y50324D01*
X146919Y50398D01*
X146938Y50601D01*
X146993Y50842D01*
X147086Y51138D01*
X147234Y51453D01*
X147419Y51768D01*
X147678Y52064D01*
X147715Y52101D01*
X147808Y52194D01*
X147975Y52305D01*
X148197Y52453D01*
X148474Y52601D01*
X148789Y52712D01*
X149141Y52805D01*
X149530Y52842D01*
X149548D01*
X149585D01*
X149660D01*
X149752Y52823D01*
X149863Y52805D01*
X149993Y52786D01*
X150289Y52712D01*
X150622Y52583D01*
X150789Y52509D01*
X150974Y52397D01*
X151141Y52268D01*
X151326Y52138D01*
X151493Y51972D01*
X151641Y51786D01*
X151659Y51824D01*
X151752Y51916D01*
X151863Y52046D01*
X152030Y52194D01*
X152233Y52361D01*
X152474Y52509D01*
X152752Y52657D01*
X153048Y52749D01*
X153067D01*
X153141Y52768D01*
X153252Y52786D01*
X153418Y52805D01*
X153659D01*
X153955Y52823D01*
X154141Y52842D01*
X154344D01*
X154548D01*
X154789D01*
X154807D01*
X154844D01*
X154900D01*
X154974Y52823D01*
D02*
G37*
G36*
X157029Y45454D02*
X157140Y45398D01*
X157270Y45306D01*
X157288Y45269D01*
X157344Y45195D01*
X157399Y45083D01*
X157418Y44935D01*
Y44880D01*
X157399Y44824D01*
X157381Y44750D01*
X157344Y44676D01*
X157307Y44602D01*
X157233Y44528D01*
X157140Y44472D01*
X153215Y42510D01*
Y40214D01*
X156899D01*
X156918D01*
X156973D01*
X157066Y40195D01*
X157159Y40139D01*
X157251Y40084D01*
X157344Y39991D01*
X157399Y39862D01*
X157418Y39677D01*
Y39602D01*
X157381Y39510D01*
X157344Y39417D01*
X157288Y39325D01*
X157196Y39232D01*
X157066Y39177D01*
X156899Y39158D01*
X147419D01*
X147401D01*
X147326D01*
X147252Y39195D01*
X147141Y39232D01*
X147049Y39288D01*
X146956Y39380D01*
X146901Y39510D01*
X146882Y39677D01*
Y42436D01*
X146901Y42528D01*
Y42639D01*
X146938Y42769D01*
X146993Y43084D01*
X147104Y43436D01*
X147271Y43806D01*
X147382Y43991D01*
X147493Y44176D01*
X147641Y44361D01*
X147808Y44546D01*
X147826Y44565D01*
X147845Y44584D01*
X147900Y44639D01*
X147975Y44695D01*
X148067Y44769D01*
X148178Y44843D01*
X148437Y45009D01*
X148752Y45176D01*
X149141Y45324D01*
X149567Y45435D01*
X149808Y45454D01*
X150048Y45472D01*
X150067D01*
X150141D01*
X150252Y45454D01*
X150400Y45435D01*
X150585Y45417D01*
X150771Y45380D01*
X150993Y45306D01*
X151233Y45232D01*
X151474Y45139D01*
X151733Y45009D01*
X151974Y44861D01*
X152215Y44676D01*
X152437Y44454D01*
X152641Y44195D01*
X152826Y43898D01*
X152992Y43565D01*
X156659Y45417D01*
X156677Y45435D01*
X156733Y45454D01*
X156807Y45472D01*
X156899D01*
X156937D01*
X157029Y45454D01*
D02*
G37*
G36*
X175176Y36823D02*
X175268Y36768D01*
X175361Y36712D01*
X175454Y36620D01*
X175509Y36490D01*
X175528Y36305D01*
Y35657D01*
X179861Y34713D01*
X179879D01*
X179916Y34694D01*
X179990Y34657D01*
X180064Y34601D01*
X180138Y34546D01*
X180212Y34453D01*
X180249Y34342D01*
X180268Y34194D01*
Y34120D01*
X180231Y34027D01*
X180194Y33935D01*
X180138Y33842D01*
X180046Y33750D01*
X179916Y33694D01*
X179750Y33675D01*
X179731D01*
X179713D01*
X179638D01*
X175528Y34583D01*
Y34120D01*
X175491Y34027D01*
X175454Y33935D01*
X175398Y33842D01*
X175306Y33750D01*
X175176Y33694D01*
X175009Y33675D01*
X174991D01*
X174917D01*
X174843Y33713D01*
X174732Y33750D01*
X174639Y33805D01*
X174546Y33898D01*
X174491Y34027D01*
X174472Y34194D01*
Y34824D01*
X170788Y35638D01*
Y32009D01*
X170750Y31916D01*
X170713Y31824D01*
X170658Y31731D01*
X170565Y31639D01*
X170436Y31583D01*
X170269Y31565D01*
X170250D01*
X170176D01*
X170102Y31602D01*
X169991Y31639D01*
X169899Y31694D01*
X169806Y31787D01*
X169750Y31916D01*
X169732Y32083D01*
Y36379D01*
X169750Y36472D01*
X169788Y36564D01*
X169862Y36657D01*
X169954Y36749D01*
X170084Y36805D01*
X170250Y36842D01*
X170287D01*
X170380Y36823D01*
X174472Y35916D01*
Y36398D01*
X174491Y36472D01*
X174546Y36583D01*
X174602Y36675D01*
X174694Y36768D01*
X174824Y36823D01*
X175009Y36842D01*
X175028D01*
X175083D01*
X175176Y36823D01*
D02*
G37*
G36*
X179879Y29454D02*
X179990Y29398D01*
X180120Y29306D01*
X180138Y29269D01*
X180194Y29195D01*
X180249Y29083D01*
X180268Y28935D01*
Y28880D01*
X180249Y28824D01*
X180231Y28750D01*
X180194Y28676D01*
X180157Y28602D01*
X180083Y28528D01*
X179990Y28472D01*
X176065Y26510D01*
Y24214D01*
X179750D01*
X179768D01*
X179824D01*
X179916Y24195D01*
X180009Y24139D01*
X180101Y24084D01*
X180194Y23991D01*
X180249Y23862D01*
X180268Y23677D01*
Y23602D01*
X180231Y23510D01*
X180194Y23417D01*
X180138Y23325D01*
X180046Y23232D01*
X179916Y23177D01*
X179750Y23158D01*
X170269D01*
X170250D01*
X170176D01*
X170102Y23195D01*
X169991Y23232D01*
X169899Y23288D01*
X169806Y23380D01*
X169750Y23510D01*
X169732Y23677D01*
Y26436D01*
X169750Y26528D01*
Y26639D01*
X169788Y26769D01*
X169843Y27084D01*
X169954Y27436D01*
X170121Y27806D01*
X170232Y27991D01*
X170343Y28176D01*
X170491Y28361D01*
X170658Y28547D01*
X170676Y28565D01*
X170695Y28584D01*
X170750Y28639D01*
X170825Y28695D01*
X170917Y28769D01*
X171028Y28843D01*
X171287Y29009D01*
X171602Y29176D01*
X171991Y29324D01*
X172417Y29435D01*
X172658Y29454D01*
X172898Y29472D01*
X172917D01*
X172991D01*
X173102Y29454D01*
X173250Y29435D01*
X173435Y29417D01*
X173620Y29380D01*
X173843Y29306D01*
X174083Y29232D01*
X174324Y29139D01*
X174583Y29009D01*
X174824Y28861D01*
X175065Y28676D01*
X175287Y28454D01*
X175491Y28195D01*
X175676Y27898D01*
X175842Y27565D01*
X179509Y29417D01*
X179527Y29435D01*
X179583Y29454D01*
X179657Y29472D01*
X179750D01*
X179786D01*
X179879Y29454D01*
D02*
G37*
G36*
X222974Y50785D02*
X223178Y50767D01*
X223437Y50711D01*
X223733Y50619D01*
X224048Y50471D01*
X224363Y50285D01*
X224659Y50026D01*
X224696Y49989D01*
X224770Y49896D01*
X224900Y49730D01*
X225029Y49508D01*
X225177Y49230D01*
X225307Y48915D01*
X225381Y48563D01*
X225418Y48175D01*
Y48063D01*
X225399Y47989D01*
X225381Y47786D01*
X225325Y47526D01*
X225233Y47230D01*
X225103Y46915D01*
X224918Y46601D01*
X224659Y46304D01*
X224622Y46267D01*
X224529Y46193D01*
X224363Y46064D01*
X224140Y45934D01*
X223881Y45786D01*
X223548Y45656D01*
X223196Y45582D01*
X222807Y45545D01*
X219641D01*
X219622D01*
X219567D01*
X219474D01*
X219345Y45564D01*
X219178Y45582D01*
X219011Y45601D01*
X218808Y45638D01*
X218585Y45693D01*
X218104Y45841D01*
X217845Y45934D01*
X217567Y46045D01*
X217308Y46175D01*
X217030Y46341D01*
X216771Y46526D01*
X216511Y46730D01*
X216493Y46749D01*
X216474Y46767D01*
X216419Y46823D01*
X216345Y46897D01*
X216160Y47082D01*
X215938Y47323D01*
X215697Y47619D01*
X215456Y47952D01*
X215215Y48323D01*
X215030Y48730D01*
Y48748D01*
X215012Y48786D01*
X214993Y48841D01*
X214956Y48915D01*
X214919Y49063D01*
X214900Y49211D01*
Y49304D01*
X214919Y49378D01*
X214975Y49489D01*
X215030Y49582D01*
X215123Y49674D01*
X215252Y49730D01*
X215438Y49748D01*
X215456D01*
X215493D01*
X215567Y49730D01*
X215641Y49711D01*
X215715Y49674D01*
X215789Y49637D01*
X215845Y49563D01*
X215882Y49471D01*
Y49452D01*
X215900Y49415D01*
X215919Y49360D01*
X215938Y49267D01*
X215993Y49174D01*
X216030Y49063D01*
X216160Y48786D01*
X216363Y48452D01*
X216604Y48119D01*
X216900Y47767D01*
X217085Y47600D01*
X217289Y47434D01*
X217308D01*
X217326Y47397D01*
X217437Y47323D01*
X217623Y47212D01*
X217845Y47082D01*
X218122Y46934D01*
X218419Y46804D01*
X218752Y46712D01*
X219104Y46638D01*
Y48286D01*
X219122Y48360D01*
X219141Y48563D01*
X219196Y48823D01*
X219289Y49119D01*
X219437Y49434D01*
X219622Y49748D01*
X219881Y50045D01*
X219918Y50082D01*
X220011Y50156D01*
X220178Y50285D01*
X220400Y50434D01*
X220678Y50563D01*
X220993Y50693D01*
X221344Y50767D01*
X221752Y50804D01*
X222789D01*
X222807D01*
X222844D01*
X222900D01*
X222974Y50785D01*
D02*
G37*
G36*
X225029Y43416D02*
X225140Y43360D01*
X225270Y43268D01*
X225288Y43231D01*
X225344Y43156D01*
X225399Y43045D01*
X225418Y42897D01*
Y42842D01*
X225399Y42786D01*
X225381Y42712D01*
X225344Y42638D01*
X225307Y42564D01*
X225233Y42490D01*
X225140Y42434D01*
X221215Y40472D01*
Y38175D01*
X224900D01*
X224918D01*
X224974D01*
X225066Y38157D01*
X225159Y38101D01*
X225251Y38046D01*
X225344Y37953D01*
X225399Y37824D01*
X225418Y37639D01*
Y37564D01*
X225381Y37472D01*
X225344Y37379D01*
X225288Y37287D01*
X225196Y37194D01*
X225066Y37139D01*
X224900Y37120D01*
X215419D01*
X215401D01*
X215326D01*
X215252Y37157D01*
X215141Y37194D01*
X215049Y37250D01*
X214956Y37342D01*
X214900Y37472D01*
X214882Y37639D01*
Y40398D01*
X214900Y40490D01*
Y40601D01*
X214938Y40731D01*
X214993Y41046D01*
X215104Y41397D01*
X215271Y41768D01*
X215382Y41953D01*
X215493Y42138D01*
X215641Y42323D01*
X215808Y42508D01*
X215826Y42527D01*
X215845Y42545D01*
X215900Y42601D01*
X215975Y42657D01*
X216067Y42731D01*
X216178Y42805D01*
X216437Y42971D01*
X216752Y43138D01*
X217141Y43286D01*
X217567Y43397D01*
X217808Y43416D01*
X218048Y43434D01*
X218067D01*
X218141D01*
X218252Y43416D01*
X218400Y43397D01*
X218585Y43379D01*
X218771Y43342D01*
X218993Y43268D01*
X219233Y43193D01*
X219474Y43101D01*
X219733Y42971D01*
X219974Y42823D01*
X220215Y42638D01*
X220437Y42416D01*
X220641Y42157D01*
X220826Y41860D01*
X220993Y41527D01*
X224659Y43379D01*
X224677Y43397D01*
X224733Y43416D01*
X224807Y43434D01*
X224900D01*
X224937D01*
X225029Y43416D01*
D02*
G37*
G36*
X242379Y51249D02*
X242583Y51231D01*
X242842Y51175D01*
X243138Y51083D01*
X243453Y50935D01*
X243768Y50750D01*
X244064Y50490D01*
X244101Y50453D01*
X244194Y50361D01*
X244305Y50194D01*
X244453Y49972D01*
X244601Y49694D01*
X244712Y49379D01*
X244805Y49009D01*
X244842Y48620D01*
Y48602D01*
Y48565D01*
Y48491D01*
X244823Y48398D01*
X244805Y48287D01*
X244786Y48157D01*
X244712Y47861D01*
X244583Y47528D01*
X244509Y47361D01*
X244398Y47176D01*
X244268Y47009D01*
X244138Y46824D01*
X243972Y46657D01*
X243787Y46509D01*
X243805D01*
X243824Y46472D01*
X243879Y46435D01*
X243953Y46361D01*
X244120Y46194D01*
X244323Y45954D01*
X244509Y45639D01*
X244675Y45287D01*
X244749Y45083D01*
X244805Y44861D01*
X244823Y44639D01*
X244842Y44398D01*
Y43361D01*
Y43343D01*
Y43306D01*
Y43250D01*
X244823Y43176D01*
X244805Y42973D01*
X244749Y42713D01*
X244657Y42417D01*
X244509Y42121D01*
X244323Y41788D01*
X244064Y41491D01*
X244027Y41454D01*
X243935Y41380D01*
X243768Y41251D01*
X243546Y41121D01*
X243268Y40973D01*
X242953Y40843D01*
X242583Y40769D01*
X242194Y40732D01*
X240028D01*
X239935Y40769D01*
X239842Y40806D01*
X239731Y40862D01*
X239657Y40954D01*
X239583Y41084D01*
X239565Y41251D01*
Y41269D01*
Y41343D01*
X239602Y41417D01*
X239639Y41528D01*
X239694Y41621D01*
X239787Y41713D01*
X239916Y41769D01*
X240102Y41788D01*
X242305D01*
X242435Y41806D01*
X242583Y41843D01*
X242768Y41899D01*
X242953Y41973D01*
X243138Y42084D01*
X243323Y42232D01*
X243342Y42250D01*
X243398Y42325D01*
X243472Y42417D01*
X243564Y42547D01*
X243638Y42713D01*
X243712Y42899D01*
X243768Y43121D01*
X243787Y43361D01*
Y44398D01*
Y44435D01*
Y44509D01*
X243768Y44639D01*
X243731Y44787D01*
X243675Y44972D01*
X243583Y45157D01*
X243472Y45343D01*
X243323Y45528D01*
X243305Y45546D01*
X243249Y45602D01*
X243138Y45676D01*
X243009Y45769D01*
X242842Y45843D01*
X242657Y45917D01*
X242435Y45972D01*
X242194Y45991D01*
X241064D01*
X240972Y46028D01*
X240879Y46065D01*
X240787Y46120D01*
X240694Y46213D01*
X240639Y46343D01*
X240620Y46509D01*
Y46528D01*
Y46602D01*
X240657Y46676D01*
X240694Y46787D01*
X240750Y46880D01*
X240842Y46972D01*
X240972Y47028D01*
X241139Y47046D01*
X242305D01*
X242435Y47065D01*
X242583Y47102D01*
X242768Y47157D01*
X242953Y47231D01*
X243138Y47343D01*
X243323Y47491D01*
X243342Y47509D01*
X243398Y47583D01*
X243472Y47676D01*
X243564Y47805D01*
X243638Y47972D01*
X243712Y48157D01*
X243768Y48379D01*
X243787Y48620D01*
Y48657D01*
Y48731D01*
X243768Y48842D01*
X243731Y49009D01*
X243675Y49176D01*
X243583Y49361D01*
X243472Y49546D01*
X243323Y49731D01*
X243305Y49750D01*
X243249Y49805D01*
X243138Y49879D01*
X243009Y49972D01*
X242842Y50064D01*
X242657Y50139D01*
X242435Y50194D01*
X242194Y50212D01*
X240028D01*
X239935Y50250D01*
X239842Y50287D01*
X239731Y50342D01*
X239657Y50435D01*
X239583Y50564D01*
X239565Y50731D01*
Y50750D01*
Y50824D01*
X239602Y50898D01*
X239639Y51009D01*
X239694Y51101D01*
X239787Y51194D01*
X239916Y51249D01*
X240102Y51268D01*
X242305D01*
X242379Y51249D01*
D02*
G37*
G36*
X235010D02*
X235213Y51231D01*
X235473Y51175D01*
X235769Y51083D01*
X236084Y50935D01*
X236398Y50750D01*
X236695Y50490D01*
X236732Y50453D01*
X236824Y50361D01*
X236935Y50194D01*
X237083Y49972D01*
X237232Y49694D01*
X237343Y49379D01*
X237435Y49028D01*
X237472Y48620D01*
Y43361D01*
Y43343D01*
Y43306D01*
Y43250D01*
X237454Y43176D01*
X237435Y42973D01*
X237380Y42713D01*
X237287Y42417D01*
X237139Y42121D01*
X236954Y41788D01*
X236695Y41491D01*
X236658Y41454D01*
X236565Y41380D01*
X236398Y41251D01*
X236176Y41121D01*
X235898Y40973D01*
X235584Y40843D01*
X235213Y40769D01*
X234824Y40732D01*
X231602D01*
X231510Y40769D01*
X231417Y40806D01*
X231325Y40862D01*
X231232Y40954D01*
X231177Y41084D01*
X231158Y41251D01*
Y50731D01*
Y50750D01*
Y50824D01*
X231195Y50898D01*
X231232Y51009D01*
X231288Y51101D01*
X231380Y51194D01*
X231510Y51249D01*
X231677Y51268D01*
X234935D01*
X235010Y51249D01*
D02*
G37*
G36*
X196966Y123046D02*
X197170Y123027D01*
X197429Y122972D01*
X197725Y122879D01*
X198021Y122731D01*
X198355Y122546D01*
X198651Y122287D01*
X198688Y122249D01*
X198762Y122157D01*
X198892Y121990D01*
X199021Y121768D01*
X199170Y121490D01*
X199299Y121175D01*
X199373Y120805D01*
X199410Y120416D01*
Y118250D01*
X199373Y118157D01*
X199336Y118065D01*
X199281Y117954D01*
X199188Y117879D01*
X199058Y117806D01*
X198892Y117787D01*
X198873D01*
X198799D01*
X198725Y117824D01*
X198614Y117861D01*
X198521Y117917D01*
X198429Y118009D01*
X198373Y118139D01*
X198355Y118324D01*
Y120527D01*
X198336Y120657D01*
X198299Y120805D01*
X198244Y120990D01*
X198170Y121175D01*
X198058Y121361D01*
X197910Y121546D01*
X197892Y121564D01*
X197818Y121620D01*
X197725Y121694D01*
X197596Y121786D01*
X197429Y121861D01*
X197244Y121935D01*
X197022Y121990D01*
X196781Y122009D01*
X195744D01*
X195707D01*
X195633D01*
X195503Y121990D01*
X195355Y121953D01*
X195170Y121898D01*
X194985Y121805D01*
X194799Y121694D01*
X194614Y121546D01*
X194596Y121527D01*
X194540Y121472D01*
X194466Y121361D01*
X194374Y121231D01*
X194300Y121064D01*
X194226Y120879D01*
X194170Y120657D01*
X194151Y120416D01*
Y119287D01*
X194114Y119194D01*
X194077Y119102D01*
X194022Y119009D01*
X193929Y118917D01*
X193800Y118861D01*
X193633Y118842D01*
X193615D01*
X193540D01*
X193466Y118879D01*
X193355Y118917D01*
X193263Y118972D01*
X193170Y119065D01*
X193114Y119194D01*
X193096Y119361D01*
Y120527D01*
X193078Y120657D01*
X193041Y120805D01*
X192985Y120990D01*
X192911Y121175D01*
X192800Y121361D01*
X192652Y121546D01*
X192633Y121564D01*
X192559Y121620D01*
X192466Y121694D01*
X192337Y121786D01*
X192170Y121861D01*
X191985Y121935D01*
X191763Y121990D01*
X191522Y122009D01*
X191485D01*
X191411D01*
X191300Y121990D01*
X191133Y121953D01*
X190967Y121898D01*
X190781Y121805D01*
X190596Y121694D01*
X190411Y121546D01*
X190393Y121527D01*
X190337Y121472D01*
X190263Y121361D01*
X190170Y121231D01*
X190078Y121064D01*
X190004Y120879D01*
X189948Y120657D01*
X189930Y120416D01*
Y118250D01*
X189893Y118157D01*
X189856Y118065D01*
X189800Y117954D01*
X189708Y117879D01*
X189578Y117806D01*
X189411Y117787D01*
X189393D01*
X189319D01*
X189245Y117824D01*
X189133Y117861D01*
X189041Y117917D01*
X188948Y118009D01*
X188893Y118139D01*
X188874Y118324D01*
Y120527D01*
X188893Y120602D01*
X188911Y120805D01*
X188967Y121064D01*
X189059Y121361D01*
X189207Y121675D01*
X189393Y121990D01*
X189652Y122287D01*
X189689Y122324D01*
X189781Y122416D01*
X189948Y122527D01*
X190170Y122675D01*
X190448Y122823D01*
X190763Y122935D01*
X191133Y123027D01*
X191522Y123064D01*
X191541D01*
X191578D01*
X191652D01*
X191744Y123046D01*
X191855Y123027D01*
X191985Y123009D01*
X192281Y122935D01*
X192615Y122805D01*
X192781Y122731D01*
X192966Y122620D01*
X193133Y122490D01*
X193318Y122360D01*
X193485Y122194D01*
X193633Y122009D01*
Y122027D01*
X193670Y122046D01*
X193707Y122101D01*
X193781Y122175D01*
X193948Y122342D01*
X194188Y122546D01*
X194503Y122731D01*
X194855Y122898D01*
X195059Y122972D01*
X195281Y123027D01*
X195503Y123046D01*
X195744Y123064D01*
X196781D01*
X196799D01*
X196836D01*
X196892D01*
X196966Y123046D01*
D02*
G37*
G36*
X199058Y115676D02*
X199151Y115620D01*
X199244Y115565D01*
X199336Y115472D01*
X199392Y115343D01*
X199410Y115158D01*
Y112954D01*
X199392Y112880D01*
X199373Y112676D01*
X199318Y112417D01*
X199225Y112121D01*
X199095Y111825D01*
X198910Y111491D01*
X198651Y111195D01*
X198614Y111158D01*
X198503Y111084D01*
X198355Y110954D01*
X198132Y110825D01*
X197855Y110677D01*
X197540Y110547D01*
X197170Y110473D01*
X196781Y110436D01*
X191522D01*
X191504D01*
X191467D01*
X191411D01*
X191337Y110454D01*
X191133Y110473D01*
X190874Y110528D01*
X190578Y110621D01*
X190263Y110751D01*
X189948Y110936D01*
X189652Y111195D01*
X189615Y111232D01*
X189522Y111343D01*
X189411Y111491D01*
X189263Y111713D01*
X189115Y111991D01*
X189004Y112306D01*
X188911Y112676D01*
X188874Y113065D01*
Y115250D01*
X188893Y115324D01*
X188948Y115435D01*
X189004Y115528D01*
X189096Y115620D01*
X189226Y115676D01*
X189411Y115695D01*
X189430D01*
X189485D01*
X189578Y115676D01*
X189670Y115620D01*
X189763Y115565D01*
X189856Y115472D01*
X189911Y115343D01*
X189930Y115158D01*
Y112954D01*
X189948Y112824D01*
X189985Y112676D01*
X190041Y112491D01*
X190133Y112306D01*
X190245Y112121D01*
X190393Y111936D01*
X190411Y111917D01*
X190467Y111862D01*
X190578Y111788D01*
X190707Y111713D01*
X190874Y111639D01*
X191059Y111565D01*
X191281Y111510D01*
X191522Y111491D01*
X196781D01*
X196818D01*
X196892D01*
X197022Y111510D01*
X197170Y111547D01*
X197355Y111602D01*
X197540Y111677D01*
X197725Y111788D01*
X197910Y111936D01*
X197929Y111954D01*
X197984Y112028D01*
X198058Y112121D01*
X198132Y112250D01*
X198207Y112417D01*
X198281Y112602D01*
X198336Y112824D01*
X198355Y113065D01*
Y115250D01*
X198373Y115324D01*
X198429Y115435D01*
X198484Y115528D01*
X198577Y115620D01*
X198706Y115676D01*
X198892Y115695D01*
X198910D01*
X198966D01*
X199058Y115676D01*
D02*
G37*
G36*
X210379Y182250D02*
X210583Y182231D01*
X210842Y182175D01*
X211138Y182083D01*
X211453Y181935D01*
X211768Y181749D01*
X212064Y181490D01*
X212101Y181453D01*
X212194Y181361D01*
X212305Y181194D01*
X212453Y180972D01*
X212601Y180694D01*
X212712Y180379D01*
X212805Y180009D01*
X212842Y179620D01*
Y179583D01*
Y179491D01*
X212823Y179342D01*
X212786Y179157D01*
X212731Y178916D01*
X212638Y178676D01*
X212527Y178398D01*
X212360Y178102D01*
X209046Y172787D01*
X212397D01*
X212472Y172769D01*
X212583Y172713D01*
X212675Y172658D01*
X212768Y172565D01*
X212823Y172436D01*
X212842Y172250D01*
Y172232D01*
Y172176D01*
X212823Y172084D01*
X212768Y171991D01*
X212712Y171899D01*
X212620Y171806D01*
X212490Y171751D01*
X212305Y171732D01*
X208028D01*
X207935Y171769D01*
X207842Y171806D01*
X207731Y171862D01*
X207657Y171954D01*
X207583Y172084D01*
X207565Y172250D01*
Y172288D01*
X207583Y172343D01*
X207602Y172454D01*
X207657Y172547D01*
X211527Y178750D01*
X211546Y178768D01*
X211564Y178824D01*
X211601Y178916D01*
X211657Y179028D01*
X211712Y179157D01*
X211749Y179305D01*
X211768Y179454D01*
X211786Y179620D01*
Y179657D01*
Y179731D01*
X211768Y179861D01*
X211731Y180009D01*
X211675Y180194D01*
X211583Y180379D01*
X211472Y180564D01*
X211324Y180750D01*
X211305Y180768D01*
X211250Y180824D01*
X211138Y180898D01*
X211009Y180990D01*
X210842Y181064D01*
X210657Y181138D01*
X210435Y181194D01*
X210194Y181213D01*
X210157D01*
X210046Y181194D01*
X209879Y181138D01*
X209657Y181046D01*
X209527Y180972D01*
X209398Y180879D01*
X209268Y180787D01*
X209120Y180657D01*
X208972Y180490D01*
X208842Y180324D01*
X208694Y180120D01*
X208546Y179879D01*
Y179861D01*
X208528Y179842D01*
X208435Y179750D01*
X208305Y179657D01*
X208213Y179639D01*
X208102Y179620D01*
X208028D01*
X207935Y179657D01*
X207842Y179694D01*
X207731Y179750D01*
X207657Y179842D01*
X207583Y179972D01*
X207565Y180157D01*
Y180176D01*
Y180231D01*
X207583Y180287D01*
X207620Y180361D01*
X207639Y180379D01*
X207657Y180435D01*
X207713Y180546D01*
X207805Y180657D01*
X207898Y180805D01*
X208009Y180972D01*
X208157Y181138D01*
X208305Y181324D01*
X208491Y181490D01*
X208676Y181657D01*
X208898Y181824D01*
X209120Y181972D01*
X209361Y182101D01*
X209620Y182194D01*
X209898Y182250D01*
X210194Y182268D01*
X210305D01*
X210379Y182250D01*
D02*
G37*
G36*
X203010D02*
X203213Y182231D01*
X203472Y182175D01*
X203769Y182083D01*
X204083Y181935D01*
X204398Y181749D01*
X204695Y181490D01*
X204732Y181453D01*
X204824Y181361D01*
X204935Y181194D01*
X205083Y180972D01*
X205232Y180694D01*
X205343Y180379D01*
X205435Y180028D01*
X205472Y179620D01*
Y174361D01*
Y174343D01*
Y174306D01*
Y174250D01*
X205454Y174176D01*
X205435Y173973D01*
X205380Y173713D01*
X205287Y173417D01*
X205139Y173121D01*
X204954Y172787D01*
X204695Y172491D01*
X204658Y172454D01*
X204565Y172380D01*
X204398Y172250D01*
X204176Y172121D01*
X203898Y171973D01*
X203584Y171843D01*
X203213Y171769D01*
X202824Y171732D01*
X199603D01*
X199510Y171769D01*
X199417Y171806D01*
X199325Y171862D01*
X199232Y171954D01*
X199177Y172084D01*
X199158Y172250D01*
Y181731D01*
Y181749D01*
Y181824D01*
X199195Y181898D01*
X199232Y182009D01*
X199288Y182101D01*
X199380Y182194D01*
X199510Y182250D01*
X199677Y182268D01*
X202936D01*
X203010Y182250D01*
D02*
G37*
G36*
X196371Y234985D02*
X196482Y234929D01*
X196574Y234874D01*
X196667Y234781D01*
X196722Y234652D01*
X196741Y234466D01*
Y234448D01*
Y234411D01*
X196722Y234337D01*
X196704Y234263D01*
X196667Y234189D01*
X196630Y234115D01*
X196556Y234059D01*
X196463Y234022D01*
X196445D01*
X196408Y234004D01*
X196352Y233985D01*
X196259Y233967D01*
X196167Y233911D01*
X196056Y233874D01*
X195778Y233744D01*
X195445Y233541D01*
X195112Y233300D01*
X194760Y233004D01*
X194593Y232819D01*
X194426Y232615D01*
Y232596D01*
X194389Y232578D01*
X194315Y232467D01*
X194204Y232281D01*
X194075Y232059D01*
X193926Y231782D01*
X193797Y231485D01*
X193704Y231152D01*
X193630Y230800D01*
X195278D01*
X195352Y230782D01*
X195556Y230763D01*
X195815Y230708D01*
X196111Y230615D01*
X196426Y230467D01*
X196741Y230282D01*
X197037Y230023D01*
X197074Y229986D01*
X197148Y229893D01*
X197278Y229726D01*
X197426Y229504D01*
X197556Y229226D01*
X197685Y228911D01*
X197759Y228560D01*
X197796Y228152D01*
Y227115D01*
Y227097D01*
Y227060D01*
Y227004D01*
X197778Y226930D01*
X197759Y226726D01*
X197704Y226467D01*
X197611Y226171D01*
X197463Y225856D01*
X197278Y225541D01*
X197019Y225245D01*
X196982Y225208D01*
X196889Y225134D01*
X196722Y225005D01*
X196500Y224875D01*
X196222Y224727D01*
X195908Y224597D01*
X195556Y224523D01*
X195167Y224486D01*
X195056D01*
X194982Y224505D01*
X194778Y224523D01*
X194519Y224579D01*
X194223Y224671D01*
X193908Y224801D01*
X193593Y224986D01*
X193297Y225245D01*
X193260Y225282D01*
X193186Y225375D01*
X193056Y225541D01*
X192927Y225764D01*
X192778Y226023D01*
X192649Y226356D01*
X192575Y226708D01*
X192538Y227097D01*
Y230263D01*
Y230282D01*
Y230337D01*
Y230430D01*
X192556Y230560D01*
X192575Y230726D01*
X192593Y230893D01*
X192630Y231096D01*
X192686Y231319D01*
X192834Y231800D01*
X192927Y232059D01*
X193038Y232337D01*
X193167Y232596D01*
X193334Y232874D01*
X193519Y233133D01*
X193723Y233393D01*
X193741Y233411D01*
X193760Y233430D01*
X193815Y233485D01*
X193889Y233559D01*
X194075Y233744D01*
X194315Y233967D01*
X194611Y234207D01*
X194945Y234448D01*
X195315Y234689D01*
X195723Y234874D01*
X195741D01*
X195778Y234892D01*
X195834Y234911D01*
X195908Y234948D01*
X196056Y234985D01*
X196204Y235004D01*
X196297D01*
X196371Y234985D01*
D02*
G37*
G36*
X190056Y235004D02*
X190168Y234948D01*
X190260Y234892D01*
X190353Y234800D01*
X190408Y234670D01*
X190427Y234485D01*
Y234466D01*
Y234411D01*
X190408Y234318D01*
X190353Y234226D01*
X190297Y234133D01*
X190205Y234041D01*
X190075Y233985D01*
X189890Y233967D01*
X187686D01*
X187557Y233948D01*
X187409Y233911D01*
X187223Y233855D01*
X187038Y233763D01*
X186853Y233652D01*
X186668Y233504D01*
X186649Y233485D01*
X186594Y233430D01*
X186520Y233319D01*
X186446Y233189D01*
X186372Y233022D01*
X186298Y232837D01*
X186242Y232615D01*
X186224Y232374D01*
Y227115D01*
Y227078D01*
Y227004D01*
X186242Y226875D01*
X186279Y226726D01*
X186335Y226541D01*
X186409Y226356D01*
X186520Y226171D01*
X186668Y225986D01*
X186686Y225967D01*
X186761Y225912D01*
X186853Y225838D01*
X186983Y225764D01*
X187149Y225690D01*
X187334Y225616D01*
X187557Y225560D01*
X187797Y225541D01*
X189982D01*
X190056Y225523D01*
X190168Y225467D01*
X190260Y225412D01*
X190353Y225319D01*
X190408Y225190D01*
X190427Y225005D01*
Y224986D01*
Y224930D01*
X190408Y224838D01*
X190353Y224745D01*
X190297Y224653D01*
X190205Y224560D01*
X190075Y224505D01*
X189890Y224486D01*
X187686D01*
X187612Y224505D01*
X187409Y224523D01*
X187149Y224579D01*
X186853Y224671D01*
X186557Y224801D01*
X186224Y224986D01*
X185927Y225245D01*
X185890Y225282D01*
X185816Y225393D01*
X185686Y225541D01*
X185557Y225764D01*
X185409Y226041D01*
X185279Y226356D01*
X185205Y226726D01*
X185168Y227115D01*
Y232374D01*
Y232393D01*
Y232430D01*
Y232485D01*
X185187Y232559D01*
X185205Y232763D01*
X185261Y233022D01*
X185353Y233319D01*
X185483Y233633D01*
X185668Y233948D01*
X185927Y234244D01*
X185964Y234281D01*
X186075Y234374D01*
X186224Y234485D01*
X186446Y234633D01*
X186723Y234781D01*
X187038Y234892D01*
X187409Y234985D01*
X187797Y235022D01*
X189982D01*
X190056Y235004D01*
D02*
G37*
G36*
X264849Y264860D02*
X265053Y264842D01*
X265312Y264786D01*
X265608Y264694D01*
X265904Y264546D01*
X266238Y264360D01*
X266534Y264101D01*
X266571Y264064D01*
X266645Y263972D01*
X266775Y263805D01*
X266904Y263583D01*
X267052Y263305D01*
X267182Y262990D01*
X267256Y262620D01*
X267293Y262231D01*
Y260065D01*
X267256Y259972D01*
X267219Y259879D01*
X267163Y259768D01*
X267071Y259694D01*
X266941Y259620D01*
X266775Y259602D01*
X266756D01*
X266682D01*
X266608Y259639D01*
X266497Y259676D01*
X266404Y259731D01*
X266312Y259824D01*
X266256Y259953D01*
X266238Y260139D01*
Y262342D01*
X266219Y262472D01*
X266182Y262620D01*
X266126Y262805D01*
X266052Y262990D01*
X265941Y263175D01*
X265793Y263361D01*
X265775Y263379D01*
X265701Y263435D01*
X265608Y263509D01*
X265478Y263601D01*
X265312Y263675D01*
X265127Y263749D01*
X264904Y263805D01*
X264664Y263823D01*
X263627D01*
X263590D01*
X263516D01*
X263386Y263805D01*
X263238Y263768D01*
X263053Y263712D01*
X262868Y263620D01*
X262682Y263509D01*
X262497Y263361D01*
X262479Y263342D01*
X262423Y263286D01*
X262349Y263175D01*
X262257Y263046D01*
X262183Y262879D01*
X262108Y262694D01*
X262053Y262472D01*
X262034Y262231D01*
Y261101D01*
X261997Y261009D01*
X261960Y260916D01*
X261905Y260824D01*
X261812Y260731D01*
X261682Y260676D01*
X261516Y260657D01*
X261497D01*
X261423D01*
X261349Y260694D01*
X261238Y260731D01*
X261145Y260787D01*
X261053Y260879D01*
X260997Y261009D01*
X260979Y261176D01*
Y262342D01*
X260960Y262472D01*
X260923Y262620D01*
X260868Y262805D01*
X260794Y262990D01*
X260683Y263175D01*
X260534Y263361D01*
X260516Y263379D01*
X260442Y263435D01*
X260349Y263509D01*
X260220Y263601D01*
X260053Y263675D01*
X259868Y263749D01*
X259646Y263805D01*
X259405Y263823D01*
X259368D01*
X259294D01*
X259183Y263805D01*
X259016Y263768D01*
X258850Y263712D01*
X258664Y263620D01*
X258479Y263509D01*
X258294Y263361D01*
X258276Y263342D01*
X258220Y263286D01*
X258146Y263175D01*
X258053Y263046D01*
X257961Y262879D01*
X257887Y262694D01*
X257831Y262472D01*
X257812Y262231D01*
Y260065D01*
X257775Y259972D01*
X257738Y259879D01*
X257683Y259768D01*
X257590Y259694D01*
X257461Y259620D01*
X257294Y259602D01*
X257276D01*
X257201D01*
X257127Y259639D01*
X257016Y259676D01*
X256924Y259731D01*
X256831Y259824D01*
X256776Y259953D01*
X256757Y260139D01*
Y262342D01*
X256776Y262416D01*
X256794Y262620D01*
X256850Y262879D01*
X256942Y263175D01*
X257090Y263490D01*
X257276Y263805D01*
X257535Y264101D01*
X257572Y264138D01*
X257664Y264231D01*
X257831Y264342D01*
X258053Y264490D01*
X258331Y264638D01*
X258646Y264749D01*
X259016Y264842D01*
X259405Y264879D01*
X259424D01*
X259461D01*
X259535D01*
X259627Y264860D01*
X259738Y264842D01*
X259868Y264823D01*
X260164Y264749D01*
X260497Y264620D01*
X260664Y264546D01*
X260849Y264435D01*
X261016Y264305D01*
X261201Y264175D01*
X261368Y264009D01*
X261516Y263823D01*
Y263842D01*
X261553Y263860D01*
X261590Y263916D01*
X261664Y263990D01*
X261831Y264157D01*
X262071Y264360D01*
X262386Y264546D01*
X262738Y264712D01*
X262942Y264786D01*
X263164Y264842D01*
X263386Y264860D01*
X263627Y264879D01*
X264664D01*
X264682D01*
X264719D01*
X264775D01*
X264849Y264860D01*
D02*
G37*
G36*
X266941Y257472D02*
X267034Y257435D01*
X267126Y257361D01*
X267219Y257269D01*
X267274Y257139D01*
X267293Y256972D01*
Y256917D01*
X267256Y256806D01*
X267201Y256658D01*
X267145Y256583D01*
X267071Y256528D01*
X262997Y253806D01*
X267071Y251084D01*
X267108Y251066D01*
X267182Y250973D01*
X267256Y250843D01*
X267274Y250751D01*
X267293Y250658D01*
Y250584D01*
X267256Y250492D01*
X267219Y250399D01*
X267163Y250288D01*
X267071Y250214D01*
X266941Y250140D01*
X266775Y250121D01*
X266737D01*
X266682Y250140D01*
X266571Y250158D01*
X266478Y250214D01*
X262034Y253176D01*
X257609Y250214D01*
X257590Y250195D01*
X257516Y250177D01*
X257424Y250140D01*
X257313Y250121D01*
X257294D01*
X257220D01*
X257146Y250158D01*
X257035Y250195D01*
X256942Y250251D01*
X256850Y250343D01*
X256794Y250473D01*
X256776Y250658D01*
Y250714D01*
X256813Y250825D01*
X256868Y250954D01*
X256942Y251028D01*
X257016Y251084D01*
X261090Y253806D01*
X257016Y256528D01*
X256998D01*
X256979Y256565D01*
X256887Y256639D01*
X256813Y256787D01*
X256794Y256861D01*
X256776Y256972D01*
Y257046D01*
X256794Y257139D01*
X256850Y257232D01*
X256905Y257324D01*
X256998Y257417D01*
X257127Y257472D01*
X257313Y257491D01*
X257331D01*
X257405D01*
X257498Y257454D01*
X257609Y257417D01*
X262034Y254454D01*
X266478Y257417D01*
X266497Y257435D01*
X266571Y257454D01*
X266663Y257472D01*
X266775Y257491D01*
X266793D01*
X266849D01*
X266941Y257472D01*
D02*
G37*
G36*
X235820Y351250D02*
X235913Y351194D01*
X236005Y351138D01*
X236098Y351046D01*
X236154Y350916D01*
X236172Y350731D01*
Y350713D01*
Y350657D01*
X236154Y350564D01*
X236117Y350472D01*
X236042Y350379D01*
X235950Y350287D01*
X235820Y350231D01*
X235654Y350213D01*
X232506D01*
Y347046D01*
X234191D01*
X234265Y347028D01*
X234469Y347009D01*
X234728Y346954D01*
X235006Y346861D01*
X235320Y346713D01*
X235635Y346528D01*
X235931Y346269D01*
X235968Y346231D01*
X236061Y346139D01*
X236172Y345972D01*
X236320Y345750D01*
X236468Y345472D01*
X236579Y345158D01*
X236672Y344787D01*
X236709Y344398D01*
Y343361D01*
Y343343D01*
Y343306D01*
Y343250D01*
X236691Y343176D01*
X236672Y342972D01*
X236616Y342713D01*
X236524Y342417D01*
X236376Y342121D01*
X236191Y341787D01*
X235931Y341491D01*
X235894Y341454D01*
X235802Y341380D01*
X235635Y341250D01*
X235413Y341121D01*
X235135Y340973D01*
X234820Y340843D01*
X234469Y340769D01*
X234080Y340732D01*
X231895D01*
X231802Y340769D01*
X231710Y340806D01*
X231617Y340862D01*
X231525Y340954D01*
X231469Y341084D01*
X231450Y341250D01*
Y341269D01*
Y341343D01*
X231487Y341417D01*
X231525Y341528D01*
X231580Y341621D01*
X231673Y341713D01*
X231802Y341769D01*
X231969Y341787D01*
X234172D01*
X234302Y341806D01*
X234450Y341843D01*
X234635Y341899D01*
X234820Y341973D01*
X235006Y342084D01*
X235191Y342232D01*
X235209Y342250D01*
X235265Y342324D01*
X235339Y342417D01*
X235431Y342547D01*
X235506Y342713D01*
X235580Y342898D01*
X235635Y343121D01*
X235654Y343361D01*
Y344398D01*
Y344435D01*
Y344509D01*
X235635Y344639D01*
X235598Y344787D01*
X235543Y344972D01*
X235450Y345158D01*
X235339Y345343D01*
X235191Y345528D01*
X235172Y345546D01*
X235117Y345602D01*
X235006Y345676D01*
X234876Y345769D01*
X234709Y345843D01*
X234524Y345917D01*
X234302Y345972D01*
X234061Y345991D01*
X231895D01*
X231802Y346028D01*
X231710Y346065D01*
X231617Y346120D01*
X231525Y346213D01*
X231469Y346343D01*
X231450Y346509D01*
Y350731D01*
Y350750D01*
Y350824D01*
X231487Y350898D01*
X231525Y351009D01*
X231580Y351101D01*
X231673Y351194D01*
X231802Y351250D01*
X231969Y351268D01*
X235728D01*
X235820Y351250D01*
D02*
G37*
G36*
X228969D02*
X229080Y351194D01*
X229173Y351138D01*
X229265Y351046D01*
X229321Y350916D01*
X229340Y350731D01*
Y350713D01*
Y350657D01*
X229321Y350564D01*
X229265Y350472D01*
X229210Y350379D01*
X229117Y350287D01*
X228988Y350231D01*
X228803Y350213D01*
X226599D01*
X226469Y350194D01*
X226321Y350157D01*
X226136Y350101D01*
X225951Y350009D01*
X225766Y349898D01*
X225581Y349750D01*
X225562Y349731D01*
X225507Y349676D01*
X225432Y349565D01*
X225358Y349435D01*
X225284Y349268D01*
X225210Y349083D01*
X225155Y348861D01*
X225136Y348620D01*
Y343361D01*
Y343324D01*
Y343250D01*
X225155Y343121D01*
X225192Y342972D01*
X225247Y342787D01*
X225321Y342602D01*
X225432Y342417D01*
X225581Y342232D01*
X225599Y342213D01*
X225673Y342158D01*
X225766Y342084D01*
X225895Y342010D01*
X226062Y341936D01*
X226247Y341861D01*
X226469Y341806D01*
X226710Y341787D01*
X228895D01*
X228969Y341769D01*
X229080Y341713D01*
X229173Y341658D01*
X229265Y341565D01*
X229321Y341436D01*
X229340Y341250D01*
Y341232D01*
Y341176D01*
X229321Y341084D01*
X229265Y340991D01*
X229210Y340899D01*
X229117Y340806D01*
X228988Y340751D01*
X228803Y340732D01*
X226599D01*
X226525Y340751D01*
X226321Y340769D01*
X226062Y340825D01*
X225766Y340917D01*
X225469Y341047D01*
X225136Y341232D01*
X224840Y341491D01*
X224803Y341528D01*
X224729Y341639D01*
X224599Y341787D01*
X224470Y342010D01*
X224321Y342287D01*
X224192Y342602D01*
X224118Y342972D01*
X224081Y343361D01*
Y348620D01*
Y348639D01*
Y348676D01*
Y348731D01*
X224099Y348805D01*
X224118Y349009D01*
X224173Y349268D01*
X224266Y349565D01*
X224396Y349879D01*
X224581Y350194D01*
X224840Y350490D01*
X224877Y350527D01*
X224988Y350620D01*
X225136Y350731D01*
X225358Y350879D01*
X225636Y351027D01*
X225951Y351138D01*
X226321Y351231D01*
X226710Y351268D01*
X228895D01*
X228969Y351250D01*
D02*
G37*
G36*
X166776Y281231D02*
X166869Y281175D01*
X166961Y281120D01*
X167054Y281027D01*
X167110Y280898D01*
X167128Y280713D01*
Y280694D01*
Y280657D01*
X167110Y280546D01*
X163962Y271121D01*
Y271102D01*
X163943Y271065D01*
X163851Y270936D01*
X163777Y270862D01*
X163684Y270788D01*
X163573Y270751D01*
X163443Y270732D01*
X163388D01*
X163314Y270751D01*
X163240Y270788D01*
X163147Y270825D01*
X163073Y270899D01*
X162999Y270991D01*
X162925Y271121D01*
X159796Y280546D01*
Y280564D01*
X159777Y280601D01*
X159759Y280713D01*
Y280731D01*
Y280805D01*
X159796Y280879D01*
X159833Y280990D01*
X159888Y281083D01*
X159981Y281175D01*
X160110Y281231D01*
X160296Y281250D01*
X160351D01*
X160425Y281231D01*
X160499Y281212D01*
X160573Y281157D01*
X160666Y281101D01*
X160740Y281009D01*
X160795Y280879D01*
X163443Y272917D01*
X166110Y280879D01*
Y280898D01*
X166128Y280935D01*
X166221Y281064D01*
X166276Y281138D01*
X166369Y281194D01*
X166480Y281231D01*
X166610Y281250D01*
X166684D01*
X166776Y281231D01*
D02*
G37*
G36*
X180479Y281250D02*
X180682Y281231D01*
X180942Y281175D01*
X181238Y281083D01*
X181553Y280935D01*
X181867Y280749D01*
X182164Y280490D01*
X182201Y280453D01*
X182293Y280361D01*
X182404Y280194D01*
X182553Y279972D01*
X182701Y279694D01*
X182812Y279379D01*
X182904Y279009D01*
X182941Y278620D01*
Y278583D01*
Y278491D01*
X182923Y278342D01*
X182886Y278157D01*
X182830Y277917D01*
X182738Y277676D01*
X182627Y277398D01*
X182460Y277102D01*
X179146Y271787D01*
X182497D01*
X182571Y271769D01*
X182682Y271713D01*
X182775Y271658D01*
X182867Y271565D01*
X182923Y271436D01*
X182941Y271250D01*
Y271232D01*
Y271176D01*
X182923Y271084D01*
X182867Y270991D01*
X182812Y270899D01*
X182719Y270806D01*
X182590Y270751D01*
X182404Y270732D01*
X178127D01*
X178034Y270769D01*
X177942Y270806D01*
X177831Y270862D01*
X177757Y270954D01*
X177683Y271084D01*
X177664Y271250D01*
Y271287D01*
X177683Y271343D01*
X177701Y271454D01*
X177757Y271547D01*
X181627Y277750D01*
X181645Y277768D01*
X181664Y277824D01*
X181701Y277917D01*
X181756Y278028D01*
X181812Y278157D01*
X181849Y278305D01*
X181867Y278454D01*
X181886Y278620D01*
Y278657D01*
Y278731D01*
X181867Y278861D01*
X181830Y279009D01*
X181775Y279194D01*
X181682Y279379D01*
X181571Y279564D01*
X181423Y279750D01*
X181404Y279768D01*
X181349Y279824D01*
X181238Y279898D01*
X181108Y279990D01*
X180942Y280064D01*
X180756Y280138D01*
X180534Y280194D01*
X180294Y280212D01*
X180257D01*
X180145Y280194D01*
X179979Y280138D01*
X179757Y280046D01*
X179627Y279972D01*
X179497Y279879D01*
X179368Y279787D01*
X179219Y279657D01*
X179071Y279490D01*
X178942Y279324D01*
X178794Y279120D01*
X178645Y278879D01*
Y278861D01*
X178627Y278842D01*
X178534Y278750D01*
X178405Y278657D01*
X178312Y278639D01*
X178201Y278620D01*
X178127D01*
X178034Y278657D01*
X177942Y278694D01*
X177831Y278750D01*
X177757Y278842D01*
X177683Y278972D01*
X177664Y279157D01*
Y279176D01*
Y279231D01*
X177683Y279287D01*
X177720Y279361D01*
X177738Y279379D01*
X177757Y279435D01*
X177812Y279546D01*
X177905Y279657D01*
X177997Y279805D01*
X178109Y279972D01*
X178257Y280138D01*
X178405Y280324D01*
X178590Y280490D01*
X178775Y280657D01*
X178997Y280824D01*
X179219Y280972D01*
X179460Y281101D01*
X179720Y281194D01*
X179997Y281250D01*
X180294Y281268D01*
X180405D01*
X180479Y281250D01*
D02*
G37*
G36*
X175201D02*
X175312Y281194D01*
X175405Y281138D01*
X175498Y281046D01*
X175553Y280916D01*
X175572Y280731D01*
Y280713D01*
Y280657D01*
X175553Y280564D01*
X175498Y280472D01*
X175442Y280379D01*
X175350Y280287D01*
X175220Y280231D01*
X175035Y280212D01*
X172942D01*
Y271250D01*
Y271232D01*
Y271176D01*
X172924Y271084D01*
X172868Y270991D01*
X172813Y270899D01*
X172720Y270806D01*
X172591Y270751D01*
X172405Y270732D01*
X172331D01*
X172239Y270769D01*
X172146Y270806D01*
X172054Y270862D01*
X171961Y270954D01*
X171905Y271084D01*
X171887Y271250D01*
Y280212D01*
X169702D01*
X169609Y280250D01*
X169517Y280287D01*
X169406Y280342D01*
X169332Y280435D01*
X169258Y280564D01*
X169239Y280731D01*
Y280749D01*
Y280824D01*
X169276Y280898D01*
X169313Y281009D01*
X169369Y281101D01*
X169461Y281194D01*
X169591Y281250D01*
X169776Y281268D01*
X175127D01*
X175201Y281250D01*
D02*
G37*
G36*
X123899Y281231D02*
X123991Y281175D01*
X124084Y281120D01*
X124176Y281027D01*
X124232Y280898D01*
X124250Y280713D01*
Y280694D01*
Y280657D01*
X124232Y280546D01*
X121084Y271121D01*
Y271102D01*
X121066Y271065D01*
X120973Y270936D01*
X120899Y270862D01*
X120806Y270788D01*
X120695Y270751D01*
X120566Y270732D01*
X120510D01*
X120436Y270751D01*
X120362Y270788D01*
X120269Y270825D01*
X120195Y270899D01*
X120121Y270991D01*
X120047Y271121D01*
X116918Y280546D01*
Y280564D01*
X116899Y280601D01*
X116881Y280713D01*
Y280731D01*
Y280805D01*
X116918Y280879D01*
X116955Y280990D01*
X117010Y281083D01*
X117103Y281175D01*
X117233Y281231D01*
X117418Y281250D01*
X117473D01*
X117548Y281231D01*
X117621Y281212D01*
X117696Y281157D01*
X117788Y281101D01*
X117862Y281009D01*
X117918Y280879D01*
X120566Y272917D01*
X123232Y280879D01*
Y280898D01*
X123251Y280935D01*
X123343Y281064D01*
X123399Y281138D01*
X123491Y281194D01*
X123602Y281231D01*
X123732Y281250D01*
X123806D01*
X123899Y281231D01*
D02*
G37*
G36*
X137601D02*
X137694Y281175D01*
X137786Y281120D01*
X137879Y281027D01*
X137934Y280898D01*
X137953Y280713D01*
Y280694D01*
Y280676D01*
X137934Y280564D01*
X136009Y273898D01*
X138490D01*
Y275472D01*
Y275491D01*
Y275546D01*
X138527Y275639D01*
X138564Y275732D01*
X138619Y275824D01*
X138712Y275917D01*
X138842Y275972D01*
X139008Y275991D01*
X139101D01*
X139175Y275972D01*
X139286Y275935D01*
X139378Y275861D01*
X139471Y275769D01*
X139527Y275639D01*
X139545Y275472D01*
Y273898D01*
X140675D01*
X140749Y273880D01*
X140860Y273824D01*
X140952Y273769D01*
X141045Y273676D01*
X141101Y273547D01*
X141119Y273361D01*
Y273343D01*
Y273287D01*
X141101Y273195D01*
X141045Y273102D01*
X140990Y273010D01*
X140897Y272917D01*
X140767Y272861D01*
X140582Y272843D01*
X139545D01*
Y271250D01*
Y271232D01*
Y271176D01*
X139527Y271084D01*
X139471Y270991D01*
X139416Y270899D01*
X139323Y270806D01*
X139193Y270751D01*
X139008Y270732D01*
X138934D01*
X138842Y270769D01*
X138749Y270806D01*
X138656Y270862D01*
X138564Y270954D01*
X138508Y271084D01*
X138490Y271250D01*
Y272843D01*
X135249D01*
X135157Y272880D01*
X135064Y272917D01*
X134972Y272973D01*
X134879Y273065D01*
X134824Y273195D01*
X134805Y273361D01*
Y273380D01*
Y273417D01*
Y273510D01*
X136916Y280861D01*
Y280879D01*
X136934Y280916D01*
X136971Y280990D01*
X137027Y281064D01*
X137101Y281120D01*
X137175Y281194D01*
X137305Y281231D01*
X137434Y281250D01*
X137508D01*
X137601Y281231D01*
D02*
G37*
G36*
X132324Y281250D02*
X132435Y281194D01*
X132527Y281138D01*
X132620Y281046D01*
X132676Y280916D01*
X132694Y280731D01*
Y280713D01*
Y280657D01*
X132676Y280564D01*
X132620Y280472D01*
X132564Y280379D01*
X132472Y280287D01*
X132342Y280231D01*
X132157Y280212D01*
X130065D01*
Y271250D01*
Y271232D01*
Y271176D01*
X130046Y271084D01*
X129991Y270991D01*
X129935Y270899D01*
X129843Y270806D01*
X129713Y270751D01*
X129528Y270732D01*
X129454D01*
X129361Y270769D01*
X129269Y270806D01*
X129176Y270862D01*
X129083Y270954D01*
X129028Y271084D01*
X129009Y271250D01*
Y280212D01*
X126824D01*
X126732Y280250D01*
X126639Y280287D01*
X126528Y280342D01*
X126454Y280435D01*
X126380Y280564D01*
X126361Y280731D01*
Y280749D01*
Y280824D01*
X126398Y280898D01*
X126435Y281009D01*
X126491Y281101D01*
X126584Y281194D01*
X126713Y281250D01*
X126898Y281268D01*
X132250D01*
X132324Y281250D01*
D02*
G37*
G36*
X83249Y281231D02*
X83342Y281175D01*
X83435Y281120D01*
X83527Y281027D01*
X83583Y280898D01*
X83601Y280713D01*
Y280694D01*
Y280657D01*
X83583Y280546D01*
X80435Y271121D01*
Y271102D01*
X80416Y271065D01*
X80324Y270936D01*
X80250Y270862D01*
X80157Y270788D01*
X80046Y270751D01*
X79916Y270732D01*
X79861D01*
X79787Y270751D01*
X79713Y270788D01*
X79620Y270825D01*
X79546Y270899D01*
X79472Y270991D01*
X79398Y271121D01*
X76269Y280546D01*
Y280564D01*
X76250Y280601D01*
X76232Y280713D01*
Y280731D01*
Y280805D01*
X76269Y280879D01*
X76306Y280990D01*
X76361Y281083D01*
X76454Y281175D01*
X76583Y281231D01*
X76769Y281250D01*
X76824D01*
X76898Y281231D01*
X76972Y281212D01*
X77046Y281157D01*
X77139Y281101D01*
X77213Y281009D01*
X77269Y280879D01*
X79916Y272917D01*
X82583Y280879D01*
Y280898D01*
X82601Y280935D01*
X82694Y281064D01*
X82750Y281138D01*
X82842Y281194D01*
X82953Y281231D01*
X83083Y281250D01*
X83157D01*
X83249Y281231D01*
D02*
G37*
G36*
X97989D02*
X98100Y281175D01*
X98192Y281120D01*
X98285Y281027D01*
X98340Y280898D01*
X98359Y280713D01*
Y280694D01*
Y280657D01*
X98340Y280583D01*
X98322Y280509D01*
X98285Y280435D01*
X98248Y280361D01*
X98174Y280305D01*
X98081Y280268D01*
X98063D01*
X98026Y280250D01*
X97970Y280231D01*
X97878Y280212D01*
X97785Y280157D01*
X97674Y280120D01*
X97396Y279990D01*
X97063Y279787D01*
X96729Y279546D01*
X96378Y279250D01*
X96211Y279065D01*
X96044Y278861D01*
Y278842D01*
X96007Y278824D01*
X95933Y278713D01*
X95822Y278528D01*
X95693Y278305D01*
X95544Y278028D01*
X95415Y277731D01*
X95322Y277398D01*
X95248Y277046D01*
X96896D01*
X96970Y277028D01*
X97174Y277009D01*
X97433Y276954D01*
X97729Y276861D01*
X98044Y276713D01*
X98359Y276528D01*
X98655Y276269D01*
X98692Y276231D01*
X98766Y276139D01*
X98896Y275972D01*
X99044Y275750D01*
X99174Y275472D01*
X99303Y275158D01*
X99377Y274806D01*
X99414Y274398D01*
Y273361D01*
Y273343D01*
Y273306D01*
Y273250D01*
X99396Y273176D01*
X99377Y272973D01*
X99322Y272713D01*
X99229Y272417D01*
X99081Y272102D01*
X98896Y271787D01*
X98637Y271491D01*
X98600Y271454D01*
X98507Y271380D01*
X98340Y271250D01*
X98118Y271121D01*
X97840Y270973D01*
X97526Y270843D01*
X97174Y270769D01*
X96785Y270732D01*
X96674D01*
X96600Y270751D01*
X96396Y270769D01*
X96137Y270825D01*
X95841Y270917D01*
X95526Y271047D01*
X95211Y271232D01*
X94915Y271491D01*
X94878Y271528D01*
X94804Y271621D01*
X94674Y271787D01*
X94544Y272010D01*
X94396Y272269D01*
X94267Y272602D01*
X94193Y272954D01*
X94156Y273343D01*
Y276509D01*
Y276528D01*
Y276583D01*
Y276676D01*
X94174Y276805D01*
X94193Y276972D01*
X94211Y277139D01*
X94248Y277342D01*
X94304Y277565D01*
X94452Y278046D01*
X94544Y278305D01*
X94656Y278583D01*
X94785Y278842D01*
X94952Y279120D01*
X95137Y279379D01*
X95341Y279639D01*
X95359Y279657D01*
X95378Y279676D01*
X95433Y279731D01*
X95507Y279805D01*
X95693Y279990D01*
X95933Y280212D01*
X96230Y280453D01*
X96563Y280694D01*
X96933Y280935D01*
X97340Y281120D01*
X97359D01*
X97396Y281138D01*
X97452Y281157D01*
X97526Y281194D01*
X97674Y281231D01*
X97822Y281250D01*
X97915D01*
X97989Y281231D01*
D02*
G37*
G36*
X91674Y281250D02*
X91786Y281194D01*
X91878Y281138D01*
X91971Y281046D01*
X92026Y280916D01*
X92045Y280731D01*
Y280713D01*
Y280657D01*
X92026Y280564D01*
X91971Y280472D01*
X91915Y280379D01*
X91823Y280287D01*
X91693Y280231D01*
X91508Y280212D01*
X89415D01*
Y271250D01*
Y271232D01*
Y271176D01*
X89397Y271084D01*
X89341Y270991D01*
X89286Y270899D01*
X89193Y270806D01*
X89064Y270751D01*
X88878Y270732D01*
X88804D01*
X88712Y270769D01*
X88619Y270806D01*
X88527Y270862D01*
X88434Y270954D01*
X88378Y271084D01*
X88360Y271250D01*
Y280212D01*
X86175D01*
X86082Y280250D01*
X85990Y280287D01*
X85879Y280342D01*
X85805Y280435D01*
X85731Y280564D01*
X85712Y280731D01*
Y280749D01*
Y280824D01*
X85749Y280898D01*
X85786Y281009D01*
X85842Y281101D01*
X85934Y281194D01*
X86064Y281250D01*
X86249Y281268D01*
X91600D01*
X91674Y281250D01*
D02*
G37*
G36*
X38216Y281231D02*
X38309Y281175D01*
X38401Y281120D01*
X38494Y281027D01*
X38550Y280898D01*
X38568Y280713D01*
Y280694D01*
Y280657D01*
X38550Y280546D01*
X35402Y271121D01*
Y271102D01*
X35383Y271065D01*
X35291Y270936D01*
X35217Y270862D01*
X35124Y270788D01*
X35013Y270751D01*
X34883Y270732D01*
X34828D01*
X34754Y270751D01*
X34680Y270788D01*
X34587Y270825D01*
X34513Y270899D01*
X34439Y270991D01*
X34365Y271121D01*
X31235Y280546D01*
Y280564D01*
X31217Y280601D01*
X31198Y280713D01*
Y280731D01*
Y280805D01*
X31235Y280879D01*
X31272Y280990D01*
X31328Y281083D01*
X31421Y281175D01*
X31550Y281231D01*
X31735Y281250D01*
X31791D01*
X31865Y281231D01*
X31939Y281212D01*
X32013Y281157D01*
X32106Y281101D01*
X32180Y281009D01*
X32235Y280879D01*
X34883Y272917D01*
X37550Y280879D01*
Y280898D01*
X37568Y280935D01*
X37661Y281064D01*
X37716Y281138D01*
X37809Y281194D01*
X37920Y281231D01*
X38050Y281250D01*
X38124D01*
X38216Y281231D01*
D02*
G37*
G36*
X51937D02*
X52141Y281212D01*
X52382Y281157D01*
X52678Y281064D01*
X52993Y280916D01*
X53307Y280731D01*
X53604Y280472D01*
X53641Y280435D01*
X53733Y280342D01*
X53844Y280175D01*
X53992Y279953D01*
X54141Y279676D01*
X54252Y279361D01*
X54344Y279009D01*
X54381Y278620D01*
Y278602D01*
Y278565D01*
Y278491D01*
X54363Y278398D01*
X54344Y278287D01*
X54326Y278157D01*
X54252Y277861D01*
X54122Y277528D01*
X54048Y277361D01*
X53937Y277176D01*
X53807Y277009D01*
X53678Y276824D01*
X53511Y276657D01*
X53326Y276509D01*
X53363Y276491D01*
X53455Y276398D01*
X53585Y276287D01*
X53733Y276120D01*
X53900Y275917D01*
X54048Y275676D01*
X54196Y275398D01*
X54289Y275102D01*
Y275083D01*
X54307Y275009D01*
X54326Y274898D01*
X54344Y274732D01*
Y274491D01*
X54363Y274195D01*
X54381Y274009D01*
Y273806D01*
Y273602D01*
Y273361D01*
Y273343D01*
Y273306D01*
Y273250D01*
X54363Y273176D01*
X54344Y272973D01*
X54289Y272713D01*
X54196Y272417D01*
X54048Y272121D01*
X53863Y271787D01*
X53604Y271491D01*
X53566Y271454D01*
X53474Y271380D01*
X53307Y271250D01*
X53085Y271121D01*
X52807Y270973D01*
X52493Y270843D01*
X52141Y270769D01*
X51752Y270732D01*
X51641D01*
X51567Y270751D01*
X51363Y270769D01*
X51104Y270825D01*
X50807Y270917D01*
X50511Y271047D01*
X50178Y271232D01*
X49882Y271491D01*
X49845Y271528D01*
X49771Y271639D01*
X49641Y271787D01*
X49511Y272010D01*
X49363Y272287D01*
X49234Y272602D01*
X49160Y272973D01*
X49123Y273361D01*
Y274398D01*
Y274417D01*
Y274454D01*
Y274528D01*
X49141Y274620D01*
X49160Y274732D01*
X49178Y274861D01*
X49252Y275158D01*
X49382Y275491D01*
X49474Y275676D01*
X49567Y275843D01*
X49696Y276028D01*
X49826Y276194D01*
X49993Y276361D01*
X50178Y276509D01*
X50160Y276528D01*
X50141Y276546D01*
X50085Y276583D01*
X50011Y276657D01*
X49845Y276824D01*
X49660Y277065D01*
X49456Y277379D01*
X49289Y277731D01*
X49215Y277935D01*
X49160Y278157D01*
X49141Y278379D01*
X49123Y278620D01*
Y278639D01*
Y278676D01*
Y278731D01*
X49141Y278805D01*
X49160Y279009D01*
X49215Y279250D01*
X49308Y279546D01*
X49437Y279861D01*
X49623Y280175D01*
X49882Y280472D01*
X49919Y280509D01*
X50030Y280601D01*
X50178Y280713D01*
X50400Y280861D01*
X50678Y281009D01*
X50993Y281120D01*
X51363Y281212D01*
X51752Y281250D01*
X51863D01*
X51937Y281231D01*
D02*
G37*
G36*
X46641Y281250D02*
X46752Y281194D01*
X46845Y281138D01*
X46938Y281046D01*
X46993Y280916D01*
X47012Y280731D01*
Y280713D01*
Y280657D01*
X46993Y280564D01*
X46938Y280472D01*
X46882Y280379D01*
X46789Y280287D01*
X46660Y280231D01*
X46475Y280212D01*
X44382D01*
Y271250D01*
Y271232D01*
Y271176D01*
X44364Y271084D01*
X44308Y270991D01*
X44253Y270899D01*
X44160Y270806D01*
X44030Y270751D01*
X43845Y270732D01*
X43771D01*
X43679Y270769D01*
X43586Y270806D01*
X43493Y270862D01*
X43401Y270954D01*
X43345Y271084D01*
X43327Y271250D01*
Y280212D01*
X41142D01*
X41049Y280250D01*
X40957Y280287D01*
X40846Y280342D01*
X40771Y280435D01*
X40697Y280564D01*
X40679Y280731D01*
Y280749D01*
Y280824D01*
X40716Y280898D01*
X40753Y281009D01*
X40809Y281101D01*
X40901Y281194D01*
X41031Y281250D01*
X41216Y281268D01*
X46567D01*
X46641Y281250D01*
D02*
G37*
G36*
X139916Y251980D02*
X140009Y251925D01*
X140101Y251869D01*
X140194Y251777D01*
X140249Y251647D01*
X140268Y251462D01*
Y251388D01*
X140231Y251295D01*
X140194Y251203D01*
X140138Y251110D01*
X140046Y251018D01*
X139916Y250962D01*
X139749Y250944D01*
X131547D01*
X132769Y249721D01*
X132787Y249703D01*
X132843Y249629D01*
X132898Y249499D01*
X132917Y249351D01*
Y249277D01*
X132880Y249184D01*
X132843Y249092D01*
X132787Y248999D01*
X132695Y248907D01*
X132565Y248851D01*
X132398Y248833D01*
X132380D01*
X132361D01*
X132269Y248851D01*
X132139Y248888D01*
X132028Y248981D01*
X129973Y251036D01*
X129954Y251055D01*
X129936Y251073D01*
X129862Y251166D01*
X129788Y251295D01*
X129750Y251388D01*
Y251555D01*
X129769Y251629D01*
X129825Y251740D01*
X129880Y251832D01*
X129973Y251925D01*
X130102Y251980D01*
X130288Y251999D01*
X139749D01*
X139768D01*
X139824D01*
X139916Y251980D01*
D02*
G37*
G36*
Y246722D02*
X140009Y246666D01*
X140101Y246611D01*
X140194Y246518D01*
X140249Y246388D01*
X140268Y246203D01*
Y246148D01*
X140249Y246092D01*
X140231Y246018D01*
X140157Y245870D01*
X140101Y245796D01*
X140009Y245740D01*
X132306Y241482D01*
X139749D01*
X139768D01*
X139824D01*
X139916Y241463D01*
X140009Y241408D01*
X140101Y241352D01*
X140194Y241259D01*
X140249Y241130D01*
X140268Y240945D01*
Y240870D01*
X140231Y240778D01*
X140194Y240685D01*
X140138Y240593D01*
X140046Y240500D01*
X139916Y240445D01*
X139749Y240426D01*
X130288D01*
X130269D01*
X130195D01*
X130121Y240463D01*
X130010Y240500D01*
X129917Y240556D01*
X129825Y240648D01*
X129769Y240778D01*
X129750Y240945D01*
Y241000D01*
X129769Y241056D01*
X129788Y241130D01*
X129825Y241204D01*
X129880Y241296D01*
X129954Y241371D01*
X130065Y241444D01*
X137713Y245685D01*
X130288D01*
X130269D01*
X130195D01*
X130121Y245722D01*
X130010Y245759D01*
X129917Y245814D01*
X129825Y245907D01*
X129769Y246037D01*
X129750Y246203D01*
Y246296D01*
X129769Y246370D01*
X129825Y246481D01*
X129880Y246574D01*
X129973Y246666D01*
X130102Y246722D01*
X130288Y246740D01*
X139749D01*
X139768D01*
X139824D01*
X139916Y246722D01*
D02*
G37*
G36*
X139879Y238297D02*
X139990Y238241D01*
X140120Y238149D01*
X140138Y238111D01*
X140194Y238037D01*
X140249Y237926D01*
X140268Y237778D01*
Y237723D01*
X140249Y237667D01*
X140231Y237593D01*
X140194Y237519D01*
X140157Y237445D01*
X140083Y237371D01*
X139990Y237315D01*
X136065Y235353D01*
Y233057D01*
X139749D01*
X139768D01*
X139824D01*
X139916Y233038D01*
X140009Y232982D01*
X140101Y232927D01*
X140194Y232834D01*
X140249Y232705D01*
X140268Y232519D01*
Y232446D01*
X140231Y232353D01*
X140194Y232260D01*
X140138Y232168D01*
X140046Y232075D01*
X139916Y232020D01*
X139749Y232001D01*
X130269D01*
X130251D01*
X130176D01*
X130102Y232038D01*
X129991Y232075D01*
X129899Y232131D01*
X129806Y232223D01*
X129750Y232353D01*
X129732Y232519D01*
Y235278D01*
X129750Y235371D01*
Y235482D01*
X129788Y235612D01*
X129843Y235927D01*
X129954Y236278D01*
X130121Y236649D01*
X130232Y236834D01*
X130343Y237019D01*
X130491Y237204D01*
X130658Y237389D01*
X130676Y237408D01*
X130695Y237426D01*
X130750Y237482D01*
X130824Y237537D01*
X130917Y237612D01*
X131028Y237686D01*
X131287Y237852D01*
X131602Y238019D01*
X131991Y238167D01*
X132417Y238278D01*
X132658Y238297D01*
X132898Y238315D01*
X132917D01*
X132991D01*
X133102Y238297D01*
X133250Y238278D01*
X133435Y238260D01*
X133621Y238223D01*
X133843Y238149D01*
X134083Y238074D01*
X134324Y237982D01*
X134583Y237852D01*
X134824Y237704D01*
X135065Y237519D01*
X135287Y237297D01*
X135491Y237038D01*
X135676Y236741D01*
X135843Y236408D01*
X139509Y238260D01*
X139527Y238278D01*
X139583Y238297D01*
X139657Y238315D01*
X139749D01*
X139787D01*
X139879Y238297D01*
D02*
G37*
G36*
X139916Y213036D02*
X140009Y212980D01*
X140101Y212925D01*
X140194Y212832D01*
X140249Y212703D01*
X140268Y212518D01*
Y208240D01*
X140231Y208148D01*
X140194Y208055D01*
X140138Y207944D01*
X140046Y207870D01*
X139916Y207796D01*
X139749Y207777D01*
X139712D01*
X139657Y207796D01*
X139546Y207814D01*
X139453Y207870D01*
X133250Y211740D01*
X133232Y211758D01*
X133176Y211777D01*
X133083Y211814D01*
X132972Y211869D01*
X132843Y211925D01*
X132695Y211962D01*
X132547Y211980D01*
X132380Y211999D01*
X132343D01*
X132269D01*
X132139Y211980D01*
X131991Y211943D01*
X131806Y211888D01*
X131621Y211795D01*
X131435Y211684D01*
X131250Y211536D01*
X131232Y211518D01*
X131176Y211462D01*
X131102Y211351D01*
X131010Y211221D01*
X130936Y211055D01*
X130862Y210870D01*
X130806Y210647D01*
X130787Y210407D01*
Y210369D01*
X130806Y210258D01*
X130862Y210092D01*
X130954Y209870D01*
X131028Y209740D01*
X131121Y209610D01*
X131213Y209481D01*
X131343Y209333D01*
X131510Y209184D01*
X131676Y209055D01*
X131880Y208907D01*
X132121Y208759D01*
X132139D01*
X132158Y208740D01*
X132250Y208647D01*
X132343Y208518D01*
X132361Y208425D01*
X132380Y208314D01*
Y208240D01*
X132343Y208148D01*
X132306Y208055D01*
X132250Y207944D01*
X132158Y207870D01*
X132028Y207796D01*
X131843Y207777D01*
X131824D01*
X131769D01*
X131713Y207796D01*
X131639Y207833D01*
X131621Y207851D01*
X131565Y207870D01*
X131454Y207925D01*
X131343Y208018D01*
X131195Y208111D01*
X131028Y208222D01*
X130862Y208370D01*
X130676Y208518D01*
X130510Y208703D01*
X130343Y208888D01*
X130176Y209110D01*
X130028Y209333D01*
X129899Y209573D01*
X129806Y209832D01*
X129750Y210110D01*
X129732Y210407D01*
Y210518D01*
X129750Y210592D01*
X129769Y210795D01*
X129825Y211055D01*
X129917Y211351D01*
X130065Y211666D01*
X130251Y211980D01*
X130510Y212277D01*
X130547Y212314D01*
X130639Y212406D01*
X130806Y212518D01*
X131028Y212666D01*
X131306Y212814D01*
X131621Y212925D01*
X131991Y213017D01*
X132380Y213054D01*
X132417D01*
X132509D01*
X132658Y213036D01*
X132843Y212999D01*
X133083Y212943D01*
X133324Y212851D01*
X133602Y212740D01*
X133898Y212573D01*
X139213Y209258D01*
Y212610D01*
X139231Y212684D01*
X139287Y212795D01*
X139342Y212888D01*
X139435Y212980D01*
X139564Y213036D01*
X139749Y213054D01*
X139768D01*
X139824D01*
X139916Y213036D01*
D02*
G37*
G36*
Y205666D02*
X140009Y205611D01*
X140101Y205555D01*
X140194Y205463D01*
X140249Y205333D01*
X140268Y205148D01*
Y205092D01*
X140249Y205037D01*
X140231Y204963D01*
X140157Y204815D01*
X140101Y204741D01*
X140009Y204685D01*
X132306Y200426D01*
X139749D01*
X139768D01*
X139824D01*
X139916Y200408D01*
X140009Y200352D01*
X140101Y200296D01*
X140194Y200204D01*
X140249Y200074D01*
X140268Y199889D01*
Y199815D01*
X140231Y199722D01*
X140194Y199630D01*
X140138Y199537D01*
X140046Y199445D01*
X139916Y199389D01*
X139749Y199371D01*
X130288D01*
X130269D01*
X130195D01*
X130121Y199408D01*
X130010Y199445D01*
X129917Y199500D01*
X129825Y199593D01*
X129769Y199722D01*
X129750Y199889D01*
Y199945D01*
X129769Y200000D01*
X129788Y200074D01*
X129825Y200148D01*
X129880Y200241D01*
X129954Y200315D01*
X130065Y200389D01*
X137713Y204629D01*
X130288D01*
X130269D01*
X130195D01*
X130121Y204666D01*
X130010Y204704D01*
X129917Y204759D01*
X129825Y204852D01*
X129769Y204981D01*
X129750Y205148D01*
Y205240D01*
X129769Y205315D01*
X129825Y205426D01*
X129880Y205518D01*
X129973Y205611D01*
X130102Y205666D01*
X130288Y205685D01*
X139749D01*
X139768D01*
X139824D01*
X139916Y205666D01*
D02*
G37*
G36*
X139879Y197241D02*
X139990Y197186D01*
X140120Y197093D01*
X140138Y197056D01*
X140194Y196982D01*
X140249Y196871D01*
X140268Y196723D01*
Y196667D01*
X140249Y196612D01*
X140231Y196538D01*
X140194Y196464D01*
X140157Y196390D01*
X140083Y196315D01*
X139990Y196260D01*
X136065Y194297D01*
Y192001D01*
X139749D01*
X139768D01*
X139824D01*
X139916Y191982D01*
X140009Y191927D01*
X140101Y191871D01*
X140194Y191779D01*
X140249Y191649D01*
X140268Y191464D01*
Y191390D01*
X140231Y191297D01*
X140194Y191205D01*
X140138Y191112D01*
X140046Y191020D01*
X139916Y190964D01*
X139749Y190946D01*
X130269D01*
X130251D01*
X130176D01*
X130102Y190983D01*
X129991Y191020D01*
X129899Y191075D01*
X129806Y191168D01*
X129750Y191297D01*
X129732Y191464D01*
Y194223D01*
X129750Y194316D01*
Y194427D01*
X129788Y194556D01*
X129843Y194871D01*
X129954Y195223D01*
X130121Y195593D01*
X130232Y195779D01*
X130343Y195964D01*
X130491Y196149D01*
X130658Y196334D01*
X130676Y196353D01*
X130695Y196371D01*
X130750Y196427D01*
X130824Y196482D01*
X130917Y196556D01*
X131028Y196630D01*
X131287Y196797D01*
X131602Y196964D01*
X131991Y197112D01*
X132417Y197223D01*
X132658Y197241D01*
X132898Y197260D01*
X132917D01*
X132991D01*
X133102Y197241D01*
X133250Y197223D01*
X133435Y197204D01*
X133621Y197167D01*
X133843Y197093D01*
X134083Y197019D01*
X134324Y196926D01*
X134583Y196797D01*
X134824Y196649D01*
X135065Y196464D01*
X135287Y196241D01*
X135491Y195982D01*
X135676Y195686D01*
X135843Y195353D01*
X139509Y197204D01*
X139527Y197223D01*
X139583Y197241D01*
X139657Y197260D01*
X139749D01*
X139787D01*
X139879Y197241D01*
D02*
G37*
G36*
X11925Y154721D02*
X12018Y154665D01*
X12110Y154610D01*
X12203Y154517D01*
X12258Y154388D01*
X12277Y154202D01*
Y154184D01*
Y154110D01*
X12240Y154017D01*
X12203Y153906D01*
X9240Y149481D01*
X12203Y145037D01*
X12221Y145018D01*
X12240Y144944D01*
X12258Y144852D01*
X12277Y144740D01*
Y144722D01*
Y144666D01*
X12258Y144574D01*
X12221Y144481D01*
X12147Y144389D01*
X12055Y144296D01*
X11925Y144241D01*
X11759Y144222D01*
X11703D01*
X11592Y144259D01*
X11444Y144315D01*
X11370Y144370D01*
X11314Y144444D01*
X8592Y148518D01*
X5870Y144444D01*
X5852Y144407D01*
X5759Y144333D01*
X5630Y144259D01*
X5537Y144241D01*
X5444Y144222D01*
X5370D01*
X5278Y144259D01*
X5185Y144296D01*
X5074Y144352D01*
X5000Y144444D01*
X4926Y144574D01*
X4908Y144740D01*
Y144777D01*
X4926Y144833D01*
X4945Y144944D01*
X5000Y145037D01*
X7963Y149481D01*
X5000Y153906D01*
X4981Y153925D01*
X4963Y153999D01*
X4926Y154091D01*
X4908Y154202D01*
Y154221D01*
Y154295D01*
X4945Y154369D01*
X4981Y154480D01*
X5037Y154573D01*
X5130Y154665D01*
X5259Y154721D01*
X5444Y154739D01*
X5500D01*
X5611Y154702D01*
X5741Y154647D01*
X5815Y154573D01*
X5870Y154499D01*
X8592Y150425D01*
X11314Y154499D01*
Y154517D01*
X11351Y154536D01*
X11425Y154628D01*
X11573Y154702D01*
X11647Y154721D01*
X11759Y154739D01*
X11833D01*
X11925Y154721D01*
D02*
G37*
G36*
X17203D02*
X17295Y154665D01*
X17388Y154610D01*
X17480Y154517D01*
X17536Y154388D01*
X17554Y154202D01*
Y154184D01*
Y154165D01*
X17536Y154054D01*
X15610Y147388D01*
X18091D01*
Y148962D01*
Y148981D01*
Y149036D01*
X18128Y149129D01*
X18165Y149221D01*
X18221Y149314D01*
X18313Y149407D01*
X18443Y149462D01*
X18610Y149481D01*
X18702D01*
X18776Y149462D01*
X18887Y149425D01*
X18980Y149351D01*
X19073Y149258D01*
X19128Y149129D01*
X19147Y148962D01*
Y147388D01*
X20276D01*
X20350Y147370D01*
X20461Y147314D01*
X20554Y147259D01*
X20647Y147166D01*
X20702Y147037D01*
X20721Y146851D01*
Y146833D01*
Y146777D01*
X20702Y146685D01*
X20647Y146592D01*
X20591Y146500D01*
X20498Y146407D01*
X20369Y146351D01*
X20184Y146333D01*
X19147D01*
Y144740D01*
Y144722D01*
Y144666D01*
X19128Y144574D01*
X19073Y144481D01*
X19017Y144389D01*
X18924Y144296D01*
X18795Y144241D01*
X18610Y144222D01*
X18536D01*
X18443Y144259D01*
X18350Y144296D01*
X18258Y144352D01*
X18165Y144444D01*
X18110Y144574D01*
X18091Y144740D01*
Y146333D01*
X14851D01*
X14758Y146370D01*
X14666Y146407D01*
X14573Y146462D01*
X14481Y146555D01*
X14425Y146685D01*
X14406Y146851D01*
Y146870D01*
Y146907D01*
Y147000D01*
X16517Y154351D01*
Y154369D01*
X16536Y154406D01*
X16573Y154480D01*
X16629Y154554D01*
X16703Y154610D01*
X16777Y154684D01*
X16906Y154721D01*
X17036Y154739D01*
X17110D01*
X17203Y154721D01*
D02*
G37*
G36*
X90519Y171509D02*
X90723Y171491D01*
X90982Y171435D01*
X91278Y171343D01*
X91593Y171195D01*
X91908Y171009D01*
X92204Y170750D01*
X92241Y170713D01*
X92334Y170621D01*
X92445Y170454D01*
X92593Y170232D01*
X92741Y169954D01*
X92852Y169639D01*
X92945Y169269D01*
X92982Y168880D01*
Y168862D01*
Y168825D01*
Y168750D01*
X92963Y168658D01*
X92945Y168547D01*
X92926Y168417D01*
X92852Y168121D01*
X92723Y167787D01*
X92649Y167621D01*
X92537Y167436D01*
X92408Y167269D01*
X92278Y167084D01*
X92112Y166917D01*
X91926Y166769D01*
X91945D01*
X91964Y166732D01*
X92019Y166695D01*
X92093Y166621D01*
X92260Y166454D01*
X92463Y166214D01*
X92649Y165899D01*
X92815Y165547D01*
X92889Y165343D01*
X92945Y165121D01*
X92963Y164899D01*
X92982Y164658D01*
Y163621D01*
Y163603D01*
Y163566D01*
Y163510D01*
X92963Y163436D01*
X92945Y163232D01*
X92889Y162973D01*
X92797Y162677D01*
X92649Y162381D01*
X92463Y162047D01*
X92204Y161751D01*
X92167Y161714D01*
X92075Y161640D01*
X91908Y161510D01*
X91686Y161381D01*
X91408Y161233D01*
X91093Y161103D01*
X90723Y161029D01*
X90334Y160992D01*
X88168D01*
X88075Y161029D01*
X87982Y161066D01*
X87871Y161122D01*
X87797Y161214D01*
X87723Y161344D01*
X87705Y161510D01*
Y161529D01*
Y161603D01*
X87742Y161677D01*
X87779Y161788D01*
X87834Y161881D01*
X87927Y161973D01*
X88056Y162029D01*
X88242Y162047D01*
X90445D01*
X90575Y162066D01*
X90723Y162103D01*
X90908Y162159D01*
X91093Y162232D01*
X91278Y162344D01*
X91463Y162492D01*
X91482Y162510D01*
X91538Y162584D01*
X91612Y162677D01*
X91704Y162807D01*
X91778Y162973D01*
X91852Y163158D01*
X91908Y163381D01*
X91926Y163621D01*
Y164658D01*
Y164695D01*
Y164769D01*
X91908Y164899D01*
X91871Y165047D01*
X91815Y165232D01*
X91723Y165417D01*
X91612Y165603D01*
X91463Y165788D01*
X91445Y165806D01*
X91390Y165862D01*
X91278Y165936D01*
X91149Y166028D01*
X90982Y166103D01*
X90797Y166177D01*
X90575Y166232D01*
X90334Y166251D01*
X89205D01*
X89112Y166288D01*
X89019Y166325D01*
X88927Y166380D01*
X88834Y166473D01*
X88779Y166602D01*
X88760Y166769D01*
Y166788D01*
Y166862D01*
X88797Y166936D01*
X88834Y167047D01*
X88890Y167139D01*
X88982Y167232D01*
X89112Y167288D01*
X89279Y167306D01*
X90445D01*
X90575Y167325D01*
X90723Y167362D01*
X90908Y167417D01*
X91093Y167491D01*
X91278Y167602D01*
X91463Y167750D01*
X91482Y167769D01*
X91538Y167843D01*
X91612Y167936D01*
X91704Y168065D01*
X91778Y168232D01*
X91852Y168417D01*
X91908Y168639D01*
X91926Y168880D01*
Y168917D01*
Y168991D01*
X91908Y169102D01*
X91871Y169269D01*
X91815Y169436D01*
X91723Y169621D01*
X91612Y169806D01*
X91463Y169991D01*
X91445Y170009D01*
X91390Y170065D01*
X91278Y170139D01*
X91149Y170232D01*
X90982Y170324D01*
X90797Y170398D01*
X90575Y170454D01*
X90334Y170472D01*
X88168D01*
X88075Y170509D01*
X87982Y170546D01*
X87871Y170602D01*
X87797Y170695D01*
X87723Y170824D01*
X87705Y170991D01*
Y171009D01*
Y171084D01*
X87742Y171157D01*
X87779Y171269D01*
X87834Y171361D01*
X87927Y171454D01*
X88056Y171509D01*
X88242Y171528D01*
X90445D01*
X90519Y171509D01*
D02*
G37*
G36*
X82668D02*
X82779D01*
X82909Y171472D01*
X83224Y171417D01*
X83575Y171306D01*
X83946Y171139D01*
X84131Y171028D01*
X84316Y170917D01*
X84501Y170769D01*
X84686Y170602D01*
X84705Y170583D01*
X84724Y170565D01*
X84779Y170509D01*
X84835Y170435D01*
X84909Y170343D01*
X84983Y170232D01*
X85149Y169972D01*
X85316Y169658D01*
X85464Y169269D01*
X85575Y168843D01*
X85594Y168602D01*
X85612Y168361D01*
Y168343D01*
Y168269D01*
X85594Y168158D01*
X85575Y168010D01*
X85557Y167825D01*
X85520Y167639D01*
X85446Y167417D01*
X85372Y167176D01*
X85279Y166936D01*
X85149Y166677D01*
X85001Y166436D01*
X84816Y166195D01*
X84594Y165973D01*
X84335Y165769D01*
X84038Y165584D01*
X83705Y165417D01*
X85557Y161751D01*
X85575Y161733D01*
X85594Y161677D01*
X85612Y161603D01*
Y161510D01*
Y161473D01*
X85594Y161381D01*
X85538Y161270D01*
X85446Y161140D01*
X85409Y161122D01*
X85335Y161066D01*
X85224Y161010D01*
X85075Y160992D01*
X85020D01*
X84964Y161010D01*
X84890Y161029D01*
X84816Y161066D01*
X84742Y161103D01*
X84668Y161177D01*
X84612Y161270D01*
X82650Y165195D01*
X80354D01*
Y161510D01*
Y161492D01*
Y161436D01*
X80335Y161344D01*
X80280Y161251D01*
X80224Y161159D01*
X80131Y161066D01*
X80002Y161010D01*
X79817Y160992D01*
X79742D01*
X79650Y161029D01*
X79557Y161066D01*
X79465Y161122D01*
X79372Y161214D01*
X79317Y161344D01*
X79298Y161510D01*
Y170991D01*
Y171009D01*
Y171084D01*
X79335Y171157D01*
X79372Y171269D01*
X79428Y171361D01*
X79520Y171454D01*
X79650Y171509D01*
X79817Y171528D01*
X82576D01*
X82668Y171509D01*
D02*
G37*
G36*
X49656Y171370D02*
X49859Y171352D01*
X50119Y171296D01*
X50415Y171204D01*
X50730Y171056D01*
X51045Y170870D01*
X51341Y170611D01*
X51378Y170574D01*
X51470Y170482D01*
X51582Y170315D01*
X51730Y170093D01*
X51878Y169815D01*
X51989Y169500D01*
X52081Y169130D01*
X52119Y168741D01*
Y168704D01*
Y168612D01*
X52100Y168463D01*
X52063Y168278D01*
X52007Y168037D01*
X51915Y167797D01*
X51804Y167519D01*
X51637Y167223D01*
X48323Y161908D01*
X51674D01*
X51748Y161890D01*
X51859Y161834D01*
X51952Y161779D01*
X52045Y161686D01*
X52100Y161557D01*
X52119Y161371D01*
Y161353D01*
Y161297D01*
X52100Y161205D01*
X52045Y161112D01*
X51989Y161020D01*
X51896Y160927D01*
X51767Y160872D01*
X51582Y160853D01*
X47304D01*
X47212Y160890D01*
X47119Y160927D01*
X47008Y160983D01*
X46934Y161075D01*
X46860Y161205D01*
X46841Y161371D01*
Y161409D01*
X46860Y161464D01*
X46878Y161575D01*
X46934Y161668D01*
X50804Y167871D01*
X50822Y167889D01*
X50841Y167945D01*
X50878Y168037D01*
X50933Y168149D01*
X50989Y168278D01*
X51026Y168426D01*
X51045Y168574D01*
X51063Y168741D01*
Y168778D01*
Y168852D01*
X51045Y168982D01*
X51007Y169130D01*
X50952Y169315D01*
X50859Y169500D01*
X50748Y169685D01*
X50600Y169871D01*
X50582Y169889D01*
X50526Y169945D01*
X50415Y170019D01*
X50285Y170111D01*
X50119Y170185D01*
X49934Y170259D01*
X49711Y170315D01*
X49471Y170333D01*
X49434D01*
X49323Y170315D01*
X49156Y170259D01*
X48934Y170167D01*
X48804Y170093D01*
X48675Y170000D01*
X48545Y169908D01*
X48397Y169778D01*
X48249Y169611D01*
X48119Y169445D01*
X47971Y169241D01*
X47823Y169000D01*
Y168982D01*
X47804Y168963D01*
X47712Y168871D01*
X47582Y168778D01*
X47489Y168760D01*
X47378Y168741D01*
X47304D01*
X47212Y168778D01*
X47119Y168815D01*
X47008Y168871D01*
X46934Y168963D01*
X46860Y169093D01*
X46841Y169278D01*
Y169297D01*
Y169352D01*
X46860Y169408D01*
X46897Y169482D01*
X46915Y169500D01*
X46934Y169556D01*
X46989Y169667D01*
X47082Y169778D01*
X47175Y169926D01*
X47286Y170093D01*
X47434Y170259D01*
X47582Y170445D01*
X47767Y170611D01*
X47952Y170778D01*
X48175Y170945D01*
X48397Y171093D01*
X48637Y171222D01*
X48897Y171315D01*
X49174Y171370D01*
X49471Y171389D01*
X49582D01*
X49656Y171370D01*
D02*
G37*
G36*
X41805D02*
X41916D01*
X42045Y171333D01*
X42360Y171278D01*
X42712Y171167D01*
X43082Y171000D01*
X43268Y170889D01*
X43453Y170778D01*
X43638Y170630D01*
X43823Y170463D01*
X43842Y170445D01*
X43860Y170426D01*
X43916Y170371D01*
X43971Y170296D01*
X44045Y170204D01*
X44119Y170093D01*
X44286Y169834D01*
X44453Y169519D01*
X44601Y169130D01*
X44712Y168704D01*
X44730Y168463D01*
X44749Y168223D01*
Y168204D01*
Y168130D01*
X44730Y168019D01*
X44712Y167871D01*
X44693Y167686D01*
X44656Y167500D01*
X44582Y167278D01*
X44508Y167038D01*
X44416Y166797D01*
X44286Y166538D01*
X44138Y166297D01*
X43953Y166056D01*
X43731Y165834D01*
X43471Y165630D01*
X43175Y165445D01*
X42842Y165278D01*
X44693Y161612D01*
X44712Y161594D01*
X44730Y161538D01*
X44749Y161464D01*
Y161371D01*
Y161334D01*
X44730Y161242D01*
X44675Y161131D01*
X44582Y161001D01*
X44545Y160983D01*
X44471Y160927D01*
X44360Y160872D01*
X44212Y160853D01*
X44156D01*
X44101Y160872D01*
X44027Y160890D01*
X43953Y160927D01*
X43879Y160964D01*
X43805Y161038D01*
X43749Y161131D01*
X41786Y165056D01*
X39490D01*
Y161371D01*
Y161353D01*
Y161297D01*
X39472Y161205D01*
X39416Y161112D01*
X39361Y161020D01*
X39268Y160927D01*
X39138Y160872D01*
X38953Y160853D01*
X38879D01*
X38787Y160890D01*
X38694Y160927D01*
X38601Y160983D01*
X38509Y161075D01*
X38453Y161205D01*
X38435Y161371D01*
Y170852D01*
Y170870D01*
Y170945D01*
X38472Y171019D01*
X38509Y171130D01*
X38564Y171222D01*
X38657Y171315D01*
X38787Y171370D01*
X38953Y171389D01*
X41712D01*
X41805Y171370D01*
D02*
G37*
G36*
X132577Y171357D02*
X132688Y171301D01*
X132780Y171246D01*
X132873Y171153D01*
X132928Y171024D01*
X132947Y170838D01*
Y161376D01*
Y161358D01*
Y161302D01*
X132928Y161210D01*
X132873Y161117D01*
X132817Y161025D01*
X132725Y160932D01*
X132595Y160877D01*
X132410Y160858D01*
X132336D01*
X132243Y160895D01*
X132151Y160932D01*
X132058Y160988D01*
X131966Y161080D01*
X131910Y161210D01*
X131891Y161376D01*
Y169579D01*
X130669Y168357D01*
X130651Y168339D01*
X130577Y168283D01*
X130447Y168228D01*
X130299Y168209D01*
X130225D01*
X130132Y168246D01*
X130040Y168283D01*
X129947Y168339D01*
X129855Y168431D01*
X129799Y168561D01*
X129781Y168728D01*
Y168746D01*
Y168765D01*
X129799Y168857D01*
X129836Y168987D01*
X129929Y169098D01*
X131984Y171153D01*
X132002Y171172D01*
X132021Y171190D01*
X132114Y171264D01*
X132243Y171338D01*
X132336Y171375D01*
X132502D01*
X132577Y171357D01*
D02*
G37*
G36*
X125225Y171375D02*
X125429Y171357D01*
X125688Y171301D01*
X125985Y171209D01*
X126299Y171061D01*
X126614Y170875D01*
X126910Y170616D01*
X126947Y170579D01*
X127040Y170487D01*
X127151Y170320D01*
X127299Y170098D01*
X127447Y169820D01*
X127558Y169505D01*
X127651Y169153D01*
X127688Y168746D01*
Y163487D01*
Y163469D01*
Y163432D01*
Y163376D01*
X127670Y163302D01*
X127651Y163099D01*
X127596Y162839D01*
X127503Y162543D01*
X127355Y162247D01*
X127170Y161913D01*
X126910Y161617D01*
X126873Y161580D01*
X126781Y161506D01*
X126614Y161376D01*
X126392Y161247D01*
X126114Y161099D01*
X125799Y160969D01*
X125429Y160895D01*
X125040Y160858D01*
X121818D01*
X121726Y160895D01*
X121633Y160932D01*
X121541Y160988D01*
X121448Y161080D01*
X121392Y161210D01*
X121374Y161376D01*
Y170857D01*
Y170875D01*
Y170949D01*
X121411Y171024D01*
X121448Y171135D01*
X121504Y171227D01*
X121596Y171320D01*
X121726Y171375D01*
X121892Y171394D01*
X125151D01*
X125225Y171375D01*
D02*
G37*
%LPC*%
G36*
X286511Y135644D02*
X286400D01*
X286270Y135625D01*
X286122Y135589D01*
X285937Y135533D01*
X285752Y135440D01*
X285566Y135329D01*
X285381Y135181D01*
X285363Y135163D01*
X285307Y135107D01*
X285233Y135014D01*
X285159Y134885D01*
X285085Y134718D01*
X285011Y134533D01*
X284955Y134311D01*
X284937Y134070D01*
Y134033D01*
Y133959D01*
X284955Y133829D01*
X284992Y133681D01*
X285048Y133496D01*
X285122Y133311D01*
X285233Y133126D01*
X285381Y132941D01*
X285400Y132922D01*
X285474Y132866D01*
X285566Y132793D01*
X285696Y132718D01*
X285863Y132644D01*
X286048Y132570D01*
X286270Y132515D01*
X286511Y132496D01*
X286622D01*
X286733Y132515D01*
X286900Y132552D01*
X287066Y132607D01*
X287251Y132681D01*
X287437Y132793D01*
X287622Y132941D01*
X287640Y132959D01*
X287696Y133033D01*
X287770Y133126D01*
X287862Y133255D01*
X287937Y133422D01*
X288011Y133607D01*
X288066Y133829D01*
X288085Y134070D01*
Y134107D01*
Y134181D01*
X288066Y134292D01*
X288029Y134459D01*
X287974Y134626D01*
X287881Y134811D01*
X287770Y134996D01*
X287622Y135181D01*
X287603Y135200D01*
X287548Y135255D01*
X287437Y135329D01*
X287307Y135422D01*
X287140Y135496D01*
X286955Y135570D01*
X286751Y135625D01*
X286511Y135644D01*
D02*
G37*
G36*
Y131441D02*
X286400D01*
X286270Y131422D01*
X286122Y131385D01*
X285937Y131330D01*
X285752Y131237D01*
X285566Y131126D01*
X285381Y130978D01*
X285363Y130959D01*
X285307Y130904D01*
X285233Y130793D01*
X285159Y130663D01*
X285085Y130496D01*
X285011Y130311D01*
X284955Y130108D01*
X284937Y129867D01*
Y128811D01*
Y128774D01*
Y128700D01*
X284955Y128571D01*
X284992Y128423D01*
X285048Y128237D01*
X285122Y128052D01*
X285233Y127867D01*
X285381Y127682D01*
X285400Y127663D01*
X285474Y127608D01*
X285566Y127534D01*
X285696Y127460D01*
X285863Y127386D01*
X286048Y127312D01*
X286270Y127256D01*
X286511Y127238D01*
X286622D01*
X286733Y127256D01*
X286900Y127293D01*
X287066Y127349D01*
X287251Y127423D01*
X287437Y127534D01*
X287622Y127682D01*
X287640Y127700D01*
X287696Y127774D01*
X287770Y127867D01*
X287862Y127997D01*
X287937Y128163D01*
X288011Y128349D01*
X288066Y128571D01*
X288085Y128811D01*
Y129867D01*
Y129904D01*
Y129978D01*
X288066Y130089D01*
X288029Y130256D01*
X287974Y130422D01*
X287881Y130608D01*
X287770Y130793D01*
X287622Y130978D01*
X287603Y130996D01*
X287548Y131052D01*
X287437Y131126D01*
X287307Y131219D01*
X287140Y131293D01*
X286955Y131367D01*
X286751Y131422D01*
X286511Y131441D01*
D02*
G37*
G36*
X103759Y93536D02*
X101130D01*
X101093D01*
X101019D01*
X100908Y93518D01*
X100741Y93480D01*
X100574Y93425D01*
X100389Y93332D01*
X100204Y93221D01*
X100019Y93073D01*
X100000Y93055D01*
X99945Y92999D01*
X99871Y92888D01*
X99778Y92758D01*
X99704Y92592D01*
X99630Y92407D01*
X99574Y92203D01*
X99556Y91962D01*
Y91851D01*
X99574Y91721D01*
X99612Y91573D01*
X99667Y91388D01*
X99760Y91203D01*
X99871Y91018D01*
X100019Y90833D01*
X100037Y90814D01*
X100093Y90758D01*
X100204Y90684D01*
X100334Y90610D01*
X100500Y90536D01*
X100685Y90462D01*
X100889Y90407D01*
X101130Y90388D01*
X102185D01*
X102222D01*
X102296D01*
X102426Y90407D01*
X102574Y90444D01*
X102759Y90499D01*
X102944Y90573D01*
X103130Y90684D01*
X103315Y90833D01*
X103333Y90851D01*
X103389Y90925D01*
X103463Y91018D01*
X103537Y91147D01*
X103611Y91314D01*
X103685Y91499D01*
X103741Y91721D01*
X103759Y91962D01*
Y93536D01*
D02*
G37*
G36*
X41021Y102665D02*
X41003D01*
X40965D01*
X40891D01*
X40799D01*
X40688D01*
X40540Y102647D01*
X40225Y102628D01*
X39836Y102591D01*
X39429Y102536D01*
X38984Y102462D01*
X38558Y102369D01*
X38540D01*
X38484Y102351D01*
X38392Y102332D01*
X38281Y102295D01*
X38151Y102239D01*
X38003Y102202D01*
X37670Y102054D01*
X37355Y101888D01*
X37207Y101777D01*
X37077Y101665D01*
X36966Y101536D01*
X36873Y101388D01*
X36818Y101258D01*
X36799Y101091D01*
Y101054D01*
X36818Y100943D01*
X36892Y100795D01*
X36947Y100703D01*
X37022Y100610D01*
X37114Y100499D01*
X37225Y100388D01*
X37373Y100277D01*
X37540Y100184D01*
X37744Y100073D01*
X37984Y99980D01*
X38244Y99888D01*
X38558Y99795D01*
X38577D01*
X38614Y99777D01*
X38670D01*
X38762Y99758D01*
X38873Y99740D01*
X39003Y99703D01*
X39318Y99666D01*
X39688Y99610D01*
X40095Y99555D01*
X40540Y99536D01*
X41021Y99517D01*
X41040D01*
X41077D01*
X41151D01*
X41243D01*
X41354D01*
X41484Y99536D01*
X41817Y99555D01*
X42188Y99592D01*
X42614Y99629D01*
X43039Y99703D01*
X43484Y99795D01*
X43502D01*
X43558Y99814D01*
X43650Y99832D01*
X43762Y99869D01*
X43891Y99925D01*
X44039Y99980D01*
X44354Y100110D01*
X44669Y100295D01*
X44817Y100406D01*
X44947Y100517D01*
X45058Y100647D01*
X45150Y100777D01*
X45206Y100925D01*
X45224Y101091D01*
Y101128D01*
X45187Y101240D01*
X45132Y101388D01*
X45076Y101480D01*
X45002Y101573D01*
X44910Y101684D01*
X44798Y101795D01*
X44650Y101888D01*
X44484Y101999D01*
X44299Y102091D01*
X44058Y102202D01*
X43799Y102295D01*
X43484Y102369D01*
X43465D01*
X43428Y102388D01*
X43373Y102406D01*
X43280Y102425D01*
X43169Y102443D01*
X43039Y102462D01*
X42743Y102517D01*
X42373Y102573D01*
X41947Y102628D01*
X41502Y102647D01*
X41021Y102665D01*
D02*
G37*
G36*
X58908Y61213D02*
X56815D01*
Y56991D01*
X58945D01*
X59056Y57009D01*
X59223Y57028D01*
X59426Y57065D01*
X59667Y57139D01*
X59908Y57250D01*
X60167Y57398D01*
X60408Y57602D01*
X60426Y57639D01*
X60500Y57713D01*
X60593Y57842D01*
X60722Y58028D01*
X60834Y58231D01*
X60926Y58491D01*
X61000Y58787D01*
X61019Y59102D01*
Y59120D01*
Y59139D01*
Y59250D01*
X60982Y59416D01*
X60945Y59620D01*
X60871Y59842D01*
X60760Y60101D01*
X60611Y60342D01*
X60408Y60583D01*
X60389Y60602D01*
X60297Y60676D01*
X60167Y60787D01*
X60000Y60898D01*
X59778Y61009D01*
X59519Y61120D01*
X59223Y61194D01*
X58908Y61213D01*
D02*
G37*
G36*
X81918D02*
X79826D01*
Y56991D01*
X81955D01*
X82066Y57009D01*
X82233Y57028D01*
X82437Y57065D01*
X82677Y57139D01*
X82918Y57250D01*
X83177Y57398D01*
X83418Y57602D01*
X83437Y57639D01*
X83511Y57713D01*
X83603Y57842D01*
X83733Y58028D01*
X83844Y58231D01*
X83937Y58491D01*
X84011Y58787D01*
X84029Y59102D01*
Y59120D01*
Y59139D01*
Y59250D01*
X83992Y59416D01*
X83955Y59620D01*
X83881Y59842D01*
X83770Y60101D01*
X83622Y60342D01*
X83418Y60583D01*
X83400Y60602D01*
X83307Y60676D01*
X83177Y60787D01*
X83011Y60898D01*
X82788Y61009D01*
X82529Y61120D01*
X82233Y61194D01*
X81918Y61213D01*
D02*
G37*
G36*
X118074Y65472D02*
X118056D01*
X118037D01*
X117926D01*
X117760Y65435D01*
X117556Y65398D01*
X117334Y65324D01*
X117074Y65213D01*
X116834Y65065D01*
X116593Y64861D01*
X116574Y64843D01*
X116501Y64750D01*
X116389Y64620D01*
X116278Y64454D01*
X116167Y64232D01*
X116056Y63972D01*
X115982Y63676D01*
X115963Y63361D01*
Y61269D01*
X120185D01*
Y63398D01*
X120167Y63509D01*
X120148Y63676D01*
X120111Y63880D01*
X120037Y64121D01*
X119926Y64361D01*
X119778Y64620D01*
X119574Y64861D01*
X119537Y64880D01*
X119463Y64954D01*
X119333Y65046D01*
X119148Y65176D01*
X118945Y65287D01*
X118685Y65380D01*
X118389Y65454D01*
X118074Y65472D01*
D02*
G37*
G36*
X154789Y51786D02*
X153733D01*
X153696D01*
X153622D01*
X153511Y51768D01*
X153344Y51731D01*
X153178Y51675D01*
X152992Y51583D01*
X152807Y51472D01*
X152622Y51323D01*
X152604Y51305D01*
X152548Y51249D01*
X152474Y51138D01*
X152381Y51009D01*
X152307Y50842D01*
X152233Y50657D01*
X152178Y50453D01*
X152159Y50212D01*
Y50101D01*
X152178Y49972D01*
X152215Y49824D01*
X152270Y49639D01*
X152363Y49453D01*
X152474Y49268D01*
X152622Y49083D01*
X152641Y49064D01*
X152696Y49009D01*
X152807Y48935D01*
X152937Y48861D01*
X153104Y48787D01*
X153289Y48713D01*
X153492Y48657D01*
X153733Y48639D01*
X154789D01*
X154826D01*
X154900D01*
X155029Y48657D01*
X155177Y48694D01*
X155363Y48750D01*
X155548Y48824D01*
X155733Y48935D01*
X155918Y49083D01*
X155937Y49102D01*
X155992Y49176D01*
X156066Y49268D01*
X156140Y49398D01*
X156214Y49564D01*
X156288Y49750D01*
X156344Y49972D01*
X156362Y50212D01*
Y50324D01*
X156344Y50435D01*
X156307Y50601D01*
X156251Y50768D01*
X156177Y50953D01*
X156066Y51138D01*
X155918Y51323D01*
X155900Y51342D01*
X155826Y51398D01*
X155733Y51472D01*
X155603Y51564D01*
X155437Y51638D01*
X155252Y51712D01*
X155029Y51768D01*
X154789Y51786D01*
D02*
G37*
G36*
X149530D02*
X149493D01*
X149419D01*
X149308Y51768D01*
X149141Y51731D01*
X148974Y51675D01*
X148789Y51583D01*
X148604Y51472D01*
X148419Y51323D01*
X148400Y51305D01*
X148345Y51249D01*
X148271Y51138D01*
X148178Y51009D01*
X148104Y50842D01*
X148030Y50657D01*
X147975Y50453D01*
X147956Y50212D01*
Y50101D01*
X147975Y49972D01*
X148012Y49824D01*
X148067Y49639D01*
X148160Y49453D01*
X148271Y49268D01*
X148419Y49083D01*
X148437Y49064D01*
X148493Y49009D01*
X148586Y48935D01*
X148715Y48861D01*
X148882Y48787D01*
X149067Y48713D01*
X149289Y48657D01*
X149530Y48639D01*
X149567D01*
X149641D01*
X149771Y48657D01*
X149919Y48694D01*
X150104Y48750D01*
X150289Y48824D01*
X150474Y48935D01*
X150659Y49083D01*
X150678Y49102D01*
X150733Y49176D01*
X150808Y49268D01*
X150882Y49398D01*
X150956Y49564D01*
X151030Y49750D01*
X151085Y49972D01*
X151104Y50212D01*
Y50324D01*
X151085Y50435D01*
X151048Y50601D01*
X150993Y50768D01*
X150919Y50953D01*
X150808Y51138D01*
X150659Y51323D01*
X150641Y51342D01*
X150567Y51398D01*
X150474Y51472D01*
X150345Y51564D01*
X150178Y51638D01*
X149993Y51712D01*
X149771Y51768D01*
X149530Y51786D01*
D02*
G37*
G36*
X150048Y44417D02*
X150030D01*
X150011D01*
X149900D01*
X149734Y44380D01*
X149530Y44343D01*
X149308Y44269D01*
X149048Y44158D01*
X148808Y44009D01*
X148567Y43806D01*
X148548Y43787D01*
X148474Y43695D01*
X148363Y43565D01*
X148252Y43398D01*
X148141Y43176D01*
X148030Y42917D01*
X147956Y42621D01*
X147937Y42306D01*
Y40214D01*
X152159D01*
Y42343D01*
X152141Y42454D01*
X152122Y42621D01*
X152085Y42824D01*
X152011Y43065D01*
X151900Y43306D01*
X151752Y43565D01*
X151548Y43806D01*
X151511Y43824D01*
X151437Y43898D01*
X151307Y43991D01*
X151122Y44121D01*
X150919Y44232D01*
X150659Y44324D01*
X150363Y44398D01*
X150048Y44417D01*
D02*
G37*
G36*
X172898Y28417D02*
X172880D01*
X172861D01*
X172750D01*
X172584Y28380D01*
X172380Y28343D01*
X172158Y28269D01*
X171898Y28158D01*
X171658Y28010D01*
X171417Y27806D01*
X171399Y27787D01*
X171324Y27695D01*
X171213Y27565D01*
X171102Y27398D01*
X170991Y27176D01*
X170880Y26917D01*
X170806Y26621D01*
X170788Y26306D01*
Y24214D01*
X175009D01*
Y26343D01*
X174991Y26454D01*
X174972Y26621D01*
X174935Y26824D01*
X174861Y27065D01*
X174750Y27306D01*
X174602Y27565D01*
X174398Y27806D01*
X174361Y27824D01*
X174287Y27898D01*
X174158Y27991D01*
X173972Y28121D01*
X173769Y28232D01*
X173509Y28324D01*
X173213Y28398D01*
X172898Y28417D01*
D02*
G37*
G36*
X222789Y49748D02*
X221752D01*
X221715D01*
X221641D01*
X221511Y49730D01*
X221363Y49693D01*
X221178Y49637D01*
X220993Y49545D01*
X220807Y49434D01*
X220622Y49285D01*
X220604Y49267D01*
X220548Y49211D01*
X220474Y49100D01*
X220381Y48971D01*
X220307Y48804D01*
X220233Y48619D01*
X220178Y48415D01*
X220159Y48175D01*
Y46601D01*
X222789D01*
X222826D01*
X222900D01*
X223029Y46619D01*
X223178Y46656D01*
X223363Y46712D01*
X223548Y46786D01*
X223733Y46897D01*
X223918Y47045D01*
X223937Y47063D01*
X223992Y47138D01*
X224066Y47230D01*
X224140Y47360D01*
X224214Y47526D01*
X224289Y47712D01*
X224344Y47934D01*
X224363Y48175D01*
Y48286D01*
X224344Y48397D01*
X224307Y48563D01*
X224251Y48730D01*
X224177Y48915D01*
X224066Y49100D01*
X223918Y49285D01*
X223900Y49304D01*
X223825Y49360D01*
X223733Y49434D01*
X223603Y49526D01*
X223437Y49600D01*
X223251Y49674D01*
X223029Y49730D01*
X222789Y49748D01*
D02*
G37*
G36*
X218048Y42379D02*
X218030D01*
X218011D01*
X217900D01*
X217734Y42342D01*
X217530Y42305D01*
X217308Y42231D01*
X217048Y42120D01*
X216808Y41971D01*
X216567Y41768D01*
X216549Y41749D01*
X216474Y41657D01*
X216363Y41527D01*
X216252Y41360D01*
X216141Y41138D01*
X216030Y40879D01*
X215956Y40583D01*
X215938Y40268D01*
Y38175D01*
X220159D01*
Y40305D01*
X220141Y40416D01*
X220122Y40583D01*
X220085Y40786D01*
X220011Y41027D01*
X219900Y41268D01*
X219752Y41527D01*
X219548Y41768D01*
X219511Y41786D01*
X219437Y41860D01*
X219307Y41953D01*
X219122Y42083D01*
X218919Y42194D01*
X218659Y42286D01*
X218363Y42360D01*
X218048Y42379D01*
D02*
G37*
G36*
X234824Y50212D02*
X232214D01*
Y41788D01*
X234935D01*
X235065Y41806D01*
X235213Y41843D01*
X235398Y41899D01*
X235584Y41973D01*
X235769Y42084D01*
X235954Y42232D01*
X235972Y42250D01*
X236028Y42325D01*
X236102Y42417D01*
X236195Y42547D01*
X236269Y42713D01*
X236343Y42899D01*
X236398Y43121D01*
X236417Y43361D01*
Y48620D01*
Y48657D01*
Y48731D01*
X236398Y48861D01*
X236361Y49009D01*
X236306Y49194D01*
X236213Y49379D01*
X236102Y49564D01*
X235954Y49750D01*
X235935Y49768D01*
X235880Y49824D01*
X235769Y49898D01*
X235639Y49990D01*
X235473Y50064D01*
X235287Y50139D01*
X235065Y50194D01*
X234824Y50212D01*
D02*
G37*
G36*
X202824Y181213D02*
X200214D01*
Y172787D01*
X202936D01*
X203065Y172806D01*
X203213Y172843D01*
X203398Y172899D01*
X203584Y172973D01*
X203769Y173084D01*
X203954Y173232D01*
X203972Y173250D01*
X204028Y173325D01*
X204102Y173417D01*
X204195Y173547D01*
X204269Y173713D01*
X204343Y173899D01*
X204398Y174121D01*
X204417Y174361D01*
Y179620D01*
Y179657D01*
Y179731D01*
X204398Y179861D01*
X204361Y180009D01*
X204306Y180194D01*
X204213Y180379D01*
X204102Y180564D01*
X203954Y180750D01*
X203935Y180768D01*
X203880Y180824D01*
X203769Y180898D01*
X203639Y180990D01*
X203472Y181064D01*
X203287Y181138D01*
X203065Y181194D01*
X202824Y181213D01*
D02*
G37*
G36*
X195167Y229745D02*
X193593D01*
Y227115D01*
Y227078D01*
Y227004D01*
X193612Y226875D01*
X193649Y226726D01*
X193704Y226541D01*
X193778Y226356D01*
X193889Y226171D01*
X194037Y225986D01*
X194056Y225967D01*
X194130Y225912D01*
X194223Y225838D01*
X194352Y225764D01*
X194519Y225690D01*
X194704Y225616D01*
X194926Y225560D01*
X195167Y225541D01*
X195278D01*
X195389Y225560D01*
X195556Y225597D01*
X195723Y225653D01*
X195908Y225727D01*
X196093Y225838D01*
X196278Y225986D01*
X196297Y226004D01*
X196352Y226078D01*
X196426Y226171D01*
X196519Y226301D01*
X196593Y226467D01*
X196667Y226653D01*
X196722Y226875D01*
X196741Y227115D01*
Y228152D01*
Y228189D01*
Y228263D01*
X196722Y228393D01*
X196685Y228541D01*
X196630Y228726D01*
X196537Y228911D01*
X196426Y229097D01*
X196278Y229282D01*
X196259Y229300D01*
X196204Y229356D01*
X196093Y229430D01*
X195963Y229523D01*
X195797Y229597D01*
X195611Y229671D01*
X195408Y229726D01*
X195167Y229745D01*
D02*
G37*
G36*
X96785Y275991D02*
X95211D01*
Y273361D01*
Y273324D01*
Y273250D01*
X95230Y273121D01*
X95267Y272973D01*
X95322Y272787D01*
X95396Y272602D01*
X95507Y272417D01*
X95655Y272232D01*
X95674Y272213D01*
X95748Y272158D01*
X95841Y272084D01*
X95970Y272010D01*
X96137Y271936D01*
X96322Y271862D01*
X96544Y271806D01*
X96785Y271787D01*
X96896D01*
X97007Y271806D01*
X97174Y271843D01*
X97340Y271899D01*
X97526Y271973D01*
X97711Y272084D01*
X97896Y272232D01*
X97915Y272250D01*
X97970Y272325D01*
X98044Y272417D01*
X98137Y272547D01*
X98211Y272713D01*
X98285Y272899D01*
X98340Y273121D01*
X98359Y273361D01*
Y274398D01*
Y274435D01*
Y274509D01*
X98340Y274639D01*
X98303Y274787D01*
X98248Y274972D01*
X98155Y275158D01*
X98044Y275343D01*
X97896Y275528D01*
X97878Y275546D01*
X97822Y275602D01*
X97711Y275676D01*
X97581Y275769D01*
X97415Y275843D01*
X97229Y275917D01*
X97026Y275972D01*
X96785Y275991D01*
D02*
G37*
G36*
X51752Y280194D02*
X51641D01*
X51511Y280175D01*
X51363Y280138D01*
X51178Y280083D01*
X50993Y279990D01*
X50807Y279879D01*
X50622Y279731D01*
X50604Y279713D01*
X50548Y279657D01*
X50474Y279564D01*
X50400Y279435D01*
X50326Y279268D01*
X50252Y279083D01*
X50196Y278861D01*
X50178Y278620D01*
Y278583D01*
Y278509D01*
X50196Y278379D01*
X50233Y278231D01*
X50289Y278046D01*
X50363Y277861D01*
X50474Y277676D01*
X50622Y277491D01*
X50641Y277472D01*
X50715Y277416D01*
X50807Y277342D01*
X50937Y277268D01*
X51104Y277194D01*
X51289Y277120D01*
X51511Y277065D01*
X51752Y277046D01*
X51863D01*
X51974Y277065D01*
X52141Y277102D01*
X52307Y277157D01*
X52493Y277231D01*
X52678Y277342D01*
X52863Y277491D01*
X52881Y277509D01*
X52937Y277583D01*
X53011Y277676D01*
X53104Y277805D01*
X53178Y277972D01*
X53252Y278157D01*
X53307Y278379D01*
X53326Y278620D01*
Y278657D01*
Y278731D01*
X53307Y278842D01*
X53270Y279009D01*
X53215Y279176D01*
X53122Y279361D01*
X53011Y279546D01*
X52863Y279731D01*
X52844Y279750D01*
X52789Y279805D01*
X52678Y279879D01*
X52548Y279972D01*
X52382Y280046D01*
X52196Y280120D01*
X51993Y280175D01*
X51752Y280194D01*
D02*
G37*
G36*
Y275991D02*
X51641D01*
X51511Y275972D01*
X51363Y275935D01*
X51178Y275880D01*
X50993Y275787D01*
X50807Y275676D01*
X50622Y275528D01*
X50604Y275509D01*
X50548Y275454D01*
X50474Y275343D01*
X50400Y275213D01*
X50326Y275046D01*
X50252Y274861D01*
X50196Y274658D01*
X50178Y274417D01*
Y273361D01*
Y273324D01*
Y273250D01*
X50196Y273121D01*
X50233Y272973D01*
X50289Y272787D01*
X50363Y272602D01*
X50474Y272417D01*
X50622Y272232D01*
X50641Y272213D01*
X50715Y272158D01*
X50807Y272084D01*
X50937Y272010D01*
X51104Y271936D01*
X51289Y271862D01*
X51511Y271806D01*
X51752Y271787D01*
X51863D01*
X51974Y271806D01*
X52141Y271843D01*
X52307Y271899D01*
X52493Y271973D01*
X52678Y272084D01*
X52863Y272232D01*
X52881Y272250D01*
X52937Y272325D01*
X53011Y272417D01*
X53104Y272547D01*
X53178Y272713D01*
X53252Y272899D01*
X53307Y273121D01*
X53326Y273361D01*
Y274417D01*
Y274454D01*
Y274528D01*
X53307Y274639D01*
X53270Y274806D01*
X53215Y274972D01*
X53122Y275158D01*
X53011Y275343D01*
X52863Y275528D01*
X52844Y275546D01*
X52789Y275602D01*
X52678Y275676D01*
X52548Y275769D01*
X52382Y275843D01*
X52196Y275917D01*
X51993Y275972D01*
X51752Y275991D01*
D02*
G37*
G36*
X132898Y237260D02*
X132880D01*
X132861D01*
X132750D01*
X132584Y237223D01*
X132380Y237186D01*
X132158Y237112D01*
X131898Y237001D01*
X131658Y236852D01*
X131417Y236649D01*
X131398Y236630D01*
X131324Y236538D01*
X131213Y236408D01*
X131102Y236241D01*
X130991Y236019D01*
X130880Y235760D01*
X130806Y235464D01*
X130787Y235149D01*
Y233057D01*
X135009D01*
Y235186D01*
X134991Y235297D01*
X134972Y235464D01*
X134935Y235667D01*
X134861Y235908D01*
X134750Y236149D01*
X134602Y236408D01*
X134398Y236649D01*
X134361Y236667D01*
X134287Y236741D01*
X134157Y236834D01*
X133972Y236964D01*
X133769Y237075D01*
X133509Y237167D01*
X133213Y237241D01*
X132898Y237260D01*
D02*
G37*
G36*
Y196204D02*
X132880D01*
X132861D01*
X132750D01*
X132584Y196167D01*
X132380Y196130D01*
X132158Y196056D01*
X131898Y195945D01*
X131658Y195797D01*
X131417Y195593D01*
X131398Y195575D01*
X131324Y195482D01*
X131213Y195353D01*
X131102Y195186D01*
X130991Y194964D01*
X130880Y194704D01*
X130806Y194408D01*
X130787Y194093D01*
Y192001D01*
X135009D01*
Y194130D01*
X134991Y194242D01*
X134972Y194408D01*
X134935Y194612D01*
X134861Y194853D01*
X134750Y195093D01*
X134602Y195353D01*
X134398Y195593D01*
X134361Y195612D01*
X134287Y195686D01*
X134157Y195779D01*
X133972Y195908D01*
X133769Y196019D01*
X133509Y196112D01*
X133213Y196186D01*
X132898Y196204D01*
D02*
G37*
G36*
X82446Y170472D02*
X80354D01*
Y166251D01*
X82483D01*
X82594Y166269D01*
X82761Y166288D01*
X82964Y166325D01*
X83205Y166399D01*
X83446Y166510D01*
X83705Y166658D01*
X83946Y166862D01*
X83964Y166899D01*
X84038Y166973D01*
X84131Y167102D01*
X84261Y167288D01*
X84372Y167491D01*
X84464Y167750D01*
X84538Y168047D01*
X84557Y168361D01*
Y168380D01*
Y168399D01*
Y168510D01*
X84520Y168676D01*
X84483Y168880D01*
X84409Y169102D01*
X84298Y169361D01*
X84150Y169602D01*
X83946Y169843D01*
X83927Y169861D01*
X83835Y169935D01*
X83705Y170047D01*
X83538Y170158D01*
X83316Y170269D01*
X83057Y170380D01*
X82761Y170454D01*
X82446Y170472D01*
D02*
G37*
G36*
X41583Y170333D02*
X39490D01*
Y166112D01*
X41620D01*
X41731Y166130D01*
X41897Y166149D01*
X42101Y166186D01*
X42342Y166260D01*
X42583Y166371D01*
X42842Y166519D01*
X43082Y166723D01*
X43101Y166760D01*
X43175Y166834D01*
X43268Y166964D01*
X43397Y167149D01*
X43508Y167352D01*
X43601Y167612D01*
X43675Y167908D01*
X43693Y168223D01*
Y168241D01*
Y168260D01*
Y168371D01*
X43657Y168537D01*
X43619Y168741D01*
X43545Y168963D01*
X43434Y169223D01*
X43286Y169463D01*
X43082Y169704D01*
X43064Y169722D01*
X42971Y169797D01*
X42842Y169908D01*
X42675Y170019D01*
X42453Y170130D01*
X42194Y170241D01*
X41897Y170315D01*
X41583Y170333D01*
D02*
G37*
G36*
X125040Y170338D02*
X122429D01*
Y161913D01*
X125151D01*
X125281Y161932D01*
X125429Y161969D01*
X125614Y162024D01*
X125799Y162099D01*
X125985Y162210D01*
X126170Y162358D01*
X126188Y162376D01*
X126244Y162450D01*
X126318Y162543D01*
X126411Y162673D01*
X126485Y162839D01*
X126559Y163024D01*
X126614Y163247D01*
X126633Y163487D01*
Y168746D01*
Y168783D01*
Y168857D01*
X126614Y168987D01*
X126577Y169135D01*
X126522Y169320D01*
X126429Y169505D01*
X126318Y169690D01*
X126170Y169876D01*
X126151Y169894D01*
X126096Y169950D01*
X125985Y170024D01*
X125855Y170116D01*
X125688Y170190D01*
X125503Y170264D01*
X125281Y170320D01*
X125040Y170338D01*
D02*
G37*
%LPD*%
D10*
X113514Y128000D02*
G03*
X113514Y128000I-1250J0D01*
G01*
X72577Y127861D02*
G03*
X72577Y127861I-1250J0D01*
G01*
X262025Y52750D02*
G03*
X262025Y52750I-1250J0D01*
G01*
X207250Y130725D02*
G03*
X207250Y130725I-1250J0D01*
G01*
D11*
X252500Y212000D02*
G03*
X252500Y212000I-26000J0D01*
G01*
X251000Y309000D02*
G03*
X251000Y309000I-26000J0D01*
G01*
X272500Y52250D02*
Y80250D01*
X286500Y52250D02*
Y80250D01*
X272500Y52250D02*
X286500D01*
X272500Y80250D02*
X286500D01*
X272500Y94750D02*
Y122750D01*
X286500Y94750D02*
Y122750D01*
X272500Y94750D02*
X286500D01*
X272500Y122750D02*
X286500D01*
X239245Y121500D02*
X267245D01*
X239245Y107500D02*
X267245D01*
X239245D02*
Y121500D01*
X267245Y107500D02*
Y121500D01*
X35264Y4000D02*
X139564D01*
X35264Y32000D02*
X139564D01*
Y4000D02*
Y32000D01*
X35264Y4000D02*
Y32000D01*
X183000Y4000D02*
X287300D01*
X183000Y32000D02*
X287300D01*
Y4000D02*
Y32000D01*
X183000Y4000D02*
Y32000D01*
X109264Y109000D02*
Y119000D01*
X101264Y109000D02*
X109264D01*
X79264D02*
Y119000D01*
Y109000D02*
X87264D01*
X68327Y108861D02*
Y118861D01*
X60327Y108861D02*
X68327D01*
X38327D02*
Y118861D01*
Y108861D02*
X46327D01*
X69627Y66361D02*
Y94361D01*
X55627Y66361D02*
Y94361D01*
X69627D01*
X55627Y66361D02*
X69627D01*
X92964Y66500D02*
Y94500D01*
X78964Y66500D02*
Y94500D01*
X92964D01*
X78964Y66500D02*
X92964D01*
X121250Y75500D02*
X149250D01*
X121250Y89500D02*
X149250D01*
Y75500D02*
Y89500D01*
X121250Y75500D02*
Y89500D01*
X153750Y75500D02*
X181750D01*
X153750Y89500D02*
X181750D01*
Y75500D02*
Y89500D01*
X153750Y75500D02*
Y89500D01*
X143000Y38000D02*
Y66000D01*
X129000Y38000D02*
Y66000D01*
X143000D01*
X129000Y38000D02*
X143000D01*
X173806Y39000D02*
Y67000D01*
X159806Y39000D02*
Y67000D01*
X173806D01*
X159806Y39000D02*
X173806D01*
X177482D02*
Y67000D01*
X191482Y39000D02*
Y67000D01*
X177482Y39000D02*
X191482D01*
X177482Y67000D02*
X191482D01*
X195232Y39000D02*
Y67000D01*
X209232Y39000D02*
Y67000D01*
X195232Y39000D02*
X209232D01*
X195232Y67000D02*
X209232D01*
X228275Y53250D02*
X254275D01*
X228275D02*
Y62750D01*
Y99250D02*
X254275D01*
X228275Y89750D02*
Y99250D01*
X202395Y121500D02*
X230395D01*
X202395Y107500D02*
X230395D01*
X202395D02*
Y121500D01*
X230395Y107500D02*
Y121500D01*
X206500Y137225D02*
Y163225D01*
X216000D01*
X252500Y137225D02*
Y163225D01*
X243000D02*
X252500D01*
X244500Y212000D02*
X248500D01*
X246500Y210000D02*
Y214000D01*
X243000Y309000D02*
X247000D01*
X245000Y307000D02*
Y311000D01*
X155150Y289000D02*
Y323000D01*
X189150Y289000D02*
Y323000D01*
X112750Y289000D02*
Y323000D01*
X146750Y289000D02*
Y323000D01*
X69750Y289000D02*
Y323000D01*
X103750Y289000D02*
Y323000D01*
X26750Y289000D02*
Y323000D01*
X60750Y289000D02*
Y323000D01*
X124750Y226500D02*
Y257500D01*
X90750Y226500D02*
Y257500D01*
X124750D01*
X90750Y226500D02*
X124750D01*
X90750Y187500D02*
X124750D01*
X90750Y218500D02*
X124750D01*
X90750Y187500D02*
Y218500D01*
X124750Y187500D02*
Y218500D01*
X80264Y141000D02*
Y155000D01*
X108264Y141000D02*
Y155000D01*
X80264D02*
X108264D01*
X80264Y141000D02*
X108264D01*
X39327Y140861D02*
Y154861D01*
X67327Y140861D02*
Y154861D01*
X39327D02*
X67327D01*
X39327Y140861D02*
X67327D01*
X176750Y148250D02*
Y152250D01*
X172750D02*
X176750D01*
X124750D02*
X128750D01*
X124750Y148250D02*
Y152250D01*
Y100250D02*
Y104250D01*
Y100250D02*
X128750D01*
X176750D02*
Y104250D01*
X172750Y100250D02*
X176750D01*
D12*
X152150Y291000D02*
G03*
X152150Y291000I-1000J0D01*
G01*
X109750D02*
G03*
X109750Y291000I-1000J0D01*
G01*
X66750D02*
G03*
X66750Y291000I-1000J0D01*
G01*
X23750D02*
G03*
X23750Y291000I-1000J0D01*
G01*
X128750Y95250D02*
G03*
X128750Y95250I-1000J0D01*
G01*
D13*
X69750Y367700D02*
X76100Y361350D01*
X57050Y367700D02*
X69750D01*
X50700Y361350D02*
X57050Y367700D01*
X50700Y348650D02*
X57050Y342300D01*
X69750D01*
X76100Y348650D01*
X50700D02*
Y361350D01*
X177700Y342300D02*
X203100D01*
X177700D02*
Y367700D01*
X203100Y342300D02*
Y367700D01*
X171350Y342300D02*
X177700Y348650D01*
X158650Y342300D02*
X171350D01*
X152300Y348650D02*
X158650Y342300D01*
X152300Y348650D02*
Y361350D01*
X158650Y367700D01*
X171350D01*
X177700Y361350D01*
Y367700D02*
X203100D01*
X145950D02*
X152300Y361350D01*
X133250Y367700D02*
X145950D01*
X126900Y361350D02*
X133250Y367700D01*
X126900Y348650D02*
Y361350D01*
Y348650D02*
X133250Y342300D01*
X145950D01*
X152300Y348650D01*
X120550Y367700D02*
X126900Y361350D01*
X107850Y367700D02*
X120550D01*
X101500Y361350D02*
X107850Y367700D01*
X101500Y348650D02*
Y361350D01*
Y348650D02*
X107850Y342300D01*
X120550D01*
X126900Y348650D01*
X95150Y367700D02*
X101500Y361350D01*
X82450Y367700D02*
X95150D01*
X76100Y361350D02*
X82450Y367700D01*
X76100Y348650D02*
Y361350D01*
Y348650D02*
X82450Y342300D01*
X95150D01*
X101500Y348650D01*
X226500Y247300D02*
X251900D01*
X226500D02*
Y272700D01*
X251900Y247300D02*
Y272700D01*
X220150Y247300D02*
X226500Y253650D01*
X207450Y247300D02*
X220150D01*
X201100Y253650D02*
X207450Y247300D01*
X201100Y253650D02*
Y266350D01*
X207450Y272700D01*
X220150D01*
X226500Y266350D01*
Y272700D02*
X251900D01*
X6300Y36200D02*
Y61600D01*
X31700D01*
X6300Y36200D02*
X31700D01*
X6300Y67950D02*
X12650Y61600D01*
X6300Y67950D02*
Y80650D01*
X12650Y87000D01*
X25350D01*
X31700Y80650D01*
Y67950D02*
Y80650D01*
X25350Y61600D02*
X31700Y67950D01*
Y36200D02*
Y61600D01*
X25350Y87000D02*
X31700Y93350D01*
Y106050D01*
X25350Y112400D02*
X31700Y106050D01*
X12650Y112400D02*
X25350D01*
X6300Y106050D02*
X12650Y112400D01*
X6300Y93350D02*
Y106050D01*
Y93350D02*
X12650Y87000D01*
X25350Y112400D02*
X31700Y118750D01*
Y131450D01*
X25350Y137800D02*
X31700Y131450D01*
X12650Y137800D02*
X25350D01*
X6300Y131450D02*
X12650Y137800D01*
X6300Y118750D02*
Y131450D01*
Y118750D02*
X12650Y112400D01*
D14*
X281810Y150456D02*
Y151472D01*
X282064Y150456D02*
Y151472D01*
X282318Y150456D02*
Y151472D01*
X282572Y150456D02*
Y151472D01*
X282826Y150456D02*
Y151472D01*
X283080Y150710D02*
Y151726D01*
X283334Y150710D02*
Y151726D01*
X268602Y150710D02*
Y151726D01*
X268856Y150456D02*
Y151472D01*
X269110Y150456D02*
Y151472D01*
X269364Y150456D02*
Y151472D01*
X269618Y150456D02*
Y151472D01*
X269872Y150456D02*
Y151472D01*
X270126Y150456D02*
Y151472D01*
X270380Y150456D02*
Y151472D01*
X270634Y150456D02*
Y151472D01*
X270888Y150456D02*
Y151472D01*
X271142Y150456D02*
Y151472D01*
X271396Y150456D02*
Y151472D01*
X271650Y150456D02*
Y151472D01*
X271904Y150456D02*
Y151472D01*
X272158Y150456D02*
Y151472D01*
X272412Y150456D02*
Y151472D01*
X272666Y150456D02*
Y151472D01*
X272920Y150456D02*
Y151472D01*
X273174Y150456D02*
Y151472D01*
X273428Y150456D02*
Y151472D01*
X273682Y150456D02*
Y151472D01*
X273936Y150456D02*
Y151472D01*
X274190Y150456D02*
Y151472D01*
X274444Y150456D02*
Y151472D01*
X274698Y150456D02*
Y151472D01*
X274952Y150456D02*
Y151472D01*
X275206Y150456D02*
Y151472D01*
X275460Y150456D02*
Y151472D01*
X275714Y150456D02*
Y151472D01*
X275968Y150456D02*
Y151472D01*
X276222Y150456D02*
Y151472D01*
X276476Y150456D02*
Y151472D01*
X276730Y150456D02*
Y151472D01*
X276984Y150456D02*
Y151472D01*
X277238Y150456D02*
Y151472D01*
X277492Y150456D02*
Y151472D01*
X277746Y150456D02*
Y151472D01*
X278000Y150456D02*
Y151472D01*
X278254Y150456D02*
Y151472D01*
X278508Y150456D02*
Y151472D01*
X278762Y150456D02*
Y151472D01*
X279016Y150456D02*
Y151472D01*
X279270Y150456D02*
Y151472D01*
X279524Y150456D02*
Y151472D01*
X279778Y150456D02*
Y151472D01*
X280032Y150456D02*
Y151472D01*
X280286Y150456D02*
Y151472D01*
X280540Y150456D02*
Y151472D01*
X280794Y150456D02*
Y151472D01*
X281048Y150456D02*
Y151472D01*
X281302Y150456D02*
Y151472D01*
X281810Y152234D02*
Y153250D01*
Y156298D02*
Y157314D01*
Y161378D02*
Y162394D01*
Y163410D02*
Y164426D01*
Y166458D02*
Y167220D01*
X282064Y152234D02*
Y153250D01*
Y156298D02*
Y157060D01*
Y161378D02*
Y162140D01*
Y163664D02*
Y164426D01*
Y166458D02*
Y167220D01*
X282318Y152234D02*
Y152996D01*
Y156298D02*
Y157060D01*
Y161378D02*
Y162140D01*
Y163664D02*
Y164426D01*
X269110Y152234D02*
Y155028D01*
Y156806D02*
Y159854D01*
Y160870D02*
Y161632D01*
Y164172D02*
Y164934D01*
X269364Y152234D02*
Y155536D01*
Y156806D02*
Y159854D01*
Y160870D02*
Y161886D01*
Y163918D02*
Y164934D01*
X269618Y152234D02*
Y155790D01*
Y156806D02*
Y159600D01*
Y160870D02*
Y161886D01*
Y163918D02*
Y164934D01*
X269872Y152234D02*
Y153250D01*
Y154774D02*
Y155790D01*
Y156806D02*
Y157568D01*
Y161124D02*
Y161886D01*
Y163918D02*
Y164680D01*
X270126Y152234D02*
Y153250D01*
Y155028D02*
Y156044D01*
Y156806D02*
Y157568D01*
Y161124D02*
Y162140D01*
Y163664D02*
Y164680D01*
X270380Y152234D02*
Y153250D01*
Y155028D02*
Y156044D01*
Y156806D02*
Y157568D01*
Y161124D02*
Y162140D01*
Y163664D02*
Y164680D01*
X270634Y152234D02*
Y153250D01*
Y154774D02*
Y156044D01*
Y156806D02*
Y157568D01*
Y161378D02*
Y162140D01*
Y163664D02*
Y164426D01*
X270888Y152234D02*
Y153250D01*
Y154774D02*
Y156044D01*
Y156806D02*
Y159346D01*
Y161378D02*
Y162394D01*
Y163410D02*
Y164426D01*
Y165950D02*
Y166712D01*
X271142Y152234D02*
Y153250D01*
Y154266D02*
Y155790D01*
Y156806D02*
Y159346D01*
Y161378D02*
Y162394D01*
Y163410D02*
Y164172D01*
Y165950D02*
Y166712D01*
X271396Y152234D02*
Y155536D01*
Y156806D02*
Y157568D01*
Y161632D02*
Y162394D01*
Y163156D02*
Y164172D01*
Y165950D02*
Y166712D01*
X271650Y152234D02*
Y155028D01*
Y156806D02*
Y157568D01*
Y161632D02*
Y162648D01*
Y163156D02*
Y164172D01*
X271904Y152234D02*
Y153250D01*
Y154012D02*
Y155028D01*
Y156806D02*
Y157568D01*
Y161886D02*
Y162902D01*
Y163156D02*
Y163918D01*
X272158Y152234D02*
Y153250D01*
Y154266D02*
Y155282D01*
Y156806D02*
Y157568D01*
Y161886D02*
Y163918D01*
X272412Y152234D02*
Y153250D01*
Y154266D02*
Y155282D01*
Y156806D02*
Y157568D01*
Y161886D02*
Y163664D01*
X272666Y152234D02*
Y153250D01*
Y154520D02*
Y155536D01*
Y156806D02*
Y157568D01*
Y162140D02*
Y163664D01*
Y165950D02*
Y166712D01*
X272920Y152234D02*
Y153250D01*
Y154774D02*
Y155790D01*
Y156806D02*
Y157568D01*
Y162140D02*
Y163664D01*
Y165950D02*
Y166712D01*
X273174Y152234D02*
Y153250D01*
Y154774D02*
Y156044D01*
Y156806D02*
Y159854D01*
Y162394D02*
Y163410D01*
Y165950D02*
Y166712D01*
X273428Y152234D02*
Y153250D01*
Y155028D02*
Y156044D01*
Y156806D02*
Y159854D01*
Y162394D02*
Y163410D01*
Y165950D02*
Y166712D01*
X273682Y152488D02*
Y152996D01*
Y155282D02*
Y155790D01*
Y157060D02*
Y159600D01*
Y162648D02*
Y163156D01*
X277746Y152234D02*
Y155028D01*
Y158584D02*
Y159346D01*
Y160362D02*
Y161124D01*
Y164680D02*
Y165442D01*
X278000Y152234D02*
Y155282D01*
Y158330D02*
Y159346D01*
Y160362D02*
Y161124D01*
Y164680D02*
Y165696D01*
X278254Y152234D02*
Y155028D01*
Y158330D02*
Y159346D01*
Y160362D02*
Y161378D01*
Y164426D02*
Y165696D01*
X278508Y152234D02*
Y153250D01*
Y158076D02*
Y159092D01*
Y160362D02*
Y161378D01*
Y164426D02*
Y165442D01*
X278762Y152234D02*
Y153250D01*
Y158076D02*
Y159092D01*
Y160616D02*
Y161378D01*
Y164426D02*
Y165442D01*
X279016Y152234D02*
Y153250D01*
Y157822D02*
Y158838D01*
Y160616D02*
Y161378D01*
Y162648D02*
Y163410D01*
Y164426D02*
Y165442D01*
X279270Y152234D02*
Y153250D01*
Y157568D02*
Y158838D01*
Y160616D02*
Y161632D01*
Y162394D02*
Y163410D01*
Y164426D02*
Y165442D01*
X279524Y152234D02*
Y155282D01*
Y157568D02*
Y158584D01*
Y160616D02*
Y161632D01*
Y162394D02*
Y163664D01*
Y164172D02*
Y165188D01*
Y166458D02*
Y167220D01*
X279778Y152234D02*
Y155282D01*
Y157314D02*
Y158584D01*
Y160870D02*
Y161632D01*
Y162140D02*
Y163664D01*
Y164172D02*
Y164934D01*
Y166458D02*
Y167220D01*
X280032Y152234D02*
Y155028D01*
Y157314D02*
Y158330D01*
Y160870D02*
Y161632D01*
Y162140D02*
Y163664D01*
Y164172D02*
Y164934D01*
Y166458D02*
Y167220D01*
X280286Y152234D02*
Y153250D01*
Y157060D02*
Y158076D01*
Y160870D02*
Y161886D01*
Y162140D02*
Y164934D01*
X280540Y152234D02*
Y153250D01*
Y157060D02*
Y158076D01*
Y160870D02*
Y162902D01*
Y163156D02*
Y164934D01*
X280794Y152234D02*
Y153250D01*
Y156806D02*
Y158076D01*
Y161124D02*
Y162902D01*
Y163156D02*
Y164680D01*
X281048Y152234D02*
Y153250D01*
Y156552D02*
Y157568D01*
Y161124D02*
Y162648D01*
Y163156D02*
Y164680D01*
X281302Y152234D02*
Y153250D01*
Y156552D02*
Y157568D01*
Y161124D02*
Y162394D01*
Y163410D02*
Y164680D01*
Y166458D02*
Y167220D01*
X281556Y150456D02*
Y151472D01*
Y152234D02*
Y153250D01*
Y156552D02*
Y157314D01*
Y161124D02*
Y162394D01*
Y163410D02*
Y164680D01*
Y166458D02*
Y167220D01*
X268348Y150710D02*
Y152234D01*
X281810Y212178D02*
Y213194D01*
X282064Y212178D02*
Y213194D01*
X282318Y212178D02*
Y213194D01*
X282572Y212178D02*
Y213194D01*
X282826Y212178D02*
Y213194D01*
X283080Y211924D02*
Y212940D01*
X283334Y211924D02*
Y212940D01*
X268348Y211416D02*
Y212940D01*
X268602Y211924D02*
Y212940D01*
X268856Y212178D02*
Y213194D01*
X269110Y212178D02*
Y213194D01*
X269364Y212178D02*
Y213194D01*
X269618Y212178D02*
Y213194D01*
X269872Y212178D02*
Y213194D01*
X270126Y212178D02*
Y213194D01*
X270380Y212178D02*
Y213194D01*
X270634Y212178D02*
Y213194D01*
X270888Y212178D02*
Y213194D01*
X271142Y212178D02*
Y213194D01*
X271396Y212178D02*
Y213194D01*
X271650Y212178D02*
Y213194D01*
X271904Y212178D02*
Y213194D01*
X272158Y212178D02*
Y213194D01*
X272412Y212178D02*
Y213194D01*
X272666Y212178D02*
Y213194D01*
X272920Y212178D02*
Y213194D01*
X273174Y212178D02*
Y213194D01*
X273428Y212178D02*
Y213194D01*
X273682Y212178D02*
Y213194D01*
X273936Y212178D02*
Y213194D01*
X274190Y212178D02*
Y213194D01*
X274444Y212178D02*
Y213194D01*
X274698Y212178D02*
Y213194D01*
X274952Y212178D02*
Y213194D01*
X275206Y212178D02*
Y213194D01*
X275460Y212178D02*
Y213194D01*
X275714Y212178D02*
Y213194D01*
X275968Y212178D02*
Y213194D01*
X276222Y212178D02*
Y213194D01*
X276476Y212178D02*
Y213194D01*
X276730Y212178D02*
Y213194D01*
X276984Y212178D02*
Y213194D01*
X277238Y212178D02*
Y213194D01*
X277492Y212178D02*
Y213194D01*
X277746Y212178D02*
Y213194D01*
X278000Y212178D02*
Y213194D01*
X278254Y212178D02*
Y213194D01*
X278508Y212178D02*
Y213194D01*
X278762Y212178D02*
Y213194D01*
X279016Y212178D02*
Y213194D01*
X279270Y212178D02*
Y213194D01*
X279524Y212178D02*
Y213194D01*
X279778Y212178D02*
Y213194D01*
X280032Y212178D02*
Y213194D01*
X280286Y212178D02*
Y213194D01*
X280540Y212178D02*
Y213194D01*
X280794Y212178D02*
Y213194D01*
X281048Y212178D02*
Y213194D01*
X281302Y212178D02*
Y213194D01*
X281556Y212178D02*
Y213194D01*
X281810Y167982D02*
Y211670D01*
X282064Y167982D02*
Y211670D01*
X282318Y167982D02*
Y211416D01*
X282572Y168236D02*
Y211162D01*
X282826Y168744D02*
Y210654D01*
X283588Y150964D02*
Y212686D01*
X283842Y151218D02*
Y212432D01*
X284096Y151472D02*
Y212178D01*
X267586Y151980D02*
Y211670D01*
X267840Y151472D02*
Y212178D01*
X268094Y150964D02*
Y212686D01*
X276730Y168744D02*
Y210654D01*
X276984Y168236D02*
Y211162D01*
X277238Y167982D02*
Y211416D01*
X277492Y167982D02*
Y211670D01*
X277746Y167982D02*
Y211670D01*
X278000Y167728D02*
Y211670D01*
X278254Y167728D02*
Y211670D01*
X278508Y167728D02*
Y211670D01*
X278762Y167728D02*
Y211670D01*
X279016Y167728D02*
Y211670D01*
X279270Y167728D02*
Y211670D01*
X279524Y167728D02*
Y211670D01*
X279778Y167728D02*
Y211670D01*
X280032Y167728D02*
Y211670D01*
X280286Y167728D02*
Y211670D01*
X280540Y167728D02*
Y211670D01*
X280794Y167728D02*
Y211670D01*
X281048Y167728D02*
Y211670D01*
X281302Y167728D02*
Y211670D01*
X281556Y167728D02*
Y211670D01*
X37202Y189622D02*
X38980D01*
X53966Y209942D02*
X65396D01*
X36440D02*
X40250D01*
X53966Y210196D02*
X65396D01*
X36440D02*
X39996D01*
X52950Y210450D02*
X66412D01*
X36440D02*
X39488D01*
X51934Y210704D02*
X67682D01*
X36440D02*
X38980D01*
X50918Y210958D02*
X68444D01*
X36440D02*
X37964D01*
X50918Y211212D02*
X68698D01*
X49902Y211466D02*
X69460D01*
X49140Y211720D02*
X58030D01*
Y215276D02*
X61078D01*
X57776Y215530D02*
X61586D01*
X57268Y215784D02*
X62348D01*
X56506Y216038D02*
X62856D01*
X56252Y216292D02*
X63364D01*
X55236Y216546D02*
X64380D01*
X78096Y216800D02*
X81144D01*
X54474D02*
X64888D01*
X37710D02*
X40758D01*
X78096Y217054D02*
X81144D01*
X54474D02*
X64888D01*
X37710D02*
X40758D01*
X78096Y217308D02*
X81906D01*
X53204D02*
X66158D01*
X36948D02*
X40758D01*
X78096Y217562D02*
X81906D01*
X52950D02*
X66412D01*
X36948D02*
X40758D01*
X78096Y217816D02*
X82414D01*
X51680D02*
X67682D01*
X36440D02*
X40758D01*
X78096Y218070D02*
X82414D01*
X51426D02*
X67936D01*
X36440D02*
X40758D01*
X78096Y218324D02*
X82922D01*
X50918D02*
X68698D01*
X35932D02*
X40758D01*
X78096Y218578D02*
X83176D01*
X49902D02*
X69460D01*
X35678D02*
X40758D01*
X78096Y218832D02*
X83684D01*
X49394D02*
X69968D01*
X35424D02*
X40758D01*
X78350Y219086D02*
X84192D01*
X48632D02*
X70984D01*
X34662D02*
X40504D01*
X48632Y219340D02*
X70984D01*
X34662D02*
X39996D01*
X46600Y219594D02*
X73016D01*
X34154D02*
X39742D01*
X45838Y219848D02*
X58284D01*
X34154D02*
X37710D01*
X72000Y222642D02*
X78350D01*
X72762Y222896D02*
X78604D01*
X73016Y223150D02*
X78604D01*
X73016Y223404D02*
X78604D01*
X73270Y223658D02*
X78604D01*
X73778Y223912D02*
X78858D01*
X74032Y224166D02*
X79112D01*
X74286Y224420D02*
X79366D01*
X74286Y224674D02*
X79620D01*
X36440D02*
X37964D01*
X74286Y224928D02*
X83176D01*
X36440D02*
X45076D01*
X74540Y225182D02*
X83684D01*
X35932D02*
X44822D01*
X74540Y225436D02*
X83684D01*
X35932D02*
X44822D01*
X75048Y225690D02*
X83684D01*
X35932D02*
X44568D01*
X75556Y225944D02*
X83684D01*
X35932D02*
X43806D01*
X75810Y226198D02*
X83684D01*
X35932D02*
X43806D01*
X76318Y226452D02*
X83684D01*
X35932D02*
X43044D01*
X77080Y226706D02*
X83684D01*
X35932D02*
X42536D01*
X77588Y226960D02*
X82922D01*
X36440D02*
X41774D01*
X78350Y227214D02*
X82414D01*
X37202D02*
X41012D01*
X78350Y227468D02*
X82160D01*
X37202D02*
X41012D01*
X37202Y189876D02*
X38726D01*
X78096Y190130D02*
X79112D01*
X37202D02*
X38726D01*
X77842Y190384D02*
X79366D01*
X37202D02*
X38726D01*
X75302Y190638D02*
X79366D01*
X37202D02*
X38472D01*
X75302Y190892D02*
X79366D01*
X36948D02*
X38472D01*
X75302Y191146D02*
X79366D01*
X36948D02*
X38218D01*
X75302Y191400D02*
X79366D01*
X36948D02*
X38218D01*
X75302Y191654D02*
X79366D01*
X35170D02*
X38218D01*
X75556Y191908D02*
X79112D01*
X35170D02*
X38218D01*
X35170Y192162D02*
X37964D01*
X35424Y192416D02*
X37964D01*
X35424Y192670D02*
X37710D01*
X35678Y192924D02*
X37710D01*
X35678Y193178D02*
X37710D01*
X57776Y196734D02*
X61586D01*
X57776Y196988D02*
X61586D01*
X56760Y197242D02*
X62602D01*
X56506Y197496D02*
X62856D01*
X55490Y197750D02*
X63872D01*
X55236Y198004D02*
X64126D01*
X54728Y198258D02*
X64634D01*
X54220Y198512D02*
X65142D01*
X53712Y198766D02*
X65650D01*
X53204Y199020D02*
X59554D01*
X52696Y199274D02*
X59046D01*
X52188Y199528D02*
X58792D01*
X51426Y199782D02*
X58284D01*
X72000Y205116D02*
X78604D01*
X72254Y205370D02*
X78858D01*
X72254Y205624D02*
X79366D01*
X72762Y205878D02*
X80128D01*
X72762Y206132D02*
X80636D01*
X73016Y206386D02*
X80890D01*
X73016Y206640D02*
X81144D01*
X73016Y206894D02*
X81398D01*
X37710D02*
X46092D01*
X73270Y207148D02*
X81398D01*
X37710D02*
X46092D01*
X73270Y207402D02*
X81906D01*
X37456D02*
X46092D01*
X73778Y207656D02*
X82414D01*
X37202D02*
X45584D01*
X74032Y207910D02*
X82414D01*
X36948D02*
X45330D01*
X74540Y208164D02*
X82922D01*
X36440D02*
X44822D01*
X75302Y208418D02*
X83176D01*
X36440D02*
X44314D01*
X75556Y208672D02*
X83176D01*
X57776D02*
X61586D01*
X36440D02*
X43806D01*
X76318Y208926D02*
X83176D01*
X57014D02*
X62602D01*
X36440D02*
X43552D01*
X76318Y209180D02*
X83176D01*
X56252D02*
X63110D01*
X36440D02*
X43044D01*
X77080Y209434D02*
X83176D01*
X55490D02*
X63872D01*
X36440D02*
X42536D01*
X77080Y209688D02*
X83176D01*
X54474D02*
X64888D01*
X36440D02*
X41774D01*
X33900Y188098D02*
X39488D01*
X34154Y188352D02*
X39234D01*
X34154Y188606D02*
X39234D01*
X34154Y188860D02*
X38980D01*
X37456Y189114D02*
X38980D01*
X37456Y189368D02*
X38980D01*
X80382Y189622D02*
X83684D01*
X79112Y209942D02*
X83176D01*
X75302Y189622D02*
X76826D01*
X72762D02*
X74286D01*
X66158D02*
X67682D01*
X60316D02*
X61840D01*
X52442D02*
X55490D01*
X49902D02*
X51426D01*
X46600D02*
X48124D01*
X42790D02*
X44568D01*
X34408D02*
X36186D01*
X79366Y210196D02*
X83176D01*
X79874Y210450D02*
X83176D01*
X80636Y210704D02*
X83176D01*
X81398Y210958D02*
X83176D01*
X79366Y216292D02*
X80128D01*
X78604Y216546D02*
X80382D01*
X78858Y219340D02*
X84192D01*
X79112Y219594D02*
X84700D01*
X81144Y219848D02*
X84700D01*
X81652Y220102D02*
X84700D01*
X82160Y220356D02*
X84700D01*
X82160Y220610D02*
X84700D01*
X82922Y220864D02*
X84700D01*
X82922Y221118D02*
X84700D01*
X83430Y221372D02*
X84700D01*
X81398Y224674D02*
X82922D01*
X78858Y227722D02*
X81398D01*
X79874Y227976D02*
X80636D01*
X80382Y189876D02*
X83684D01*
X80382Y190130D02*
X83684D01*
X80382Y190384D02*
X84446D01*
X82160Y190638D02*
X84700D01*
X80382D02*
X81906D01*
X82414Y190892D02*
X84954D01*
X80382D02*
X81906D01*
X83176Y191146D02*
X84954D01*
X80382D02*
X81906D01*
X83430Y191400D02*
X84954D01*
X80382D02*
X81906D01*
X83430Y191654D02*
X84954D01*
X80382D02*
X81906D01*
X83938Y191908D02*
X84700D01*
X80382D02*
X81906D01*
X80382Y192162D02*
X81906D01*
X80382Y192416D02*
X81906D01*
X80382Y192670D02*
X81906D01*
X80382Y192924D02*
X81906D01*
X80382Y193178D02*
X81906D01*
X80382Y193432D02*
X81906D01*
X80382Y193686D02*
X81906D01*
X80382Y193940D02*
X81906D01*
X83938Y186066D02*
X84700D01*
X80636D02*
X81652D01*
X83430Y186320D02*
X84954D01*
X80382D02*
X81906D01*
X83430Y186574D02*
X84954D01*
X80382D02*
X81906D01*
X83430Y186828D02*
X84954D01*
X80382D02*
X81906D01*
X83430Y187082D02*
X84954D01*
X80382D02*
X81906D01*
X83176Y187336D02*
X84700D01*
X80382D02*
X81906D01*
X82922Y187590D02*
X84700D01*
X80382D02*
X81906D01*
X82922Y187844D02*
X84446D01*
X80382D02*
X81906D01*
X82668Y188098D02*
X84446D01*
X80382D02*
X81906D01*
X82414Y188352D02*
X84192D01*
X80382D02*
X81906D01*
X82160Y188606D02*
X84192D01*
X80382D02*
X81906D01*
X80382Y188860D02*
X83938D01*
X80382Y189114D02*
X83684D01*
X80382Y189368D02*
X83684D01*
X61586Y211720D02*
X70222D01*
X62348Y211974D02*
X70984D01*
X63364Y212228D02*
X71746D01*
X64126Y212482D02*
X72254D01*
X64888Y212736D02*
X73016D01*
X65650Y212990D02*
X73524D01*
X66666Y213244D02*
X73524D01*
X67428Y213498D02*
X73524D01*
X68190Y213752D02*
X73524D01*
X69206Y214006D02*
X73524D01*
X69206Y214260D02*
X73524D01*
X69968Y214514D02*
X73016D01*
X70984Y214768D02*
X73016D01*
X72000Y215022D02*
X73016D01*
X58284D02*
X61078D01*
Y219848D02*
X73524D01*
X62094Y220102D02*
X74286D01*
X63364Y220356D02*
X74286D01*
X63364Y220610D02*
X75302D01*
X64126Y220864D02*
X76064D01*
X65904Y221118D02*
X76318D01*
X66920Y221372D02*
X76572D01*
X67936Y221626D02*
X77080D01*
X69206Y221880D02*
X77334D01*
X70222Y222134D02*
X77842D01*
X70984Y222388D02*
X78096D01*
X75302Y189876D02*
X76826D01*
X72762D02*
X74286D01*
X66158D02*
X67682D01*
X60316D02*
X61840D01*
X75302Y190130D02*
X76826D01*
X72762D02*
X74286D01*
X66158D02*
X67682D01*
X60316D02*
X61840D01*
X75302Y190384D02*
X76826D01*
X72762D02*
X74286D01*
X66158D02*
X67682D01*
X60316D02*
X61840D01*
X70222Y190638D02*
X74286D01*
X66158D02*
X67682D01*
X60316D02*
X61840D01*
X69968Y190892D02*
X74032D01*
X66158D02*
X67682D01*
X60316D02*
X61840D01*
X69968Y191146D02*
X74032D01*
X66158D02*
X67682D01*
X60316D02*
X61840D01*
X69968Y191400D02*
X73778D01*
X66158D02*
X67682D01*
X60316D02*
X61840D01*
X69968Y191654D02*
X73524D01*
X66158D02*
X67682D01*
X60316D02*
X61840D01*
X70222Y191908D02*
X73270D01*
X66158D02*
X67682D01*
X60316D02*
X61840D01*
X66158Y192162D02*
X67682D01*
X60316D02*
X61840D01*
X66158Y192416D02*
X67682D01*
X60316D02*
X61840D01*
X66158Y192670D02*
X67682D01*
X60316D02*
X62094D01*
X66158Y192924D02*
X67682D01*
X60570D02*
X64888D01*
X66158Y193178D02*
X67682D01*
X60570D02*
X64888D01*
X66158Y193432D02*
X67682D01*
X60824D02*
X65142D01*
X66158Y193686D02*
X67682D01*
X61078D02*
X65142D01*
X66158Y193940D02*
X67682D01*
X61332D02*
X65142D01*
X58792Y196226D02*
X60824D01*
X58538Y196480D02*
X61332D01*
X59808Y199020D02*
X66158D01*
X60316Y199274D02*
X66412D01*
X60824Y199528D02*
X67174D01*
X71492Y199782D02*
X73778D01*
X61078D02*
X67682D01*
X70730Y200036D02*
X73778D01*
X61586D02*
X68190D01*
X70730Y200290D02*
X73778D01*
X62348D02*
X68190D01*
X69460Y200544D02*
X74032D01*
X62348D02*
X68952D01*
X63618Y200798D02*
X74032D01*
X63872Y201052D02*
X74032D01*
X64380Y201306D02*
X74286D01*
X64888Y201560D02*
X74286D01*
X65650Y201814D02*
X74540D01*
X66412Y202068D02*
X74540D01*
X66920Y202322D02*
X74794D01*
X67428Y202576D02*
X74794D01*
X68190Y202830D02*
X75048D01*
X68698Y203084D02*
X75302D01*
X68952Y203338D02*
X75302D01*
X69714Y203592D02*
X75810D01*
X70476Y203846D02*
X76572D01*
X71238Y204100D02*
X76826D01*
X71492Y204354D02*
X77080D01*
X71492Y204608D02*
X77588D01*
X71746Y204862D02*
X78096D01*
X58792Y208164D02*
X60062D01*
X58284Y208418D02*
X60824D01*
X75556Y186066D02*
X76572D01*
X70730D02*
X74032D01*
X66920D02*
X68190D01*
X61840D02*
X64888D01*
X75302Y186320D02*
X76826D01*
X70222D02*
X74286D01*
X66412D02*
X68190D01*
X61078D02*
X65142D01*
X75302Y186574D02*
X76826D01*
X69968D02*
X74286D01*
X66412D02*
X68190D01*
X60824D02*
X65142D01*
X75302Y186828D02*
X76826D01*
X69714D02*
X74286D01*
X66158D02*
X68190D01*
X60570D02*
X65142D01*
X75302Y187082D02*
X76826D01*
X69714D02*
X74286D01*
X66158D02*
X68190D01*
X60570D02*
X64888D01*
X75302Y187336D02*
X76826D01*
X72762D02*
X74286D01*
X69714D02*
X71492D01*
X66158D02*
X67682D01*
X60570D02*
X62348D01*
X75302Y187590D02*
X76826D01*
X72762D02*
X74286D01*
X69714D02*
X71238D01*
X66158D02*
X67682D01*
X60316D02*
X62094D01*
X75302Y187844D02*
X76826D01*
X72762D02*
X74286D01*
X69714D02*
X70984D01*
X66158D02*
X67682D01*
X60316D02*
X61840D01*
X75302Y188098D02*
X76826D01*
X72762D02*
X74286D01*
X69714D02*
X71492D01*
X66158D02*
X67682D01*
X60316D02*
X61840D01*
X75302Y188352D02*
X76826D01*
X69714D02*
X74286D01*
X66158D02*
X67682D01*
X60316D02*
X61840D01*
X75302Y188606D02*
X76826D01*
X69714D02*
X74286D01*
X66158D02*
X67682D01*
X60316D02*
X61840D01*
X75302Y188860D02*
X76826D01*
X69968D02*
X74286D01*
X66158D02*
X67682D01*
X60316D02*
X61840D01*
X75302Y189114D02*
X76826D01*
X70476D02*
X74286D01*
X66158D02*
X67682D01*
X60316D02*
X61840D01*
X75302Y189368D02*
X76826D01*
X70730D02*
X74286D01*
X66158D02*
X67682D01*
X60316D02*
X61840D01*
X48632Y211974D02*
X56760D01*
X47616Y212228D02*
X56506D01*
X47108Y212482D02*
X55236D01*
X46600Y212736D02*
X54474D01*
X45838Y212990D02*
X53712D01*
X45838Y213244D02*
X52950D01*
X45838Y213498D02*
X51934D01*
X45838Y213752D02*
X51172D01*
X45838Y214006D02*
X50156D01*
X46092Y214260D02*
X50156D01*
X46346Y214514D02*
X49394D01*
X46346Y214768D02*
X48378D01*
X46600Y215022D02*
X47616D01*
X38726Y216292D02*
X39488D01*
X38472Y216546D02*
X40250D01*
X45076Y220102D02*
X57522D01*
X45076Y220356D02*
X56506D01*
X44314Y220610D02*
X56252D01*
X43044Y220864D02*
X54982D01*
X42790Y221118D02*
X53712D01*
X42790Y221372D02*
X52442D01*
X42790Y221626D02*
X51426D01*
X41774Y221880D02*
X50156D01*
X41520Y222134D02*
X49394D01*
X41520Y222388D02*
X48378D01*
X41012Y222642D02*
X47362D01*
X41012Y222896D02*
X46854D01*
X41012Y223150D02*
X46600D01*
X41012Y223404D02*
X46346D01*
X41012Y223658D02*
X46092D01*
X40504Y223912D02*
X45838D01*
X40250Y224166D02*
X45330D01*
X40250Y224420D02*
X45076D01*
X39742Y224674D02*
X45076D01*
X37964Y227722D02*
X40504D01*
X38726Y227976D02*
X39488D01*
X52442Y189876D02*
X55490D01*
X49902D02*
X51426D01*
X46600D02*
X48124D01*
X43044D02*
X44822D01*
X52442Y190130D02*
X55744D01*
X49902D02*
X51426D01*
X46600D02*
X48124D01*
X43298D02*
X44822D01*
X52442Y190384D02*
X56506D01*
X49648D02*
X51426D01*
X46600D02*
X48378D01*
X43552D02*
X45076D01*
X54220Y190638D02*
X56760D01*
X52442D02*
X53966D01*
X46854D02*
X51172D01*
X41012D02*
X45330D01*
X54474Y190892D02*
X57014D01*
X52442D02*
X53966D01*
X46854D02*
X51172D01*
X40758D02*
X45330D01*
X54982Y191146D02*
X57014D01*
X52442D02*
X53966D01*
X47108D02*
X50918D01*
X40758D02*
X45330D01*
X55236Y191400D02*
X57014D01*
X52442D02*
X53966D01*
X47362D02*
X50664D01*
X40758D02*
X45330D01*
X55490Y191654D02*
X57014D01*
X52442D02*
X53966D01*
X47616D02*
X50410D01*
X40758D02*
X45330D01*
X55744Y191908D02*
X56760D01*
X52442D02*
X53966D01*
X48124D02*
X49902D01*
X41012D02*
X45330D01*
X52442Y192162D02*
X53966D01*
X52442Y192416D02*
X53966D01*
X52442Y192670D02*
X53966D01*
X52442Y192924D02*
X53966D01*
X52442Y193178D02*
X53966D01*
X52442Y193432D02*
X53966D01*
X52442Y193686D02*
X53966D01*
X52442Y193940D02*
X53966D01*
X45838Y199782D02*
X47616D01*
X50918Y200036D02*
X57776D01*
X45838D02*
X48886D01*
X50918Y200290D02*
X57268D01*
X45838D02*
X48886D01*
X50410Y200544D02*
X57014D01*
X45330D02*
X50156D01*
X45330Y200798D02*
X55998D01*
X45076Y201052D02*
X55998D01*
X45076Y201306D02*
X55236D01*
X44822Y201560D02*
X54474D01*
X44822Y201814D02*
X53966D01*
X44568Y202068D02*
X53204D01*
X44568Y202322D02*
X52950D01*
X44314Y202576D02*
X52188D01*
X44314Y202830D02*
X51680D01*
X44060Y203084D02*
X51172D01*
X44060Y203338D02*
X50918D01*
X43552Y203592D02*
X50410D01*
X42790Y203846D02*
X49648D01*
X42790Y204100D02*
X48886D01*
X42790Y204354D02*
X48124D01*
X41774Y204608D02*
X48124D01*
X41520Y204862D02*
X48124D01*
X40758Y205116D02*
X47362D01*
X40250Y205370D02*
X47108D01*
X39996Y205624D02*
X46854D01*
X39488Y205878D02*
X46854D01*
X38726Y206132D02*
X46854D01*
X38472Y206386D02*
X46600D01*
X37964Y206640D02*
X46600D01*
X55744Y186066D02*
X56760D01*
X52696D02*
X53712D01*
X47870D02*
X51172D01*
X41012D02*
X45330D01*
X38472D02*
X39742D01*
X55490Y186320D02*
X57014D01*
X52442D02*
X53966D01*
X47108D02*
X51426D01*
X40758D02*
X45330D01*
X38472D02*
X39742D01*
X55490Y186574D02*
X57014D01*
X52442D02*
X53966D01*
X47108D02*
X51426D01*
X40758D02*
X45330D01*
X38472D02*
X39742D01*
X55236Y186828D02*
X57014D01*
X52442D02*
X53966D01*
X46854D02*
X51426D01*
X40758D02*
X45330D01*
X38218D02*
X39742D01*
X55236Y187082D02*
X57014D01*
X52442D02*
X53966D01*
X46854D02*
X51172D01*
X41012D02*
X45330D01*
X38218D02*
X39742D01*
X54982Y187336D02*
X56760D01*
X52442D02*
X53966D01*
X46600D02*
X48378D01*
X41266D02*
X43298D01*
X37964D02*
X39742D01*
X54982Y187590D02*
X56760D01*
X52442D02*
X53966D01*
X46600D02*
X48378D01*
X41266D02*
X43298D01*
X37964D02*
X39742D01*
X54982Y187844D02*
X56760D01*
X52442D02*
X53966D01*
X46600D02*
X48124D01*
X41520D02*
X43298D01*
X37964D02*
X39488D01*
X54728Y188098D02*
X56506D01*
X52442D02*
X53966D01*
X46600D02*
X48124D01*
X41520D02*
X43552D01*
X54474Y188352D02*
X56252D01*
X52442D02*
X53966D01*
X46600D02*
X51426D01*
X42028D02*
X43806D01*
X54220Y188606D02*
X56252D01*
X52442D02*
X53966D01*
X46600D02*
X51426D01*
X42282D02*
X44060D01*
X52442Y188860D02*
X55998D01*
X46600D02*
X51426D01*
X42282D02*
X44060D01*
X52442Y189114D02*
X55744D01*
X46600D02*
X51426D01*
X42790D02*
X44314D01*
X52442Y189368D02*
X55490D01*
X46600D02*
X51426D01*
X42790D02*
X44568D01*
X34154Y220102D02*
X37202D01*
X34154Y220356D02*
X36694D01*
X34154Y220610D02*
X36694D01*
X34154Y220864D02*
X36186D01*
X34154Y221118D02*
X35932D01*
X34154Y221372D02*
X35424D01*
X34408Y189876D02*
X36186D01*
X34662Y190130D02*
X36186D01*
X34662Y190384D02*
X36440D01*
X34916Y190638D02*
X36440D01*
X34916Y190892D02*
X36440D01*
X35170Y191146D02*
X36694D01*
X35170Y191400D02*
X36694D01*
X35932Y193432D02*
X37456D01*
X35932Y193686D02*
X37456D01*
X35932Y193940D02*
X37456D01*
X33646Y186066D02*
X34916D01*
X33646Y186320D02*
X34916D01*
X33646Y186574D02*
X34916D01*
X33646Y186828D02*
X35170D01*
X33646Y187082D02*
X35170D01*
X33646Y187336D02*
X35424D01*
X33646Y187590D02*
X35424D01*
X33900Y187844D02*
X35424D01*
X34408Y189114D02*
X36186D01*
X34408Y189368D02*
X36186D01*
D15*
X0Y0D02*
X300000D01*
X0D02*
Y372500D01*
X300000Y0D02*
Y372500D01*
X0D02*
X300000D01*
M02*
