M48
;Layer_Color=9474304
;FILE_FORMAT=4:4
METRIC,LZ
;TYPE=PLATED
T1F00S00C0.3000
T2F00S00C0.6000
T3F00S00C1.1000
;TYPE=NON_PLATED
T4F00S00C2.0000
%
T01
X00074296Y0008743
X00085Y0011675
X00114756Y00138509
X0013825Y0013875
X0015075
Y0012625
X0013825
Y0011375
X0015075
X0016325
Y0012625
X0016325Y0013875
X001915Y0013375
X00199231Y0012625
X0018475Y0011675
X00192982Y00107112
X002135Y00100407
X002584Y0010175
X00142Y0007
X0010275Y00062125
X00046327Y0013875
X00142Y00163688
X00149Y00172
X00122905Y00221922
X0011275Y00222
X0010275
X0009375Y0022225
X00087732Y00271058
X00079732
X00071732
Y00279058
X00079732
X00087732
X00114982
Y00271058
X00122982
X00130982
Y00279058
X00122982
X00157232
Y00271058
X00165232
X00173232
Y00279058
X00165232
X00044982
X00036982
Y00271058
X00044982
X00028982
Y00279058
T02
X002165Y00212
X002365
X00235Y00309
X00215
T03
X00049164Y00018
X00074564
X00099964
X00125364
X001969
X002223
X002477
X002731
X002392Y0026
X002138
X00019Y001251
Y000997
Y000743
Y000489
X000634Y00355
X000888
X001142
X001396
X00165
X001904
T04
X0016075Y00014998
X00285Y00235
X00015
M30
