G04*
G04 #@! TF.GenerationSoftware,Altium Limited,Altium Designer,20.1.11 (218)*
G04*
G04 Layer_Color=8388736*
%FSLAX44Y44*%
%MOMM*%
G71*
G04*
G04 #@! TF.SameCoordinates,7590A8BC-6F61-42B1-8E90-CD4C0DD3AB11*
G04*
G04*
G04 #@! TF.FilePolarity,Negative*
G04*
G01*
G75*
%ADD15C,0.1000*%
%ADD30R,1.0000X1.0000*%
%ADD31R,1.0000X1.0000*%
%ADD32R,0.7500X1.1500*%
%ADD33R,1.5500X0.7500*%
%ADD34R,1.3500X0.8000*%
%ADD35R,0.7500X1.5500*%
%ADD36R,0.8000X1.3500*%
%ADD37R,0.5700X0.6900*%
%ADD38R,0.5700X0.8500*%
%ADD39R,0.6000X1.0000*%
%ADD40R,3.6000X3.6000*%
%ADD41R,0.7500X0.4500*%
%ADD42R,0.4500X0.7500*%
%ADD43R,2.5200X1.8600*%
%ADD44C,2.1500*%
%ADD45R,2.1500X2.1500*%
%ADD46C,1.9500*%
%ADD47P,2.1107X8X202.5*%
%ADD48P,1.2448X8X202.5*%
%ADD49C,1.1500*%
%ADD50R,2.1500X2.1500*%
%ADD51C,0.8500*%
%ADD52C,0.9032*%
G36*
X247618Y86993D02*
X247733Y86966D01*
X247810Y86934D01*
X247842Y86920D01*
X247942Y86859D01*
X248032Y86782D01*
X255032Y79782D01*
X255109Y79692D01*
X255170Y79592D01*
X255215Y79482D01*
X255243Y79368D01*
X255252Y79250D01*
Y73250D01*
X255243Y73132D01*
X255215Y73018D01*
X255184Y72940D01*
X255170Y72908D01*
X255109Y72808D01*
X255032Y72718D01*
X248032Y65718D01*
X247942Y65641D01*
X247842Y65580D01*
X247787Y65557D01*
X247733Y65535D01*
X247618Y65507D01*
X247500Y65498D01*
X222500D01*
X222471Y65500D01*
X222442Y65500D01*
X222412Y65505D01*
X222382Y65507D01*
X222355Y65514D01*
X222326Y65518D01*
X222297Y65528D01*
X222268Y65535D01*
X222241Y65546D01*
X222213Y65554D01*
X222186Y65568D01*
X222159Y65580D01*
X222134Y65595D01*
X222108Y65608D01*
X222084Y65626D01*
X222058Y65641D01*
X222036Y65660D01*
X222013Y65677D01*
X221991Y65698D01*
X221968Y65718D01*
X221949Y65740D01*
X221929Y65760D01*
X215929Y72761D01*
X215911Y72785D01*
X215891Y72808D01*
X215876Y72833D01*
X215859Y72856D01*
X215846Y72882D01*
X215830Y72909D01*
X215819Y72935D01*
X215805Y72961D01*
X215796Y72990D01*
X215785Y73018D01*
X215778Y73046D01*
X215769Y73073D01*
X215764Y73103D01*
X215757Y73132D01*
X215755Y73161D01*
X215750Y73190D01*
X215750Y73220D01*
X215748Y73250D01*
Y79250D01*
X215750Y79280D01*
X215750Y79310D01*
X215755Y79339D01*
X215757Y79368D01*
X215764Y79397D01*
X215769Y79427D01*
X215778Y79455D01*
X215785Y79482D01*
X215796Y79510D01*
X215805Y79539D01*
X215819Y79565D01*
X215830Y79592D01*
X215846Y79618D01*
X215859Y79644D01*
X215876Y79668D01*
X215891Y79692D01*
X215911Y79715D01*
X215929Y79740D01*
X221929Y86740D01*
X221949Y86760D01*
X221968Y86782D01*
X221991Y86802D01*
X222013Y86823D01*
X222036Y86840D01*
X222058Y86859D01*
X222084Y86875D01*
X222108Y86892D01*
X222134Y86905D01*
X222159Y86920D01*
X222186Y86932D01*
X222213Y86946D01*
X222241Y86955D01*
X222268Y86966D01*
X222297Y86973D01*
X222326Y86982D01*
X222355Y86986D01*
X222382Y86993D01*
X222412Y86995D01*
X222442Y87000D01*
X222471Y87000D01*
X222500Y87002D01*
X247500D01*
X247618Y86993D01*
D02*
G37*
G36*
X232530Y175750D02*
X232560Y175750D01*
X232589Y175745D01*
X232618Y175743D01*
X232647Y175736D01*
X232677Y175731D01*
X232705Y175722D01*
X232733Y175715D01*
X232760Y175704D01*
X232789Y175695D01*
X232815Y175681D01*
X232841Y175670D01*
X232868Y175654D01*
X232894Y175641D01*
X232917Y175624D01*
X232942Y175609D01*
X232965Y175589D01*
X232990Y175571D01*
X239990Y169571D01*
X240010Y169551D01*
X240032Y169532D01*
X240052Y169509D01*
X240073Y169487D01*
X240090Y169464D01*
X240109Y169442D01*
X240124Y169416D01*
X240142Y169392D01*
X240155Y169366D01*
X240170Y169342D01*
X240182Y169314D01*
X240196Y169287D01*
X240205Y169259D01*
X240215Y169232D01*
X240222Y169203D01*
X240232Y169174D01*
X240236Y169146D01*
X240243Y169118D01*
X240245Y169088D01*
X240250Y169058D01*
X240250Y169029D01*
X240252Y169000D01*
Y144000D01*
X240243Y143882D01*
X240215Y143767D01*
X240184Y143690D01*
X240170Y143658D01*
X240109Y143558D01*
X240032Y143468D01*
X233032Y136468D01*
X232942Y136391D01*
X232841Y136330D01*
X232733Y136285D01*
X232618Y136257D01*
X232500Y136248D01*
X226500D01*
X226382Y136257D01*
X226267Y136285D01*
X226190Y136316D01*
X226158Y136330D01*
X226058Y136391D01*
X225968Y136468D01*
X218968Y143468D01*
X218891Y143558D01*
X218830Y143658D01*
X218807Y143713D01*
X218785Y143767D01*
X218757Y143882D01*
X218748Y144000D01*
Y169000D01*
X218750Y169029D01*
X218750Y169058D01*
X218755Y169088D01*
X218757Y169118D01*
X218764Y169146D01*
X218768Y169174D01*
X218778Y169203D01*
X218785Y169232D01*
X218796Y169259D01*
X218804Y169287D01*
X218818Y169314D01*
X218830Y169342D01*
X218845Y169366D01*
X218858Y169392D01*
X218876Y169416D01*
X218891Y169442D01*
X218910Y169464D01*
X218927Y169487D01*
X218948Y169509D01*
X218968Y169532D01*
X218990Y169551D01*
X219010Y169571D01*
X226010Y175571D01*
X226035Y175589D01*
X226058Y175609D01*
X226083Y175624D01*
X226106Y175641D01*
X226133Y175654D01*
X226159Y175670D01*
X226185Y175681D01*
X226211Y175695D01*
X226240Y175704D01*
X226268Y175715D01*
X226295Y175722D01*
X226323Y175731D01*
X226353Y175736D01*
X226382Y175743D01*
X226411Y175745D01*
X226440Y175750D01*
X226470Y175750D01*
X226500Y175752D01*
X232500D01*
X232530Y175750D01*
D02*
G37*
D15*
X0Y0D02*
X300000D01*
X0D02*
Y372500D01*
X300000Y0D02*
Y372500D01*
X0D02*
X300000D01*
D30*
X279500Y59250D02*
D03*
Y73250D02*
D03*
Y101750D02*
D03*
Y115750D02*
D03*
X62627Y87361D02*
D03*
Y73361D02*
D03*
X85964Y87500D02*
D03*
Y73500D02*
D03*
X136000Y59000D02*
D03*
Y45000D02*
D03*
X166806Y60000D02*
D03*
Y46000D02*
D03*
X184482D02*
D03*
Y60000D02*
D03*
X202232Y46000D02*
D03*
Y60000D02*
D03*
D31*
X246245Y114500D02*
D03*
X260245D02*
D03*
X142250Y82500D02*
D03*
X128250D02*
D03*
X174750D02*
D03*
X160750D02*
D03*
X209395Y114500D02*
D03*
X223395D02*
D03*
X87264Y148000D02*
D03*
X101264D02*
D03*
X46327Y147861D02*
D03*
X60327D02*
D03*
D32*
X94264Y104000D02*
D03*
X84764Y128000D02*
D03*
X103764D02*
D03*
X53327Y103861D02*
D03*
X43827Y127861D02*
D03*
X62827D02*
D03*
D33*
X259500Y61250D02*
D03*
Y91250D02*
D03*
D34*
X260500Y76250D02*
D03*
D35*
X214500Y132000D02*
D03*
X244500D02*
D03*
D36*
X229500Y131000D02*
D03*
D37*
X162400Y321800D02*
D03*
X168900D02*
D03*
X175400D02*
D03*
X181900D02*
D03*
X120000D02*
D03*
X126500D02*
D03*
X133000D02*
D03*
X139500D02*
D03*
X77000D02*
D03*
X83500D02*
D03*
X90000D02*
D03*
X96500D02*
D03*
X34000D02*
D03*
X40500D02*
D03*
X47000D02*
D03*
X53500D02*
D03*
D38*
X181900Y291000D02*
D03*
X175400D02*
D03*
X168900D02*
D03*
X162400D02*
D03*
X139500D02*
D03*
X133000D02*
D03*
X126500D02*
D03*
X120000D02*
D03*
X96500D02*
D03*
X90000D02*
D03*
X83500D02*
D03*
X77000D02*
D03*
X53500D02*
D03*
X47000D02*
D03*
X40500D02*
D03*
X34000D02*
D03*
D39*
X103750Y233250D02*
D03*
X95750D02*
D03*
X111750D02*
D03*
X119750D02*
D03*
X120000Y250750D02*
D03*
X111750D02*
D03*
X103750D02*
D03*
X95750D02*
D03*
Y211750D02*
D03*
X103750D02*
D03*
X111750D02*
D03*
X120000D02*
D03*
X119750Y194250D02*
D03*
X111750D02*
D03*
X95750D02*
D03*
X103750D02*
D03*
D40*
X150750Y126250D02*
D03*
D41*
X127250Y108750D02*
D03*
Y113750D02*
D03*
Y118750D02*
D03*
Y123750D02*
D03*
Y128750D02*
D03*
Y133750D02*
D03*
Y138750D02*
D03*
Y143750D02*
D03*
X174250D02*
D03*
Y138750D02*
D03*
Y133750D02*
D03*
Y128750D02*
D03*
Y123750D02*
D03*
Y118750D02*
D03*
Y113750D02*
D03*
Y108750D02*
D03*
D42*
X133250Y149750D02*
D03*
X138250D02*
D03*
X143250D02*
D03*
X148250D02*
D03*
X153250D02*
D03*
X158250D02*
D03*
X163250D02*
D03*
X168250D02*
D03*
X168250Y102750D02*
D03*
X163250D02*
D03*
X158250D02*
D03*
X153250D02*
D03*
X148250D02*
D03*
X143250D02*
D03*
X138250D02*
D03*
X133250D02*
D03*
D43*
X172145Y310550D02*
D03*
X129745D02*
D03*
X86745Y310550D02*
D03*
X43745Y310550D02*
D03*
D44*
X160750Y14998D02*
D03*
X15000Y235000D02*
D03*
X285000D02*
D03*
X63400Y355000D02*
D03*
X139600D02*
D03*
X165000D02*
D03*
X114200D02*
D03*
X88800D02*
D03*
X213800Y260000D02*
D03*
X19000Y99700D02*
D03*
Y74300D02*
D03*
Y125100D02*
D03*
D45*
X190400Y355000D02*
D03*
X239200Y260000D02*
D03*
D46*
X49164Y18000D02*
D03*
X74564D02*
D03*
X99964D02*
D03*
X196900D02*
D03*
X222300D02*
D03*
X247700D02*
D03*
D47*
X125364D02*
D03*
X273100D02*
D03*
D48*
X236500Y212000D02*
D03*
X235000Y309000D02*
D03*
D49*
X216500Y212000D02*
D03*
X215000Y309000D02*
D03*
D50*
X19000Y48900D02*
D03*
D51*
X258400Y101750D02*
D03*
X85000Y116750D02*
D03*
X142000Y70000D02*
D03*
X213500Y100407D02*
D03*
D52*
X163250Y138750D02*
D03*
X150750D02*
D03*
X138250D02*
D03*
X138250Y126250D02*
D03*
Y113750D02*
D03*
X150750D02*
D03*
X163250D02*
D03*
Y126250D02*
D03*
X150750D02*
D03*
M02*
