G04*
G04 #@! TF.GenerationSoftware,Altium Limited,Altium Designer,20.1.11 (218)*
G04*
G04 Layer_Color=8421504*
%FSLAX44Y44*%
%MOMM*%
G71*
G04*
G04 #@! TF.SameCoordinates,7590A8BC-6F61-42B1-8E90-CD4C0DD3AB11*
G04*
G04*
G04 #@! TF.FilePolarity,Positive*
G04*
G01*
G75*
%ADD15C,0.1000*%
%ADD16R,0.8500X0.8500*%
%ADD17R,0.8500X0.8500*%
%ADD18R,0.6000X1.0000*%
%ADD19R,1.4000X0.6000*%
%ADD20R,1.2000X0.6500*%
%ADD21R,0.6000X1.4000*%
%ADD22R,0.6500X1.2000*%
%ADD23R,0.4200X0.5400*%
%ADD24R,0.4200X0.7000*%
%ADD25R,0.4500X0.8500*%
%ADD26R,3.4500X3.4500*%
%ADD27R,0.6000X0.3000*%
%ADD28R,0.3000X0.6000*%
%ADD29R,2.3700X1.7100*%
G36*
X254500Y79250D02*
Y73250D01*
X247500Y66250D01*
X222500D01*
X216500Y73250D01*
Y79250D01*
X222500Y86250D01*
X247500D01*
X254500Y79250D01*
D02*
G37*
G36*
X239500Y169000D02*
Y144000D01*
X232500Y137000D01*
X226500D01*
X219500Y144000D01*
Y169000D01*
X226500Y175000D01*
X232500D01*
X239500Y169000D01*
D02*
G37*
D15*
X0Y0D02*
X300000D01*
X0D02*
Y372500D01*
X300000Y0D02*
Y372500D01*
X0D02*
X300000D01*
D16*
X279500Y59250D02*
D03*
Y73250D02*
D03*
Y101750D02*
D03*
Y115750D02*
D03*
X62627Y87361D02*
D03*
Y73361D02*
D03*
X85964Y87500D02*
D03*
Y73500D02*
D03*
X136000Y59000D02*
D03*
Y45000D02*
D03*
X166806Y60000D02*
D03*
Y46000D02*
D03*
X184482D02*
D03*
Y60000D02*
D03*
X202232Y46000D02*
D03*
Y60000D02*
D03*
D17*
X246245Y114500D02*
D03*
X260245D02*
D03*
X142250Y82500D02*
D03*
X128250D02*
D03*
X174750D02*
D03*
X160750D02*
D03*
X209395Y114500D02*
D03*
X223395D02*
D03*
X87264Y148000D02*
D03*
X101264D02*
D03*
X46327Y147861D02*
D03*
X60327D02*
D03*
D18*
X94264Y104000D02*
D03*
X84764Y128000D02*
D03*
X103764D02*
D03*
X53327Y103861D02*
D03*
X43827Y127861D02*
D03*
X62827D02*
D03*
D19*
X259500Y61250D02*
D03*
Y91250D02*
D03*
D20*
X260500Y76250D02*
D03*
D21*
X214500Y132000D02*
D03*
X244500D02*
D03*
D22*
X229500Y131000D02*
D03*
D23*
X162400Y321800D02*
D03*
X168900D02*
D03*
X175400D02*
D03*
X181900D02*
D03*
X120000D02*
D03*
X126500D02*
D03*
X133000D02*
D03*
X139500D02*
D03*
X77000D02*
D03*
X83500D02*
D03*
X90000D02*
D03*
X96500D02*
D03*
X34000D02*
D03*
X40500D02*
D03*
X47000D02*
D03*
X53500D02*
D03*
D24*
X181900Y291000D02*
D03*
X175400D02*
D03*
X168900D02*
D03*
X162400D02*
D03*
X139500D02*
D03*
X133000D02*
D03*
X126500D02*
D03*
X120000D02*
D03*
X96500D02*
D03*
X90000D02*
D03*
X83500D02*
D03*
X77000D02*
D03*
X53500D02*
D03*
X47000D02*
D03*
X40500D02*
D03*
X34000D02*
D03*
D25*
X103750Y233250D02*
D03*
X95750D02*
D03*
X111750D02*
D03*
X119750D02*
D03*
X120000Y250750D02*
D03*
X111750D02*
D03*
X103750D02*
D03*
X95750D02*
D03*
Y211750D02*
D03*
X103750D02*
D03*
X111750D02*
D03*
X120000D02*
D03*
X119750Y194250D02*
D03*
X111750D02*
D03*
X95750D02*
D03*
X103750D02*
D03*
D26*
X150750Y126250D02*
D03*
D27*
X127250Y108750D02*
D03*
Y113750D02*
D03*
Y118750D02*
D03*
Y123750D02*
D03*
Y128750D02*
D03*
Y133750D02*
D03*
Y138750D02*
D03*
Y143750D02*
D03*
X174250D02*
D03*
Y138750D02*
D03*
Y133750D02*
D03*
Y128750D02*
D03*
Y123750D02*
D03*
Y118750D02*
D03*
Y113750D02*
D03*
Y108750D02*
D03*
D28*
X133250Y149750D02*
D03*
X138250D02*
D03*
X143250D02*
D03*
X148250D02*
D03*
X153250D02*
D03*
X158250D02*
D03*
X163250D02*
D03*
X168250D02*
D03*
X168250Y102750D02*
D03*
X163250D02*
D03*
X158250D02*
D03*
X153250D02*
D03*
X148250D02*
D03*
X143250D02*
D03*
X138250D02*
D03*
X133250D02*
D03*
D29*
X172145Y310550D02*
D03*
X129745D02*
D03*
X86745Y310550D02*
D03*
X43745Y310550D02*
D03*
M02*
