G04*
G04 #@! TF.GenerationSoftware,Altium Limited,Altium Designer,20.1.11 (218)*
G04*
G04 Layer_Physical_Order=1*
G04 Layer_Color=255*
%FSLAX44Y44*%
%MOMM*%
G71*
G04*
G04 #@! TF.SameCoordinates,7590A8BC-6F61-42B1-8E90-CD4C0DD3AB11*
G04*
G04*
G04 #@! TF.FilePolarity,Positive*
G04*
G01*
G75*
%ADD10C,0.2500*%
%ADD15C,0.1000*%
%ADD16R,0.8500X0.8500*%
%ADD17R,0.8500X0.8500*%
%ADD18R,0.6000X1.0000*%
%ADD19R,1.4000X0.6000*%
%ADD20R,1.2000X0.6500*%
%ADD21R,0.6000X1.4000*%
%ADD22R,0.6500X1.2000*%
%ADD23R,0.4200X0.5400*%
%ADD24R,0.4200X0.7000*%
%ADD25R,0.4500X0.8500*%
%ADD26R,3.4500X3.4500*%
%ADD27R,0.6000X0.3000*%
%ADD28R,0.3000X0.6000*%
%ADD29R,2.3700X1.7100*%
%ADD53R,1.0000X0.5000*%
%ADD54C,0.5800*%
%ADD55C,0.6500*%
%ADD56C,1.5000*%
%ADD57C,0.8000*%
%ADD58C,0.5000*%
%ADD59C,0.7000*%
%ADD60C,0.4000*%
%ADD61C,0.3400*%
%ADD62C,0.3500*%
%ADD63C,2.0000*%
%ADD64R,2.0000X2.0000*%
%ADD65C,1.8000*%
%ADD66P,1.9483X8X202.5*%
%ADD67P,1.0824X8X202.5*%
%ADD68C,1.0000*%
%ADD69R,2.0000X2.0000*%
%ADD70C,0.7000*%
G36*
X74211Y328257D02*
X60327D01*
Y302000D01*
X55595D01*
Y319100D01*
X31895D01*
Y365313D01*
X74211D01*
Y328257D01*
D02*
G37*
G36*
X150750Y365063D02*
Y338871D01*
X183273D01*
X183995Y338149D01*
Y319100D01*
X160295D01*
Y302000D01*
X148250D01*
Y330831D01*
X128539D01*
Y364277D01*
X129439Y365173D01*
X150750Y365063D01*
D02*
G37*
G36*
X126500Y328344D02*
X141595D01*
Y319100D01*
X117895D01*
Y302000D01*
X116625Y302000D01*
X106454D01*
X106366Y328344D01*
X103862D01*
X103812Y353631D01*
X103786Y353761D01*
X103795Y353894D01*
X103649Y355000D01*
X103789Y356066D01*
X103780Y356202D01*
X103807Y356336D01*
X103792Y363918D01*
X105059Y365188D01*
X126500D01*
Y328344D01*
D02*
G37*
G36*
X101750Y365188D02*
X101768Y356332D01*
X101592Y355000D01*
X101773Y353627D01*
X101873Y302899D01*
X100976Y302000D01*
X98595D01*
Y319100D01*
X76250D01*
Y365313D01*
X101625D01*
X101750Y365188D01*
D02*
G37*
G36*
X92400Y285500D02*
X92677D01*
Y267732D01*
X92968Y266269D01*
X93431Y265575D01*
X92767Y264305D01*
X62108D01*
X57323Y269090D01*
Y285500D01*
X57600D01*
Y294750D01*
X92400D01*
Y285500D01*
D02*
G37*
G36*
X177800D02*
X178077D01*
Y264122D01*
X175316Y261362D01*
X140422D01*
X139936Y262535D01*
X142204Y264802D01*
X143032Y266043D01*
X143323Y267506D01*
Y285500D01*
X143600D01*
Y294750D01*
X177800D01*
Y285500D01*
D02*
G37*
G36*
X135400D02*
X135677D01*
Y269090D01*
X132948Y266362D01*
X116288D01*
X114825Y266070D01*
X113584Y265242D01*
X109046Y260704D01*
X108843Y260400D01*
X108163Y260444D01*
X107961Y260530D01*
X107527Y260716D01*
X107282Y261945D01*
X106454Y263185D01*
X100323Y269315D01*
Y285500D01*
X100600D01*
Y294750D01*
X135400D01*
Y285500D01*
D02*
G37*
G36*
X296941Y242021D02*
X295671Y241626D01*
X293915Y243915D01*
X291304Y245919D01*
X288263Y247178D01*
X285000Y247608D01*
X281737Y247178D01*
X278696Y245919D01*
X276085Y243915D01*
X274081Y241304D01*
X272822Y238263D01*
X272392Y235000D01*
X272822Y231737D01*
X274081Y228696D01*
X276085Y226085D01*
X278696Y224081D01*
X281737Y222822D01*
X285000Y222392D01*
X288263Y222822D01*
X291304Y224081D01*
X293915Y226085D01*
X295671Y228374D01*
X296941Y227979D01*
Y205000D01*
X244847D01*
X244321Y206270D01*
X245975Y207924D01*
X247498Y209909D01*
X248456Y212220D01*
X248782Y214700D01*
Y247500D01*
X251700D01*
Y272500D01*
X226700D01*
Y247500D01*
X229618D01*
Y218637D01*
X228202Y216791D01*
X227245Y214480D01*
X226918Y212000D01*
X227245Y209520D01*
X228202Y207209D01*
X228922Y206270D01*
X228296Y205000D01*
X125313D01*
X124250Y205500D01*
X124250Y206270D01*
Y216582D01*
X125051Y216742D01*
X126870Y217957D01*
X128085Y219776D01*
X128512Y221922D01*
X128085Y224069D01*
X126870Y225888D01*
X125051Y227103D01*
X124000Y227312D01*
Y239500D01*
X91500D01*
Y227361D01*
X89785Y226215D01*
X88569Y224396D01*
X88142Y222250D01*
X88569Y220104D01*
X89785Y218285D01*
X91500Y217139D01*
Y206270D01*
X91500Y205500D01*
X90437Y205000D01*
X51117D01*
X49968Y206220D01*
Y209000D01*
X42779D01*
X42205Y209384D01*
X41424Y209539D01*
X31424D01*
X30644Y209384D01*
X30069Y209000D01*
X27915D01*
Y205000D01*
X3059D01*
Y227979D01*
X4329Y228374D01*
X6085Y226085D01*
X8696Y224081D01*
X11737Y222822D01*
X15000Y222392D01*
X18263Y222822D01*
X21304Y224081D01*
X23915Y226085D01*
X25919Y228696D01*
X27178Y231737D01*
X27608Y235000D01*
X27178Y238263D01*
X25919Y241304D01*
X23915Y243915D01*
X21304Y245919D01*
X18263Y247178D01*
X15000Y247608D01*
X11737Y247178D01*
X8696Y245919D01*
X6085Y243915D01*
X4329Y241626D01*
X3059Y242021D01*
Y294750D01*
X49400D01*
Y285500D01*
X49677D01*
Y267506D01*
X49968Y266043D01*
X50796Y264802D01*
X57821Y257778D01*
X59061Y256949D01*
X60524Y256658D01*
X91500D01*
Y244500D01*
X124250D01*
Y253715D01*
X176900D01*
X178363Y254006D01*
X179604Y254834D01*
X184604Y259834D01*
X185432Y261075D01*
X185723Y262538D01*
Y285500D01*
X186000D01*
Y294750D01*
X200069D01*
Y333657D01*
X296941D01*
Y242021D01*
D02*
G37*
G36*
X41424Y202500D02*
X31424D01*
Y207500D01*
X41424D01*
Y202500D01*
D02*
G37*
G36*
X296941Y3059D02*
X167779D01*
X167379Y4329D01*
X169665Y6083D01*
X171669Y8694D01*
X172928Y11735D01*
X173358Y14998D01*
X172928Y18261D01*
X171669Y21302D01*
X169665Y23913D01*
X167054Y25917D01*
X164013Y27176D01*
X160750Y27606D01*
X157487Y27176D01*
X154446Y25917D01*
X151835Y23913D01*
X149831Y21302D01*
X148572Y18261D01*
X148142Y14998D01*
X148572Y11735D01*
X149831Y8694D01*
X151835Y6083D01*
X154121Y4329D01*
X153721Y3059D01*
X3059D01*
Y200000D01*
X296941D01*
Y3059D01*
D02*
G37*
%LPC*%
G36*
X238750Y316500D02*
X231250D01*
X227500Y312750D01*
Y305250D01*
X231250Y301500D01*
X238750D01*
X242500Y305250D01*
Y312750D01*
X238750Y316500D01*
D02*
G37*
G36*
X149000Y177608D02*
X146854Y177181D01*
X145035Y175965D01*
X143819Y174146D01*
X143392Y172000D01*
X143742Y170244D01*
X143076Y169353D01*
X142766Y169144D01*
X142000Y169296D01*
X139854Y168869D01*
X138035Y167654D01*
X136819Y165834D01*
X136392Y163688D01*
X136819Y161542D01*
X138035Y159723D01*
X139854Y158507D01*
X139901Y158498D01*
Y154750D01*
X129750D01*
Y147250D01*
X126136D01*
X125751Y148520D01*
X126333Y148909D01*
X127051Y149984D01*
X127303Y151252D01*
Y156292D01*
X127051Y157560D01*
X126333Y158635D01*
X125258Y159353D01*
X124625Y159479D01*
X123935Y159853D01*
X123707Y160875D01*
X123797Y161332D01*
Y167535D01*
X123545Y168804D01*
X122827Y169879D01*
X122740Y169965D01*
X122740Y169965D01*
X121362Y171343D01*
X120287Y172061D01*
X119019Y172314D01*
X113926D01*
X113364Y173154D01*
X112289Y173873D01*
X111021Y174125D01*
X105981D01*
X104713Y173873D01*
X103638Y173154D01*
X102920Y172079D01*
X102464Y171891D01*
X102209Y172061D01*
X100941Y172314D01*
X94335D01*
X93067Y172061D01*
X91992Y171343D01*
X84921Y164272D01*
X84203Y163197D01*
X83950Y161929D01*
Y154250D01*
X81014D01*
Y141750D01*
X82676D01*
Y138151D01*
X82020Y137494D01*
X81025Y136006D01*
X80825Y135000D01*
X79764D01*
Y121338D01*
X68081D01*
X67839Y121579D01*
Y127437D01*
X67827Y127500D01*
Y134861D01*
X67163D01*
X66935Y136006D01*
X65940Y137494D01*
X65423Y138012D01*
Y141611D01*
X66577D01*
Y154111D01*
X54077D01*
Y141611D01*
X56247D01*
Y136111D01*
X56596Y134355D01*
X57591Y132867D01*
X57827Y132631D01*
Y120861D01*
X58663D01*
Y119679D01*
X59012Y117923D01*
X60007Y116435D01*
X62936Y113506D01*
X64424Y112511D01*
X66180Y112162D01*
X81967D01*
X82854Y111569D01*
X85000Y111142D01*
X87146Y111569D01*
X87783Y111995D01*
X89114Y111668D01*
X89264Y111000D01*
X89264Y110892D01*
Y97000D01*
X89676D01*
Y93750D01*
X79714D01*
Y92019D01*
X77329D01*
X76441Y92611D01*
X74296Y93038D01*
X72150Y92611D01*
X71262Y92019D01*
X68877D01*
Y93611D01*
X57915D01*
Y96861D01*
X58327D01*
Y110861D01*
X48327D01*
Y96861D01*
X48739D01*
Y77692D01*
X49012Y76320D01*
X47841Y75694D01*
X45088Y78447D01*
Y82750D01*
X44739Y84506D01*
X43744Y85994D01*
X31894Y97845D01*
X31407Y98171D01*
X31608Y99700D01*
X31178Y102963D01*
X29919Y106004D01*
X27915Y108615D01*
X25304Y110619D01*
X22263Y111878D01*
X19000Y112308D01*
X15737Y111878D01*
X12696Y110619D01*
X10085Y108615D01*
X8081Y106004D01*
X6822Y102963D01*
X6392Y99700D01*
X6822Y96437D01*
X8081Y93396D01*
X10085Y90785D01*
X12696Y88781D01*
X15423Y87652D01*
X15423Y87650D01*
Y86350D01*
X15423Y86348D01*
X12696Y85219D01*
X10085Y83215D01*
X8081Y80604D01*
X6822Y77563D01*
X6392Y74300D01*
X6822Y71037D01*
X8081Y67996D01*
X10085Y65385D01*
X12696Y63381D01*
X14413Y62670D01*
X14160Y61400D01*
X6500D01*
Y36400D01*
X31500D01*
Y61400D01*
X23839D01*
X23587Y62670D01*
X25304Y63381D01*
X27915Y65385D01*
X29033Y66842D01*
X34524D01*
X45860Y55506D01*
X47348Y54511D01*
X49104Y54162D01*
X71482D01*
X73238Y54511D01*
X74727Y55506D01*
X80387Y61167D01*
X80927Y61974D01*
X86203Y67250D01*
X92214D01*
Y69087D01*
X93091Y69261D01*
X94579Y70256D01*
X97508Y73185D01*
X98503Y74673D01*
X98852Y76429D01*
Y97000D01*
X99264D01*
Y110892D01*
X99264Y111000D01*
X99525Y112162D01*
X100550D01*
X102305Y112511D01*
X103794Y113506D01*
X107008Y116720D01*
X108003Y118209D01*
X108352Y119965D01*
Y121000D01*
X108764D01*
Y135000D01*
X107703D01*
X107503Y136006D01*
X106508Y137494D01*
X105852Y138151D01*
Y141750D01*
X107514D01*
Y154250D01*
X95014D01*
Y141750D01*
X96676D01*
Y136250D01*
X97025Y134494D01*
X98020Y133006D01*
X98676Y132350D01*
Y128500D01*
X98764Y128057D01*
Y121453D01*
X98649Y121338D01*
X89764D01*
Y128057D01*
X89852Y128500D01*
Y132350D01*
X90508Y133006D01*
X91503Y134494D01*
X91852Y136250D01*
Y141750D01*
X93514D01*
Y154250D01*
X90578D01*
Y160556D01*
X95708Y165686D01*
X97834D01*
X97880Y165458D01*
X98598Y164383D01*
X99673Y163665D01*
X100941Y163412D01*
X105981D01*
X107249Y163665D01*
X108324Y164383D01*
X109042Y165458D01*
X110358Y165818D01*
X111021Y165686D01*
X114219D01*
X114344Y164416D01*
X114228Y164393D01*
X113153Y163675D01*
X112435Y162600D01*
X112183Y161332D01*
Y156292D01*
X112435Y155024D01*
X113153Y153949D01*
X114228Y153230D01*
X115497Y152978D01*
X116317D01*
X117261Y151708D01*
X117170Y151252D01*
Y145000D01*
X117188Y144910D01*
X116104Y143849D01*
X114756Y144117D01*
X112610Y143690D01*
X110790Y142474D01*
X109575Y140655D01*
X109148Y138509D01*
X109575Y136363D01*
X110790Y134544D01*
X112610Y133328D01*
X114756Y132901D01*
X116902Y133328D01*
X118721Y134544D01*
X119317Y135436D01*
X122250D01*
Y130250D01*
Y120250D01*
Y111933D01*
X121637Y111811D01*
X120562Y111093D01*
X118040Y108572D01*
X117322Y107497D01*
X117069Y106228D01*
Y81131D01*
X103519Y67580D01*
X102750Y67733D01*
X100604Y67306D01*
X98785Y66090D01*
X97569Y64271D01*
X97142Y62125D01*
X97569Y59979D01*
X98785Y58159D01*
X100604Y56944D01*
X100807Y56904D01*
X101176Y55688D01*
X90948Y45461D01*
X72801D01*
X71338Y45170D01*
X70098Y44341D01*
X54142Y28385D01*
X52166Y29204D01*
X49164Y29599D01*
X46162Y29204D01*
X43365Y28045D01*
X40962Y26202D01*
X39119Y23800D01*
X37960Y21002D01*
X37565Y18000D01*
X37960Y14998D01*
X39119Y12200D01*
X40962Y9798D01*
X43365Y7955D01*
X46162Y6796D01*
X49164Y6401D01*
X52166Y6796D01*
X54964Y7955D01*
X57366Y9798D01*
X59209Y12200D01*
X60368Y14998D01*
X60763Y18000D01*
X60368Y21002D01*
X59549Y22978D01*
X74385Y37814D01*
X92532D01*
X93995Y38105D01*
X95236Y38934D01*
X130954Y74651D01*
X131782Y75892D01*
X131854Y76250D01*
X134500D01*
Y88750D01*
X131564D01*
Y90414D01*
X135593Y94444D01*
X136311Y95519D01*
X136564Y96787D01*
Y97750D01*
X161750D01*
Y107750D01*
X132250D01*
Y115250D01*
Y125250D01*
Y135250D01*
Y144750D01*
X169250D01*
Y140250D01*
Y130250D01*
Y120250D01*
Y107750D01*
X164750D01*
Y97750D01*
X170672D01*
Y88750D01*
X168500D01*
Y77531D01*
X167577Y76608D01*
X148500D01*
Y88750D01*
X136000D01*
Y76250D01*
X136642D01*
Y71257D01*
X136392Y70000D01*
Y67323D01*
X134319Y65250D01*
X129750D01*
Y64412D01*
X128586Y64181D01*
X126767Y62965D01*
X121399Y57597D01*
X120183Y55778D01*
X119756Y53632D01*
Y29500D01*
X119614D01*
X113864Y23750D01*
Y12250D01*
X119614Y6500D01*
X131114D01*
X136864Y12250D01*
Y23750D01*
X131114Y29500D01*
X130972D01*
Y51309D01*
X132413Y52750D01*
X142250D01*
Y57319D01*
X145965Y61035D01*
X147181Y62854D01*
X147608Y65000D01*
Y65392D01*
X160556D01*
Y53750D01*
X173056D01*
Y55412D01*
X178232D01*
Y53750D01*
X190732D01*
Y66250D01*
X190732Y66250D01*
X190732D01*
X191063Y67424D01*
X194639Y70999D01*
X195909Y70473D01*
Y62500D01*
X195982Y62131D01*
Y53750D01*
X208482D01*
Y66250D01*
X203556D01*
Y100289D01*
X204826Y100675D01*
X205319Y99936D01*
X209174Y96081D01*
X211159Y94755D01*
X213500Y94289D01*
X215841Y94755D01*
X217826Y96081D01*
X219152Y98066D01*
X219618Y100407D01*
X219152Y102748D01*
X217826Y104733D01*
X215763Y106796D01*
Y114250D01*
X215713Y114500D01*
X215763Y114750D01*
Y122611D01*
X216152Y123000D01*
X219500D01*
Y128409D01*
X219618Y129000D01*
X219500Y129591D01*
Y139320D01*
X220770Y139846D01*
X225058Y135558D01*
X225720Y135116D01*
X226500Y134961D01*
X232500D01*
X233280Y135116D01*
X233942Y135558D01*
X238230Y139846D01*
X239500Y139320D01*
Y123000D01*
X239768D01*
X240430Y121937D01*
X239995Y120750D01*
X239995D01*
Y108250D01*
X241165D01*
X241549Y106318D01*
X242710Y104581D01*
X244231Y103565D01*
X249578Y98217D01*
X250622Y97520D01*
X250500Y96250D01*
X250500D01*
Y87930D01*
X249230Y87404D01*
X248942Y87692D01*
X248942Y87692D01*
X248280Y88134D01*
X247500Y88289D01*
X222500D01*
X222422Y88274D01*
X222344Y88283D01*
X222035Y88197D01*
X221720Y88134D01*
X221654Y88090D01*
X221577Y88069D01*
X221325Y87870D01*
X221058Y87692D01*
X221014Y87626D01*
X220952Y87577D01*
X214952Y80577D01*
X214795Y80297D01*
X214616Y80030D01*
X214601Y79953D01*
X214562Y79884D01*
X214524Y79565D01*
X214461Y79250D01*
Y73250D01*
X214524Y72935D01*
X214562Y72617D01*
X214601Y72547D01*
X214616Y72470D01*
X214795Y72203D01*
X214952Y71923D01*
X220952Y64923D01*
X221014Y64874D01*
X221058Y64808D01*
X221325Y64630D01*
X221577Y64432D01*
X221654Y64410D01*
X221720Y64366D01*
X222035Y64303D01*
X222344Y64217D01*
X222422Y64226D01*
X222500Y64211D01*
X247500D01*
X248280Y64366D01*
X248942Y64808D01*
X248942Y64808D01*
X249230Y65096D01*
X250500Y64570D01*
Y56250D01*
X261435D01*
X261967Y55717D01*
X263588Y54634D01*
X265500Y54254D01*
X269811D01*
X270297Y53081D01*
X268774Y51558D01*
X267448Y49573D01*
X266982Y47232D01*
Y29132D01*
X261600Y23750D01*
Y12250D01*
X267350Y6500D01*
X278850D01*
X284600Y12250D01*
Y23750D01*
X279218Y29132D01*
Y44698D01*
X283826Y49306D01*
X285152Y51291D01*
X285492Y53000D01*
X285750D01*
Y65500D01*
X273250D01*
Y64246D01*
X268500D01*
Y66250D01*
X252180D01*
X251654Y67520D01*
X255942Y71808D01*
X256384Y72470D01*
X256539Y73250D01*
Y79250D01*
X256384Y80030D01*
X255942Y80692D01*
X251654Y84980D01*
X252180Y86250D01*
X268500D01*
Y86254D01*
X276149D01*
X278061Y86634D01*
X279682Y87717D01*
X283033Y91068D01*
X284116Y92689D01*
X284496Y94601D01*
Y95500D01*
X285750D01*
Y108000D01*
X273250D01*
Y106746D01*
X260823D01*
X260546Y106931D01*
X258400Y107358D01*
X256254Y106931D01*
X255977Y106746D01*
X255180D01*
X252495Y109432D01*
Y120750D01*
X251241D01*
Y123000D01*
X250861Y124912D01*
X249778Y126533D01*
X249596Y126714D01*
Y131900D01*
X249500Y132382D01*
Y141000D01*
X241180D01*
X240654Y142270D01*
X240942Y142558D01*
X240942Y142558D01*
X241384Y143220D01*
X241539Y144000D01*
Y169000D01*
X241524Y169078D01*
X241533Y169156D01*
X241447Y169466D01*
X241384Y169780D01*
X241340Y169846D01*
X241319Y169923D01*
X241120Y170175D01*
X240942Y170442D01*
X240876Y170486D01*
X240827Y170548D01*
X233827Y176548D01*
X233547Y176705D01*
X233280Y176884D01*
X233203Y176899D01*
X233134Y176938D01*
X232815Y176977D01*
X232500Y177039D01*
X226500D01*
X226185Y176977D01*
X225866Y176938D01*
X225797Y176899D01*
X225720Y176884D01*
X225453Y176705D01*
X225173Y176548D01*
X218173Y170548D01*
X218124Y170486D01*
X218058Y170442D01*
X217880Y170175D01*
X217681Y169923D01*
X217660Y169846D01*
X217616Y169780D01*
X217553Y169466D01*
X217467Y169156D01*
X217476Y169078D01*
X217461Y169000D01*
Y144000D01*
X217616Y143220D01*
X218058Y142558D01*
X218058Y142558D01*
X218346Y142270D01*
X217820Y141000D01*
X209500D01*
Y133543D01*
X209174Y133326D01*
X205319Y129471D01*
X205270Y129397D01*
X203743Y129397D01*
X203196Y130215D01*
X202790Y130487D01*
Y138750D01*
X202537Y140018D01*
X201819Y141093D01*
X200069Y142843D01*
X198994Y143561D01*
X197726Y143814D01*
X184075D01*
X182807Y143561D01*
X181732Y142843D01*
X180952Y142064D01*
X179250D01*
Y147250D01*
X171750D01*
Y154750D01*
X151564D01*
Y167098D01*
X152965Y168035D01*
X154181Y169854D01*
X154608Y172000D01*
X154181Y174146D01*
X152965Y175965D01*
X151146Y177181D01*
X149000Y177608D01*
D02*
G37*
G36*
X52577Y154111D02*
X40077D01*
Y141611D01*
X40212D01*
X41035Y140341D01*
X40719Y138750D01*
X41016Y137256D01*
X40088Y135867D01*
X39888Y134861D01*
X38827D01*
Y120861D01*
X48827D01*
Y127918D01*
X48915Y128361D01*
Y132211D01*
X49571Y132867D01*
X50566Y134355D01*
X50803Y135550D01*
X51508Y136604D01*
X51934Y138750D01*
X51618Y140341D01*
X52441Y141611D01*
X52577D01*
Y154111D01*
D02*
G37*
G36*
X208482Y52250D02*
X195982D01*
Y41494D01*
X194809Y41008D01*
X190732Y45085D01*
Y52250D01*
X178232D01*
Y39750D01*
X185397D01*
X195693Y29454D01*
X196917Y28636D01*
X198361Y28349D01*
X198361Y28349D01*
X206616D01*
X211936Y23029D01*
X211096Y21002D01*
X210701Y18000D01*
X211096Y14998D01*
X212255Y12200D01*
X214098Y9798D01*
X216500Y7955D01*
X219298Y6796D01*
X222300Y6401D01*
X225302Y6796D01*
X228100Y7955D01*
X230502Y9798D01*
X232345Y12200D01*
X233504Y14998D01*
X233899Y18000D01*
X233504Y21002D01*
X232345Y23800D01*
X230536Y26158D01*
X230604Y26615D01*
X230880Y27427D01*
X232938D01*
X237336Y23029D01*
X236496Y21002D01*
X236101Y18000D01*
X236496Y14998D01*
X237655Y12200D01*
X239498Y9798D01*
X241901Y7955D01*
X244698Y6796D01*
X247700Y6401D01*
X250702Y6796D01*
X253500Y7955D01*
X255902Y9798D01*
X257745Y12200D01*
X258904Y14998D01*
X259299Y18000D01*
X258904Y21002D01*
X257745Y23800D01*
X255902Y26202D01*
X253500Y28045D01*
X250702Y29204D01*
X247700Y29599D01*
X244698Y29204D01*
X242671Y28364D01*
X237168Y33867D01*
X235944Y34685D01*
X234500Y34973D01*
X234500Y34973D01*
X218595D01*
X208482Y45085D01*
Y52250D01*
D02*
G37*
G36*
X99964Y29599D02*
X96962Y29204D01*
X94164Y28045D01*
X91762Y26202D01*
X89919Y23800D01*
X88760Y21002D01*
X88365Y18000D01*
X88760Y14998D01*
X89919Y12200D01*
X91762Y9798D01*
X94164Y7955D01*
X96962Y6796D01*
X99964Y6401D01*
X102966Y6796D01*
X105764Y7955D01*
X108166Y9798D01*
X110009Y12200D01*
X111168Y14998D01*
X111563Y18000D01*
X111168Y21002D01*
X110009Y23800D01*
X108166Y26202D01*
X105764Y28045D01*
X102966Y29204D01*
X99964Y29599D01*
D02*
G37*
%LPD*%
G36*
X239500Y169000D02*
Y144000D01*
X232500Y137000D01*
X226500D01*
X219500Y144000D01*
Y169000D01*
X226500Y175000D01*
X232500D01*
X239500Y169000D01*
D02*
G37*
G36*
X254500Y79250D02*
Y73250D01*
X247500Y66250D01*
X222500D01*
X216500Y73250D01*
Y79250D01*
X222500Y86250D01*
X247500D01*
X254500Y79250D01*
D02*
G37*
D10*
X120484Y147353D02*
Y151252D01*
X123990D01*
Y156292D01*
X115497D02*
X123990D01*
X115497D02*
Y161332D01*
X120484D01*
Y167535D01*
X120397Y167622D02*
X120484Y167535D01*
X119019Y169000D02*
X120397Y167622D01*
X120484Y145000D02*
Y147353D01*
X111021Y169000D02*
X118795D01*
X111021D02*
Y170811D01*
X105981D02*
X111021D01*
X105981Y166726D02*
Y170811D01*
X100941Y166726D02*
X105981D01*
X100941D02*
Y169000D01*
X94651D02*
X100941D01*
X118795D02*
X119019D01*
X94335D02*
X94651D01*
X87264Y161929D02*
X94335Y169000D01*
X87264Y148000D02*
Y161929D01*
X102750Y62125D02*
X120383Y79758D01*
Y106228D02*
X122905Y108750D01*
X120383Y79758D02*
Y106228D01*
X122905Y108750D02*
X127250D01*
X128250Y82500D02*
Y91787D01*
X133250Y96787D02*
Y102750D01*
X128250Y91787D02*
X133250Y96787D01*
X114756Y138509D02*
X114996Y138750D01*
X127250D01*
X121734Y143750D02*
X127250D01*
X120484Y145000D02*
X121734Y143750D01*
X189734Y123000D02*
X199732Y113001D01*
X186589Y123750D02*
X187339Y123000D01*
X189734D01*
X174250Y123750D02*
X186589D01*
X181532Y118750D02*
X183532Y116750D01*
X184750D01*
X199476Y128464D02*
Y138750D01*
X187500Y128750D02*
X189250Y127000D01*
X198011D01*
X174250Y128750D02*
X187500D01*
X174250Y118750D02*
X181532D01*
X174250Y133750D02*
X191500D01*
X184075Y140500D02*
X197726D01*
X199476Y138750D01*
X174250D02*
X182325D01*
X184075Y140500D01*
X148250Y149750D02*
Y171250D01*
X149000Y172000D01*
X143215Y149785D02*
Y162474D01*
X142000Y163688D02*
X143215Y162474D01*
Y149785D02*
X143250Y149750D01*
D15*
X0Y0D02*
X300000D01*
X0D02*
Y372500D01*
X300000Y0D02*
Y372500D01*
X0D02*
X300000D01*
D16*
X279500Y59250D02*
D03*
Y73250D02*
D03*
Y101750D02*
D03*
Y115750D02*
D03*
X62627Y87361D02*
D03*
Y73361D02*
D03*
X85964Y87500D02*
D03*
Y73500D02*
D03*
X136000Y59000D02*
D03*
Y45000D02*
D03*
X166806Y60000D02*
D03*
Y46000D02*
D03*
X184482D02*
D03*
Y60000D02*
D03*
X202232Y46000D02*
D03*
Y60000D02*
D03*
D17*
X246245Y114500D02*
D03*
X260245D02*
D03*
X142250Y82500D02*
D03*
X128250D02*
D03*
X174750D02*
D03*
X160750D02*
D03*
X209395Y114500D02*
D03*
X223395D02*
D03*
X87264Y148000D02*
D03*
X101264D02*
D03*
X46327Y147861D02*
D03*
X60327D02*
D03*
D18*
X94264Y104000D02*
D03*
X84764Y128000D02*
D03*
X103764D02*
D03*
X53327Y103861D02*
D03*
X43827Y127861D02*
D03*
X62827D02*
D03*
D19*
X259500Y61250D02*
D03*
Y91250D02*
D03*
D20*
X260500Y76250D02*
D03*
D21*
X214500Y132000D02*
D03*
X244500D02*
D03*
D22*
X229500Y131000D02*
D03*
D23*
X162400Y321800D02*
D03*
X168900D02*
D03*
X175400D02*
D03*
X181900D02*
D03*
X120000D02*
D03*
X126500D02*
D03*
X133000D02*
D03*
X139500D02*
D03*
X77000D02*
D03*
X83500D02*
D03*
X90000D02*
D03*
X96500D02*
D03*
X34000D02*
D03*
X40500D02*
D03*
X47000D02*
D03*
X53500D02*
D03*
D24*
X181900Y291000D02*
D03*
X175400D02*
D03*
X168900D02*
D03*
X162400D02*
D03*
X139500D02*
D03*
X133000D02*
D03*
X126500D02*
D03*
X120000D02*
D03*
X96500D02*
D03*
X90000D02*
D03*
X83500D02*
D03*
X77000D02*
D03*
X53500D02*
D03*
X47000D02*
D03*
X40500D02*
D03*
X34000D02*
D03*
D25*
X103750Y233250D02*
D03*
X95750D02*
D03*
X111750D02*
D03*
X119750D02*
D03*
X120000Y250750D02*
D03*
X111750D02*
D03*
X103750D02*
D03*
X95750D02*
D03*
Y211750D02*
D03*
X103750D02*
D03*
X111750D02*
D03*
X120000D02*
D03*
X119750Y194250D02*
D03*
X111750D02*
D03*
X95750D02*
D03*
X103750D02*
D03*
D26*
X150750Y126250D02*
D03*
D27*
X127250Y108750D02*
D03*
Y113750D02*
D03*
Y118750D02*
D03*
Y123750D02*
D03*
Y128750D02*
D03*
Y133750D02*
D03*
Y138750D02*
D03*
Y143750D02*
D03*
X174250D02*
D03*
Y138750D02*
D03*
Y133750D02*
D03*
Y128750D02*
D03*
Y123750D02*
D03*
Y118750D02*
D03*
Y113750D02*
D03*
Y108750D02*
D03*
D28*
X133250Y149750D02*
D03*
X138250D02*
D03*
X143250D02*
D03*
X148250D02*
D03*
X153250D02*
D03*
X158250D02*
D03*
X163250D02*
D03*
X168250D02*
D03*
X168250Y102750D02*
D03*
X163250D02*
D03*
X158250D02*
D03*
X153250D02*
D03*
X148250D02*
D03*
X143250D02*
D03*
X138250D02*
D03*
X133250D02*
D03*
D29*
X172145Y310550D02*
D03*
X129745D02*
D03*
X86745Y310550D02*
D03*
X43745Y310550D02*
D03*
D53*
X36424Y200000D02*
D03*
Y210000D02*
D03*
D54*
X246245Y114500D02*
Y123000D01*
X244500Y132000D02*
X244600Y131900D01*
Y124645D02*
Y131900D01*
Y124645D02*
X246245Y123000D01*
X258400Y101750D02*
X279500D01*
X253111D02*
X258400D01*
X265500Y59250D02*
X279500D01*
X263500Y61250D02*
X265500Y59250D01*
X259500Y61250D02*
X263500D01*
X246495Y108366D02*
X253111Y101750D01*
X276149Y91250D02*
X279500Y94601D01*
X259500Y91250D02*
X276149D01*
X279500Y94601D02*
Y101750D01*
D55*
X246245Y114500D02*
X246495Y114250D01*
Y108366D02*
Y114250D01*
D56*
X239200Y214700D02*
Y260000D01*
X236500Y212000D02*
X239200Y214700D01*
D57*
X279500Y53632D02*
Y59250D01*
X273100Y18000D02*
Y47232D01*
X279500Y53632D01*
X209395Y114500D02*
X209645Y114250D01*
Y104262D02*
Y114250D01*
Y104262D02*
X213500Y100407D01*
X209645Y114750D02*
Y125145D01*
X213500Y129000D01*
X209395Y114500D02*
X209645Y114750D01*
D58*
X85000Y116750D02*
X100550D01*
X66180D02*
X85000D01*
X77143Y64679D02*
X85964Y73500D01*
X77143Y64411D02*
Y64679D01*
X71482Y58750D02*
X77143Y64411D01*
X19000Y74300D02*
X21870Y71430D01*
X36424D01*
X49104Y58750D01*
X71482D01*
X62108Y72842D02*
X62627Y73361D01*
X40500Y76547D02*
Y82750D01*
X51796Y65250D02*
X59179D01*
X28649Y94601D02*
X40500Y82750D01*
X23059Y99700D02*
X28158Y94601D01*
X28649D01*
X62108Y68179D02*
Y72842D01*
X19000Y99700D02*
X23059D01*
X59179Y65250D02*
X62108Y68179D01*
X40500Y76547D02*
X51796Y65250D01*
X62827Y127861D02*
X63251Y127437D01*
X62696Y127992D02*
X62827Y127861D01*
X103764Y119965D02*
Y128000D01*
X100550Y116750D02*
X103764Y119965D01*
X63251Y119679D02*
X66180Y116750D01*
X63251Y119679D02*
Y127437D01*
X103264Y128500D02*
X103764Y128000D01*
X103264Y128500D02*
Y134250D01*
X101264Y136250D02*
X103264Y134250D01*
X101264Y136250D02*
Y148000D01*
X60327Y147861D02*
X60835Y147353D01*
Y136111D02*
Y147353D01*
Y136111D02*
X62696Y134250D01*
Y127992D02*
Y134250D01*
X46327Y138750D02*
Y147861D01*
Y136111D02*
Y138750D01*
X87264Y136250D02*
Y148000D01*
X74296Y87430D02*
X85895D01*
X62696D02*
X74296D01*
X62627Y87361D02*
X62696Y87430D01*
X85895D02*
X85964Y87500D01*
X43827Y127861D02*
X44327Y128361D01*
Y134111D01*
X46327Y136111D01*
X84764Y128000D02*
X85264Y128500D01*
Y134250D01*
X87264Y136250D01*
X94264Y76429D02*
Y104000D01*
X85964Y73500D02*
X91335D01*
X94264Y76429D01*
X53327Y77692D02*
X57657Y73361D01*
X53327Y77692D02*
Y103861D01*
X57657Y73361D02*
X62627D01*
X184482Y60000D02*
Y66250D01*
X166806Y60000D02*
X184482D01*
D59*
X142000Y65000D02*
Y70000D01*
X136000Y59000D02*
X142000Y65000D01*
X174750Y75851D02*
Y82500D01*
X169900Y71000D02*
X174750Y75851D01*
X142250Y71000D02*
X169900D01*
X142250D02*
Y82500D01*
X125364Y53632D02*
X130732Y59000D01*
X136000D01*
X125364Y18000D02*
Y53632D01*
D60*
X174750Y82500D02*
Y100407D01*
X169000Y102750D02*
X172407D01*
X174750Y100407D01*
D61*
X234500Y31200D02*
X247700Y18000D01*
X217032Y31200D02*
X234500D01*
X202232Y46000D02*
X217032Y31200D01*
X184482Y46000D02*
X198361Y32122D01*
X208178D01*
X222300Y18000D01*
D62*
X128250Y77355D02*
Y82500D01*
X92532Y41637D02*
X128250Y77355D01*
X72801Y41637D02*
X92532D01*
X49164Y18000D02*
X72801Y41637D01*
X184482Y66250D02*
X192982Y74750D01*
Y107112D01*
X199732Y62500D02*
Y113001D01*
Y62500D02*
X202232Y60000D01*
X122905Y221922D02*
Y222512D01*
X119750Y225667D02*
X122905Y222512D01*
X111825Y220128D02*
X112750Y221053D01*
X111750Y211750D02*
X111825Y211825D01*
Y220128D01*
X102750Y222000D02*
Y222947D01*
Y221053D02*
Y222000D01*
X122982Y221053D02*
Y222000D01*
X112750D02*
Y222947D01*
Y221053D02*
Y222000D01*
X111750Y250750D02*
Y258000D01*
X116288Y262538D02*
X134532D01*
X111750Y258000D02*
X116288Y262538D01*
X181900D02*
Y291000D01*
X122050Y257538D02*
X176900D01*
X181900Y262538D01*
X120000Y250750D02*
Y255488D01*
X122050Y257538D01*
X120000Y250750D02*
X120000Y250750D01*
X139500Y267506D02*
Y291000D01*
X134532Y262538D02*
X139500Y267506D01*
X60524Y260482D02*
X93700D01*
X95750Y250750D02*
Y258431D01*
X93700Y260482D02*
X95750Y258431D01*
X53500Y267506D02*
X60524Y260482D01*
X53500Y267506D02*
Y291000D01*
X103750Y250750D02*
Y260482D01*
X96500Y267732D02*
Y291000D01*
Y267732D02*
X103750Y260482D01*
X103675Y211825D02*
X103750Y211750D01*
X103675Y211825D02*
Y220128D01*
X102750Y221053D02*
X103675Y220128D01*
X93750Y221303D02*
Y222250D01*
Y221303D02*
X95750Y219303D01*
Y211750D02*
Y219303D01*
X120000Y218071D02*
X122982Y221053D01*
X120000Y211750D02*
Y218071D01*
X111750Y223947D02*
Y233250D01*
Y223947D02*
X112750Y222947D01*
X119750Y225667D02*
Y233250D01*
X103750Y223947D02*
Y233250D01*
X102750Y222947D02*
X103750Y223947D01*
X95750Y225197D02*
Y233250D01*
X93750Y222250D02*
Y223197D01*
X95750Y225197D01*
D63*
X160750Y14998D02*
D03*
X15000Y235000D02*
D03*
X285000D02*
D03*
X63400Y355000D02*
D03*
X139600D02*
D03*
X165000D02*
D03*
X114200D02*
D03*
X88800D02*
D03*
X213800Y260000D02*
D03*
X19000Y99700D02*
D03*
Y74300D02*
D03*
Y125100D02*
D03*
D64*
X190400Y355000D02*
D03*
X239200Y260000D02*
D03*
D65*
X49164Y18000D02*
D03*
X74564D02*
D03*
X99964D02*
D03*
X196900D02*
D03*
X222300D02*
D03*
X247700D02*
D03*
D66*
X125364D02*
D03*
X273100D02*
D03*
D67*
X236500Y212000D02*
D03*
X235000Y309000D02*
D03*
D68*
X216500Y212000D02*
D03*
X215000Y309000D02*
D03*
D69*
X19000Y48900D02*
D03*
D70*
X258400Y101750D02*
D03*
X85000Y116750D02*
D03*
X142000Y70000D02*
D03*
X213500Y100407D02*
D03*
X102750Y62125D02*
D03*
X114756Y138509D02*
D03*
X46327Y138750D02*
D03*
X74296Y87430D02*
D03*
X192982Y107112D02*
D03*
X199231Y126250D02*
D03*
X184750Y116750D02*
D03*
X191500Y133750D02*
D03*
X122905Y221922D02*
D03*
X112750Y222000D02*
D03*
X149000Y172000D02*
D03*
X142000Y163688D02*
D03*
X165232Y271058D02*
D03*
X130982D02*
D03*
X157232D02*
D03*
X173232D02*
D03*
X130982Y279058D02*
D03*
X102750Y222000D02*
D03*
X93750Y222250D02*
D03*
X36982Y271058D02*
D03*
X71732D02*
D03*
X79732D02*
D03*
X114982D02*
D03*
X122982D02*
D03*
X36982Y279058D02*
D03*
X71732D02*
D03*
X79732D02*
D03*
X114982D02*
D03*
X122982D02*
D03*
X157232D02*
D03*
X173232D02*
D03*
X87732Y271058D02*
D03*
X28982D02*
D03*
X44982D02*
D03*
X87732Y279058D02*
D03*
X28982D02*
D03*
X44982D02*
D03*
X165232D02*
D03*
X163250Y138750D02*
D03*
X150750D02*
D03*
X138250D02*
D03*
X138250Y126250D02*
D03*
Y113750D02*
D03*
X150750D02*
D03*
X163250D02*
D03*
Y126250D02*
D03*
X150750D02*
D03*
M02*
