G04*
G04 #@! TF.GenerationSoftware,Altium Limited,Altium Designer,20.1.10 (176)*
G04*
G04 Layer_Color=16711935*
%FSLAX44Y44*%
%MOMM*%
G71*
G04*
G04 #@! TF.SameCoordinates,9745D311-7863-4EED-B8D5-1BD438EF7D2D*
G04*
G04*
G04 #@! TF.FilePolarity,Negative*
G04*
G01*
G75*
%ADD61C,1.1500*%
%ADD62R,1.1500X1.1500*%
%ADD63O,1.9500X1.6500*%
G04:AMPARAMS|DCode=64|XSize=1.95mm|YSize=1.65mm|CornerRadius=0mm|HoleSize=0mm|Usage=FLASHONLY|Rotation=360.000|XOffset=0mm|YOffset=0mm|HoleType=Round|Shape=Octagon|*
%AMOCTAGOND64*
4,1,8,0.9750,-0.4125,0.9750,0.4125,0.5625,0.8250,-0.5625,0.8250,-0.9750,0.4125,-0.9750,-0.4125,-0.5625,-0.8250,0.5625,-0.8250,0.9750,-0.4125,0.0*
%
%ADD64OCTAGOND64*%

%ADD65C,1.9500*%
%ADD66P,2.1107X8X112.5*%
%ADD67P,1.5695X8X382.5*%
%ADD68C,1.4500*%
%ADD69C,1.8500*%
%ADD70R,1.8500X1.8500*%
%ADD71C,0.1500*%
%ADD73C,2.1500*%
%ADD74R,2.1500X2.1500*%
D61*
X500750Y64539D02*
D03*
Y51839D02*
D03*
Y77239D02*
D03*
Y524539D02*
D03*
Y511839D02*
D03*
Y537239D02*
D03*
X22750Y524539D02*
D03*
Y511839D02*
D03*
Y537239D02*
D03*
Y64539D02*
D03*
Y51839D02*
D03*
Y77239D02*
D03*
D62*
X500750Y39139D02*
D03*
Y499139D02*
D03*
X22750D02*
D03*
Y39139D02*
D03*
D63*
X875000Y166000D02*
D03*
X850000D02*
D03*
X579500Y167000D02*
D03*
X554500D02*
D03*
X604500D02*
D03*
X875000Y626000D02*
D03*
X850000D02*
D03*
X579500Y627000D02*
D03*
X554500D02*
D03*
X604500D02*
D03*
X397000Y626000D02*
D03*
X372000D02*
D03*
X101500Y627000D02*
D03*
X76500D02*
D03*
X126500D02*
D03*
X397000Y166000D02*
D03*
X372000D02*
D03*
X101500Y167000D02*
D03*
X76500D02*
D03*
X126500D02*
D03*
D64*
X825000Y166000D02*
D03*
X529500Y167000D02*
D03*
X825000Y626000D02*
D03*
X529500Y627000D02*
D03*
X347000Y626000D02*
D03*
X51500Y627000D02*
D03*
X347000Y166000D02*
D03*
X51500Y167000D02*
D03*
D65*
X883000Y134100D02*
D03*
Y108700D02*
D03*
Y83300D02*
D03*
Y594100D02*
D03*
Y568700D02*
D03*
Y543300D02*
D03*
X405000Y594100D02*
D03*
Y568700D02*
D03*
Y543300D02*
D03*
Y134100D02*
D03*
Y108700D02*
D03*
Y83300D02*
D03*
D66*
X883000Y57900D02*
D03*
Y517900D02*
D03*
X405000D02*
D03*
Y57900D02*
D03*
D67*
X671000Y176000D02*
D03*
Y636000D02*
D03*
X193000D02*
D03*
Y176000D02*
D03*
D68*
X691000D02*
D03*
X711000D02*
D03*
X691000Y636000D02*
D03*
X711000D02*
D03*
X213000D02*
D03*
X233000D02*
D03*
X213000Y176000D02*
D03*
X233000D02*
D03*
D69*
X665900Y15000D02*
D03*
X716700D02*
D03*
X691300D02*
D03*
X665900Y475000D02*
D03*
X716700D02*
D03*
X691300D02*
D03*
X187900D02*
D03*
X238700D02*
D03*
X213300D02*
D03*
X187900Y15000D02*
D03*
X238700D02*
D03*
X213300D02*
D03*
D70*
X742100D02*
D03*
Y475000D02*
D03*
X264100D02*
D03*
Y15000D02*
D03*
D71*
X492000Y189000D02*
D03*
X916000Y189000D02*
D03*
Y15000D02*
D03*
X492000Y15000D02*
D03*
X492000Y245000D02*
D03*
X916000Y245000D02*
D03*
Y419000D02*
D03*
X492000Y419000D02*
D03*
Y705000D02*
D03*
X916000Y705000D02*
D03*
Y879000D02*
D03*
X492000Y879000D02*
D03*
X492000Y649000D02*
D03*
X916000Y649000D02*
D03*
Y475000D02*
D03*
X492000Y475000D02*
D03*
X14000Y649000D02*
D03*
X438000Y649000D02*
D03*
Y475000D02*
D03*
X14000Y475000D02*
D03*
X14000Y705000D02*
D03*
X438000Y705000D02*
D03*
Y879000D02*
D03*
X14000Y879000D02*
D03*
Y245000D02*
D03*
X438000Y245000D02*
D03*
Y419000D02*
D03*
X14000Y419000D02*
D03*
X14000Y189000D02*
D03*
X438000Y189000D02*
D03*
Y15000D02*
D03*
X14000Y15000D02*
D03*
D73*
X882891Y299865D02*
D03*
Y350665D02*
D03*
Y325265D02*
D03*
Y759865D02*
D03*
Y810665D02*
D03*
Y785265D02*
D03*
X404891Y759865D02*
D03*
Y810665D02*
D03*
Y785265D02*
D03*
Y299865D02*
D03*
Y350665D02*
D03*
Y325265D02*
D03*
D74*
X882891Y376065D02*
D03*
Y836065D02*
D03*
X404891D02*
D03*
Y376065D02*
D03*
M02*
