G04*
G04 #@! TF.GenerationSoftware,Altium Limited,Altium Designer,20.1.10 (176)*
G04*
G04 Layer_Physical_Order=2*
G04 Layer_Color=16711680*
%FSLAX44Y44*%
%MOMM*%
G71*
G04*
G04 #@! TF.SameCoordinates,9745D311-7863-4EED-B8D5-1BD438EF7D2D*
G04*
G04*
G04 #@! TF.FilePolarity,Positive*
G04*
G01*
G75*
%ADD10C,0.2500*%
%ADD21C,0.5000*%
%ADD22C,1.0000*%
%ADD23C,0.3000*%
%ADD24C,1.5000*%
%ADD29C,1.0000*%
%ADD30R,1.0000X1.0000*%
%ADD31O,1.8000X1.5000*%
G04:AMPARAMS|DCode=32|XSize=1.8mm|YSize=1.5mm|CornerRadius=0mm|HoleSize=0mm|Usage=FLASHONLY|Rotation=360.000|XOffset=0mm|YOffset=0mm|HoleType=Round|Shape=Octagon|*
%AMOCTAGOND32*
4,1,8,0.9000,-0.3750,0.9000,0.3750,0.5250,0.7500,-0.5250,0.7500,-0.9000,0.3750,-0.9000,-0.3750,-0.5250,-0.7500,0.5250,-0.7500,0.9000,-0.3750,0.0*
%
%ADD32OCTAGOND32*%

%ADD33C,1.8000*%
%ADD34P,1.9483X8X112.5*%
%ADD35P,1.4071X8X382.5*%
%ADD36C,1.3000*%
%ADD37C,1.7000*%
%ADD38R,1.7000X1.7000*%
%ADD39C,0.7000*%
%ADD40C,2.0000*%
%ADD41R,2.0000X2.0000*%
%ADD42C,0.7000*%
G36*
X910858Y890941D02*
X911157Y889441D01*
X910200Y889045D01*
X907798Y887202D01*
X905955Y884800D01*
X904796Y882002D01*
X904401Y879000D01*
X904796Y875998D01*
X905955Y873200D01*
X907798Y870798D01*
X910200Y868955D01*
X912998Y867796D01*
X916000Y867401D01*
X919002Y867796D01*
X921800Y868955D01*
X924202Y870798D01*
X925441Y872413D01*
X926941Y871904D01*
Y712096D01*
X925441Y711587D01*
X924202Y713202D01*
X921800Y715045D01*
X919002Y716204D01*
X916000Y716599D01*
X912998Y716204D01*
X910200Y715045D01*
X907798Y713202D01*
X905955Y710800D01*
X904796Y708002D01*
X904401Y705000D01*
X904796Y701998D01*
X905955Y699200D01*
X907798Y696798D01*
X910200Y694955D01*
X911157Y694559D01*
X910858Y693059D01*
X497142Y693059D01*
X496843Y694559D01*
X497800Y694955D01*
X500202Y696798D01*
X502045Y699200D01*
X503204Y701998D01*
X503599Y705000D01*
X503204Y708002D01*
X502045Y710800D01*
X500202Y713202D01*
X497800Y715045D01*
X495002Y716204D01*
X492000Y716599D01*
X488998Y716204D01*
X486200Y715045D01*
X483798Y713202D01*
X482559Y711587D01*
X481059Y712096D01*
Y871904D01*
X482559Y872413D01*
X483798Y870798D01*
X486200Y868955D01*
X488998Y867796D01*
X492000Y867401D01*
X495002Y867796D01*
X497800Y868955D01*
X500202Y870798D01*
X502045Y873200D01*
X503204Y875998D01*
X503599Y879000D01*
X503204Y882002D01*
X502045Y884800D01*
X500202Y887202D01*
X497800Y889045D01*
X496843Y889441D01*
X497142Y890941D01*
X910858Y890941D01*
D02*
G37*
G36*
X432858D02*
X433157Y889441D01*
X432200Y889045D01*
X429798Y887202D01*
X427955Y884800D01*
X426796Y882002D01*
X426401Y879000D01*
X426796Y875998D01*
X427955Y873200D01*
X429798Y870798D01*
X432200Y868955D01*
X434998Y867796D01*
X438000Y867401D01*
X441002Y867796D01*
X443800Y868955D01*
X446202Y870798D01*
X447441Y872413D01*
X448941Y871904D01*
Y712096D01*
X447441Y711587D01*
X446202Y713202D01*
X443800Y715045D01*
X441002Y716204D01*
X438000Y716599D01*
X434998Y716204D01*
X432200Y715045D01*
X429798Y713202D01*
X427955Y710800D01*
X426796Y708002D01*
X426401Y705000D01*
X426796Y701998D01*
X427955Y699200D01*
X429798Y696798D01*
X432200Y694955D01*
X433157Y694559D01*
X432858Y693059D01*
X19142Y693059D01*
X18843Y694559D01*
X19800Y694955D01*
X22202Y696798D01*
X24045Y699200D01*
X25204Y701998D01*
X25599Y705000D01*
X25204Y708002D01*
X24045Y710800D01*
X22202Y713202D01*
X19800Y715045D01*
X17002Y716204D01*
X14000Y716599D01*
X10998Y716204D01*
X8200Y715045D01*
X5798Y713202D01*
X4559Y711587D01*
X3059Y712096D01*
Y871904D01*
X4559Y872413D01*
X5798Y870798D01*
X8200Y868955D01*
X10998Y867796D01*
X14000Y867401D01*
X17002Y867796D01*
X19800Y868955D01*
X22202Y870798D01*
X24045Y873200D01*
X25204Y875998D01*
X25599Y879000D01*
X25204Y882002D01*
X24045Y884800D01*
X22202Y887202D01*
X19800Y889045D01*
X18843Y889441D01*
X19142Y890941D01*
X432858Y890941D01*
D02*
G37*
G36*
X533385Y660201D02*
X533391Y659941D01*
X522725Y649275D01*
X521202Y647291D01*
X520245Y644980D01*
X519918Y642500D01*
Y633918D01*
X518000Y632000D01*
Y622000D01*
X523000Y617000D01*
X536000D01*
X541000Y622000D01*
Y632000D01*
X539082Y633918D01*
Y638531D01*
X544151Y643600D01*
X663794D01*
X664176Y642676D01*
X662000Y640500D01*
Y631500D01*
X666500Y627000D01*
X675500D01*
X680000Y631500D01*
Y640500D01*
X677824Y642676D01*
X678206Y643600D01*
X684565D01*
X684887Y642653D01*
X684581Y642419D01*
X683139Y640539D01*
X682232Y638349D01*
X681922Y636000D01*
X682232Y633651D01*
X683139Y631461D01*
X684581Y629581D01*
X686461Y628139D01*
X688651Y627232D01*
X691000Y626922D01*
X693350Y627232D01*
X695539Y628139D01*
X697419Y629581D01*
X698861Y631461D01*
X699768Y633651D01*
X700078Y636000D01*
X699768Y638349D01*
X698861Y640539D01*
X697419Y642419D01*
X697113Y642653D01*
X697435Y643600D01*
X704565D01*
X704887Y642653D01*
X704581Y642419D01*
X703139Y640539D01*
X702232Y638349D01*
X701922Y636000D01*
X702232Y633651D01*
X703139Y631461D01*
X704581Y629581D01*
X706461Y628139D01*
X708651Y627232D01*
X711000Y626922D01*
X713350Y627232D01*
X715539Y628139D01*
X717419Y629581D01*
X718861Y631461D01*
X719768Y633651D01*
X720078Y636000D01*
X719768Y638349D01*
X718861Y640539D01*
X717419Y642419D01*
X717113Y642653D01*
X717435Y643600D01*
X880979D01*
X909918Y614661D01*
Y562969D01*
X900405Y553456D01*
X888532D01*
X886002Y554504D01*
X883000Y554899D01*
X879998Y554504D01*
X877200Y553345D01*
X874798Y551502D01*
X872955Y549100D01*
X871796Y546302D01*
X871401Y543300D01*
X871796Y540298D01*
X872955Y537500D01*
X874798Y535098D01*
X877200Y533255D01*
X879998Y532096D01*
X883000Y531701D01*
X886002Y532096D01*
X888800Y533255D01*
X890152Y534292D01*
X904374D01*
X906854Y534618D01*
X909165Y535576D01*
X911150Y537099D01*
X925941Y551890D01*
X926941Y551476D01*
Y481025D01*
X925941Y480935D01*
X924202Y483202D01*
X921800Y485045D01*
X919002Y486204D01*
X916000Y486599D01*
X912998Y486204D01*
X910200Y485045D01*
X907798Y483202D01*
X905955Y480800D01*
X904796Y478002D01*
X904401Y475000D01*
X904796Y471998D01*
X905955Y469200D01*
X907798Y466798D01*
X910200Y464955D01*
X912364Y464059D01*
X912165Y463059D01*
X753242D01*
X753100Y464059D01*
Y486000D01*
X731100D01*
Y464059D01*
X731100Y464000D01*
X730958Y463059D01*
X717932D01*
X717866Y464059D01*
X719572Y464283D01*
X722247Y465392D01*
X724545Y467155D01*
X726309Y469453D01*
X727417Y472128D01*
X727795Y475000D01*
X727417Y477872D01*
X726309Y480547D01*
X724545Y482845D01*
X722247Y484608D01*
X719572Y485717D01*
X716700Y486095D01*
X713829Y485717D01*
X711595Y484791D01*
X709379Y487007D01*
X709761Y487931D01*
X823545D01*
X824910Y488203D01*
X826068Y488977D01*
X839577Y502485D01*
X840044Y502392D01*
X842190Y502819D01*
X844010Y504035D01*
X845225Y505854D01*
X845652Y508000D01*
X845225Y510146D01*
X844010Y511965D01*
X842190Y513181D01*
X840044Y513608D01*
X837898Y513181D01*
X836079Y511965D01*
X834864Y510146D01*
X834437Y508000D01*
X834530Y507532D01*
X822066Y495069D01*
X686383D01*
X685911Y495951D01*
X686181Y496354D01*
X686608Y498500D01*
X686181Y500646D01*
X684965Y502465D01*
X684539Y502750D01*
Y503750D01*
X684965Y504035D01*
X686180Y505854D01*
X686607Y508000D01*
X686180Y510146D01*
X684965Y511965D01*
X683146Y513181D01*
X681000Y513608D01*
X680231Y513455D01*
X662814Y530872D01*
Y550973D01*
X663465Y551408D01*
X664681Y553227D01*
X664878Y554219D01*
X665963Y554548D01*
X670756Y549756D01*
X670956Y549622D01*
X671348Y549035D01*
X673168Y547819D01*
X675314Y547392D01*
X677460Y547819D01*
X679279Y549035D01*
X680495Y550854D01*
X680921Y553000D01*
X680495Y555146D01*
X679279Y556965D01*
X677460Y558181D01*
X675314Y558608D01*
X674953Y558536D01*
X661544Y571944D01*
X660056Y572939D01*
X658300Y573288D01*
X649588D01*
Y599175D01*
X649625Y599180D01*
X651328Y599885D01*
X652791Y601007D01*
X662424Y610641D01*
X668139D01*
X668443Y609641D01*
X667230Y608831D01*
X666014Y607012D01*
X665588Y604866D01*
X666014Y602720D01*
X667230Y600900D01*
X669049Y599685D01*
X671195Y599258D01*
X690418D01*
X691000Y599142D01*
X710884D01*
X713030Y599569D01*
X714849Y600785D01*
X714965Y600900D01*
X716181Y602720D01*
X716608Y604866D01*
X716181Y607012D01*
X714965Y608831D01*
X713752Y609641D01*
X714056Y610641D01*
X734596D01*
X753940Y591297D01*
Y562000D01*
Y553000D01*
X754180Y551173D01*
X754886Y549470D01*
X756008Y548008D01*
X757470Y546885D01*
X759173Y546180D01*
X761000Y545940D01*
X762827Y546180D01*
X764530Y546885D01*
X765993Y548008D01*
X767114Y549470D01*
X767820Y551173D01*
X768060Y553000D01*
Y562000D01*
Y594222D01*
X767820Y596049D01*
X767114Y597752D01*
X765993Y599214D01*
X742513Y622694D01*
X741050Y623816D01*
X739348Y624522D01*
X737520Y624762D01*
X659500D01*
X657673Y624522D01*
X655970Y623816D01*
X654508Y622694D01*
X644874Y613060D01*
X516000D01*
X514173Y612820D01*
X512470Y612114D01*
X511008Y610992D01*
X484758Y584742D01*
X483636Y583280D01*
X482930Y581577D01*
X482690Y579750D01*
Y546885D01*
X481929Y546264D01*
X481059Y546624D01*
Y642975D01*
X482059Y643065D01*
X483798Y640798D01*
X486200Y638955D01*
X488998Y637796D01*
X492000Y637401D01*
X495002Y637796D01*
X497800Y638955D01*
X500202Y640798D01*
X502045Y643200D01*
X503204Y645998D01*
X503599Y649000D01*
X503204Y652002D01*
X502045Y654800D01*
X500202Y657202D01*
X497800Y659045D01*
X495636Y659941D01*
X495835Y660941D01*
X533133D01*
X533385Y660201D01*
D02*
G37*
G36*
X55384D02*
X55391Y659941D01*
X44725Y649275D01*
X43202Y647291D01*
X42245Y644980D01*
X41918Y642500D01*
Y633918D01*
X40000Y632000D01*
Y622000D01*
X45000Y617000D01*
X58000D01*
X63000Y622000D01*
Y632000D01*
X61082Y633918D01*
Y638531D01*
X66151Y643600D01*
X185794D01*
X186176Y642676D01*
X184000Y640500D01*
Y631500D01*
X188500Y627000D01*
X197500D01*
X202000Y631500D01*
Y640500D01*
X199824Y642676D01*
X200206Y643600D01*
X206565D01*
X206887Y642653D01*
X206581Y642419D01*
X205139Y640539D01*
X204232Y638349D01*
X203922Y636000D01*
X204232Y633651D01*
X205139Y631461D01*
X206581Y629581D01*
X208461Y628139D01*
X210651Y627232D01*
X213000Y626922D01*
X215350Y627232D01*
X217539Y628139D01*
X219419Y629581D01*
X220861Y631461D01*
X221768Y633651D01*
X222078Y636000D01*
X221768Y638349D01*
X220861Y640539D01*
X219419Y642419D01*
X219113Y642653D01*
X219435Y643600D01*
X226565D01*
X226887Y642653D01*
X226581Y642419D01*
X225139Y640539D01*
X224232Y638349D01*
X223922Y636000D01*
X224232Y633651D01*
X225139Y631461D01*
X226581Y629581D01*
X228461Y628139D01*
X230651Y627232D01*
X233000Y626922D01*
X235350Y627232D01*
X237539Y628139D01*
X239419Y629581D01*
X240861Y631461D01*
X241768Y633651D01*
X242078Y636000D01*
X241768Y638349D01*
X240861Y640539D01*
X239419Y642419D01*
X239113Y642653D01*
X239435Y643600D01*
X402979D01*
X431918Y614661D01*
Y562969D01*
X422405Y553456D01*
X410532D01*
X408002Y554504D01*
X405000Y554899D01*
X401998Y554504D01*
X399200Y553345D01*
X396798Y551502D01*
X394955Y549100D01*
X393796Y546302D01*
X393401Y543300D01*
X393796Y540298D01*
X394955Y537500D01*
X396798Y535098D01*
X399200Y533255D01*
X401998Y532096D01*
X405000Y531701D01*
X408002Y532096D01*
X410800Y533255D01*
X412151Y534292D01*
X426374D01*
X428854Y534618D01*
X431165Y535576D01*
X433150Y537099D01*
X447941Y551890D01*
X448941Y551476D01*
Y481025D01*
X447941Y480935D01*
X446202Y483202D01*
X443800Y485045D01*
X441002Y486204D01*
X438000Y486599D01*
X434998Y486204D01*
X432200Y485045D01*
X429798Y483202D01*
X427955Y480800D01*
X426796Y478002D01*
X426401Y475000D01*
X426796Y471998D01*
X427955Y469200D01*
X429798Y466798D01*
X432200Y464955D01*
X434364Y464059D01*
X434165Y463059D01*
X275242D01*
X275100Y464059D01*
Y486000D01*
X253100D01*
Y464059D01*
X253100Y464000D01*
X252959Y463059D01*
X239932D01*
X239866Y464059D01*
X241572Y464283D01*
X244247Y465392D01*
X246545Y467155D01*
X248309Y469453D01*
X249417Y472128D01*
X249795Y475000D01*
X249417Y477872D01*
X248309Y480547D01*
X246545Y482845D01*
X244247Y484608D01*
X241572Y485717D01*
X238700Y486095D01*
X235828Y485717D01*
X233595Y484791D01*
X231379Y487007D01*
X231761Y487931D01*
X345545D01*
X346910Y488203D01*
X348068Y488977D01*
X361576Y502485D01*
X362044Y502392D01*
X364190Y502819D01*
X366010Y504035D01*
X367225Y505854D01*
X367652Y508000D01*
X367225Y510146D01*
X366010Y511965D01*
X364190Y513181D01*
X362044Y513608D01*
X359898Y513181D01*
X358079Y511965D01*
X356864Y510146D01*
X356437Y508000D01*
X356530Y507532D01*
X344066Y495069D01*
X208383D01*
X207911Y495951D01*
X208181Y496354D01*
X208608Y498500D01*
X208181Y500646D01*
X206965Y502465D01*
X206539Y502750D01*
Y503750D01*
X206965Y504035D01*
X208181Y505854D01*
X208607Y508000D01*
X208181Y510146D01*
X206965Y511965D01*
X205146Y513181D01*
X203000Y513608D01*
X202231Y513455D01*
X184814Y530872D01*
Y550973D01*
X185465Y551408D01*
X186681Y553227D01*
X186878Y554219D01*
X187963Y554548D01*
X192756Y549756D01*
X192956Y549622D01*
X193349Y549035D01*
X195168Y547819D01*
X197314Y547392D01*
X199460Y547819D01*
X201279Y549035D01*
X202495Y550854D01*
X202922Y553000D01*
X202495Y555146D01*
X201279Y556965D01*
X199460Y558181D01*
X197314Y558608D01*
X196953Y558536D01*
X183544Y571944D01*
X182056Y572939D01*
X180300Y573288D01*
X171588D01*
Y599175D01*
X171625Y599180D01*
X173328Y599885D01*
X174791Y601007D01*
X184424Y610641D01*
X190140D01*
X190443Y609641D01*
X189230Y608831D01*
X188015Y607012D01*
X187588Y604866D01*
X188015Y602720D01*
X189230Y600900D01*
X191049Y599685D01*
X193195Y599258D01*
X212418D01*
X213000Y599142D01*
X232884D01*
X235030Y599569D01*
X236849Y600785D01*
X236965Y600900D01*
X238181Y602720D01*
X238608Y604866D01*
X238181Y607012D01*
X236965Y608831D01*
X235752Y609641D01*
X236056Y610641D01*
X256596D01*
X275940Y591297D01*
Y562000D01*
Y553000D01*
X276180Y551173D01*
X276886Y549470D01*
X278008Y548008D01*
X279470Y546885D01*
X281173Y546180D01*
X283000Y545940D01*
X284827Y546180D01*
X286530Y546885D01*
X287992Y548008D01*
X289114Y549470D01*
X289820Y551173D01*
X290060Y553000D01*
Y562000D01*
Y594222D01*
X289820Y596049D01*
X289114Y597752D01*
X287992Y599214D01*
X264513Y622694D01*
X263050Y623816D01*
X261348Y624522D01*
X259520Y624762D01*
X181500D01*
X179673Y624522D01*
X177970Y623816D01*
X176507Y622694D01*
X166874Y613060D01*
X38000D01*
X36173Y612820D01*
X34470Y612114D01*
X33008Y610992D01*
X6758Y584742D01*
X5635Y583280D01*
X4930Y581577D01*
X4690Y579750D01*
Y546885D01*
X3929Y546264D01*
X3059Y546624D01*
Y642975D01*
X4059Y643065D01*
X5798Y640798D01*
X8200Y638955D01*
X10998Y637796D01*
X14000Y637401D01*
X17002Y637796D01*
X19800Y638955D01*
X22202Y640798D01*
X24045Y643200D01*
X25204Y645998D01*
X25599Y649000D01*
X25204Y652002D01*
X24045Y654800D01*
X22202Y657202D01*
X19800Y659045D01*
X17636Y659941D01*
X17835Y660941D01*
X55133D01*
X55384Y660201D01*
D02*
G37*
G36*
X640412Y569707D02*
X640162Y568450D01*
Y520783D01*
X639569Y519896D01*
X639142Y517750D01*
X639569Y515604D01*
X640785Y513785D01*
X642604Y512569D01*
X644750Y512142D01*
X646896Y512569D01*
X648715Y513785D01*
X649931Y515604D01*
X650358Y517750D01*
X649931Y519896D01*
X649338Y520783D01*
Y524335D01*
X650338Y524638D01*
X650666Y524148D01*
X658657Y516157D01*
X664947Y509867D01*
X663554Y508474D01*
X663478Y508474D01*
X663478Y508474D01*
X662152Y506490D01*
X661686Y504148D01*
X662152Y501808D01*
X663478Y499823D01*
X663478Y499823D01*
X663478Y499823D01*
X664249Y499308D01*
X665463Y498497D01*
X667804Y498031D01*
X670145Y498497D01*
X672129Y499823D01*
X672129Y499823D01*
X672129Y499823D01*
X672129Y499899D01*
X673037Y500806D01*
X674008D01*
X674008Y500806D01*
X675545Y499269D01*
X675392Y498500D01*
X675819Y496354D01*
X676089Y495951D01*
X675617Y495069D01*
X640046D01*
X639931Y495646D01*
X638715Y497465D01*
X636896Y498681D01*
X634750Y499108D01*
X632604Y498681D01*
X630785Y497465D01*
X629569Y495646D01*
X629142Y493500D01*
X629410Y492154D01*
X628488Y491661D01*
X626667Y493483D01*
X626820Y494252D01*
X626393Y496398D01*
X625177Y498217D01*
X625148Y499244D01*
X626223Y500854D01*
X626650Y503000D01*
X626223Y505146D01*
X625008Y506965D01*
Y507591D01*
X625177Y507704D01*
X626393Y509523D01*
X626820Y511669D01*
X626393Y513815D01*
X625177Y515635D01*
X624356Y516183D01*
Y521312D01*
X626134Y521666D01*
X628119Y522992D01*
X629445Y524977D01*
X629721Y526367D01*
X629727Y526394D01*
X629910Y527318D01*
Y527318D01*
Y527318D01*
X629910D01*
X629727Y528242D01*
X629445Y529659D01*
X628379Y531254D01*
X628542Y531588D01*
X629288Y532200D01*
X631629Y532666D01*
X633614Y533992D01*
X634940Y535977D01*
X635217Y537366D01*
X635222Y537394D01*
X635406Y538318D01*
Y538318D01*
Y538318D01*
X635406D01*
X635222Y539242D01*
X634940Y540659D01*
X633614Y542643D01*
X633159Y542948D01*
Y544150D01*
X634418Y544992D01*
X635744Y546977D01*
X636021Y548367D01*
X636026Y548394D01*
X636210Y549318D01*
Y549318D01*
Y549318D01*
X636210D01*
X636026Y550242D01*
X635744Y551659D01*
X634418Y553643D01*
X632434Y554969D01*
X630093Y555435D01*
Y555381D01*
X620877D01*
X620808Y555368D01*
X619943Y555726D01*
X619908Y555778D01*
X618174Y557512D01*
X617099Y558231D01*
X615831Y558483D01*
X607368D01*
X606796Y559339D01*
X604977Y560554D01*
X602831Y560981D01*
X600685Y560554D01*
X598866Y559339D01*
X597650Y557519D01*
X597445Y556488D01*
X596488Y556198D01*
X594970Y557716D01*
X593895Y558435D01*
X592627Y558687D01*
X584814D01*
Y559708D01*
X584868D01*
X584402Y562049D01*
X583076Y564034D01*
X581091Y565360D01*
X579701Y565636D01*
X579674Y565642D01*
X578750Y565826D01*
X578750D01*
Y565826D01*
X577826Y565642D01*
X576409Y565360D01*
X574424Y564034D01*
X573098Y562049D01*
X572633Y559708D01*
X572687D01*
Y557698D01*
X571687Y557209D01*
X570091Y558275D01*
X567750Y558741D01*
Y558687D01*
X565401D01*
X564965Y559339D01*
X563146Y560554D01*
X561000Y560981D01*
X558854Y560554D01*
X557035Y559339D01*
X555819Y557519D01*
X555392Y555373D01*
X555819Y553227D01*
X557035Y551408D01*
X558854Y550192D01*
X561000Y549766D01*
X563146Y550192D01*
X564965Y551408D01*
X565401Y552060D01*
X567187D01*
Y546323D01*
X567133D01*
X567598Y543982D01*
X568924Y541998D01*
X570909Y540672D01*
X572299Y540395D01*
X572326Y540390D01*
X573250Y540206D01*
X573250D01*
Y540206D01*
X574174Y540390D01*
X575591Y540672D01*
X577576Y541998D01*
X578902Y543982D01*
X579368Y546323D01*
X579314D01*
Y553048D01*
X580314Y553537D01*
X581909Y552472D01*
X584250Y552006D01*
Y552060D01*
X591254D01*
X609686Y533627D01*
Y511043D01*
X609939Y509774D01*
X610657Y508699D01*
X615588Y503769D01*
X615435Y503000D01*
X615862Y500854D01*
X617077Y499035D01*
X617107Y498007D01*
X616031Y496398D01*
X615604Y494252D01*
X616031Y492106D01*
X617247Y490286D01*
X619066Y489071D01*
X621212Y488644D01*
X621981Y488797D01*
X625871Y484907D01*
X626946Y484189D01*
X628214Y483936D01*
X658743D01*
X659064Y482989D01*
X658411Y482489D01*
X656728Y480295D01*
X655670Y477741D01*
X655639Y477500D01*
X676161D01*
X676130Y477741D01*
X675072Y480295D01*
X673389Y482489D01*
X672736Y482989D01*
X673058Y483936D01*
X683321D01*
X683643Y482989D01*
X683455Y482845D01*
X681692Y480547D01*
X680583Y477872D01*
X680205Y475000D01*
X680583Y472128D01*
X681692Y469453D01*
X683455Y467155D01*
X685753Y465392D01*
X688428Y464283D01*
X690134Y464059D01*
X690068Y463059D01*
X581308D01*
X581004Y464059D01*
X582465Y465035D01*
X583681Y466854D01*
X584108Y469000D01*
X583681Y471146D01*
X582465Y472965D01*
X580646Y474181D01*
X578500Y474608D01*
X576354Y474181D01*
X574535Y472965D01*
X574270Y472569D01*
X566934D01*
X564569Y474934D01*
Y527000D01*
X564297Y528366D01*
X563523Y529523D01*
X535150Y557897D01*
X533992Y558670D01*
X532627Y558942D01*
X522230D01*
X521965Y559339D01*
X520146Y560554D01*
X518000Y560981D01*
X515854Y560554D01*
X514035Y559339D01*
X512819Y557519D01*
X512392Y555373D01*
X512819Y553227D01*
X514035Y551408D01*
X515854Y550192D01*
X518000Y549766D01*
X520146Y550192D01*
X521965Y551408D01*
X522230Y551805D01*
X531148D01*
X557431Y525522D01*
Y523867D01*
X556549Y523396D01*
X556123Y523681D01*
X553977Y524108D01*
X553209Y523955D01*
X537581Y539582D01*
X536507Y540300D01*
X535238Y540552D01*
X507495D01*
X507301Y541021D01*
X506099Y542588D01*
X504532Y543790D01*
X502708Y544546D01*
X500750Y544804D01*
X498792Y544546D01*
X497810Y544139D01*
X496810Y544807D01*
Y576825D01*
X518924Y598940D01*
X640412D01*
Y569707D01*
D02*
G37*
G36*
X162412D02*
X162162Y568450D01*
Y520783D01*
X161569Y519896D01*
X161142Y517750D01*
X161569Y515604D01*
X162785Y513785D01*
X164604Y512569D01*
X166750Y512142D01*
X168896Y512569D01*
X170715Y513785D01*
X171931Y515604D01*
X172358Y517750D01*
X171931Y519896D01*
X171338Y520783D01*
Y524335D01*
X172338Y524638D01*
X172666Y524148D01*
X180657Y516157D01*
X186947Y509867D01*
X185554Y508474D01*
X185478Y508474D01*
X185478Y508474D01*
X184152Y506490D01*
X183686Y504148D01*
X184152Y501808D01*
X185478Y499823D01*
X185478Y499823D01*
X185478Y499823D01*
X186249Y499308D01*
X187463Y498497D01*
X189804Y498031D01*
X192145Y498497D01*
X194129Y499823D01*
X194129Y499823D01*
X194129Y499823D01*
X194129Y499899D01*
X195037Y500806D01*
X196008D01*
X196008Y500806D01*
X197545Y499269D01*
X197392Y498500D01*
X197819Y496354D01*
X198089Y495951D01*
X197617Y495069D01*
X162046D01*
X161931Y495646D01*
X160715Y497465D01*
X158896Y498681D01*
X156750Y499108D01*
X154604Y498681D01*
X152785Y497465D01*
X151569Y495646D01*
X151142Y493500D01*
X151410Y492154D01*
X150488Y491661D01*
X148667Y493483D01*
X148820Y494252D01*
X148393Y496398D01*
X147177Y498217D01*
X147148Y499244D01*
X148223Y500854D01*
X148650Y503000D01*
X148223Y505146D01*
X147008Y506965D01*
Y507591D01*
X147177Y507704D01*
X148393Y509523D01*
X148820Y511669D01*
X148393Y513815D01*
X147177Y515635D01*
X146356Y516183D01*
Y521312D01*
X148134Y521666D01*
X150119Y522992D01*
X151445Y524977D01*
X151721Y526367D01*
X151727Y526394D01*
X151910Y527318D01*
Y527318D01*
Y527318D01*
X151910D01*
X151727Y528242D01*
X151445Y529659D01*
X150379Y531254D01*
X150542Y531588D01*
X151288Y532200D01*
X153630Y532666D01*
X155614Y533992D01*
X156940Y535977D01*
X157217Y537366D01*
X157222Y537394D01*
X157406Y538318D01*
Y538318D01*
Y538318D01*
X157406D01*
X157222Y539242D01*
X156940Y540659D01*
X155614Y542643D01*
X155159Y542948D01*
Y544150D01*
X156418Y544992D01*
X157744Y546977D01*
X158021Y548367D01*
X158026Y548394D01*
X158210Y549318D01*
Y549318D01*
Y549318D01*
X158210D01*
X158026Y550242D01*
X157744Y551659D01*
X156418Y553643D01*
X154434Y554969D01*
X152093Y555435D01*
Y555381D01*
X142877D01*
X142808Y555368D01*
X141943Y555726D01*
X141908Y555778D01*
X140174Y557512D01*
X139099Y558231D01*
X137831Y558483D01*
X129368D01*
X128796Y559339D01*
X126977Y560554D01*
X124831Y560981D01*
X122685Y560554D01*
X120865Y559339D01*
X119650Y557519D01*
X119445Y556488D01*
X118488Y556198D01*
X116970Y557716D01*
X115895Y558435D01*
X114627Y558687D01*
X106814D01*
Y559708D01*
X106868D01*
X106402Y562049D01*
X105076Y564034D01*
X103091Y565360D01*
X101701Y565636D01*
X101674Y565642D01*
X100750Y565826D01*
X100750D01*
Y565826D01*
X99826Y565642D01*
X98409Y565360D01*
X96424Y564034D01*
X95098Y562049D01*
X94633Y559708D01*
X94686D01*
Y557698D01*
X93687Y557209D01*
X92091Y558275D01*
X89750Y558741D01*
Y558687D01*
X87401D01*
X86965Y559339D01*
X85146Y560554D01*
X83000Y560981D01*
X80854Y560554D01*
X79035Y559339D01*
X77819Y557519D01*
X77392Y555373D01*
X77819Y553227D01*
X79035Y551408D01*
X80854Y550192D01*
X83000Y549766D01*
X85146Y550192D01*
X86965Y551408D01*
X87401Y552060D01*
X89186D01*
Y546323D01*
X89133D01*
X89598Y543982D01*
X90924Y541998D01*
X92909Y540672D01*
X94299Y540395D01*
X94326Y540390D01*
X95250Y540206D01*
X95250D01*
Y540206D01*
X96174Y540390D01*
X97591Y540672D01*
X99576Y541998D01*
X100902Y543982D01*
X101368Y546323D01*
X101314D01*
Y553048D01*
X102314Y553537D01*
X103909Y552472D01*
X106250Y552006D01*
Y552060D01*
X113254D01*
X131686Y533627D01*
Y511043D01*
X131939Y509774D01*
X132657Y508699D01*
X137588Y503769D01*
X137435Y503000D01*
X137862Y500854D01*
X139077Y499035D01*
X139107Y498007D01*
X138031Y496398D01*
X137604Y494252D01*
X138031Y492106D01*
X139247Y490286D01*
X141066Y489071D01*
X143212Y488644D01*
X143981Y488797D01*
X147871Y484907D01*
X148946Y484189D01*
X150214Y483936D01*
X180742D01*
X181064Y482989D01*
X180411Y482489D01*
X178728Y480295D01*
X177670Y477741D01*
X177639Y477500D01*
X198162D01*
X198130Y477741D01*
X197072Y480295D01*
X195389Y482489D01*
X194736Y482989D01*
X195058Y483936D01*
X205321D01*
X205643Y482989D01*
X205455Y482845D01*
X203692Y480547D01*
X202583Y477872D01*
X202205Y475000D01*
X202583Y472128D01*
X203692Y469453D01*
X205455Y467155D01*
X207753Y465392D01*
X210429Y464283D01*
X212134Y464059D01*
X212068Y463059D01*
X103308D01*
X103005Y464059D01*
X104465Y465035D01*
X105681Y466854D01*
X106108Y469000D01*
X105681Y471146D01*
X104465Y472965D01*
X102646Y474181D01*
X100500Y474608D01*
X98354Y474181D01*
X96535Y472965D01*
X96270Y472569D01*
X88934D01*
X86569Y474934D01*
Y527000D01*
X86297Y528366D01*
X85523Y529523D01*
X57150Y557897D01*
X55992Y558670D01*
X54627Y558942D01*
X44230D01*
X43965Y559339D01*
X42146Y560554D01*
X40000Y560981D01*
X37854Y560554D01*
X36035Y559339D01*
X34819Y557519D01*
X34392Y555373D01*
X34819Y553227D01*
X36035Y551408D01*
X37854Y550192D01*
X40000Y549766D01*
X42146Y550192D01*
X43965Y551408D01*
X44230Y551805D01*
X53148D01*
X79432Y525522D01*
Y523867D01*
X78549Y523396D01*
X78123Y523681D01*
X75977Y524108D01*
X75209Y523955D01*
X59581Y539582D01*
X58506Y540300D01*
X57238Y540552D01*
X29495D01*
X29301Y541021D01*
X28099Y542588D01*
X26532Y543790D01*
X24708Y544546D01*
X22750Y544804D01*
X20792Y544546D01*
X19810Y544139D01*
X18810Y544807D01*
Y576825D01*
X40925Y598940D01*
X162412D01*
Y569707D01*
D02*
G37*
G36*
X548522Y519269D02*
X548369Y518500D01*
X548796Y516354D01*
X550012Y514535D01*
X551831Y513319D01*
X553977Y512892D01*
X556123Y513319D01*
X556549Y513604D01*
X557431Y513133D01*
Y484300D01*
X556549Y483828D01*
X556396Y483931D01*
X554250Y484358D01*
X552104Y483931D01*
X551217Y483338D01*
X529533D01*
X528646Y483931D01*
X526500Y484358D01*
X524354Y483931D01*
X522535Y482715D01*
X521319Y480896D01*
X520892Y478750D01*
X521319Y476604D01*
X522535Y474785D01*
X524354Y473569D01*
X526500Y473142D01*
X528646Y473569D01*
X529533Y474162D01*
X551217D01*
X552104Y473569D01*
X554250Y473142D01*
X556396Y473569D01*
X556530Y473658D01*
X557501Y473105D01*
X557703Y472090D01*
X558477Y470932D01*
X562932Y466477D01*
X564090Y465703D01*
X565456Y465431D01*
X574270D01*
X574535Y465035D01*
X575996Y464059D01*
X575692Y463059D01*
X495835D01*
X495636Y464059D01*
X497800Y464955D01*
X500202Y466798D01*
X502045Y469200D01*
X503204Y471998D01*
X503599Y475000D01*
X503204Y478002D01*
X502045Y480800D01*
X500202Y483202D01*
X497800Y485045D01*
X495002Y486204D01*
X492000Y486599D01*
X488998Y486204D01*
X486200Y485045D01*
X483798Y483202D01*
X482059Y480935D01*
X481059Y481025D01*
Y493015D01*
X482059Y493508D01*
X482690Y493024D01*
X484393Y492319D01*
X486220Y492078D01*
X493250D01*
Y491639D01*
X508250D01*
Y506639D01*
X507344D01*
X506902Y507536D01*
X507301Y508056D01*
X508057Y509881D01*
X508315Y511839D01*
X508057Y513797D01*
X507301Y515621D01*
X506099Y517188D01*
X505205Y517874D01*
Y519134D01*
X505742Y519546D01*
X506865Y521009D01*
X507291Y522039D01*
X500750D01*
Y527039D01*
X507291D01*
X506865Y528069D01*
X505742Y529531D01*
X505205Y529943D01*
Y531204D01*
X506099Y531890D01*
X507301Y533456D01*
X507495Y533925D01*
X533866D01*
X548522Y519269D01*
D02*
G37*
G36*
X70522D02*
X70370Y518500D01*
X70796Y516354D01*
X72012Y514535D01*
X73831Y513319D01*
X75977Y512892D01*
X78123Y513319D01*
X78549Y513604D01*
X79432Y513133D01*
Y484300D01*
X78549Y483828D01*
X78396Y483931D01*
X76250Y484358D01*
X74104Y483931D01*
X73217Y483338D01*
X51533D01*
X50646Y483931D01*
X48500Y484358D01*
X46354Y483931D01*
X44535Y482715D01*
X43319Y480896D01*
X42892Y478750D01*
X43319Y476604D01*
X44535Y474785D01*
X46354Y473569D01*
X48500Y473142D01*
X50646Y473569D01*
X51533Y474162D01*
X73217D01*
X74104Y473569D01*
X76250Y473142D01*
X78396Y473569D01*
X78530Y473658D01*
X79501Y473105D01*
X79703Y472090D01*
X80477Y470932D01*
X84932Y466477D01*
X86090Y465703D01*
X87456Y465431D01*
X96270D01*
X96535Y465035D01*
X97996Y464059D01*
X97692Y463059D01*
X17835D01*
X17636Y464059D01*
X19800Y464955D01*
X22202Y466798D01*
X24045Y469200D01*
X25204Y471998D01*
X25599Y475000D01*
X25204Y478002D01*
X24045Y480800D01*
X22202Y483202D01*
X19800Y485045D01*
X17002Y486204D01*
X14000Y486599D01*
X10998Y486204D01*
X8200Y485045D01*
X5798Y483202D01*
X4059Y480935D01*
X3059Y481025D01*
Y493015D01*
X4059Y493508D01*
X4690Y493024D01*
X6392Y492319D01*
X8220Y492078D01*
X15250D01*
Y491639D01*
X30250D01*
Y506639D01*
X29344D01*
X28902Y507536D01*
X29301Y508056D01*
X30057Y509881D01*
X30315Y511839D01*
X30057Y513797D01*
X29301Y515621D01*
X28099Y517188D01*
X27205Y517874D01*
Y519134D01*
X27743Y519546D01*
X28865Y521009D01*
X29291Y522039D01*
X22750D01*
Y527039D01*
X29291D01*
X28865Y528069D01*
X27743Y529531D01*
X27205Y529943D01*
Y531204D01*
X28099Y531890D01*
X29301Y533456D01*
X29495Y533925D01*
X55866D01*
X70522Y519269D01*
D02*
G37*
G36*
X432858Y430941D02*
X433157Y429441D01*
X432200Y429045D01*
X429798Y427202D01*
X427955Y424800D01*
X426796Y422002D01*
X426401Y419000D01*
X426796Y415998D01*
X427955Y413200D01*
X429798Y410798D01*
X432200Y408955D01*
X434998Y407796D01*
X438000Y407401D01*
X441002Y407796D01*
X443800Y408955D01*
X446202Y410798D01*
X447441Y412413D01*
X448941Y411904D01*
Y252096D01*
X447441Y251587D01*
X446202Y253202D01*
X443800Y255045D01*
X441002Y256204D01*
X438000Y256599D01*
X434998Y256204D01*
X432200Y255045D01*
X429798Y253202D01*
X427955Y250800D01*
X426796Y248002D01*
X426401Y245000D01*
X426796Y241998D01*
X427955Y239200D01*
X429798Y236798D01*
X432200Y234955D01*
X433157Y234559D01*
X432858Y233059D01*
X19142Y233059D01*
X18843Y234559D01*
X19800Y234955D01*
X22202Y236798D01*
X24045Y239200D01*
X25204Y241998D01*
X25599Y245000D01*
X25204Y248002D01*
X24045Y250800D01*
X22202Y253202D01*
X19800Y255045D01*
X17002Y256204D01*
X14000Y256599D01*
X10998Y256204D01*
X8200Y255045D01*
X5798Y253202D01*
X4559Y251586D01*
X3059Y252096D01*
Y411904D01*
X4559Y412413D01*
X5798Y410798D01*
X8200Y408955D01*
X10998Y407796D01*
X14000Y407401D01*
X17002Y407796D01*
X19800Y408955D01*
X22202Y410798D01*
X24045Y413200D01*
X25204Y415998D01*
X25599Y419000D01*
X25204Y422002D01*
X24045Y424800D01*
X22202Y427202D01*
X19800Y429045D01*
X18843Y429441D01*
X19142Y430941D01*
X432858Y430941D01*
D02*
G37*
G36*
X910858Y430941D02*
X911157Y429441D01*
X910200Y429045D01*
X907798Y427202D01*
X905955Y424799D01*
X904796Y422002D01*
X904401Y419000D01*
X904796Y415998D01*
X905955Y413200D01*
X907798Y410798D01*
X910200Y408955D01*
X912998Y407796D01*
X916000Y407401D01*
X919002Y407796D01*
X921800Y408955D01*
X924202Y410798D01*
X925441Y412413D01*
X926941Y411904D01*
Y252096D01*
X925441Y251586D01*
X924202Y253202D01*
X921800Y255045D01*
X919002Y256204D01*
X916000Y256599D01*
X912998Y256204D01*
X910200Y255045D01*
X907798Y253202D01*
X905955Y250800D01*
X904796Y248002D01*
X904401Y245000D01*
X904796Y241998D01*
X905955Y239200D01*
X907798Y236798D01*
X910200Y234955D01*
X911157Y234559D01*
X910858Y233059D01*
X497142Y233059D01*
X496843Y234559D01*
X497800Y234955D01*
X500202Y236798D01*
X502045Y239200D01*
X503204Y241998D01*
X503599Y245000D01*
X503204Y248002D01*
X502045Y250800D01*
X500202Y253202D01*
X497800Y255045D01*
X495002Y256204D01*
X492000Y256599D01*
X488998Y256204D01*
X486200Y255045D01*
X483798Y253202D01*
X482559Y251586D01*
X481059Y252096D01*
Y411904D01*
X482559Y412413D01*
X483798Y410798D01*
X486200Y408955D01*
X488998Y407796D01*
X492000Y407401D01*
X495002Y407796D01*
X497800Y408955D01*
X500202Y410798D01*
X502045Y413200D01*
X503204Y415998D01*
X503599Y419000D01*
X503204Y422002D01*
X502045Y424800D01*
X500202Y427202D01*
X497800Y429045D01*
X496843Y429441D01*
X497142Y430941D01*
X910858Y430941D01*
D02*
G37*
G36*
X533385Y200201D02*
X533391Y199941D01*
X522725Y189275D01*
X521202Y187291D01*
X520245Y184980D01*
X519918Y182500D01*
Y173918D01*
X518000Y172000D01*
Y162000D01*
X523000Y157000D01*
X536000D01*
X541000Y162000D01*
Y172000D01*
X539082Y173918D01*
Y178531D01*
X544151Y183600D01*
X663794D01*
X664176Y182676D01*
X662000Y180500D01*
Y171500D01*
X666500Y167000D01*
X675500D01*
X680000Y171500D01*
Y180500D01*
X677824Y182676D01*
X678206Y183600D01*
X684565D01*
X684887Y182653D01*
X684581Y182419D01*
X683139Y180539D01*
X682232Y178349D01*
X681922Y176000D01*
X682232Y173650D01*
X683139Y171461D01*
X684581Y169581D01*
X686461Y168139D01*
X688651Y167232D01*
X691000Y166922D01*
X693350Y167232D01*
X695539Y168139D01*
X697419Y169581D01*
X698861Y171461D01*
X699768Y173650D01*
X700078Y176000D01*
X699768Y178349D01*
X698861Y180539D01*
X697419Y182419D01*
X697113Y182653D01*
X697435Y183600D01*
X704565D01*
X704887Y182653D01*
X704581Y182419D01*
X703139Y180539D01*
X702232Y178349D01*
X701922Y176000D01*
X702232Y173650D01*
X703139Y171461D01*
X704581Y169581D01*
X706461Y168139D01*
X708651Y167232D01*
X711000Y166922D01*
X713350Y167232D01*
X715539Y168139D01*
X717419Y169581D01*
X718861Y171461D01*
X719768Y173650D01*
X720078Y176000D01*
X719768Y178349D01*
X718861Y180539D01*
X717419Y182419D01*
X717113Y182653D01*
X717435Y183600D01*
X880979D01*
X909918Y154661D01*
Y102969D01*
X900405Y93456D01*
X888532D01*
X886002Y94504D01*
X883000Y94899D01*
X879998Y94504D01*
X877200Y93345D01*
X874798Y91502D01*
X872955Y89100D01*
X871796Y86302D01*
X871401Y83300D01*
X871796Y80298D01*
X872955Y77500D01*
X874798Y75098D01*
X877200Y73255D01*
X879998Y72096D01*
X883000Y71701D01*
X886002Y72096D01*
X888800Y73255D01*
X890152Y74292D01*
X904374D01*
X906854Y74619D01*
X909165Y75576D01*
X911150Y77099D01*
X925941Y91890D01*
X926941Y91476D01*
Y21025D01*
X925941Y20935D01*
X924202Y23202D01*
X921800Y25045D01*
X919002Y26204D01*
X916000Y26599D01*
X912998Y26204D01*
X910200Y25045D01*
X907798Y23202D01*
X905955Y20800D01*
X904796Y18002D01*
X904401Y15000D01*
X904796Y11998D01*
X905955Y9200D01*
X907798Y6798D01*
X910200Y4955D01*
X912364Y4059D01*
X912165Y3059D01*
X753242D01*
X753100Y4059D01*
Y26000D01*
X731100D01*
Y4059D01*
X731100Y4000D01*
X730958Y3059D01*
X717932D01*
X717866Y4059D01*
X719572Y4283D01*
X722247Y5391D01*
X724545Y7155D01*
X726309Y9452D01*
X727417Y12128D01*
X727795Y15000D01*
X727417Y17872D01*
X726309Y20547D01*
X724545Y22845D01*
X722247Y24608D01*
X719572Y25717D01*
X716700Y26095D01*
X713829Y25717D01*
X711595Y24792D01*
X709379Y27008D01*
X709761Y27931D01*
X823545D01*
X824910Y28203D01*
X826068Y28977D01*
X839577Y42485D01*
X840044Y42392D01*
X842190Y42819D01*
X844010Y44035D01*
X845225Y45854D01*
X845652Y48000D01*
X845225Y50146D01*
X844010Y51965D01*
X842190Y53181D01*
X840044Y53608D01*
X837898Y53181D01*
X836079Y51965D01*
X834864Y50146D01*
X834437Y48000D01*
X834530Y47532D01*
X822066Y35069D01*
X686383D01*
X685911Y35951D01*
X686181Y36354D01*
X686608Y38500D01*
X686181Y40646D01*
X684965Y42465D01*
X684539Y42750D01*
Y43750D01*
X684965Y44035D01*
X686180Y45854D01*
X686607Y48000D01*
X686180Y50146D01*
X684965Y51965D01*
X683146Y53181D01*
X681000Y53608D01*
X680231Y53455D01*
X662814Y70872D01*
Y90973D01*
X663465Y91408D01*
X664681Y93227D01*
X664878Y94219D01*
X665963Y94548D01*
X670756Y89756D01*
X670956Y89622D01*
X671348Y89035D01*
X673168Y87819D01*
X675314Y87392D01*
X677460Y87819D01*
X679279Y89035D01*
X680495Y90854D01*
X680921Y93000D01*
X680495Y95146D01*
X679279Y96965D01*
X677460Y98181D01*
X675314Y98608D01*
X674953Y98536D01*
X661544Y111944D01*
X660056Y112939D01*
X658300Y113288D01*
X649588D01*
Y139175D01*
X649625Y139180D01*
X651328Y139886D01*
X652791Y141007D01*
X662424Y150641D01*
X668139D01*
X668443Y149641D01*
X667230Y148831D01*
X666014Y147012D01*
X665588Y144866D01*
X666014Y142720D01*
X667230Y140900D01*
X669049Y139685D01*
X671195Y139258D01*
X690418D01*
X691000Y139142D01*
X710884D01*
X713030Y139569D01*
X714849Y140785D01*
X714965Y140900D01*
X716181Y142720D01*
X716608Y144866D01*
X716181Y147012D01*
X714965Y148831D01*
X713752Y149641D01*
X714056Y150641D01*
X734596D01*
X753940Y131298D01*
Y102000D01*
Y93000D01*
X754180Y91173D01*
X754886Y89470D01*
X756008Y88007D01*
X757470Y86885D01*
X759173Y86180D01*
X761000Y85940D01*
X762827Y86180D01*
X764530Y86885D01*
X765993Y88007D01*
X767114Y89470D01*
X767820Y91173D01*
X768060Y93000D01*
Y102000D01*
Y134222D01*
X767820Y136049D01*
X767114Y137752D01*
X765993Y139214D01*
X742513Y162694D01*
X741050Y163816D01*
X739348Y164522D01*
X737520Y164762D01*
X659500D01*
X657673Y164522D01*
X655970Y163816D01*
X654508Y162694D01*
X644874Y153060D01*
X516000D01*
X514173Y152820D01*
X512470Y152114D01*
X511008Y150992D01*
X484758Y124742D01*
X483636Y123280D01*
X482930Y121577D01*
X482690Y119750D01*
Y86886D01*
X481929Y86264D01*
X481059Y86624D01*
Y182975D01*
X482059Y183065D01*
X483798Y180798D01*
X486200Y178955D01*
X488998Y177796D01*
X492000Y177401D01*
X495002Y177796D01*
X497800Y178955D01*
X500202Y180798D01*
X502045Y183200D01*
X503204Y185998D01*
X503599Y189000D01*
X503204Y192002D01*
X502045Y194800D01*
X500202Y197202D01*
X497800Y199045D01*
X495636Y199941D01*
X495835Y200941D01*
X533133D01*
X533385Y200201D01*
D02*
G37*
G36*
X55384D02*
X55391Y199941D01*
X44725Y189275D01*
X43202Y187291D01*
X42245Y184980D01*
X41918Y182500D01*
Y173918D01*
X40000Y172000D01*
Y162000D01*
X45000Y157000D01*
X58000D01*
X63000Y162000D01*
Y172000D01*
X61082Y173918D01*
Y178531D01*
X66151Y183600D01*
X185794D01*
X186176Y182676D01*
X184000Y180500D01*
Y171500D01*
X188500Y167000D01*
X197500D01*
X202000Y171500D01*
Y180500D01*
X199824Y182676D01*
X200206Y183600D01*
X206565D01*
X206887Y182653D01*
X206581Y182419D01*
X205139Y180539D01*
X204232Y178349D01*
X203922Y176000D01*
X204232Y173650D01*
X205139Y171461D01*
X206581Y169581D01*
X208461Y168139D01*
X210651Y167232D01*
X213000Y166922D01*
X215350Y167232D01*
X217539Y168139D01*
X219419Y169581D01*
X220861Y171461D01*
X221768Y173650D01*
X222078Y176000D01*
X221768Y178349D01*
X220861Y180539D01*
X219419Y182419D01*
X219113Y182653D01*
X219435Y183600D01*
X226565D01*
X226887Y182653D01*
X226581Y182419D01*
X225139Y180539D01*
X224232Y178349D01*
X223922Y176000D01*
X224232Y173650D01*
X225139Y171461D01*
X226581Y169581D01*
X228461Y168139D01*
X230651Y167232D01*
X233000Y166922D01*
X235350Y167232D01*
X237539Y168139D01*
X239419Y169581D01*
X240861Y171461D01*
X241768Y173650D01*
X242078Y176000D01*
X241768Y178349D01*
X240861Y180539D01*
X239419Y182419D01*
X239113Y182653D01*
X239435Y183600D01*
X402979D01*
X431918Y154661D01*
Y102969D01*
X422405Y93456D01*
X410532D01*
X408002Y94504D01*
X405000Y94899D01*
X401998Y94504D01*
X399200Y93345D01*
X396798Y91502D01*
X394955Y89100D01*
X393796Y86302D01*
X393401Y83300D01*
X393796Y80298D01*
X394955Y77500D01*
X396798Y75098D01*
X399200Y73255D01*
X401998Y72096D01*
X405000Y71701D01*
X408002Y72096D01*
X410800Y73255D01*
X412151Y74292D01*
X426374D01*
X428854Y74619D01*
X431165Y75576D01*
X433150Y77099D01*
X447941Y91890D01*
X448941Y91476D01*
Y21025D01*
X447941Y20935D01*
X446202Y23202D01*
X443800Y25045D01*
X441002Y26204D01*
X438000Y26599D01*
X434998Y26204D01*
X432200Y25045D01*
X429798Y23202D01*
X427955Y20800D01*
X426796Y18002D01*
X426401Y15000D01*
X426796Y11998D01*
X427955Y9200D01*
X429798Y6798D01*
X432200Y4955D01*
X434364Y4059D01*
X434165Y3059D01*
X275242D01*
X275100Y4059D01*
Y26000D01*
X253100D01*
Y4059D01*
X253100Y4000D01*
X252959Y3059D01*
X239932D01*
X239866Y4059D01*
X241572Y4283D01*
X244247Y5391D01*
X246545Y7155D01*
X248309Y9452D01*
X249417Y12128D01*
X249795Y15000D01*
X249417Y17872D01*
X248309Y20547D01*
X246545Y22845D01*
X244247Y24608D01*
X241572Y25717D01*
X238700Y26095D01*
X235828Y25717D01*
X233595Y24792D01*
X231379Y27008D01*
X231761Y27931D01*
X345545D01*
X346910Y28203D01*
X348068Y28977D01*
X361576Y42485D01*
X362044Y42392D01*
X364190Y42819D01*
X366010Y44035D01*
X367225Y45854D01*
X367652Y48000D01*
X367225Y50146D01*
X366010Y51965D01*
X364190Y53181D01*
X362044Y53608D01*
X359898Y53181D01*
X358079Y51965D01*
X356864Y50146D01*
X356437Y48000D01*
X356530Y47532D01*
X344066Y35069D01*
X208383D01*
X207911Y35951D01*
X208181Y36354D01*
X208608Y38500D01*
X208181Y40646D01*
X206965Y42465D01*
X206539Y42750D01*
Y43750D01*
X206965Y44035D01*
X208181Y45854D01*
X208607Y48000D01*
X208181Y50146D01*
X206965Y51965D01*
X205146Y53181D01*
X203000Y53608D01*
X202231Y53455D01*
X184814Y70872D01*
Y90973D01*
X185465Y91408D01*
X186681Y93227D01*
X186878Y94219D01*
X187963Y94548D01*
X192756Y89756D01*
X192956Y89622D01*
X193349Y89035D01*
X195168Y87819D01*
X197314Y87392D01*
X199460Y87819D01*
X201279Y89035D01*
X202495Y90854D01*
X202922Y93000D01*
X202495Y95146D01*
X201279Y96965D01*
X199460Y98181D01*
X197314Y98608D01*
X196953Y98536D01*
X183544Y111944D01*
X182056Y112939D01*
X180300Y113288D01*
X171588D01*
Y139175D01*
X171625Y139180D01*
X173328Y139886D01*
X174791Y141007D01*
X184424Y150641D01*
X190140D01*
X190443Y149641D01*
X189230Y148831D01*
X188015Y147012D01*
X187588Y144866D01*
X188015Y142720D01*
X189230Y140900D01*
X191049Y139685D01*
X193195Y139258D01*
X212418D01*
X213000Y139142D01*
X232884D01*
X235030Y139569D01*
X236849Y140785D01*
X236965Y140900D01*
X238181Y142720D01*
X238608Y144866D01*
X238181Y147012D01*
X236965Y148831D01*
X235752Y149641D01*
X236056Y150641D01*
X256596D01*
X275940Y131298D01*
Y102000D01*
Y93000D01*
X276180Y91173D01*
X276886Y89470D01*
X278008Y88007D01*
X279470Y86885D01*
X281173Y86180D01*
X283000Y85940D01*
X284827Y86180D01*
X286530Y86885D01*
X287992Y88007D01*
X289114Y89470D01*
X289820Y91173D01*
X290060Y93000D01*
Y102000D01*
Y134222D01*
X289820Y136049D01*
X289114Y137752D01*
X287992Y139214D01*
X264513Y162694D01*
X263050Y163816D01*
X261348Y164522D01*
X259520Y164762D01*
X181500D01*
X179673Y164522D01*
X177970Y163816D01*
X176507Y162694D01*
X166874Y153060D01*
X38000D01*
X36173Y152820D01*
X34470Y152114D01*
X33008Y150992D01*
X6758Y124742D01*
X5635Y123280D01*
X4930Y121577D01*
X4690Y119750D01*
Y86886D01*
X3929Y86264D01*
X3059Y86624D01*
Y182975D01*
X4059Y183065D01*
X5798Y180798D01*
X8200Y178955D01*
X10998Y177796D01*
X14000Y177401D01*
X17002Y177796D01*
X19800Y178955D01*
X22202Y180798D01*
X24045Y183200D01*
X25204Y185998D01*
X25599Y189000D01*
X25204Y192002D01*
X24045Y194800D01*
X22202Y197202D01*
X19800Y199045D01*
X17636Y199941D01*
X17835Y200941D01*
X55133D01*
X55384Y200201D01*
D02*
G37*
G36*
X640412Y109707D02*
X640162Y108450D01*
Y60783D01*
X639569Y59896D01*
X639142Y57750D01*
X639569Y55604D01*
X640785Y53785D01*
X642604Y52569D01*
X644750Y52142D01*
X646896Y52569D01*
X648715Y53785D01*
X649931Y55604D01*
X650358Y57750D01*
X649931Y59896D01*
X649338Y60783D01*
Y64335D01*
X650338Y64638D01*
X650666Y64148D01*
X658657Y56157D01*
X664947Y49867D01*
X663554Y48474D01*
X663478Y48474D01*
X663478Y48474D01*
X662152Y46490D01*
X661686Y44149D01*
X662152Y41807D01*
X663478Y39823D01*
X663478Y39823D01*
X663478Y39823D01*
X664249Y39308D01*
X665463Y38497D01*
X667804Y38031D01*
X670145Y38497D01*
X672129Y39823D01*
X672129Y39823D01*
X672129Y39823D01*
X672129Y39899D01*
X673037Y40806D01*
X674008D01*
X674008Y40806D01*
X675545Y39269D01*
X675392Y38500D01*
X675819Y36354D01*
X676089Y35951D01*
X675617Y35069D01*
X640046D01*
X639931Y35646D01*
X638715Y37465D01*
X636896Y38681D01*
X634750Y39108D01*
X632604Y38681D01*
X630785Y37465D01*
X629569Y35646D01*
X629142Y33500D01*
X629410Y32154D01*
X628488Y31662D01*
X626667Y33483D01*
X626820Y34252D01*
X626393Y36398D01*
X625177Y38217D01*
X625148Y39244D01*
X626223Y40854D01*
X626650Y43000D01*
X626223Y45146D01*
X625008Y46965D01*
Y47591D01*
X625177Y47704D01*
X626393Y49523D01*
X626820Y51669D01*
X626393Y53815D01*
X625177Y55635D01*
X624356Y56183D01*
Y61312D01*
X626134Y61666D01*
X628119Y62992D01*
X629445Y64977D01*
X629721Y66367D01*
X629727Y66394D01*
X629910Y67318D01*
Y67318D01*
Y67318D01*
X629910D01*
X629727Y68242D01*
X629445Y69659D01*
X628379Y71254D01*
X628542Y71588D01*
X629288Y72200D01*
X631629Y72666D01*
X633614Y73992D01*
X634940Y75977D01*
X635217Y77366D01*
X635222Y77394D01*
X635406Y78318D01*
Y78318D01*
Y78318D01*
X635406D01*
X635222Y79242D01*
X634940Y80659D01*
X633614Y82643D01*
X633159Y82948D01*
Y84150D01*
X634418Y84992D01*
X635744Y86977D01*
X636021Y88366D01*
X636026Y88394D01*
X636210Y89318D01*
Y89318D01*
Y89318D01*
X636210D01*
X636026Y90242D01*
X635744Y91659D01*
X634418Y93643D01*
X632434Y94970D01*
X630093Y95435D01*
Y95381D01*
X620877D01*
X620808Y95368D01*
X619943Y95726D01*
X619908Y95778D01*
X618174Y97512D01*
X617099Y98231D01*
X615831Y98483D01*
X607368D01*
X606796Y99339D01*
X604977Y100554D01*
X602831Y100981D01*
X600685Y100554D01*
X598866Y99339D01*
X597650Y97519D01*
X597445Y96489D01*
X596488Y96198D01*
X594970Y97717D01*
X593895Y98435D01*
X592627Y98687D01*
X584814D01*
Y99708D01*
X584868D01*
X584402Y102049D01*
X583076Y104034D01*
X581091Y105360D01*
X579701Y105636D01*
X579674Y105642D01*
X578750Y105826D01*
X578750D01*
Y105826D01*
X577826Y105642D01*
X576409Y105360D01*
X574424Y104034D01*
X573098Y102049D01*
X572633Y99708D01*
X572687D01*
Y97698D01*
X571687Y97209D01*
X570091Y98275D01*
X567750Y98741D01*
Y98687D01*
X565401D01*
X564965Y99339D01*
X563146Y100554D01*
X561000Y100981D01*
X558854Y100554D01*
X557035Y99339D01*
X555819Y97519D01*
X555392Y95373D01*
X555819Y93227D01*
X557035Y91408D01*
X558854Y90192D01*
X561000Y89766D01*
X563146Y90192D01*
X564965Y91408D01*
X565401Y92060D01*
X567187D01*
Y86323D01*
X567133D01*
X567598Y83982D01*
X568924Y81998D01*
X570909Y80672D01*
X572299Y80395D01*
X572326Y80390D01*
X573250Y80206D01*
X573250D01*
Y80206D01*
X574174Y80390D01*
X575591Y80672D01*
X577576Y81998D01*
X578902Y83982D01*
X579368Y86323D01*
X579314D01*
Y93048D01*
X580314Y93537D01*
X581909Y92472D01*
X584250Y92006D01*
Y92060D01*
X591254D01*
X609686Y73627D01*
Y51042D01*
X609939Y49774D01*
X610657Y48699D01*
X615588Y43769D01*
X615435Y43000D01*
X615862Y40854D01*
X617077Y39035D01*
X617107Y38007D01*
X616031Y36398D01*
X615604Y34252D01*
X616031Y32106D01*
X617247Y30286D01*
X619066Y29071D01*
X621212Y28644D01*
X621981Y28797D01*
X625871Y24907D01*
X626946Y24189D01*
X628214Y23936D01*
X658743D01*
X659064Y22989D01*
X658411Y22489D01*
X656728Y20295D01*
X655670Y17741D01*
X655639Y17500D01*
X676161D01*
X676130Y17741D01*
X675072Y20295D01*
X673389Y22489D01*
X672736Y22989D01*
X673058Y23936D01*
X683321D01*
X683643Y22989D01*
X683455Y22845D01*
X681692Y20547D01*
X680583Y17872D01*
X680205Y15000D01*
X680583Y12128D01*
X681692Y9452D01*
X683455Y7155D01*
X685753Y5391D01*
X688428Y4283D01*
X690134Y4059D01*
X690068Y3059D01*
X581308D01*
X581004Y4059D01*
X582465Y5035D01*
X583681Y6854D01*
X584108Y9000D01*
X583681Y11146D01*
X582465Y12965D01*
X580646Y14181D01*
X578500Y14608D01*
X576354Y14181D01*
X574535Y12965D01*
X574270Y12569D01*
X566934D01*
X564569Y14934D01*
Y67000D01*
X564297Y68366D01*
X563523Y69523D01*
X535150Y97897D01*
X533992Y98670D01*
X532627Y98942D01*
X522230D01*
X521965Y99339D01*
X520146Y100554D01*
X518000Y100981D01*
X515854Y100554D01*
X514035Y99339D01*
X512819Y97519D01*
X512392Y95373D01*
X512819Y93227D01*
X514035Y91408D01*
X515854Y90192D01*
X518000Y89766D01*
X520146Y90192D01*
X521965Y91408D01*
X522230Y91805D01*
X531148D01*
X557431Y65522D01*
Y63867D01*
X556549Y63396D01*
X556123Y63681D01*
X553977Y64108D01*
X553209Y63955D01*
X537581Y79582D01*
X536507Y80300D01*
X535238Y80552D01*
X507495D01*
X507301Y81021D01*
X506099Y82588D01*
X504532Y83790D01*
X502708Y84546D01*
X500750Y84803D01*
X498792Y84546D01*
X497810Y84139D01*
X496810Y84807D01*
Y116825D01*
X518924Y138940D01*
X640412D01*
Y109707D01*
D02*
G37*
G36*
X162412D02*
X162162Y108450D01*
Y60783D01*
X161569Y59896D01*
X161142Y57750D01*
X161569Y55604D01*
X162785Y53785D01*
X164604Y52569D01*
X166750Y52142D01*
X168896Y52569D01*
X170715Y53785D01*
X171931Y55604D01*
X172358Y57750D01*
X171931Y59896D01*
X171338Y60783D01*
Y64335D01*
X172338Y64638D01*
X172666Y64148D01*
X180657Y56157D01*
X186947Y49867D01*
X185554Y48474D01*
X185478Y48474D01*
X185478Y48474D01*
X184152Y46490D01*
X183686Y44149D01*
X184152Y41807D01*
X185478Y39823D01*
X185478Y39823D01*
X185478Y39823D01*
X186249Y39308D01*
X187463Y38497D01*
X189804Y38031D01*
X192145Y38497D01*
X194129Y39823D01*
X194129Y39823D01*
X194129Y39823D01*
X194129Y39899D01*
X195037Y40806D01*
X196008D01*
X196008Y40806D01*
X197545Y39269D01*
X197392Y38500D01*
X197819Y36354D01*
X198089Y35951D01*
X197617Y35069D01*
X162046D01*
X161931Y35646D01*
X160715Y37465D01*
X158896Y38681D01*
X156750Y39108D01*
X154604Y38681D01*
X152785Y37465D01*
X151569Y35646D01*
X151142Y33500D01*
X151410Y32154D01*
X150488Y31662D01*
X148667Y33483D01*
X148820Y34252D01*
X148393Y36398D01*
X147177Y38217D01*
X147148Y39244D01*
X148223Y40854D01*
X148650Y43000D01*
X148223Y45146D01*
X147008Y46965D01*
Y47591D01*
X147177Y47704D01*
X148393Y49523D01*
X148820Y51669D01*
X148393Y53815D01*
X147177Y55635D01*
X146356Y56183D01*
Y61312D01*
X148134Y61666D01*
X150119Y62992D01*
X151445Y64977D01*
X151721Y66367D01*
X151727Y66394D01*
X151910Y67318D01*
Y67318D01*
Y67318D01*
X151910D01*
X151727Y68242D01*
X151445Y69659D01*
X150379Y71254D01*
X150542Y71588D01*
X151288Y72200D01*
X153630Y72666D01*
X155614Y73992D01*
X156940Y75977D01*
X157217Y77366D01*
X157222Y77394D01*
X157406Y78318D01*
Y78318D01*
Y78318D01*
X157406D01*
X157222Y79242D01*
X156940Y80659D01*
X155614Y82643D01*
X155159Y82948D01*
Y84150D01*
X156418Y84992D01*
X157744Y86977D01*
X158021Y88366D01*
X158026Y88394D01*
X158210Y89318D01*
Y89318D01*
Y89318D01*
X158210D01*
X158026Y90242D01*
X157744Y91659D01*
X156418Y93643D01*
X154434Y94970D01*
X152093Y95435D01*
Y95381D01*
X142877D01*
X142808Y95368D01*
X141943Y95726D01*
X141908Y95778D01*
X140174Y97512D01*
X139099Y98231D01*
X137831Y98483D01*
X129368D01*
X128796Y99339D01*
X126977Y100554D01*
X124831Y100981D01*
X122685Y100554D01*
X120865Y99339D01*
X119650Y97519D01*
X119445Y96489D01*
X118488Y96198D01*
X116970Y97717D01*
X115895Y98435D01*
X114627Y98687D01*
X106814D01*
Y99708D01*
X106868D01*
X106402Y102049D01*
X105076Y104034D01*
X103091Y105360D01*
X101701Y105636D01*
X101674Y105642D01*
X100750Y105826D01*
X100750D01*
Y105826D01*
X99826Y105642D01*
X98409Y105360D01*
X96424Y104034D01*
X95098Y102049D01*
X94633Y99708D01*
X94686D01*
Y97698D01*
X93687Y97209D01*
X92091Y98275D01*
X89750Y98741D01*
Y98687D01*
X87401D01*
X86965Y99339D01*
X85146Y100554D01*
X83000Y100981D01*
X80854Y100554D01*
X79035Y99339D01*
X77819Y97519D01*
X77392Y95373D01*
X77819Y93227D01*
X79035Y91408D01*
X80854Y90192D01*
X83000Y89766D01*
X85146Y90192D01*
X86965Y91408D01*
X87401Y92060D01*
X89186D01*
Y86323D01*
X89133D01*
X89598Y83982D01*
X90924Y81998D01*
X92909Y80672D01*
X94299Y80395D01*
X94326Y80390D01*
X95250Y80206D01*
X95250D01*
Y80206D01*
X96174Y80390D01*
X97591Y80672D01*
X99576Y81998D01*
X100902Y83982D01*
X101368Y86323D01*
X101314D01*
Y93048D01*
X102314Y93537D01*
X103909Y92472D01*
X106250Y92006D01*
Y92060D01*
X113254D01*
X131686Y73627D01*
Y51042D01*
X131939Y49774D01*
X132657Y48699D01*
X137588Y43769D01*
X137435Y43000D01*
X137862Y40854D01*
X139077Y39035D01*
X139107Y38007D01*
X138031Y36398D01*
X137604Y34252D01*
X138031Y32106D01*
X139247Y30286D01*
X141066Y29071D01*
X143212Y28644D01*
X143981Y28797D01*
X147871Y24907D01*
X148946Y24189D01*
X150214Y23936D01*
X180742D01*
X181064Y22989D01*
X180411Y22489D01*
X178728Y20295D01*
X177670Y17741D01*
X177639Y17500D01*
X198162D01*
X198130Y17741D01*
X197072Y20295D01*
X195389Y22489D01*
X194736Y22989D01*
X195058Y23936D01*
X205321D01*
X205643Y22989D01*
X205455Y22845D01*
X203692Y20547D01*
X202583Y17872D01*
X202205Y15000D01*
X202583Y12128D01*
X203692Y9452D01*
X205455Y7155D01*
X207753Y5391D01*
X210429Y4283D01*
X212134Y4059D01*
X212068Y3059D01*
X103308D01*
X103005Y4059D01*
X104465Y5035D01*
X105681Y6854D01*
X106108Y9000D01*
X105681Y11146D01*
X104465Y12965D01*
X102646Y14181D01*
X100500Y14608D01*
X98354Y14181D01*
X96535Y12965D01*
X96270Y12569D01*
X88934D01*
X86569Y14934D01*
Y67000D01*
X86297Y68366D01*
X85523Y69523D01*
X57150Y97897D01*
X55992Y98670D01*
X54627Y98942D01*
X44230D01*
X43965Y99339D01*
X42146Y100554D01*
X40000Y100981D01*
X37854Y100554D01*
X36035Y99339D01*
X34819Y97519D01*
X34392Y95373D01*
X34819Y93227D01*
X36035Y91408D01*
X37854Y90192D01*
X40000Y89766D01*
X42146Y90192D01*
X43965Y91408D01*
X44230Y91805D01*
X53148D01*
X79432Y65522D01*
Y63867D01*
X78549Y63396D01*
X78123Y63681D01*
X75977Y64108D01*
X75209Y63955D01*
X59581Y79582D01*
X58506Y80300D01*
X57238Y80552D01*
X29495D01*
X29301Y81021D01*
X28099Y82588D01*
X26532Y83790D01*
X24708Y84546D01*
X22750Y84803D01*
X20792Y84546D01*
X19810Y84139D01*
X18810Y84807D01*
Y116825D01*
X40925Y138940D01*
X162412D01*
Y109707D01*
D02*
G37*
G36*
X548522Y59269D02*
X548369Y58500D01*
X548796Y56354D01*
X550012Y54535D01*
X551831Y53319D01*
X553977Y52892D01*
X556123Y53319D01*
X556549Y53604D01*
X557431Y53133D01*
Y24300D01*
X556549Y23828D01*
X556396Y23931D01*
X554250Y24358D01*
X552104Y23931D01*
X551217Y23338D01*
X529533D01*
X528646Y23931D01*
X526500Y24358D01*
X524354Y23931D01*
X522535Y22715D01*
X521319Y20896D01*
X520892Y18750D01*
X521319Y16604D01*
X522535Y14785D01*
X524354Y13569D01*
X526500Y13142D01*
X528646Y13569D01*
X529533Y14162D01*
X551217D01*
X552104Y13569D01*
X554250Y13142D01*
X556396Y13569D01*
X556530Y13658D01*
X557501Y13105D01*
X557703Y12090D01*
X558477Y10932D01*
X562932Y6477D01*
X564090Y5703D01*
X565456Y5431D01*
X574270D01*
X574535Y5035D01*
X575996Y4059D01*
X575692Y3059D01*
X495835D01*
X495636Y4059D01*
X497800Y4955D01*
X500202Y6798D01*
X502045Y9200D01*
X503204Y11998D01*
X503599Y15000D01*
X503204Y18002D01*
X502045Y20800D01*
X500202Y23202D01*
X497800Y25045D01*
X495002Y26204D01*
X492000Y26599D01*
X488998Y26204D01*
X486200Y25045D01*
X483798Y23202D01*
X482059Y20935D01*
X481059Y21025D01*
Y33015D01*
X482059Y33508D01*
X482690Y33024D01*
X484393Y32319D01*
X486220Y32078D01*
X493250D01*
Y31639D01*
X508250D01*
Y46639D01*
X507344D01*
X506902Y47536D01*
X507301Y48056D01*
X508057Y49881D01*
X508315Y51839D01*
X508057Y53797D01*
X507301Y55621D01*
X506099Y57188D01*
X505205Y57874D01*
Y59134D01*
X505742Y59546D01*
X506865Y61009D01*
X507291Y62039D01*
X500750D01*
Y67039D01*
X507291D01*
X506865Y68069D01*
X505742Y69531D01*
X505205Y69943D01*
Y71204D01*
X506099Y71890D01*
X507301Y73456D01*
X507495Y73925D01*
X533866D01*
X548522Y59269D01*
D02*
G37*
G36*
X70522D02*
X70370Y58500D01*
X70796Y56354D01*
X72012Y54535D01*
X73831Y53319D01*
X75977Y52892D01*
X78123Y53319D01*
X78549Y53604D01*
X79432Y53133D01*
Y24300D01*
X78549Y23828D01*
X78396Y23931D01*
X76250Y24358D01*
X74104Y23931D01*
X73217Y23338D01*
X51533D01*
X50646Y23931D01*
X48500Y24358D01*
X46354Y23931D01*
X44535Y22715D01*
X43319Y20896D01*
X42892Y18750D01*
X43319Y16604D01*
X44535Y14785D01*
X46354Y13569D01*
X48500Y13142D01*
X50646Y13569D01*
X51533Y14162D01*
X73217D01*
X74104Y13569D01*
X76250Y13142D01*
X78396Y13569D01*
X78530Y13658D01*
X79501Y13105D01*
X79703Y12090D01*
X80477Y10932D01*
X84932Y6477D01*
X86090Y5703D01*
X87456Y5431D01*
X96270D01*
X96535Y5035D01*
X97996Y4059D01*
X97692Y3059D01*
X17835D01*
X17636Y4059D01*
X19800Y4955D01*
X22202Y6798D01*
X24045Y9200D01*
X25204Y11998D01*
X25599Y15000D01*
X25204Y18002D01*
X24045Y20800D01*
X22202Y23202D01*
X19800Y25045D01*
X17002Y26204D01*
X14000Y26599D01*
X10998Y26204D01*
X8200Y25045D01*
X5798Y23202D01*
X4059Y20935D01*
X3059Y21025D01*
Y33015D01*
X4059Y33508D01*
X4690Y33024D01*
X6392Y32319D01*
X8220Y32078D01*
X15250D01*
Y31639D01*
X30250D01*
Y46639D01*
X29344D01*
X28902Y47536D01*
X29301Y48056D01*
X30057Y49881D01*
X30315Y51839D01*
X30057Y53797D01*
X29301Y55621D01*
X28099Y57188D01*
X27205Y57874D01*
Y59134D01*
X27743Y59546D01*
X28865Y61009D01*
X29291Y62039D01*
X22750D01*
Y67039D01*
X29291D01*
X28865Y68069D01*
X27743Y69531D01*
X27205Y69943D01*
Y71204D01*
X28099Y71890D01*
X29301Y73456D01*
X29495Y73925D01*
X55866D01*
X70522Y59269D01*
D02*
G37*
%LPC*%
G36*
X895891Y849065D02*
X887891D01*
Y841065D01*
X895891D01*
Y849065D01*
D02*
G37*
G36*
X877891D02*
X869891D01*
Y841065D01*
X877891D01*
Y849065D01*
D02*
G37*
G36*
X675000Y877039D02*
X651000D01*
X650220Y876884D01*
X649558Y876442D01*
X649116Y875780D01*
X648961Y875000D01*
Y799000D01*
X649116Y798220D01*
X649558Y797558D01*
X650220Y797116D01*
X651000Y796961D01*
X771622D01*
X772961Y796000D01*
Y729449D01*
X765099Y721588D01*
X668404D01*
X643389Y746603D01*
X643181Y747650D01*
X641965Y749469D01*
X640146Y750685D01*
X638000Y751112D01*
X635854Y750685D01*
X634035Y749469D01*
X632819Y747650D01*
X632392Y745504D01*
X632819Y743358D01*
X634035Y741539D01*
X635854Y740323D01*
X636900Y740115D01*
X663260Y713756D01*
X664748Y712761D01*
X666504Y712412D01*
X767000D01*
X768756Y712761D01*
X770244Y713756D01*
X779449Y722961D01*
X808000Y722961D01*
X808780Y723116D01*
X809442Y723558D01*
X809884Y724220D01*
X810039Y725000D01*
Y772961D01*
X876616D01*
X876915Y771461D01*
X876335Y771221D01*
X873620Y769137D01*
X871536Y766421D01*
X870891Y764865D01*
X894891D01*
X894247Y766421D01*
X892163Y769137D01*
X889447Y771221D01*
X888868Y771461D01*
X889166Y772961D01*
X896000D01*
X896780Y773116D01*
X897442Y773558D01*
X897884Y774220D01*
X898039Y775000D01*
Y796000D01*
X897884Y796780D01*
X897442Y797442D01*
Y797558D01*
X897884Y798220D01*
X898039Y799000D01*
Y822000D01*
X897884Y822780D01*
X897442Y823442D01*
X896780Y823884D01*
X896000Y824039D01*
X895891D01*
Y831065D01*
X869891D01*
Y824039D01*
X677039D01*
Y875000D01*
X676884Y875780D01*
X676442Y876442D01*
X675780Y876884D01*
X675000Y877039D01*
D02*
G37*
G36*
X894891Y754865D02*
X887891D01*
Y747865D01*
X889447Y748510D01*
X892163Y750593D01*
X894247Y753309D01*
X894891Y754865D01*
D02*
G37*
G36*
X877891D02*
X870891D01*
X871536Y753309D01*
X873620Y750593D01*
X876335Y748510D01*
X877891Y747865D01*
Y754865D01*
D02*
G37*
%LPD*%
G36*
X675000Y822000D02*
X896000D01*
Y799000D01*
X651000D01*
Y875000D01*
X675000D01*
Y822000D01*
D02*
G37*
G36*
X896000Y775000D02*
X808000D01*
Y725000D01*
X775000Y725000D01*
Y796000D01*
X896000Y796000D01*
Y775000D01*
D02*
G37*
%LPC*%
G36*
X417891Y849065D02*
X409891D01*
Y841065D01*
X417891D01*
Y849065D01*
D02*
G37*
G36*
X399891D02*
X391891D01*
Y841065D01*
X399891D01*
Y849065D01*
D02*
G37*
G36*
X197000Y877039D02*
X173000D01*
X172220Y876884D01*
X171558Y876442D01*
X171116Y875780D01*
X170961Y875000D01*
Y799000D01*
X171116Y798220D01*
X171558Y797558D01*
X172220Y797116D01*
X173000Y796961D01*
X293622D01*
X294961Y796000D01*
Y729449D01*
X287099Y721588D01*
X190404D01*
X165389Y746603D01*
X165181Y747650D01*
X163965Y749469D01*
X162146Y750685D01*
X160000Y751112D01*
X157854Y750685D01*
X156035Y749469D01*
X154819Y747650D01*
X154392Y745504D01*
X154819Y743358D01*
X156035Y741539D01*
X157854Y740323D01*
X158900Y740115D01*
X185259Y713756D01*
X186748Y712761D01*
X188504Y712412D01*
X289000D01*
X290756Y712761D01*
X292244Y713756D01*
X301449Y722961D01*
X330000Y722961D01*
X330780Y723116D01*
X331442Y723558D01*
X331884Y724220D01*
X332039Y725000D01*
Y772961D01*
X398616D01*
X398915Y771461D01*
X398335Y771221D01*
X395620Y769137D01*
X393536Y766421D01*
X392891Y764865D01*
X416891D01*
X416247Y766421D01*
X414163Y769137D01*
X411447Y771221D01*
X410868Y771461D01*
X411166Y772961D01*
X418000D01*
X418780Y773116D01*
X419442Y773558D01*
X419884Y774220D01*
X420039Y775000D01*
Y796000D01*
X419884Y796780D01*
X419442Y797442D01*
Y797558D01*
X419884Y798220D01*
X420039Y799000D01*
Y822000D01*
X419884Y822780D01*
X419442Y823442D01*
X418780Y823884D01*
X418000Y824039D01*
X417891D01*
Y831065D01*
X391891D01*
Y824039D01*
X199039D01*
Y875000D01*
X198884Y875780D01*
X198442Y876442D01*
X197780Y876884D01*
X197000Y877039D01*
D02*
G37*
G36*
X416891Y754865D02*
X409891D01*
Y747865D01*
X411447Y748510D01*
X414163Y750593D01*
X416247Y753309D01*
X416891Y754865D01*
D02*
G37*
G36*
X399891D02*
X392891D01*
X393536Y753309D01*
X395620Y750593D01*
X398335Y748510D01*
X399891Y747865D01*
Y754865D01*
D02*
G37*
%LPD*%
G36*
X197000Y822000D02*
X418000D01*
Y799000D01*
X173000D01*
Y875000D01*
X197000D01*
Y822000D01*
D02*
G37*
G36*
X418000Y775000D02*
X330000D01*
Y725000D01*
X297000Y725000D01*
Y796000D01*
X418000Y796000D01*
Y775000D01*
D02*
G37*
%LPC*%
G36*
X877500Y635450D02*
Y628500D01*
X885747D01*
X884798Y630791D01*
X883276Y632775D01*
X881291Y634298D01*
X878980Y635255D01*
X877500Y635450D01*
D02*
G37*
G36*
X872500D02*
X871020Y635255D01*
X868709Y634298D01*
X866725Y632775D01*
X865202Y630791D01*
X864253Y628500D01*
X872500D01*
Y635450D01*
D02*
G37*
G36*
X852500D02*
Y628500D01*
X860747D01*
X859798Y630791D01*
X858276Y632775D01*
X856291Y634298D01*
X853980Y635255D01*
X852500Y635450D01*
D02*
G37*
G36*
X847500D02*
X846020Y635255D01*
X843709Y634298D01*
X841725Y632775D01*
X840202Y630791D01*
X839253Y628500D01*
X847500D01*
Y635450D01*
D02*
G37*
G36*
X606000Y637086D02*
X603000D01*
X600390Y636743D01*
X597957Y635735D01*
X595868Y634132D01*
X594265Y632043D01*
X593257Y629610D01*
X592914Y627000D01*
X593257Y624389D01*
X594265Y621957D01*
X595868Y619868D01*
X597957Y618265D01*
X600390Y617257D01*
X603000Y616914D01*
X606000D01*
X608610Y617257D01*
X611043Y618265D01*
X613132Y619868D01*
X614735Y621957D01*
X615743Y624389D01*
X616086Y627000D01*
X615743Y629610D01*
X614735Y632043D01*
X613132Y634132D01*
X611043Y635735D01*
X608610Y636743D01*
X606000Y637086D01*
D02*
G37*
G36*
X581000D02*
X578000D01*
X575390Y636743D01*
X572957Y635735D01*
X570868Y634132D01*
X569265Y632043D01*
X568257Y629610D01*
X567914Y627000D01*
X568257Y624389D01*
X569265Y621957D01*
X570868Y619868D01*
X572957Y618265D01*
X575390Y617257D01*
X578000Y616914D01*
X581000D01*
X583610Y617257D01*
X586043Y618265D01*
X588132Y619868D01*
X589735Y621957D01*
X590743Y624389D01*
X591086Y627000D01*
X590743Y629610D01*
X589735Y632043D01*
X588132Y634132D01*
X586043Y635735D01*
X583610Y636743D01*
X581000Y637086D01*
D02*
G37*
G36*
X556000D02*
X553000D01*
X550390Y636743D01*
X547957Y635735D01*
X545868Y634132D01*
X544265Y632043D01*
X543257Y629610D01*
X542914Y627000D01*
X543257Y624389D01*
X544265Y621957D01*
X545868Y619868D01*
X547957Y618265D01*
X550390Y617257D01*
X553000Y616914D01*
X556000D01*
X558610Y617257D01*
X561043Y618265D01*
X563132Y619868D01*
X564735Y621957D01*
X565743Y624389D01*
X566086Y627000D01*
X565743Y629610D01*
X564735Y632043D01*
X563132Y634132D01*
X561043Y635735D01*
X558610Y636743D01*
X556000Y637086D01*
D02*
G37*
G36*
X885747Y623500D02*
X877500D01*
Y616550D01*
X878980Y616744D01*
X881291Y617702D01*
X883276Y619225D01*
X884798Y621209D01*
X885747Y623500D01*
D02*
G37*
G36*
X872500D02*
X864253D01*
X865202Y621209D01*
X866725Y619225D01*
X868709Y617702D01*
X871020Y616744D01*
X872500Y616550D01*
Y623500D01*
D02*
G37*
G36*
X860747D02*
X852500D01*
Y616550D01*
X853980Y616744D01*
X856291Y617702D01*
X858276Y619225D01*
X859798Y621209D01*
X860747Y623500D01*
D02*
G37*
G36*
X847500D02*
X839253D01*
X840202Y621209D01*
X841725Y619225D01*
X843709Y617702D01*
X846020Y616744D01*
X847500Y616550D01*
Y623500D01*
D02*
G37*
G36*
X831500Y636000D02*
X818500D01*
X813500Y631000D01*
Y621000D01*
X818500Y616000D01*
X831500D01*
X836500Y621000D01*
Y631000D01*
X831500Y636000D01*
D02*
G37*
G36*
X885500Y604866D02*
Y596600D01*
X893766D01*
X893717Y596972D01*
X892608Y599647D01*
X890845Y601945D01*
X888548Y603708D01*
X885872Y604817D01*
X885500Y604866D01*
D02*
G37*
G36*
X880500D02*
X880128Y604817D01*
X877453Y603708D01*
X875155Y601945D01*
X873392Y599647D01*
X872283Y596972D01*
X872234Y596600D01*
X880500D01*
Y604866D01*
D02*
G37*
G36*
X893766Y591600D02*
X885500D01*
Y583334D01*
X885872Y583383D01*
X888548Y584492D01*
X890845Y586255D01*
X892608Y588553D01*
X893717Y591228D01*
X893766Y591600D01*
D02*
G37*
G36*
X880500D02*
X872234D01*
X872283Y591228D01*
X873392Y588553D01*
X875155Y586255D01*
X877453Y584492D01*
X880128Y583383D01*
X880500Y583334D01*
Y591600D01*
D02*
G37*
G36*
X717000Y571608D02*
X714854Y571181D01*
X713035Y569965D01*
X711819Y568146D01*
X711392Y566000D01*
X711819Y563854D01*
X713035Y562035D01*
X714854Y560819D01*
X717000Y560392D01*
X719146Y560819D01*
X720965Y562035D01*
X722181Y563854D01*
X722608Y566000D01*
X722181Y568146D01*
X720965Y569965D01*
X719146Y571181D01*
X717000Y571608D01*
D02*
G37*
G36*
X883000Y580299D02*
X879998Y579904D01*
X877200Y578745D01*
X874798Y576902D01*
X872955Y574500D01*
X871796Y571702D01*
X871401Y568700D01*
X871796Y565698D01*
X872955Y562900D01*
X874798Y560498D01*
X877200Y558655D01*
X879998Y557496D01*
X883000Y557101D01*
X886002Y557496D01*
X888800Y558655D01*
X891202Y560498D01*
X893045Y562900D01*
X894204Y565698D01*
X894599Y568700D01*
X894204Y571702D01*
X893045Y574500D01*
X891202Y576902D01*
X888800Y578745D01*
X886002Y579904D01*
X883000Y580299D01*
D02*
G37*
G36*
X888500Y528900D02*
X885500D01*
Y520400D01*
X894000D01*
Y523400D01*
X888500Y528900D01*
D02*
G37*
G36*
X880500D02*
X877500D01*
X872000Y523400D01*
Y520400D01*
X880500D01*
Y528900D01*
D02*
G37*
G36*
X894000Y515400D02*
X885500D01*
Y506900D01*
X888500D01*
X894000Y512400D01*
Y515400D01*
D02*
G37*
G36*
X880500D02*
X872000D01*
Y512400D01*
X877500Y506900D01*
X880500D01*
Y515400D01*
D02*
G37*
G36*
X399500Y635450D02*
Y628500D01*
X407747D01*
X406798Y630791D01*
X405275Y632775D01*
X403291Y634298D01*
X400980Y635255D01*
X399500Y635450D01*
D02*
G37*
G36*
X394500D02*
X393020Y635255D01*
X390709Y634298D01*
X388725Y632775D01*
X387202Y630791D01*
X386253Y628500D01*
X394500D01*
Y635450D01*
D02*
G37*
G36*
X374500D02*
Y628500D01*
X382747D01*
X381798Y630791D01*
X380275Y632775D01*
X378291Y634298D01*
X375980Y635255D01*
X374500Y635450D01*
D02*
G37*
G36*
X369500D02*
X368020Y635255D01*
X365709Y634298D01*
X363725Y632775D01*
X362202Y630791D01*
X361253Y628500D01*
X369500D01*
Y635450D01*
D02*
G37*
G36*
X128000Y637086D02*
X125000D01*
X122389Y636743D01*
X119957Y635735D01*
X117868Y634132D01*
X116265Y632043D01*
X115258Y629610D01*
X114914Y627000D01*
X115258Y624389D01*
X116265Y621957D01*
X117868Y619868D01*
X119957Y618265D01*
X122389Y617257D01*
X125000Y616914D01*
X128000D01*
X130611Y617257D01*
X133043Y618265D01*
X135132Y619868D01*
X136735Y621957D01*
X137743Y624389D01*
X138086Y627000D01*
X137743Y629610D01*
X136735Y632043D01*
X135132Y634132D01*
X133043Y635735D01*
X130611Y636743D01*
X128000Y637086D01*
D02*
G37*
G36*
X103000D02*
X100000D01*
X97389Y636743D01*
X94957Y635735D01*
X92868Y634132D01*
X91265Y632043D01*
X90258Y629610D01*
X89914Y627000D01*
X90258Y624389D01*
X91265Y621957D01*
X92868Y619868D01*
X94957Y618265D01*
X97389Y617257D01*
X100000Y616914D01*
X103000D01*
X105611Y617257D01*
X108043Y618265D01*
X110132Y619868D01*
X111735Y621957D01*
X112743Y624389D01*
X113086Y627000D01*
X112743Y629610D01*
X111735Y632043D01*
X110132Y634132D01*
X108043Y635735D01*
X105611Y636743D01*
X103000Y637086D01*
D02*
G37*
G36*
X78000D02*
X75000D01*
X72389Y636743D01*
X69957Y635735D01*
X67868Y634132D01*
X66265Y632043D01*
X65258Y629610D01*
X64914Y627000D01*
X65258Y624389D01*
X66265Y621957D01*
X67868Y619868D01*
X69957Y618265D01*
X72389Y617257D01*
X75000Y616914D01*
X78000D01*
X80611Y617257D01*
X83043Y618265D01*
X85132Y619868D01*
X86735Y621957D01*
X87743Y624389D01*
X88086Y627000D01*
X87743Y629610D01*
X86735Y632043D01*
X85132Y634132D01*
X83043Y635735D01*
X80611Y636743D01*
X78000Y637086D01*
D02*
G37*
G36*
X407747Y623500D02*
X399500D01*
Y616550D01*
X400980Y616744D01*
X403291Y617702D01*
X405275Y619225D01*
X406798Y621209D01*
X407747Y623500D01*
D02*
G37*
G36*
X394500D02*
X386253D01*
X387202Y621209D01*
X388725Y619225D01*
X390709Y617702D01*
X393020Y616744D01*
X394500Y616550D01*
Y623500D01*
D02*
G37*
G36*
X382747D02*
X374500D01*
Y616550D01*
X375980Y616744D01*
X378291Y617702D01*
X380275Y619225D01*
X381798Y621209D01*
X382747Y623500D01*
D02*
G37*
G36*
X369500D02*
X361253D01*
X362202Y621209D01*
X363725Y619225D01*
X365709Y617702D01*
X368020Y616744D01*
X369500Y616550D01*
Y623500D01*
D02*
G37*
G36*
X353500Y636000D02*
X340500D01*
X335500Y631000D01*
Y621000D01*
X340500Y616000D01*
X353500D01*
X358500Y621000D01*
Y631000D01*
X353500Y636000D01*
D02*
G37*
G36*
X407500Y604866D02*
Y596600D01*
X415766D01*
X415717Y596972D01*
X414608Y599647D01*
X412845Y601945D01*
X410547Y603708D01*
X407872Y604817D01*
X407500Y604866D01*
D02*
G37*
G36*
X402500D02*
X402128Y604817D01*
X399453Y603708D01*
X397155Y601945D01*
X395392Y599647D01*
X394283Y596972D01*
X394234Y596600D01*
X402500D01*
Y604866D01*
D02*
G37*
G36*
X415766Y591600D02*
X407500D01*
Y583334D01*
X407872Y583383D01*
X410547Y584492D01*
X412845Y586255D01*
X414608Y588553D01*
X415717Y591228D01*
X415766Y591600D01*
D02*
G37*
G36*
X402500D02*
X394234D01*
X394283Y591228D01*
X395392Y588553D01*
X397155Y586255D01*
X399453Y584492D01*
X402128Y583383D01*
X402500Y583334D01*
Y591600D01*
D02*
G37*
G36*
X239000Y571608D02*
X236854Y571181D01*
X235035Y569965D01*
X233819Y568146D01*
X233392Y566000D01*
X233819Y563854D01*
X235035Y562035D01*
X236854Y560819D01*
X239000Y560392D01*
X241146Y560819D01*
X242965Y562035D01*
X244181Y563854D01*
X244608Y566000D01*
X244181Y568146D01*
X242965Y569965D01*
X241146Y571181D01*
X239000Y571608D01*
D02*
G37*
G36*
X405000Y580299D02*
X401998Y579904D01*
X399200Y578745D01*
X396798Y576902D01*
X394955Y574500D01*
X393796Y571702D01*
X393401Y568700D01*
X393796Y565698D01*
X394955Y562900D01*
X396798Y560498D01*
X399200Y558655D01*
X401998Y557496D01*
X405000Y557101D01*
X408002Y557496D01*
X410800Y558655D01*
X413202Y560498D01*
X415045Y562900D01*
X416204Y565698D01*
X416599Y568700D01*
X416204Y571702D01*
X415045Y574500D01*
X413202Y576902D01*
X410800Y578745D01*
X408002Y579904D01*
X405000Y580299D01*
D02*
G37*
G36*
X410500Y528900D02*
X407500D01*
Y520400D01*
X416000D01*
Y523400D01*
X410500Y528900D01*
D02*
G37*
G36*
X402500D02*
X399500D01*
X394000Y523400D01*
Y520400D01*
X402500D01*
Y528900D01*
D02*
G37*
G36*
X416000Y515400D02*
X407500D01*
Y506900D01*
X410500D01*
X416000Y512400D01*
Y515400D01*
D02*
G37*
G36*
X402500D02*
X394000D01*
Y512400D01*
X399500Y506900D01*
X402500D01*
Y515400D01*
D02*
G37*
G36*
X676161Y472500D02*
X668400D01*
Y464739D01*
X668641Y464770D01*
X671195Y465828D01*
X673389Y467511D01*
X675072Y469705D01*
X676130Y472259D01*
X676161Y472500D01*
D02*
G37*
G36*
X663400D02*
X655639D01*
X655670Y472259D01*
X656728Y469705D01*
X658411Y467511D01*
X660605Y465828D01*
X663159Y464770D01*
X663400Y464739D01*
Y472500D01*
D02*
G37*
G36*
X198162D02*
X190400D01*
Y464739D01*
X190641Y464770D01*
X193195Y465828D01*
X195389Y467511D01*
X197072Y469705D01*
X198130Y472259D01*
X198162Y472500D01*
D02*
G37*
G36*
X185400D02*
X177639D01*
X177670Y472259D01*
X178728Y469705D01*
X180411Y467511D01*
X182605Y465828D01*
X185159Y464770D01*
X185400Y464739D01*
Y472500D01*
D02*
G37*
G36*
X417891Y389065D02*
X409891D01*
Y381065D01*
X417891D01*
Y389065D01*
D02*
G37*
G36*
X399891D02*
X391891D01*
Y381065D01*
X399891D01*
Y389065D01*
D02*
G37*
G36*
X197000Y417039D02*
X173000D01*
X172220Y416884D01*
X171558Y416442D01*
X171116Y415780D01*
X170961Y415000D01*
Y339000D01*
X171116Y338220D01*
X171558Y337558D01*
X172220Y337116D01*
X173000Y336961D01*
X293622D01*
X294961Y336000D01*
Y269449D01*
X287099Y261588D01*
X190404D01*
X165389Y286604D01*
X165181Y287650D01*
X163965Y289469D01*
X162146Y290685D01*
X160000Y291112D01*
X157854Y290685D01*
X156035Y289469D01*
X154819Y287650D01*
X154392Y285504D01*
X154819Y283358D01*
X156035Y281539D01*
X157854Y280323D01*
X158900Y280115D01*
X185259Y253756D01*
X186748Y252761D01*
X188504Y252412D01*
X289000D01*
X290756Y252761D01*
X292244Y253756D01*
X301449Y262961D01*
X330000Y262961D01*
X330780Y263116D01*
X331442Y263558D01*
X331884Y264220D01*
X332039Y265000D01*
Y312961D01*
X398616D01*
X398915Y311461D01*
X398335Y311221D01*
X395620Y309137D01*
X393536Y306421D01*
X392891Y304865D01*
X416891D01*
X416247Y306421D01*
X414163Y309137D01*
X411447Y311221D01*
X410868Y311461D01*
X411166Y312961D01*
X418000D01*
X418780Y313116D01*
X419442Y313558D01*
X419884Y314220D01*
X420039Y315000D01*
Y336000D01*
X419884Y336780D01*
X419442Y337442D01*
Y337558D01*
X419884Y338220D01*
X420039Y339000D01*
Y362000D01*
X419884Y362780D01*
X419442Y363442D01*
X418780Y363884D01*
X418000Y364039D01*
X417891D01*
Y371065D01*
X391891D01*
Y364039D01*
X199039D01*
Y415000D01*
X198884Y415780D01*
X198442Y416442D01*
X197780Y416884D01*
X197000Y417039D01*
D02*
G37*
G36*
X416891Y294865D02*
X409891D01*
Y287865D01*
X411447Y288510D01*
X414163Y290593D01*
X416247Y293309D01*
X416891Y294865D01*
D02*
G37*
G36*
X399891D02*
X392891D01*
X393536Y293309D01*
X395620Y290593D01*
X398335Y288510D01*
X399891Y287865D01*
Y294865D01*
D02*
G37*
%LPD*%
G36*
X197000Y362000D02*
X418000D01*
Y339000D01*
X173000D01*
Y415000D01*
X197000D01*
Y362000D01*
D02*
G37*
G36*
X418000Y315000D02*
X330000D01*
Y265000D01*
X297000Y265000D01*
Y336000D01*
X418000Y336000D01*
Y315000D01*
D02*
G37*
%LPC*%
G36*
X895891Y389065D02*
X887891D01*
Y381065D01*
X895891D01*
Y389065D01*
D02*
G37*
G36*
X877891D02*
X869891D01*
Y381065D01*
X877891D01*
Y389065D01*
D02*
G37*
G36*
X675000Y417039D02*
X651000D01*
X650220Y416884D01*
X649558Y416442D01*
X649116Y415780D01*
X648961Y415000D01*
Y339000D01*
X649116Y338220D01*
X649558Y337558D01*
X650220Y337116D01*
X651000Y336961D01*
X771622D01*
X772961Y336000D01*
Y269449D01*
X765099Y261588D01*
X668404D01*
X643389Y286604D01*
X643181Y287650D01*
X641965Y289469D01*
X640146Y290685D01*
X638000Y291112D01*
X635854Y290685D01*
X634035Y289469D01*
X632819Y287650D01*
X632392Y285504D01*
X632819Y283358D01*
X634035Y281539D01*
X635854Y280323D01*
X636900Y280115D01*
X663260Y253756D01*
X664748Y252761D01*
X666504Y252412D01*
X767000D01*
X768756Y252761D01*
X770244Y253756D01*
X779449Y262961D01*
X808000Y262961D01*
X808780Y263116D01*
X809442Y263558D01*
X809884Y264220D01*
X810039Y265000D01*
Y312961D01*
X876616D01*
X876915Y311461D01*
X876335Y311221D01*
X873620Y309137D01*
X871536Y306421D01*
X870891Y304865D01*
X894891D01*
X894247Y306421D01*
X892163Y309137D01*
X889447Y311221D01*
X888868Y311461D01*
X889166Y312961D01*
X896000D01*
X896780Y313116D01*
X897442Y313558D01*
X897884Y314220D01*
X898039Y315000D01*
Y336000D01*
X897884Y336780D01*
X897442Y337442D01*
Y337558D01*
X897884Y338220D01*
X898039Y339000D01*
Y362000D01*
X897884Y362780D01*
X897442Y363442D01*
X896780Y363884D01*
X896000Y364039D01*
X895891D01*
Y371065D01*
X869891D01*
Y364039D01*
X677039D01*
Y415000D01*
X676884Y415780D01*
X676442Y416442D01*
X675780Y416884D01*
X675000Y417039D01*
D02*
G37*
G36*
X894891Y294865D02*
X887891D01*
Y287865D01*
X889447Y288510D01*
X892163Y290593D01*
X894247Y293309D01*
X894891Y294865D01*
D02*
G37*
G36*
X877891D02*
X870891D01*
X871536Y293309D01*
X873620Y290593D01*
X876335Y288510D01*
X877891Y287865D01*
Y294865D01*
D02*
G37*
%LPD*%
G36*
X675000Y362000D02*
X896000D01*
Y339000D01*
X651000D01*
Y415000D01*
X675000D01*
Y362000D01*
D02*
G37*
G36*
X896000Y315000D02*
X808000D01*
Y265000D01*
X775000Y265000D01*
Y336000D01*
X896000Y336000D01*
Y315000D01*
D02*
G37*
%LPC*%
G36*
X877500Y175450D02*
Y168500D01*
X885747D01*
X884798Y170791D01*
X883276Y172775D01*
X881291Y174298D01*
X878980Y175255D01*
X877500Y175450D01*
D02*
G37*
G36*
X872500D02*
X871020Y175255D01*
X868709Y174298D01*
X866725Y172775D01*
X865202Y170791D01*
X864253Y168500D01*
X872500D01*
Y175450D01*
D02*
G37*
G36*
X852500D02*
Y168500D01*
X860747D01*
X859798Y170791D01*
X858276Y172775D01*
X856291Y174298D01*
X853980Y175255D01*
X852500Y175450D01*
D02*
G37*
G36*
X847500D02*
X846020Y175255D01*
X843709Y174298D01*
X841725Y172775D01*
X840202Y170791D01*
X839253Y168500D01*
X847500D01*
Y175450D01*
D02*
G37*
G36*
X606000Y177086D02*
X603000D01*
X600390Y176742D01*
X597957Y175735D01*
X595868Y174132D01*
X594265Y172043D01*
X593257Y169611D01*
X592914Y167000D01*
X593257Y164389D01*
X594265Y161957D01*
X595868Y159868D01*
X597957Y158265D01*
X600390Y157257D01*
X603000Y156914D01*
X606000D01*
X608610Y157257D01*
X611043Y158265D01*
X613132Y159868D01*
X614735Y161957D01*
X615743Y164389D01*
X616086Y167000D01*
X615743Y169611D01*
X614735Y172043D01*
X613132Y174132D01*
X611043Y175735D01*
X608610Y176742D01*
X606000Y177086D01*
D02*
G37*
G36*
X581000D02*
X578000D01*
X575390Y176742D01*
X572957Y175735D01*
X570868Y174132D01*
X569265Y172043D01*
X568257Y169611D01*
X567914Y167000D01*
X568257Y164389D01*
X569265Y161957D01*
X570868Y159868D01*
X572957Y158265D01*
X575390Y157257D01*
X578000Y156914D01*
X581000D01*
X583610Y157257D01*
X586043Y158265D01*
X588132Y159868D01*
X589735Y161957D01*
X590743Y164389D01*
X591086Y167000D01*
X590743Y169611D01*
X589735Y172043D01*
X588132Y174132D01*
X586043Y175735D01*
X583610Y176742D01*
X581000Y177086D01*
D02*
G37*
G36*
X556000D02*
X553000D01*
X550390Y176742D01*
X547957Y175735D01*
X545868Y174132D01*
X544265Y172043D01*
X543257Y169611D01*
X542914Y167000D01*
X543257Y164389D01*
X544265Y161957D01*
X545868Y159868D01*
X547957Y158265D01*
X550390Y157257D01*
X553000Y156914D01*
X556000D01*
X558610Y157257D01*
X561043Y158265D01*
X563132Y159868D01*
X564735Y161957D01*
X565743Y164389D01*
X566086Y167000D01*
X565743Y169611D01*
X564735Y172043D01*
X563132Y174132D01*
X561043Y175735D01*
X558610Y176742D01*
X556000Y177086D01*
D02*
G37*
G36*
X885747Y163500D02*
X877500D01*
Y156550D01*
X878980Y156744D01*
X881291Y157702D01*
X883276Y159225D01*
X884798Y161209D01*
X885747Y163500D01*
D02*
G37*
G36*
X872500D02*
X864253D01*
X865202Y161209D01*
X866725Y159225D01*
X868709Y157702D01*
X871020Y156744D01*
X872500Y156550D01*
Y163500D01*
D02*
G37*
G36*
X860747D02*
X852500D01*
Y156550D01*
X853980Y156744D01*
X856291Y157702D01*
X858276Y159225D01*
X859798Y161209D01*
X860747Y163500D01*
D02*
G37*
G36*
X847500D02*
X839253D01*
X840202Y161209D01*
X841725Y159225D01*
X843709Y157702D01*
X846020Y156744D01*
X847500Y156550D01*
Y163500D01*
D02*
G37*
G36*
X831500Y176000D02*
X818500D01*
X813500Y171000D01*
Y161000D01*
X818500Y156000D01*
X831500D01*
X836500Y161000D01*
Y171000D01*
X831500Y176000D01*
D02*
G37*
G36*
X885500Y144866D02*
Y136600D01*
X893766D01*
X893717Y136972D01*
X892608Y139647D01*
X890845Y141945D01*
X888548Y143708D01*
X885872Y144817D01*
X885500Y144866D01*
D02*
G37*
G36*
X880500D02*
X880128Y144817D01*
X877453Y143708D01*
X875155Y141945D01*
X873392Y139647D01*
X872283Y136972D01*
X872234Y136600D01*
X880500D01*
Y144866D01*
D02*
G37*
G36*
X893766Y131600D02*
X885500D01*
Y123334D01*
X885872Y123383D01*
X888548Y124492D01*
X890845Y126255D01*
X892608Y128553D01*
X893717Y131228D01*
X893766Y131600D01*
D02*
G37*
G36*
X880500D02*
X872234D01*
X872283Y131228D01*
X873392Y128553D01*
X875155Y126255D01*
X877453Y124492D01*
X880128Y123383D01*
X880500Y123334D01*
Y131600D01*
D02*
G37*
G36*
X717000Y111608D02*
X714854Y111181D01*
X713035Y109965D01*
X711819Y108146D01*
X711392Y106000D01*
X711819Y103854D01*
X713035Y102035D01*
X714854Y100819D01*
X717000Y100392D01*
X719146Y100819D01*
X720965Y102035D01*
X722181Y103854D01*
X722608Y106000D01*
X722181Y108146D01*
X720965Y109965D01*
X719146Y111181D01*
X717000Y111608D01*
D02*
G37*
G36*
X883000Y120299D02*
X879998Y119904D01*
X877200Y118745D01*
X874798Y116902D01*
X872955Y114500D01*
X871796Y111702D01*
X871401Y108700D01*
X871796Y105698D01*
X872955Y102900D01*
X874798Y100498D01*
X877200Y98655D01*
X879998Y97496D01*
X883000Y97101D01*
X886002Y97496D01*
X888800Y98655D01*
X891202Y100498D01*
X893045Y102900D01*
X894204Y105698D01*
X894599Y108700D01*
X894204Y111702D01*
X893045Y114500D01*
X891202Y116902D01*
X888800Y118745D01*
X886002Y119904D01*
X883000Y120299D01*
D02*
G37*
G36*
X888500Y68900D02*
X885500D01*
Y60400D01*
X894000D01*
Y63400D01*
X888500Y68900D01*
D02*
G37*
G36*
X880500D02*
X877500D01*
X872000Y63400D01*
Y60400D01*
X880500D01*
Y68900D01*
D02*
G37*
G36*
X894000Y55400D02*
X885500D01*
Y46900D01*
X888500D01*
X894000Y52400D01*
Y55400D01*
D02*
G37*
G36*
X880500D02*
X872000D01*
Y52400D01*
X877500Y46900D01*
X880500D01*
Y55400D01*
D02*
G37*
G36*
X399500Y175450D02*
Y168500D01*
X407747D01*
X406798Y170791D01*
X405275Y172775D01*
X403291Y174298D01*
X400980Y175255D01*
X399500Y175450D01*
D02*
G37*
G36*
X394500D02*
X393020Y175255D01*
X390709Y174298D01*
X388725Y172775D01*
X387202Y170791D01*
X386253Y168500D01*
X394500D01*
Y175450D01*
D02*
G37*
G36*
X374500D02*
Y168500D01*
X382747D01*
X381798Y170791D01*
X380275Y172775D01*
X378291Y174298D01*
X375980Y175255D01*
X374500Y175450D01*
D02*
G37*
G36*
X369500D02*
X368020Y175255D01*
X365709Y174298D01*
X363725Y172775D01*
X362202Y170791D01*
X361253Y168500D01*
X369500D01*
Y175450D01*
D02*
G37*
G36*
X128000Y177086D02*
X125000D01*
X122389Y176742D01*
X119957Y175735D01*
X117868Y174132D01*
X116265Y172043D01*
X115258Y169611D01*
X114914Y167000D01*
X115258Y164389D01*
X116265Y161957D01*
X117868Y159868D01*
X119957Y158265D01*
X122389Y157257D01*
X125000Y156914D01*
X128000D01*
X130611Y157257D01*
X133043Y158265D01*
X135132Y159868D01*
X136735Y161957D01*
X137743Y164389D01*
X138086Y167000D01*
X137743Y169611D01*
X136735Y172043D01*
X135132Y174132D01*
X133043Y175735D01*
X130611Y176742D01*
X128000Y177086D01*
D02*
G37*
G36*
X103000D02*
X100000D01*
X97389Y176742D01*
X94957Y175735D01*
X92868Y174132D01*
X91265Y172043D01*
X90258Y169611D01*
X89914Y167000D01*
X90258Y164389D01*
X91265Y161957D01*
X92868Y159868D01*
X94957Y158265D01*
X97389Y157257D01*
X100000Y156914D01*
X103000D01*
X105611Y157257D01*
X108043Y158265D01*
X110132Y159868D01*
X111735Y161957D01*
X112743Y164389D01*
X113086Y167000D01*
X112743Y169611D01*
X111735Y172043D01*
X110132Y174132D01*
X108043Y175735D01*
X105611Y176742D01*
X103000Y177086D01*
D02*
G37*
G36*
X78000D02*
X75000D01*
X72389Y176742D01*
X69957Y175735D01*
X67868Y174132D01*
X66265Y172043D01*
X65258Y169611D01*
X64914Y167000D01*
X65258Y164389D01*
X66265Y161957D01*
X67868Y159868D01*
X69957Y158265D01*
X72389Y157257D01*
X75000Y156914D01*
X78000D01*
X80611Y157257D01*
X83043Y158265D01*
X85132Y159868D01*
X86735Y161957D01*
X87743Y164389D01*
X88086Y167000D01*
X87743Y169611D01*
X86735Y172043D01*
X85132Y174132D01*
X83043Y175735D01*
X80611Y176742D01*
X78000Y177086D01*
D02*
G37*
G36*
X407747Y163500D02*
X399500D01*
Y156550D01*
X400980Y156744D01*
X403291Y157702D01*
X405275Y159225D01*
X406798Y161209D01*
X407747Y163500D01*
D02*
G37*
G36*
X394500D02*
X386253D01*
X387202Y161209D01*
X388725Y159225D01*
X390709Y157702D01*
X393020Y156744D01*
X394500Y156550D01*
Y163500D01*
D02*
G37*
G36*
X382747D02*
X374500D01*
Y156550D01*
X375980Y156744D01*
X378291Y157702D01*
X380275Y159225D01*
X381798Y161209D01*
X382747Y163500D01*
D02*
G37*
G36*
X369500D02*
X361253D01*
X362202Y161209D01*
X363725Y159225D01*
X365709Y157702D01*
X368020Y156744D01*
X369500Y156550D01*
Y163500D01*
D02*
G37*
G36*
X353500Y176000D02*
X340500D01*
X335500Y171000D01*
Y161000D01*
X340500Y156000D01*
X353500D01*
X358500Y161000D01*
Y171000D01*
X353500Y176000D01*
D02*
G37*
G36*
X407500Y144866D02*
Y136600D01*
X415766D01*
X415717Y136972D01*
X414608Y139647D01*
X412845Y141945D01*
X410547Y143708D01*
X407872Y144817D01*
X407500Y144866D01*
D02*
G37*
G36*
X402500D02*
X402128Y144817D01*
X399453Y143708D01*
X397155Y141945D01*
X395392Y139647D01*
X394283Y136972D01*
X394234Y136600D01*
X402500D01*
Y144866D01*
D02*
G37*
G36*
X415766Y131600D02*
X407500D01*
Y123334D01*
X407872Y123383D01*
X410547Y124492D01*
X412845Y126255D01*
X414608Y128553D01*
X415717Y131228D01*
X415766Y131600D01*
D02*
G37*
G36*
X402500D02*
X394234D01*
X394283Y131228D01*
X395392Y128553D01*
X397155Y126255D01*
X399453Y124492D01*
X402128Y123383D01*
X402500Y123334D01*
Y131600D01*
D02*
G37*
G36*
X239000Y111608D02*
X236854Y111181D01*
X235035Y109965D01*
X233819Y108146D01*
X233392Y106000D01*
X233819Y103854D01*
X235035Y102035D01*
X236854Y100819D01*
X239000Y100392D01*
X241146Y100819D01*
X242965Y102035D01*
X244181Y103854D01*
X244608Y106000D01*
X244181Y108146D01*
X242965Y109965D01*
X241146Y111181D01*
X239000Y111608D01*
D02*
G37*
G36*
X405000Y120299D02*
X401998Y119904D01*
X399200Y118745D01*
X396798Y116902D01*
X394955Y114500D01*
X393796Y111702D01*
X393401Y108700D01*
X393796Y105698D01*
X394955Y102900D01*
X396798Y100498D01*
X399200Y98655D01*
X401998Y97496D01*
X405000Y97101D01*
X408002Y97496D01*
X410800Y98655D01*
X413202Y100498D01*
X415045Y102900D01*
X416204Y105698D01*
X416599Y108700D01*
X416204Y111702D01*
X415045Y114500D01*
X413202Y116902D01*
X410800Y118745D01*
X408002Y119904D01*
X405000Y120299D01*
D02*
G37*
G36*
X410500Y68900D02*
X407500D01*
Y60400D01*
X416000D01*
Y63400D01*
X410500Y68900D01*
D02*
G37*
G36*
X402500D02*
X399500D01*
X394000Y63400D01*
Y60400D01*
X402500D01*
Y68900D01*
D02*
G37*
G36*
X416000Y55400D02*
X407500D01*
Y46900D01*
X410500D01*
X416000Y52400D01*
Y55400D01*
D02*
G37*
G36*
X402500D02*
X394000D01*
Y52400D01*
X399500Y46900D01*
X402500D01*
Y55400D01*
D02*
G37*
G36*
X676161Y12500D02*
X668400D01*
Y4739D01*
X668641Y4770D01*
X671195Y5828D01*
X673389Y7511D01*
X675072Y9705D01*
X676130Y12259D01*
X676161Y12500D01*
D02*
G37*
G36*
X663400D02*
X655639D01*
X655670Y12259D01*
X656728Y9705D01*
X658411Y7511D01*
X660605Y5828D01*
X663159Y4770D01*
X663400Y4739D01*
Y12500D01*
D02*
G37*
G36*
X198162D02*
X190400D01*
Y4739D01*
X190641Y4770D01*
X193195Y5828D01*
X195389Y7511D01*
X197072Y9705D01*
X198130Y12259D01*
X198162Y12500D01*
D02*
G37*
G36*
X185400D02*
X177639D01*
X177670Y12259D01*
X178728Y9705D01*
X180411Y7511D01*
X182605Y5828D01*
X185159Y4770D01*
X185400Y4739D01*
Y12500D01*
D02*
G37*
%LPD*%
D10*
X667689Y47923D02*
G03*
X667689Y51811I-1945J1945D01*
G01*
X665859Y46093D02*
G03*
X665859Y42204I1945J-1945D01*
G01*
X665859Y42204D02*
G03*
X669748Y42204I1945J1945D01*
G01*
X675467Y44033D02*
G03*
X671578Y44033I-1945J-1945D01*
G01*
X623793Y64568D02*
G03*
X621043Y61818I0J-2750D01*
G01*
X623793Y64568D02*
G03*
X626543Y67318I0J2750D01*
G01*
Y67318D02*
G03*
X623793Y70068I-2750J0D01*
G01*
X618292Y72818D02*
G03*
X621042Y70068I2750J0D01*
G01*
Y75568D02*
G03*
X618292Y72818I0J-2750D01*
G01*
X629288Y75568D02*
G03*
X632038Y78318I0J2750D01*
G01*
Y78318D02*
G03*
X629288Y81068I-2750J0D01*
G01*
X612589Y83818D02*
G03*
X615339Y81068I2750J0D01*
G01*
Y86568D02*
G03*
X612589Y83818I0J-2750D01*
G01*
X630093Y86568D02*
G03*
X632843Y89318I0J2750D01*
G01*
Y89318D02*
G03*
X630093Y92068I-2750J0D01*
G01*
X617568Y93432D02*
G03*
X620877Y92068I3309J3330D01*
G01*
X581500Y98123D02*
G03*
X584250Y95373I2750J0D01*
G01*
X581500Y99708D02*
G03*
X578750Y102458I-2750J0D01*
G01*
X578750D02*
G03*
X576000Y99708I0J-2750D01*
G01*
X573250Y83573D02*
G03*
X576000Y86323I0J2750D01*
G01*
X570500D02*
G03*
X573250Y83573I2750J0D01*
G01*
X570500Y92623D02*
G03*
X567750Y95373I-2750J0D01*
G01*
X661000Y58500D02*
X667689Y51811D01*
X667689Y51811D02*
X667689Y51811D01*
X665859Y46093D02*
X667689Y47923D01*
X665859Y42204D02*
X665859Y42204D01*
X665859Y42204D01*
X665859Y42204D02*
X665859Y42204D01*
X669748D02*
X671578Y44033D01*
X675467D02*
X676351Y43149D01*
X657682Y61818D02*
X661000Y58500D01*
X676351Y43149D02*
X681000Y38500D01*
X653009Y66491D02*
X657682Y61818D01*
X653009Y66491D02*
Y86250D01*
X659500Y69500D02*
X681000Y48000D01*
X621212Y34252D02*
X628214Y27250D01*
X704450D01*
X716700Y15000D01*
X613000Y51042D02*
X621043Y43000D01*
X535238Y77239D02*
X553977Y58500D01*
X500750Y77239D02*
X535238D01*
X659500Y69500D02*
Y95373D01*
X621043Y51839D02*
Y61818D01*
Y51839D02*
X621212Y51669D01*
X623793Y64568D02*
X623793D01*
X626543Y67318D02*
Y67318D01*
X621042Y70068D02*
X623793D01*
X618292Y72818D02*
Y72818D01*
X621042Y75568D02*
X629288D01*
X632038Y78318D02*
Y78318D01*
X615339Y81068D02*
X629288D01*
X612589Y83818D02*
Y83818D01*
X615339Y86568D02*
X630093D01*
X632843Y89318D02*
Y89318D01*
X620877Y92068D02*
X630093D01*
X617557Y93443D02*
X617568Y93432D01*
X616307Y94693D02*
X617557Y93443D01*
X615831Y95169D02*
X616307Y94693D01*
X603035Y95169D02*
X615831D01*
X602831Y95373D02*
X603035Y95169D01*
X591165Y95373D02*
X592627D01*
X584250D02*
X591165D01*
X581500Y98123D02*
Y99708D01*
X578750Y102458D02*
X578750D01*
X576000Y86323D02*
Y99708D01*
X573250Y83573D02*
X573250D01*
X570500Y86323D02*
Y92623D01*
X561000Y95373D02*
X567750D01*
X592627D02*
X613000Y75000D01*
Y51042D02*
Y75000D01*
X667689Y507923D02*
G03*
X667689Y511811I-1945J1945D01*
G01*
X665859Y506093D02*
G03*
X665859Y502204I1945J-1945D01*
G01*
X665859Y502204D02*
G03*
X669748Y502204I1945J1945D01*
G01*
X675467Y504033D02*
G03*
X671578Y504033I-1945J-1945D01*
G01*
X623793Y524568D02*
G03*
X621043Y521818I0J-2750D01*
G01*
X623793Y524568D02*
G03*
X626543Y527318I0J2750D01*
G01*
Y527318D02*
G03*
X623793Y530068I-2750J0D01*
G01*
X618292Y532818D02*
G03*
X621042Y530068I2750J0D01*
G01*
Y535568D02*
G03*
X618292Y532818I0J-2750D01*
G01*
X629288Y535568D02*
G03*
X632038Y538318I0J2750D01*
G01*
Y538318D02*
G03*
X629288Y541068I-2750J0D01*
G01*
X612589Y543818D02*
G03*
X615339Y541068I2750J0D01*
G01*
Y546568D02*
G03*
X612589Y543818I0J-2750D01*
G01*
X630093Y546568D02*
G03*
X632843Y549318I0J2750D01*
G01*
Y549318D02*
G03*
X630093Y552068I-2750J0D01*
G01*
X617568Y553432D02*
G03*
X620877Y552068I3309J3330D01*
G01*
X581500Y558123D02*
G03*
X584250Y555373I2750J0D01*
G01*
X581500Y559708D02*
G03*
X578750Y562458I-2750J0D01*
G01*
X578750D02*
G03*
X576000Y559708I0J-2750D01*
G01*
X573250Y543573D02*
G03*
X576000Y546323I0J2750D01*
G01*
X570500D02*
G03*
X573250Y543573I2750J0D01*
G01*
X570500Y552623D02*
G03*
X567750Y555373I-2750J0D01*
G01*
X661000Y518500D02*
X667689Y511811D01*
X667689Y511811D02*
X667689Y511811D01*
X665859Y506093D02*
X667689Y507923D01*
X665859Y502204D02*
X665859Y502204D01*
X665859Y502204D01*
X665859Y502204D02*
X665859Y502204D01*
X669748D02*
X671578Y504033D01*
X675467D02*
X676351Y503149D01*
X657682Y521818D02*
X661000Y518500D01*
X676351Y503149D02*
X681000Y498500D01*
X653009Y526491D02*
X657682Y521818D01*
X653009Y526491D02*
Y546250D01*
X659500Y529500D02*
X681000Y508000D01*
X621212Y494252D02*
X628214Y487250D01*
X704450D01*
X716700Y475000D01*
X613000Y511043D02*
X621043Y503000D01*
X535238Y537239D02*
X553977Y518500D01*
X500750Y537239D02*
X535238D01*
X659500Y529500D02*
Y555373D01*
X621043Y511839D02*
Y521818D01*
Y511839D02*
X621212Y511669D01*
X623793Y524568D02*
X623793D01*
X626543Y527318D02*
Y527318D01*
X621042Y530068D02*
X623793D01*
X618292Y532818D02*
Y532818D01*
X621042Y535568D02*
X629288D01*
X632038Y538318D02*
Y538318D01*
X615339Y541068D02*
X629288D01*
X612589Y543818D02*
Y543818D01*
X615339Y546568D02*
X630093D01*
X632843Y549318D02*
Y549318D01*
X620877Y552068D02*
X630093D01*
X617557Y553443D02*
X617568Y553432D01*
X616307Y554693D02*
X617557Y553443D01*
X615831Y555169D02*
X616307Y554693D01*
X603035Y555169D02*
X615831D01*
X602831Y555373D02*
X603035Y555169D01*
X591165Y555373D02*
X592627D01*
X584250D02*
X591165D01*
X581500Y558123D02*
Y559708D01*
X578750Y562458D02*
X578750D01*
X576000Y546323D02*
Y559708D01*
X573250Y543573D02*
X573250D01*
X570500Y546323D02*
Y552623D01*
X561000Y555373D02*
X567750D01*
X592627D02*
X613000Y535000D01*
Y511043D02*
Y535000D01*
X189688Y507923D02*
G03*
X189688Y511811I-1945J1945D01*
G01*
X187859Y506093D02*
G03*
X187859Y502204I1945J-1945D01*
G01*
X187859Y502204D02*
G03*
X191748Y502204I1945J1945D01*
G01*
X197467Y504033D02*
G03*
X193578Y504033I-1945J-1945D01*
G01*
X145793Y524568D02*
G03*
X143043Y521818I0J-2750D01*
G01*
X145793Y524568D02*
G03*
X148543Y527318I0J2750D01*
G01*
Y527318D02*
G03*
X145793Y530068I-2750J0D01*
G01*
X140292Y532818D02*
G03*
X143042Y530068I2750J0D01*
G01*
Y535568D02*
G03*
X140292Y532818I0J-2750D01*
G01*
X151288Y535568D02*
G03*
X154038Y538318I0J2750D01*
G01*
Y538318D02*
G03*
X151288Y541068I-2750J0D01*
G01*
X134589Y543818D02*
G03*
X137339Y541068I2750J0D01*
G01*
Y546568D02*
G03*
X134589Y543818I0J-2750D01*
G01*
X152093Y546568D02*
G03*
X154843Y549318I0J2750D01*
G01*
Y549318D02*
G03*
X152093Y552068I-2750J0D01*
G01*
X139568Y553432D02*
G03*
X142877Y552068I3309J3330D01*
G01*
X103500Y558123D02*
G03*
X106250Y555373I2750J0D01*
G01*
X103500Y559708D02*
G03*
X100750Y562458I-2750J0D01*
G01*
X100750D02*
G03*
X98000Y559708I0J-2750D01*
G01*
X95250Y543573D02*
G03*
X98000Y546323I0J2750D01*
G01*
X92500D02*
G03*
X95250Y543573I2750J0D01*
G01*
X92500Y552623D02*
G03*
X89750Y555373I-2750J0D01*
G01*
X183000Y518500D02*
X189688Y511811D01*
X189688Y511811D02*
X189688Y511811D01*
X187859Y506093D02*
X189688Y507923D01*
X187859Y502204D02*
X187859Y502204D01*
X187859Y502204D01*
X187859Y502204D02*
X187859Y502204D01*
X191748D02*
X193578Y504033D01*
X197467D02*
X198351Y503149D01*
X179682Y521818D02*
X183000Y518500D01*
X198351Y503149D02*
X203000Y498500D01*
X175009Y526491D02*
X179682Y521818D01*
X175009Y526491D02*
Y546250D01*
X181500Y529500D02*
X203000Y508000D01*
X143212Y494252D02*
X150214Y487250D01*
X226450D01*
X238700Y475000D01*
X135000Y511043D02*
X143043Y503000D01*
X57238Y537239D02*
X75977Y518500D01*
X22750Y537239D02*
X57238D01*
X181500Y529500D02*
Y555373D01*
X143043Y511839D02*
Y521818D01*
Y511839D02*
X143212Y511669D01*
X145793Y524568D02*
X145793D01*
X148543Y527318D02*
Y527318D01*
X143042Y530068D02*
X145793D01*
X140292Y532818D02*
Y532818D01*
X143042Y535568D02*
X151288D01*
X154038Y538318D02*
Y538318D01*
X137339Y541068D02*
X151288D01*
X134589Y543818D02*
Y543818D01*
X137339Y546568D02*
X152093D01*
X154843Y549318D02*
Y549318D01*
X142877Y552068D02*
X152093D01*
X139557Y553443D02*
X139568Y553432D01*
X138307Y554693D02*
X139557Y553443D01*
X137831Y555169D02*
X138307Y554693D01*
X125035Y555169D02*
X137831D01*
X124831Y555373D02*
X125035Y555169D01*
X113165Y555373D02*
X114627D01*
X106250D02*
X113165D01*
X103500Y558123D02*
Y559708D01*
X100750Y562458D02*
X100750D01*
X98000Y546323D02*
Y559708D01*
X95250Y543573D02*
X95250D01*
X92500Y546323D02*
Y552623D01*
X83000Y555373D02*
X89750D01*
X114627D02*
X135000Y535000D01*
Y511043D02*
Y535000D01*
X189688Y47923D02*
G03*
X189688Y51811I-1945J1945D01*
G01*
X187859Y46093D02*
G03*
X187859Y42204I1945J-1945D01*
G01*
X187859Y42204D02*
G03*
X191748Y42204I1945J1945D01*
G01*
X197467Y44033D02*
G03*
X193578Y44033I-1945J-1945D01*
G01*
X145793Y64568D02*
G03*
X143043Y61818I0J-2750D01*
G01*
X145793Y64568D02*
G03*
X148543Y67318I0J2750D01*
G01*
Y67318D02*
G03*
X145793Y70068I-2750J0D01*
G01*
X140292Y72818D02*
G03*
X143042Y70068I2750J0D01*
G01*
Y75568D02*
G03*
X140292Y72818I0J-2750D01*
G01*
X151288Y75568D02*
G03*
X154038Y78318I0J2750D01*
G01*
Y78318D02*
G03*
X151288Y81068I-2750J0D01*
G01*
X134589Y83818D02*
G03*
X137339Y81068I2750J0D01*
G01*
Y86568D02*
G03*
X134589Y83818I0J-2750D01*
G01*
X152093Y86568D02*
G03*
X154843Y89318I0J2750D01*
G01*
Y89318D02*
G03*
X152093Y92068I-2750J0D01*
G01*
X139568Y93432D02*
G03*
X142877Y92068I3309J3330D01*
G01*
X103500Y98123D02*
G03*
X106250Y95373I2750J0D01*
G01*
X103500Y99708D02*
G03*
X100750Y102458I-2750J0D01*
G01*
X100750D02*
G03*
X98000Y99708I0J-2750D01*
G01*
X95250Y83573D02*
G03*
X98000Y86323I0J2750D01*
G01*
X92500D02*
G03*
X95250Y83573I2750J0D01*
G01*
X92500Y92623D02*
G03*
X89750Y95373I-2750J0D01*
G01*
X183000Y58500D02*
X189688Y51811D01*
X189688Y51811D02*
X189688Y51811D01*
X187859Y46093D02*
X189688Y47923D01*
X187859Y42204D02*
X187859Y42204D01*
X187859Y42204D01*
X187859Y42204D02*
X187859Y42204D01*
X191748D02*
X193578Y44033D01*
X197467D02*
X198351Y43149D01*
X179682Y61818D02*
X183000Y58500D01*
X198351Y43149D02*
X203000Y38500D01*
X175009Y66491D02*
X179682Y61818D01*
X175009Y66491D02*
Y86250D01*
X181500Y69500D02*
X203000Y48000D01*
X143212Y34252D02*
X150214Y27250D01*
X226450D01*
X238700Y15000D01*
X135000Y51042D02*
X143043Y43000D01*
X57238Y77239D02*
X75977Y58500D01*
X22750Y77239D02*
X57238D01*
X181500Y69500D02*
Y95373D01*
X143043Y51839D02*
Y61818D01*
Y51839D02*
X143212Y51669D01*
X145793Y64568D02*
X145793D01*
X148543Y67318D02*
Y67318D01*
X143042Y70068D02*
X145793D01*
X140292Y72818D02*
Y72818D01*
X143042Y75568D02*
X151288D01*
X154038Y78318D02*
Y78318D01*
X137339Y81068D02*
X151288D01*
X134589Y83818D02*
Y83818D01*
X137339Y86568D02*
X152093D01*
X154843Y89318D02*
Y89318D01*
X142877Y92068D02*
X152093D01*
X139557Y93443D02*
X139568Y93432D01*
X138307Y94693D02*
X139557Y93443D01*
X137831Y95169D02*
X138307Y94693D01*
X125035Y95169D02*
X137831D01*
X124831Y95373D02*
X125035Y95169D01*
X113165Y95373D02*
X114627D01*
X106250D02*
X113165D01*
X103500Y98123D02*
Y99708D01*
X100750Y102458D02*
X100750D01*
X98000Y86323D02*
Y99708D01*
X95250Y83573D02*
X95250D01*
X92500Y86323D02*
Y92623D01*
X83000Y95373D02*
X89750D01*
X114627D02*
X135000Y75000D01*
Y51042D02*
Y75000D01*
D21*
X644750Y57750D02*
Y108450D01*
X645000Y108700D01*
X526500Y18750D02*
X554250D01*
X674000Y93000D02*
X675314D01*
X658300Y108700D02*
X674000Y93000D01*
X645000Y108700D02*
Y146000D01*
Y108700D02*
X658300D01*
X767000Y257000D02*
X787000Y277000D01*
X666504Y257000D02*
X767000D01*
X638000Y285504D02*
X666504Y257000D01*
X767000Y717000D02*
X787000Y737000D01*
X666504Y717000D02*
X767000D01*
X638000Y745504D02*
X666504Y717000D01*
X644750Y517750D02*
Y568450D01*
X645000Y568700D01*
X526500Y478750D02*
X554250D01*
X674000Y553000D02*
X675314D01*
X658300Y568700D02*
X674000Y553000D01*
X645000Y568700D02*
Y606000D01*
Y568700D02*
X658300D01*
X166750Y517750D02*
Y568450D01*
X167000Y568700D01*
X48500Y478750D02*
X76250D01*
X196000Y553000D02*
X197314D01*
X180300Y568700D02*
X196000Y553000D01*
X167000Y568700D02*
Y606000D01*
Y568700D02*
X180300D01*
X289000Y717000D02*
X309000Y737000D01*
X188504Y717000D02*
X289000D01*
X160000Y745504D02*
X188504Y717000D01*
X289000Y257000D02*
X309000Y277000D01*
X188504Y257000D02*
X289000D01*
X160000Y285504D02*
X188504Y257000D01*
X166750Y57750D02*
Y108450D01*
X167000Y108700D01*
X48500Y18750D02*
X76250D01*
X196000Y93000D02*
X197314D01*
X180300Y108700D02*
X196000Y93000D01*
X167000Y108700D02*
Y146000D01*
Y108700D02*
X180300D01*
D22*
X486220Y39139D02*
X500750D01*
X486220D02*
Y80386D01*
X489750Y83916D01*
Y119750D01*
X516000Y146000D02*
X645000D01*
X489750Y119750D02*
X516000Y146000D01*
X761000Y93000D02*
Y102000D01*
Y134222D01*
X659500Y157702D02*
X737520D01*
X645000Y146000D02*
X647798D01*
X659500Y157702D01*
X737520D02*
X761000Y134222D01*
X486220Y499139D02*
X500750D01*
X486220D02*
Y540386D01*
X489750Y543916D01*
Y579750D01*
X516000Y606000D02*
X645000D01*
X489750Y579750D02*
X516000Y606000D01*
X761000Y553000D02*
Y562000D01*
Y594222D01*
X659500Y617702D02*
X737520D01*
X645000Y606000D02*
X647798D01*
X659500Y617702D01*
X737520D02*
X761000Y594222D01*
X8220Y499139D02*
X22750D01*
X8220D02*
Y540386D01*
X11750Y543916D01*
Y579750D01*
X38000Y606000D02*
X167000D01*
X11750Y579750D02*
X38000Y606000D01*
X283000Y553000D02*
Y562000D01*
Y594222D01*
X181500Y617702D02*
X259520D01*
X167000Y606000D02*
X169798D01*
X181500Y617702D01*
X259520D02*
X283000Y594222D01*
X8220Y39139D02*
X22750D01*
X8220D02*
Y80386D01*
X11750Y83916D01*
Y119750D01*
X38000Y146000D02*
X167000D01*
X11750Y119750D02*
X38000Y146000D01*
X283000Y93000D02*
Y102000D01*
Y134222D01*
X181500Y157702D02*
X259520D01*
X167000Y146000D02*
X169798D01*
X181500Y157702D01*
X259520D02*
X283000Y134222D01*
D23*
X634750Y33500D02*
X635832D01*
X637832Y31500D01*
X638000D01*
X638000Y31500D01*
X823545D02*
X840044Y48000D01*
X638000Y31500D02*
X823545D01*
X561000Y13455D02*
Y67000D01*
Y13455D02*
X565456Y9000D01*
X532627Y95373D02*
X561000Y67000D01*
X565456Y9000D02*
X578500D01*
X518000Y95373D02*
X532627D01*
X634750Y493500D02*
X635832D01*
X637832Y491500D01*
X638000D01*
X638000Y491500D01*
X823545D02*
X840044Y508000D01*
X638000Y491500D02*
X823545D01*
X561000Y473456D02*
Y527000D01*
Y473456D02*
X565456Y469000D01*
X532627Y555373D02*
X561000Y527000D01*
X565456Y469000D02*
X578500D01*
X518000Y555373D02*
X532627D01*
X156750Y493500D02*
X157832D01*
X159832Y491500D01*
X160000D01*
X160000Y491500D01*
X345545D02*
X362044Y508000D01*
X160000Y491500D02*
X345545D01*
X83000Y473456D02*
Y527000D01*
Y473456D02*
X87456Y469000D01*
X54627Y555373D02*
X83000Y527000D01*
X87456Y469000D02*
X100500D01*
X40000Y555373D02*
X54627D01*
X156750Y33500D02*
X157832D01*
X159832Y31500D01*
X160000D01*
X160000Y31500D01*
X345545D02*
X362044Y48000D01*
X160000Y31500D02*
X345545D01*
X83000Y13455D02*
Y67000D01*
Y13455D02*
X87456Y9000D01*
X54627Y95373D02*
X83000Y67000D01*
X87456Y9000D02*
X100500D01*
X40000Y95373D02*
X54627D01*
D24*
X529500Y167000D02*
Y182500D01*
X540182Y193182D01*
X884948D01*
X919500Y99000D02*
Y158630D01*
X884948Y193182D02*
X919500Y158630D01*
X883000Y83300D02*
X883574Y83874D01*
X904374D01*
X919500Y99000D01*
X529500Y627000D02*
Y642500D01*
X540182Y653182D01*
X884948D01*
X919500Y559000D02*
Y618630D01*
X884948Y653182D02*
X919500Y618630D01*
X883000Y543300D02*
X883574Y543874D01*
X904374D01*
X919500Y559000D01*
X51500Y627000D02*
Y642500D01*
X62182Y653182D01*
X406948D01*
X441500Y559000D02*
Y618630D01*
X406948Y653182D02*
X441500Y618630D01*
X405000Y543300D02*
X405574Y543874D01*
X426374D01*
X441500Y559000D01*
X51500Y167000D02*
Y182500D01*
X62182Y193182D01*
X406948D01*
X441500Y99000D02*
Y158630D01*
X406948Y193182D02*
X441500Y158630D01*
X405000Y83300D02*
X405574Y83874D01*
X426374D01*
X441500Y99000D01*
D29*
X500750Y64539D02*
D03*
Y51839D02*
D03*
Y77239D02*
D03*
Y524539D02*
D03*
Y511839D02*
D03*
Y537239D02*
D03*
X22750Y524539D02*
D03*
Y511839D02*
D03*
Y537239D02*
D03*
Y64539D02*
D03*
Y51839D02*
D03*
Y77239D02*
D03*
D30*
X500750Y39139D02*
D03*
Y499139D02*
D03*
X22750D02*
D03*
Y39139D02*
D03*
D31*
X875000Y166000D02*
D03*
X850000D02*
D03*
X579500Y167000D02*
D03*
X554500D02*
D03*
X604500D02*
D03*
X875000Y626000D02*
D03*
X850000D02*
D03*
X579500Y627000D02*
D03*
X554500D02*
D03*
X604500D02*
D03*
X397000Y626000D02*
D03*
X372000D02*
D03*
X101500Y627000D02*
D03*
X76500D02*
D03*
X126500D02*
D03*
X397000Y166000D02*
D03*
X372000D02*
D03*
X101500Y167000D02*
D03*
X76500D02*
D03*
X126500D02*
D03*
D32*
X825000Y166000D02*
D03*
X529500Y167000D02*
D03*
X825000Y626000D02*
D03*
X529500Y627000D02*
D03*
X347000Y626000D02*
D03*
X51500Y627000D02*
D03*
X347000Y166000D02*
D03*
X51500Y167000D02*
D03*
D33*
X883000Y134100D02*
D03*
Y108700D02*
D03*
Y83300D02*
D03*
Y594100D02*
D03*
Y568700D02*
D03*
Y543300D02*
D03*
X405000Y594100D02*
D03*
Y568700D02*
D03*
Y543300D02*
D03*
Y134100D02*
D03*
Y108700D02*
D03*
Y83300D02*
D03*
D34*
X883000Y57900D02*
D03*
Y517900D02*
D03*
X405000D02*
D03*
Y57900D02*
D03*
D35*
X671000Y176000D02*
D03*
Y636000D02*
D03*
X193000D02*
D03*
Y176000D02*
D03*
D36*
X691000D02*
D03*
X711000D02*
D03*
X691000Y636000D02*
D03*
X711000D02*
D03*
X213000D02*
D03*
X233000D02*
D03*
X213000Y176000D02*
D03*
X233000D02*
D03*
D37*
X665900Y15000D02*
D03*
X716700D02*
D03*
X691300D02*
D03*
X665900Y475000D02*
D03*
X716700D02*
D03*
X691300D02*
D03*
X187900D02*
D03*
X238700D02*
D03*
X213300D02*
D03*
X187900Y15000D02*
D03*
X238700D02*
D03*
X213300D02*
D03*
D38*
X742100D02*
D03*
Y475000D02*
D03*
X264100D02*
D03*
Y15000D02*
D03*
D39*
X653009Y86250D02*
D03*
X644750Y57750D02*
D03*
X526500Y28750D02*
D03*
X840044Y48000D02*
D03*
X681000Y38500D02*
D03*
X634750Y33500D02*
D03*
X621212Y34252D02*
D03*
X621043Y43000D02*
D03*
X526500Y18750D02*
D03*
X528000Y58500D02*
D03*
X554250Y18750D02*
D03*
Y28500D02*
D03*
X645508Y43502D02*
D03*
X691000Y78500D02*
D03*
X683000Y82500D02*
D03*
Y74500D02*
D03*
X699000D02*
D03*
Y82500D02*
D03*
X675314Y93000D02*
D03*
X681000Y48000D02*
D03*
X578500Y9000D02*
D03*
X561000Y95373D02*
D03*
X602831D02*
D03*
X717000Y106000D02*
D03*
X553977Y58500D02*
D03*
X582000Y120000D02*
D03*
X540182D02*
D03*
X621212D02*
D03*
Y51669D02*
D03*
X659500Y95373D02*
D03*
X761000Y93000D02*
D03*
X518000Y95373D02*
D03*
X671000Y73000D02*
D03*
X598500Y28500D02*
D03*
Y41000D02*
D03*
Y53500D02*
D03*
X586000Y53500D02*
D03*
X573500D02*
D03*
Y41000D02*
D03*
Y28500D02*
D03*
X586000D02*
D03*
Y41000D02*
D03*
X761000Y102000D02*
D03*
X671195Y144866D02*
D03*
X691000Y144750D02*
D03*
X711000Y144866D02*
D03*
X709000Y291250D02*
D03*
X716500Y283750D02*
D03*
X701500D02*
D03*
Y298750D02*
D03*
X716500D02*
D03*
X908001Y400001D02*
D03*
X918001Y380001D02*
D03*
X908001Y360001D02*
D03*
X918001Y340001D02*
D03*
X908001Y320001D02*
D03*
X918001Y300001D02*
D03*
X908001Y280001D02*
D03*
X918001Y260001D02*
D03*
X898001Y420001D02*
D03*
X888001Y400001D02*
D03*
X898001Y300001D02*
D03*
X888001Y280001D02*
D03*
X898001Y260001D02*
D03*
X888001Y240001D02*
D03*
X878001Y420001D02*
D03*
X868001Y400001D02*
D03*
Y280001D02*
D03*
X878001Y260001D02*
D03*
X868001Y240001D02*
D03*
X858001Y420001D02*
D03*
X848001Y400001D02*
D03*
X858001Y380001D02*
D03*
Y300001D02*
D03*
X848001Y280001D02*
D03*
X858001Y260001D02*
D03*
X848001Y240001D02*
D03*
X838001Y420001D02*
D03*
X828001Y400001D02*
D03*
X838001Y380001D02*
D03*
Y300001D02*
D03*
X828001Y280001D02*
D03*
X838001Y260001D02*
D03*
X828001Y240001D02*
D03*
X818001Y260001D02*
D03*
X808001Y240001D02*
D03*
X788001D02*
D03*
X748001Y320001D02*
D03*
X728001D02*
D03*
Y240001D02*
D03*
X708001Y320001D02*
D03*
Y240001D02*
D03*
X688001D02*
D03*
X668001D02*
D03*
X648001D02*
D03*
X638001Y420001D02*
D03*
X628001Y400001D02*
D03*
X638001Y380001D02*
D03*
X628001Y360001D02*
D03*
X638001Y340001D02*
D03*
X628001Y320001D02*
D03*
X638001Y300001D02*
D03*
X628001Y280001D02*
D03*
X638001Y260001D02*
D03*
X628001Y240001D02*
D03*
X618001Y420001D02*
D03*
X608001Y400001D02*
D03*
X618001Y380001D02*
D03*
X608001Y360001D02*
D03*
X618001Y340001D02*
D03*
X608001Y320001D02*
D03*
X618001Y300001D02*
D03*
X608001Y280001D02*
D03*
X618001Y260001D02*
D03*
X608001Y240001D02*
D03*
X598001Y420001D02*
D03*
X588001Y400001D02*
D03*
X598001Y380001D02*
D03*
X588001Y360001D02*
D03*
X598001Y340001D02*
D03*
X588001Y320001D02*
D03*
X598001Y300001D02*
D03*
X588001Y280001D02*
D03*
X598001Y260001D02*
D03*
X588001Y240001D02*
D03*
X578001Y420001D02*
D03*
X568001Y400001D02*
D03*
X578001Y380001D02*
D03*
X568001Y360001D02*
D03*
X578001Y340001D02*
D03*
X568001Y320001D02*
D03*
X578001Y300001D02*
D03*
X568001Y280001D02*
D03*
X578001Y260001D02*
D03*
X568001Y240001D02*
D03*
X558001Y420001D02*
D03*
X548001Y400001D02*
D03*
X558001Y380001D02*
D03*
X548001Y360001D02*
D03*
X558001Y340001D02*
D03*
X548001Y320001D02*
D03*
X558001Y300001D02*
D03*
X548001Y280001D02*
D03*
X558001Y260001D02*
D03*
X548001Y240001D02*
D03*
X538001Y420001D02*
D03*
X528001Y400001D02*
D03*
X538001Y380001D02*
D03*
X528001Y360001D02*
D03*
X538001Y340001D02*
D03*
X528001Y320001D02*
D03*
X538001Y300001D02*
D03*
X528001Y280001D02*
D03*
X538001Y260001D02*
D03*
X528001Y240001D02*
D03*
X518001Y420001D02*
D03*
X508001Y400001D02*
D03*
X518001Y380001D02*
D03*
X508001Y360001D02*
D03*
X518001Y340001D02*
D03*
X508001Y320001D02*
D03*
X518001Y300001D02*
D03*
X508001Y280001D02*
D03*
X518001Y260001D02*
D03*
X508001Y240001D02*
D03*
X488001Y400001D02*
D03*
X498001Y380001D02*
D03*
X488001Y360001D02*
D03*
X498001Y340001D02*
D03*
X488001Y320001D02*
D03*
X498001Y300001D02*
D03*
X488001Y280001D02*
D03*
X498001Y260001D02*
D03*
X638000Y285504D02*
D03*
X658095Y389004D02*
D03*
Y398504D02*
D03*
Y409000D02*
D03*
X667902D02*
D03*
X668000Y398504D02*
D03*
X667902Y389000D02*
D03*
X797000Y277000D02*
D03*
Y285504D02*
D03*
X787000D02*
D03*
Y277000D02*
D03*
X638228Y324504D02*
D03*
X638000Y272000D02*
D03*
X668000Y311000D02*
D03*
X709000Y751250D02*
D03*
X716500Y743750D02*
D03*
X701500D02*
D03*
Y758750D02*
D03*
X716500D02*
D03*
X908001Y860001D02*
D03*
X918001Y840001D02*
D03*
X908001Y820001D02*
D03*
X918001Y800001D02*
D03*
X908001Y780001D02*
D03*
X918001Y760001D02*
D03*
X908001Y740001D02*
D03*
X918001Y720001D02*
D03*
X898001Y880001D02*
D03*
X888001Y860001D02*
D03*
X898001Y760001D02*
D03*
X888001Y740001D02*
D03*
X898001Y720001D02*
D03*
X888001Y700001D02*
D03*
X878001Y880001D02*
D03*
X868001Y860001D02*
D03*
Y740001D02*
D03*
X878001Y720001D02*
D03*
X868001Y700001D02*
D03*
X858001Y880001D02*
D03*
X848001Y860001D02*
D03*
X858001Y840001D02*
D03*
Y760001D02*
D03*
X848001Y740001D02*
D03*
X858001Y720001D02*
D03*
X848001Y700001D02*
D03*
X838001Y880001D02*
D03*
X828001Y860001D02*
D03*
X838001Y840001D02*
D03*
Y760001D02*
D03*
X828001Y740001D02*
D03*
X838001Y720001D02*
D03*
X828001Y700001D02*
D03*
X818001Y720001D02*
D03*
X808001Y700001D02*
D03*
X788001D02*
D03*
X748001Y780001D02*
D03*
X728001D02*
D03*
Y700001D02*
D03*
X708001Y780001D02*
D03*
Y700001D02*
D03*
X688001D02*
D03*
X668001D02*
D03*
X648001D02*
D03*
X638001Y880001D02*
D03*
X628001Y860001D02*
D03*
X638001Y840001D02*
D03*
X628001Y820001D02*
D03*
X638001Y800001D02*
D03*
X628001Y780001D02*
D03*
X638001Y760001D02*
D03*
X628001Y740001D02*
D03*
X638001Y720001D02*
D03*
X628001Y700001D02*
D03*
X618001Y880001D02*
D03*
X608001Y860001D02*
D03*
X618001Y840001D02*
D03*
X608001Y820001D02*
D03*
X618001Y800001D02*
D03*
X608001Y780001D02*
D03*
X618001Y760001D02*
D03*
X608001Y740001D02*
D03*
X618001Y720001D02*
D03*
X608001Y700001D02*
D03*
X598001Y880001D02*
D03*
X588001Y860001D02*
D03*
X598001Y840001D02*
D03*
X588001Y820001D02*
D03*
X598001Y800001D02*
D03*
X588001Y780001D02*
D03*
X598001Y760001D02*
D03*
X588001Y740001D02*
D03*
X598001Y720001D02*
D03*
X588001Y700001D02*
D03*
X578001Y880001D02*
D03*
X568001Y860001D02*
D03*
X578001Y840001D02*
D03*
X568001Y820001D02*
D03*
X578001Y800001D02*
D03*
X568001Y780001D02*
D03*
X578001Y760001D02*
D03*
X568001Y740001D02*
D03*
X578001Y720001D02*
D03*
X568001Y700001D02*
D03*
X558001Y880001D02*
D03*
X548001Y860001D02*
D03*
X558001Y840001D02*
D03*
X548001Y820001D02*
D03*
X558001Y800001D02*
D03*
X548001Y780001D02*
D03*
X558001Y760001D02*
D03*
X548001Y740001D02*
D03*
X558001Y720001D02*
D03*
X548001Y700001D02*
D03*
X538001Y880001D02*
D03*
X528001Y860001D02*
D03*
X538001Y840001D02*
D03*
X528001Y820001D02*
D03*
X538001Y800001D02*
D03*
X528001Y780001D02*
D03*
X538001Y760001D02*
D03*
X528001Y740001D02*
D03*
X538001Y720001D02*
D03*
X528001Y700001D02*
D03*
X518001Y880001D02*
D03*
X508001Y860001D02*
D03*
X518001Y840001D02*
D03*
X508001Y820001D02*
D03*
X518001Y800001D02*
D03*
X508001Y780001D02*
D03*
X518001Y760001D02*
D03*
X508001Y740001D02*
D03*
X518001Y720001D02*
D03*
X508001Y700001D02*
D03*
X488001Y860001D02*
D03*
X498001Y840001D02*
D03*
X488001Y820001D02*
D03*
X498001Y800001D02*
D03*
X488001Y780001D02*
D03*
X498001Y760001D02*
D03*
X488001Y740001D02*
D03*
X498001Y720001D02*
D03*
X638000Y745504D02*
D03*
X658095Y849004D02*
D03*
Y858504D02*
D03*
Y869000D02*
D03*
X667902D02*
D03*
X668000Y858504D02*
D03*
X667902Y849000D02*
D03*
X797000Y737000D02*
D03*
Y745504D02*
D03*
X787000D02*
D03*
Y737000D02*
D03*
X638228Y784504D02*
D03*
X638000Y732000D02*
D03*
X668000Y771000D02*
D03*
X653009Y546250D02*
D03*
X644750Y517750D02*
D03*
X526500Y488750D02*
D03*
X840044Y508000D02*
D03*
X681000Y498500D02*
D03*
X634750Y493500D02*
D03*
X621212Y494252D02*
D03*
X621043Y503000D02*
D03*
X526500Y478750D02*
D03*
X528000Y518500D02*
D03*
X554250Y478750D02*
D03*
Y488500D02*
D03*
X645508Y503502D02*
D03*
X691000Y538500D02*
D03*
X683000Y542500D02*
D03*
Y534500D02*
D03*
X699000D02*
D03*
Y542500D02*
D03*
X675314Y553000D02*
D03*
X681000Y508000D02*
D03*
X578500Y469000D02*
D03*
X561000Y555373D02*
D03*
X602831D02*
D03*
X717000Y566000D02*
D03*
X553977Y518500D02*
D03*
X582000Y580000D02*
D03*
X540182D02*
D03*
X621212D02*
D03*
Y511669D02*
D03*
X659500Y555373D02*
D03*
X761000Y553000D02*
D03*
X518000Y555373D02*
D03*
X671000Y533000D02*
D03*
X598500Y488500D02*
D03*
Y501000D02*
D03*
Y513500D02*
D03*
X586000Y513500D02*
D03*
X573500D02*
D03*
Y501000D02*
D03*
Y488500D02*
D03*
X586000D02*
D03*
Y501000D02*
D03*
X761000Y562000D02*
D03*
X671195Y604866D02*
D03*
X691000Y604750D02*
D03*
X711000Y604866D02*
D03*
X175009Y546250D02*
D03*
X166750Y517750D02*
D03*
X48500Y488750D02*
D03*
X362044Y508000D02*
D03*
X203000Y498500D02*
D03*
X156750Y493500D02*
D03*
X143212Y494252D02*
D03*
X143043Y503000D02*
D03*
X48500Y478750D02*
D03*
X50000Y518500D02*
D03*
X76250Y478750D02*
D03*
Y488500D02*
D03*
X167508Y503502D02*
D03*
X213000Y538500D02*
D03*
X205000Y542500D02*
D03*
Y534500D02*
D03*
X221000D02*
D03*
Y542500D02*
D03*
X197314Y553000D02*
D03*
X203000Y508000D02*
D03*
X100500Y469000D02*
D03*
X83000Y555373D02*
D03*
X124831D02*
D03*
X239000Y566000D02*
D03*
X75977Y518500D02*
D03*
X104000Y580000D02*
D03*
X62182D02*
D03*
X143212D02*
D03*
Y511669D02*
D03*
X181500Y555373D02*
D03*
X283000Y553000D02*
D03*
X40000Y555373D02*
D03*
X193000Y533000D02*
D03*
X120500Y488500D02*
D03*
Y501000D02*
D03*
Y513500D02*
D03*
X108000Y513500D02*
D03*
X95500D02*
D03*
Y501000D02*
D03*
Y488500D02*
D03*
X108000D02*
D03*
Y501000D02*
D03*
X283000Y562000D02*
D03*
X193195Y604866D02*
D03*
X213000Y604750D02*
D03*
X233000Y604866D02*
D03*
X231000Y751250D02*
D03*
X238500Y743750D02*
D03*
X223500D02*
D03*
Y758750D02*
D03*
X238500D02*
D03*
X430001Y860001D02*
D03*
X440001Y840001D02*
D03*
X430001Y820001D02*
D03*
X440001Y800001D02*
D03*
X430001Y780001D02*
D03*
X440001Y760001D02*
D03*
X430001Y740001D02*
D03*
X440001Y720001D02*
D03*
X420001Y880001D02*
D03*
X410001Y860001D02*
D03*
X420001Y760001D02*
D03*
X410001Y740001D02*
D03*
X420001Y720001D02*
D03*
X410001Y700001D02*
D03*
X400001Y880001D02*
D03*
X390001Y860001D02*
D03*
Y740001D02*
D03*
X400001Y720001D02*
D03*
X390001Y700001D02*
D03*
X380001Y880001D02*
D03*
X370001Y860001D02*
D03*
X380001Y840001D02*
D03*
Y760001D02*
D03*
X370001Y740001D02*
D03*
X380001Y720001D02*
D03*
X370001Y700001D02*
D03*
X360001Y880001D02*
D03*
X350001Y860001D02*
D03*
X360001Y840001D02*
D03*
Y760001D02*
D03*
X350001Y740001D02*
D03*
X360001Y720001D02*
D03*
X350001Y700001D02*
D03*
X340001Y720001D02*
D03*
X330001Y700001D02*
D03*
X310001D02*
D03*
X270001Y780001D02*
D03*
X250001D02*
D03*
Y700001D02*
D03*
X230001Y780001D02*
D03*
Y700001D02*
D03*
X210001D02*
D03*
X190001D02*
D03*
X170001D02*
D03*
X160001Y880001D02*
D03*
X150001Y860001D02*
D03*
X160001Y840001D02*
D03*
X150001Y820001D02*
D03*
X160001Y800001D02*
D03*
X150001Y780001D02*
D03*
X160001Y760001D02*
D03*
X150001Y740001D02*
D03*
X160001Y720001D02*
D03*
X150001Y700001D02*
D03*
X140001Y880001D02*
D03*
X130001Y860001D02*
D03*
X140001Y840001D02*
D03*
X130001Y820001D02*
D03*
X140001Y800001D02*
D03*
X130001Y780001D02*
D03*
X140001Y760001D02*
D03*
X130001Y740001D02*
D03*
X140001Y720001D02*
D03*
X130001Y700001D02*
D03*
X120001Y880001D02*
D03*
X110001Y860001D02*
D03*
X120001Y840001D02*
D03*
X110001Y820001D02*
D03*
X120001Y800001D02*
D03*
X110001Y780001D02*
D03*
X120001Y760001D02*
D03*
X110001Y740001D02*
D03*
X120001Y720001D02*
D03*
X110001Y700001D02*
D03*
X100001Y880001D02*
D03*
X90001Y860001D02*
D03*
X100001Y840001D02*
D03*
X90001Y820001D02*
D03*
X100001Y800001D02*
D03*
X90001Y780001D02*
D03*
X100001Y760001D02*
D03*
X90001Y740001D02*
D03*
X100001Y720001D02*
D03*
X90001Y700001D02*
D03*
X80001Y880001D02*
D03*
X70001Y860001D02*
D03*
X80001Y840001D02*
D03*
X70001Y820001D02*
D03*
X80001Y800001D02*
D03*
X70001Y780001D02*
D03*
X80001Y760001D02*
D03*
X70001Y740001D02*
D03*
X80001Y720001D02*
D03*
X70001Y700001D02*
D03*
X60001Y880001D02*
D03*
X50001Y860001D02*
D03*
X60001Y840001D02*
D03*
X50001Y820001D02*
D03*
X60001Y800001D02*
D03*
X50001Y780001D02*
D03*
X60001Y760001D02*
D03*
X50001Y740001D02*
D03*
X60001Y720001D02*
D03*
X50001Y700001D02*
D03*
X40001Y880001D02*
D03*
X30001Y860001D02*
D03*
X40001Y840001D02*
D03*
X30001Y820001D02*
D03*
X40001Y800001D02*
D03*
X30001Y780001D02*
D03*
X40001Y760001D02*
D03*
X30001Y740001D02*
D03*
X40001Y720001D02*
D03*
X30001Y700001D02*
D03*
X10001Y860001D02*
D03*
X20001Y840001D02*
D03*
X10001Y820001D02*
D03*
X20001Y800001D02*
D03*
X10001Y780001D02*
D03*
X20001Y760001D02*
D03*
X10001Y740001D02*
D03*
X20001Y720001D02*
D03*
X160000Y745504D02*
D03*
X180095Y849004D02*
D03*
Y858504D02*
D03*
Y869000D02*
D03*
X189902D02*
D03*
X190000Y858504D02*
D03*
X189902Y849000D02*
D03*
X319000Y737000D02*
D03*
Y745504D02*
D03*
X309000D02*
D03*
Y737000D02*
D03*
X160228Y784504D02*
D03*
X160000Y732000D02*
D03*
X190000Y771000D02*
D03*
X231000Y291250D02*
D03*
X238500Y283750D02*
D03*
X223500D02*
D03*
Y298750D02*
D03*
X238500D02*
D03*
X430001Y400001D02*
D03*
X440001Y380001D02*
D03*
X430001Y360001D02*
D03*
X440001Y340001D02*
D03*
X430001Y320001D02*
D03*
X440001Y300001D02*
D03*
X430001Y280001D02*
D03*
X440001Y260001D02*
D03*
X420001Y420001D02*
D03*
X410001Y400001D02*
D03*
X420001Y300001D02*
D03*
X410001Y280001D02*
D03*
X420001Y260001D02*
D03*
X410001Y240001D02*
D03*
X400001Y420001D02*
D03*
X390001Y400001D02*
D03*
Y280001D02*
D03*
X400001Y260001D02*
D03*
X390001Y240001D02*
D03*
X380001Y420001D02*
D03*
X370001Y400001D02*
D03*
X380001Y380001D02*
D03*
Y300001D02*
D03*
X370001Y280001D02*
D03*
X380001Y260001D02*
D03*
X370001Y240001D02*
D03*
X360001Y420001D02*
D03*
X350001Y400001D02*
D03*
X360001Y380001D02*
D03*
Y300001D02*
D03*
X350001Y280001D02*
D03*
X360001Y260001D02*
D03*
X350001Y240001D02*
D03*
X340001Y260001D02*
D03*
X330001Y240001D02*
D03*
X310001D02*
D03*
X270001Y320001D02*
D03*
X250001D02*
D03*
Y240001D02*
D03*
X230001Y320001D02*
D03*
Y240001D02*
D03*
X210001D02*
D03*
X190001D02*
D03*
X170001D02*
D03*
X160001Y420001D02*
D03*
X150001Y400001D02*
D03*
X160001Y380001D02*
D03*
X150001Y360001D02*
D03*
X160001Y340001D02*
D03*
X150001Y320001D02*
D03*
X160001Y300001D02*
D03*
X150001Y280001D02*
D03*
X160001Y260001D02*
D03*
X150001Y240001D02*
D03*
X140001Y420001D02*
D03*
X130001Y400001D02*
D03*
X140001Y380001D02*
D03*
X130001Y360001D02*
D03*
X140001Y340001D02*
D03*
X130001Y320001D02*
D03*
X140001Y300001D02*
D03*
X130001Y280001D02*
D03*
X140001Y260001D02*
D03*
X130001Y240001D02*
D03*
X120001Y420001D02*
D03*
X110001Y400001D02*
D03*
X120001Y380001D02*
D03*
X110001Y360001D02*
D03*
X120001Y340001D02*
D03*
X110001Y320001D02*
D03*
X120001Y300001D02*
D03*
X110001Y280001D02*
D03*
X120001Y260001D02*
D03*
X110001Y240001D02*
D03*
X100001Y420001D02*
D03*
X90001Y400001D02*
D03*
X100001Y380001D02*
D03*
X90001Y360001D02*
D03*
X100001Y340001D02*
D03*
X90001Y320001D02*
D03*
X100001Y300001D02*
D03*
X90001Y280001D02*
D03*
X100001Y260001D02*
D03*
X90001Y240001D02*
D03*
X80001Y420001D02*
D03*
X70001Y400001D02*
D03*
X80001Y380001D02*
D03*
X70001Y360001D02*
D03*
X80001Y340001D02*
D03*
X70001Y320001D02*
D03*
X80001Y300001D02*
D03*
X70001Y280001D02*
D03*
X80001Y260001D02*
D03*
X70001Y240001D02*
D03*
X60001Y420001D02*
D03*
X50001Y400001D02*
D03*
X60001Y380001D02*
D03*
X50001Y360001D02*
D03*
X60001Y340001D02*
D03*
X50001Y320001D02*
D03*
X60001Y300001D02*
D03*
X50001Y280001D02*
D03*
X60001Y260001D02*
D03*
X50001Y240001D02*
D03*
X40001Y420001D02*
D03*
X30001Y400001D02*
D03*
X40001Y380001D02*
D03*
X30001Y360001D02*
D03*
X40001Y340001D02*
D03*
X30001Y320001D02*
D03*
X40001Y300001D02*
D03*
X30001Y280001D02*
D03*
X40001Y260001D02*
D03*
X30001Y240001D02*
D03*
X10001Y400001D02*
D03*
X20001Y380001D02*
D03*
X10001Y360001D02*
D03*
X20001Y340001D02*
D03*
X10001Y320001D02*
D03*
X20001Y300001D02*
D03*
X10001Y280001D02*
D03*
X20001Y260001D02*
D03*
X160000Y285504D02*
D03*
X180095Y389004D02*
D03*
Y398504D02*
D03*
Y409000D02*
D03*
X189902D02*
D03*
X190000Y398504D02*
D03*
X189902Y389000D02*
D03*
X319000Y277000D02*
D03*
Y285504D02*
D03*
X309000D02*
D03*
Y277000D02*
D03*
X160228Y324504D02*
D03*
X160000Y272000D02*
D03*
X190000Y311000D02*
D03*
X175009Y86250D02*
D03*
X166750Y57750D02*
D03*
X48500Y28750D02*
D03*
X362044Y48000D02*
D03*
X203000Y38500D02*
D03*
X156750Y33500D02*
D03*
X143212Y34252D02*
D03*
X143043Y43000D02*
D03*
X48500Y18750D02*
D03*
X50000Y58500D02*
D03*
X76250Y18750D02*
D03*
Y28500D02*
D03*
X167508Y43502D02*
D03*
X213000Y78500D02*
D03*
X205000Y82500D02*
D03*
Y74500D02*
D03*
X221000D02*
D03*
Y82500D02*
D03*
X197314Y93000D02*
D03*
X203000Y48000D02*
D03*
X100500Y9000D02*
D03*
X83000Y95373D02*
D03*
X124831D02*
D03*
X239000Y106000D02*
D03*
X75977Y58500D02*
D03*
X104000Y120000D02*
D03*
X62182D02*
D03*
X143212D02*
D03*
Y51669D02*
D03*
X181500Y95373D02*
D03*
X283000Y93000D02*
D03*
X40000Y95373D02*
D03*
X193000Y73000D02*
D03*
X120500Y28500D02*
D03*
Y41000D02*
D03*
Y53500D02*
D03*
X108000Y53500D02*
D03*
X95500D02*
D03*
Y41000D02*
D03*
Y28500D02*
D03*
X108000D02*
D03*
Y41000D02*
D03*
X283000Y102000D02*
D03*
X193195Y144866D02*
D03*
X213000Y144750D02*
D03*
X233000Y144866D02*
D03*
D40*
X882891Y299865D02*
D03*
Y350665D02*
D03*
Y325265D02*
D03*
Y759865D02*
D03*
Y810665D02*
D03*
Y785265D02*
D03*
X404891Y759865D02*
D03*
Y810665D02*
D03*
Y785265D02*
D03*
Y299865D02*
D03*
Y350665D02*
D03*
Y325265D02*
D03*
D41*
X882891Y376065D02*
D03*
Y836065D02*
D03*
X404891D02*
D03*
Y376065D02*
D03*
D42*
X671195Y144866D02*
X690884D01*
X691000Y144750D01*
X710884D01*
X711000Y144866D01*
X671195Y604866D02*
X690884D01*
X691000Y604750D01*
X710884D01*
X711000Y604866D01*
X193195D02*
X212884D01*
X213000Y604750D01*
X232884D01*
X233000Y604866D01*
X193195Y144866D02*
X212884D01*
X213000Y144750D01*
X232884D01*
X233000Y144866D01*
M02*
