M48
;Layer_Color=9474304
;FILE_FORMAT=4:4
METRIC,LZ
;TYPE=PLATED
T1F00S00C0.3000
T2F00S00C0.7000
T3F00S00C0.9000
T4F00S00C1.1000
;TYPE=NON_PLATED
T5F00S00C1.8000
%
T01
X00761Y00093
Y00102
X00840044Y00048
X00848001Y00240001
X00868001
X00888001
X00898001Y00260001
X00918001
X00908001Y00280001
X00888001
X00868001
X00848001
X00828001
X00838001Y00300001
X00858001
X00898001
X00918001
X00908001Y00320001
X00878001Y00260001
X00858001
X00838001
X00818001
X00828001Y00240001
X00808001
X00788001
X00787Y00277
Y00285504
X00797
Y00277
X00748001Y00320001
X00728001
X00708001
X007015Y0029875
X00709Y0029125
X007165Y0028375
X007015
X007165Y0029875
X00668Y00311
X00638001Y00300001
X00638Y00285504
Y00272
X00638001Y00260001
X00618001
X00598001
X00578001
X00558001
X00538001
X00518001
X00498001
X00508001Y00280001
X00528001
X00548001
X00568001
X00588001
X00608001
X00628001
X00618001Y00300001
X00598001
X00578001
X00558001
X00538001
X00518001
X00498001
X00508001Y00320001
X00528001
X00548001
X00568001
X00588001
X00608001
X00628001
X00638228Y00324504
X00648001Y00240001
X00668001
X00688001
X00708001
X00728001
X00628001
X00608001
X00588001
X00568001
X00548001
X00528001
X00508001
X00488001Y00280001
Y00320001
X00430001Y00320001
X00440001Y00300001
X00420001
X00430001Y00280001
X00410001
X00390001
X00370001
X00350001
X00360001Y00300001
X00380001
Y00260001
X00400001
X00420001
X00440001
X00410001Y00240001
X00390001
X00370001
X00350001
X00360001Y00260001
X00340001
X00362044Y00048
X00528Y000585
X00553977Y000585
X005735Y000535
X00586
Y00041
X005985
Y000535
X00621212Y00051669
X00621043Y00043
X00621212Y00034252
X0063475Y000335
X00645508Y00043502
X0064475Y0005775
X00653009Y0008625
X006595Y00095373
X00675314Y00093
X00683Y000825
Y000745
X00691Y000785
X00699Y000745
Y000825
X00671Y00073
X00681Y00048
X00681Y000385
X005985Y000285
X00586Y000285
X005735
Y00041
X0055425Y000285
Y0001875
X005265
Y0002875
X005785Y00009
X00561Y00095373
X00602831
X00621212Y0012
X00582
X00540182
X00518Y00095373
X00671195Y00144866
X00691Y0014475
X00711Y00144866
X00717Y00106
X00283Y00102
Y00093
X00239Y00106
X00221Y000825
Y000745
X00213Y000785
X00205Y000825
Y000745
X00193Y00073
X00197314Y00093
X001815Y00095373
X00175009Y0008625
X0016675Y0005775
X00167508Y00043502
X0015675Y000335
X00143212Y00034252
X00143043Y00043
X00143212Y00051669
X001205Y000535
Y00041
X00108
Y000535
X000955
Y00041
Y000285
X00108
X001205Y000285
X001005Y00009
X0007625Y0001875
Y000285
X000485Y0002875
Y0001875
X0005Y000585
X00075977Y000585
X00083Y00095373
X00124831
X00143212Y0012
X00104
X00062182
X0004Y00095373
X00030001Y00240001
X00050001
X00070001
X00090001
X00110001
X00130001
X00150001
X00170001
X00190001
X00210001
X00230001
X00250001
X002385Y0028375
X00231Y0029125
X002235Y0028375
Y0029875
X002385
X00230001Y00320001
X00250001
X00270001
X00309Y00285504
Y00277
X00319
Y00285504
X00310001Y00240001
X00330001
X00160001Y00260001
X0016Y00272
Y00285504
X00160001Y00300001
X00140001
X00120001
X00100001
X00080001
X00060001
X00040001
X00020001
X00030001Y00320001
X00050001
X00070001
X00090001
X00110001
X00130001
X00150001
X00160228Y00324504
X0019Y00311
X00150001Y00280001
X00130001
X00110001
X00090001
X00070001
X00050001
X00030001
X00010001
X00020001Y00260001
X00040001
X00060001
X00080001
X00100001
X00120001
X00140001
X00193195Y00144866
X00213Y0014475
X00233Y00144866
X00203Y00048
X00203Y000385
X00010001Y00320001
X00020001Y00340001
X00040001
X00060001
X00080001
X00100001
X00120001
X00140001
X00160001
X00150001Y00360001
X00130001
X00110001
X00090001
X00070001
X00050001
X00030001
X00010001
X00020001Y00380001
X00040001
X00060001
X00080001
X00100001
X00120001
X00140001
X00160001
X00180095Y00389004
Y00398504
X0019
X00189902Y00389
Y00409
X00180095
X00160001Y00420001
X00140001
X00120001
X00100001
X00080001
X00060001
X00040001
X00050001Y00400001
X00070001
X00090001
X00110001
X00130001
X00150001
X0015675Y004935
X00143212Y00494252
X00143043Y00503
X00143212Y00511669
X001205Y005135
Y00501
X00108
Y005135
X000955
Y00501
Y004885
X00108
X001205Y004885
X001005Y00469
X0007625Y0047875
Y004885
X000485Y0048875
Y0047875
X0005Y005185
X00075977Y005185
X00083Y00555373
X00124831
X00143212Y0058
X00104
X00062182
X0004Y00555373
X001815
X00175009Y0054625
X00197314Y00553
X00205Y005425
Y005345
X00213Y005385
X00221Y005345
Y005425
X00193Y00533
X00203Y00508
X00203Y004985
X00167508Y00503502
X0016675Y0051775
X00193195Y00604866
X00213Y0060475
X00233Y00604866
X00239Y00566
X00283Y00562
Y00553
X00310001Y00700001
X00330001
X00250001
X00230001
X00210001
X00190001
X00170001
X00150001
X00130001
X00110001
X00090001
X00070001
X00050001
X00030001
X00040001Y00720001
X00060001
X00080001
X00100001
X00120001
X00140001
X00160001
X0016Y00732
X00020001Y00720001
X00030001Y00400001
X00010001
X00350001
X00370001
X00390001
X00410001
X00430001
X00440001Y00380001
X00430001Y00360001
X00440001Y00340001
X00498001Y00340001
X00518001
X00538001
X00558001
X00578001
X00598001
X00618001
X00638001
X00628001Y00360001
X00608001
X00588001
X00568001
X00548001
X00528001
X00508001
X00488001
X00498001Y00380001
X00518001
X00538001
X00558001
X00578001
X00598001
X00618001
X00638001
X00658095Y00389004
Y00398504
X00668
X00667902Y00389
Y00409
X00658095
X00638001Y00420001
X00618001
X00598001
X00578001
X00558001
X00538001
X00518001
X00528001Y00400001
X00548001
X00568001
X00588001
X00608001
X00628001
X0063475Y004935
X00621212Y00494252
X00621043Y00503
X00621212Y00511669
X005985Y005135
Y00501
X00586
Y005135
X005735
Y00501
Y004885
X00586
X005985Y004885
X005785Y00469
X0055425Y0047875
Y004885
X005265Y0048875
Y0047875
X00528Y005185
X00553977Y005185
X00561Y00555373
X00602831
X00621212Y0058
X00582
X00540182
X00518Y00555373
X006595
X00653009Y0054625
X00675314Y00553
X00683Y005425
Y005345
X00691Y005385
X00699Y005345
Y005425
X00671Y00533
X00681Y00508
X00681Y004985
X00645508Y00503502
X0064475Y0051775
X00671195Y00604866
X00691Y0060475
X00711Y00604866
X00717Y00566
X00708001Y00700001
X00728001
X00688001
X00668001
X00648001
X00628001
X00608001
X00588001
X00568001
X00548001
X00528001
X00508001
X00518001Y00720001
X00538001
X00558001
X00578001
X00598001
X00618001
X00638001
X00638Y00732
X00498001Y00720001
X00440001
X00420001
X00400001
X00380001
X00360001
X00340001
X00350001Y00700001
X00370001
X00390001
X00410001
X00362044Y00508
X00360001Y00420001
X00380001
X00400001
X00420001
X00380001Y00380001
X00360001
X00488001Y00400001
X00508001
X00828001
X00848001
X00868001
X00888001
X00908001
X00918001Y00380001
X00908001Y00360001
X00918001Y00340001
X00898001Y00420001
X00878001
X00858001
X00838001
Y00380001
X00858001
X00840044Y00508
X00761Y00553
Y00562
X00788001Y00700001
X00808001
X00828001
X00848001
X00868001
X00888001
X00898001Y00720001
X00918001
X00878001
X00858001
X00838001
X00818001
X00828001Y00740001
X00848001
X00868001
X00888001
X00908001
X00918001Y00760001
X00898001
X00908001Y00780001
X00918001Y00800001
X00908001Y00820001
X00918001Y00840001
X00908001Y00860001
X00888001
X00868001
X00848001
X00828001
X00838001Y00880001
X00858001
X00878001
X00898001
X00858001Y00840001
X00838001
Y00760001
X00858001
X00797Y00745504
Y00737
X00787
Y00745504
X00748001Y00780001
X00728001
X00708001
X007015Y0075875
X00709Y0075125
X007165Y0074375
X007015
X007165Y0075875
X00668Y00771
X00638001Y00760001
X00638Y00745504
X00628001Y00740001
X00608001
X00588001
X00568001
X00548001
X00528001
X00508001
X00488001
X00498001Y00760001
X00518001
X00538001
X00558001
X00578001
X00598001
X00618001
X00628001Y00780001
X00638228Y00784504
X00638001Y00800001
X00618001
X00598001
X00578001
X00558001
X00538001
X00518001
X00498001
X00508001Y00820001
X00528001
X00548001
X00568001
X00588001
X00608001
X00628001
X00638001Y00840001
X00618001
X00598001
X00578001
X00558001
X00538001
X00518001
X00498001
X00508001Y00860001
X00528001
X00548001
X00568001
X00588001
X00608001
X00628001
X00638001Y00880001
X00618001
X00598001
X00578001
X00558001
X00538001
X00518001
X00488001Y00860001
Y00820001
Y00780001
X00508001
X00528001
X00548001
X00568001
X00588001
X00608001
X00658095Y00849004
Y00858504
X00668
X00667902Y00849
Y00869
X00658095
X00430001Y00860001
X00410001
X00390001
X00370001
X00350001
X00360001Y00880001
X00380001
X00400001
X00420001
X00440001Y00840001
X00430001Y00820001
X00440001Y00800001
X00430001Y00780001
X00440001Y00760001
X00420001
X00430001Y00740001
X00410001
X00390001
X00370001
X00350001
X00360001Y00760001
X00380001
Y00840001
X00360001
X00319Y00745504
Y00737
X00309
Y00745504
X002385Y0074375
X00231Y0075125
X002235Y0074375
Y0075875
X002385
X00230001Y00780001
X00250001
X00270001
X0019Y00771
X00160001Y00760001
X0016Y00745504
X00150001Y00740001
X00130001
X00110001
X00090001
X00070001
X00050001
X00030001
X00010001
X00020001Y00760001
X00040001
X00060001
X00080001
X00100001
X00120001
X00140001
X00150001Y00780001
X00160228Y00784504
X00160001Y00800001
X00140001
X00120001
X00100001
X00080001
X00060001
X00040001
X00020001
X00030001Y00820001
X00050001
X00070001
X00090001
X00110001
X00130001
X00150001
X00160001Y00840001
X00140001
X00120001
X00100001
X00080001
X00060001
X00040001
X00020001
X00030001Y00860001
X00050001
X00070001
X00090001
X00110001
X00130001
X00150001
X00160001Y00880001
X00140001
X00120001
X00100001
X00080001
X00060001
X00040001
X00010001Y00860001
Y00820001
Y00780001
X00030001
X00050001
X00070001
X00090001
X00110001
X00130001
X00180095Y00849004
Y00858504
X0019
X00189902Y00849
Y00869
X00180095
T02
X0050075Y00039139
Y00051839
Y00064539
Y00077239
X00671Y00176
X00691
X00711
X00233
X00213
X00193
X0002275Y00077239
Y00064539
Y00051839
Y00039139
Y00499139
Y00511839
Y00524539
Y00537239
X00193Y00636
X00213
X00233
X0050075Y00537239
Y00524539
Y00511839
Y00499139
X00671Y00636
X00691
X00711
T03
X00825Y00166
X0085
X00875
X006045Y00167
X005795
X005545
X005295
X00397Y00166
X00372
X00347
X001265Y00167
X001015
X000765
X000515
Y00627
X000765
X001015
X001265
X00347Y00626
X00372
X00397
X005295Y00627
X005545
X005795
X006045
X00825Y00626
X0085
X00875
T04
X007421Y00015
X00883Y000579
Y000833
Y001087
Y001341
X00882891Y00299865
Y00325265
X007167Y00015
X006913
X006659
X00405Y000579
Y000833
Y001087
Y001341
X00404891Y00299865
Y00325265
X002641Y00015
X002387
X002133
X001879
Y00475
X002133
X002387
X002641
X00405Y005179
Y005433
Y005687
Y005941
X00404891Y00376065
Y00350665
X006659Y00475
X006913
X007167
X007421
X00883Y005179
Y005433
Y005687
Y005941
X00882891Y00376065
Y00350665
Y00759865
Y00785265
Y00810665
Y00836065
X00404891
Y00810665
Y00785265
Y00759865
T05
X00916Y00015
Y00189
X00916Y00245
X00492Y00245
X00438Y00245
X00438Y00189
X00492Y00189
Y00015
X00438Y00015
X00014Y00015
Y00189
X00014Y00245
Y00419
X00014Y00475
Y00649
X00014Y00705
X00438Y00705
X00492Y00705
X00492Y00649
X00438Y00649
Y00475
X00492Y00475
X00492Y00419
X00438Y00419
X00916Y00419
X00916Y00475
Y00649
X00916Y00705
Y00879
X00492Y00879
X00438Y00879
X00014Y00879
M30
